<?xml version="1.0" standalone="no"?><!DOCTYPE svg PUBLIC "-//W3C//DTD SVG 1.1//EN" "http://www.w3.org/Graphics/SVG/1.1/DTD/svg11.dtd"><svg class="icon" height="512" viewBox="0 0 1024 1024" version="1.1" xmlns="http://www.w3.org/2000/svg"><path d="M956.032 558.912c-5.952-13.696-22.208-25.28-48.512-34.56-22.272-7.808-53.12-14.72-91.904-20.48-48.512-7.168-124.544-12.288-188.288-15.104v-160.64c0-12.224-10.88-22.912-26.432-25.856a466.752 466.752 0 0 0-173.824 0.256c-14.848 3.328-25.088 13.76-25.088 25.6v160.64c-63.744 2.816-146.496 7.936-195.008 15.168-38.72 5.76-69.632 12.608-91.904 20.48-33.92 11.904-51.072 27.648-51.072 46.848v377.856c0 12.48 11.2 22.912 26.368 25.856 6.912 3.968 15.168 7.68 24.704 11.008 22.272 7.872 53.184 14.72 91.904 20.48 76.096 11.328 200.96 17.536 307.648 17.536 106.816 0 224.96-6.208 300.992-17.536 38.72-5.76 69.632-12.608 91.904-20.48a149.76 149.76 0 0 0 24.128-10.688c16.128-2.368 28.352-13.184 28.352-26.176V571.264a21.696 21.696 0 0 0-3.968-12.352z m-328.704-16.704c49.088 2.24 112.384 5.952 151.936 10.88 50.048 6.336 78.528 13.12 94.336 18.176-15.808 5.056-44.288 11.84-94.336 18.112-39.552 4.992-102.848 8.704-151.936 10.88v-58.048z m-155.392-2.176v-190.08a391.04 391.04 0 0 1 85.44 0v252.48a2575.04 2575.04 0 0 1-85.44 0v-62.4z m-228.608 13.056c39.552-4.928 109.568-8.64 158.72-10.88v58.048c-49.152-2.176-119.168-5.888-158.72-10.88-50.048-6.272-78.528-13.056-94.336-18.112 15.808-5.056 44.288-11.84 94.336-18.176z m646.72 386.56c-17.216 4.992-62.4 11.52-110.784 17.664-68.736 8.64-173.952 13.376-264.64 13.376-90.688 0-202.56-4.736-271.296-13.44-45.952-5.76-90.24-15.552-109.44-21.056V624c19.84 5.44 44.288 10.368 73.088 14.656 76.096 11.264 200.96 17.536 307.648 17.536 106.816 0 224.96-6.272 300.992-17.536a623.36 623.36 0 0 0 74.496-15.04v316.096zM436.48 135.168L521.408 0l83.968 133.568c11.712 15.36 17.92 33.152 17.92 51.712 0 50.368-45.696 91.392-101.76 91.392-29.12 0-57.024-10.944-76.672-30.016-18.176-17.536-27.072-39.936-25.088-63.04 0 0-1.664-11.712 16.64-48.448z m37.12 30.592l-0.192 0.576a57.216 57.216 0 0 0-4.544 20.672 36.864 36.864 0 0 0 12.16 29.696c10.24 9.92 25.344 15.808 40.512 15.808 29.056 0 52.608-21.12 52.608-47.232 0-9.792-3.328-19.2-9.6-27.2l-0.768-0.896-42.304-67.392-43.072 68.48-0.576 0.768a46.08 46.08 0 0 0-3.968 6.336L473.6 165.76z" /></svg>