<?xml version="1.0" encoding="UTF-8" standalone="no"?>
<svg
   xmlns:dc="http://purl.org/dc/elements/1.1/"
   xmlns:cc="http://creativecommons.org/ns#"
   xmlns:rdf="http://www.w3.org/1999/02/22-rdf-syntax-ns#"
   xmlns:svg="http://www.w3.org/2000/svg"
   xmlns="http://www.w3.org/2000/svg"
   xmlns:sodipodi="http://sodipodi.sourceforge.net/DTD/sodipodi-0.dtd"
   xmlns:inkscape="http://www.inkscape.org/namespaces/inkscape"
   id="Layer_1"
   data-name="Layer 1"
   viewBox="0 0 40 40.000001"
   version="1.1"
   sodipodi:docname="agree.svg"
   width="40"
   height="40"
   inkscape:version="1.0 (4035a4fb49, 2020-05-01)">
  <metadata
     id="metadata13">
    <rdf:RDF>
      <cc:Work
         rdf:about="">
        <dc:format>image/svg+xml</dc:format>
        <dc:type
           rdf:resource="http://purl.org/dc/dcmitype/StillImage" />
        <dc:title>contract</dc:title>
      </cc:Work>
    </rdf:RDF>
  </metadata>
  <sodipodi:namedview
     inkscape:document-rotation="0"
     pagecolor="#ffffff"
     bordercolor="#666666"
     borderopacity="1"
     objecttolerance="10"
     gridtolerance="10"
     guidetolerance="10"
     inkscape:pageopacity="0"
     inkscape:pageshadow="2"
     inkscape:window-width="1920"
     inkscape:window-height="1017"
     id="namedview11"
     showgrid="false"
     inkscape:zoom="13.051092"
     inkscape:cx="19.338797"
     inkscape:cy="20.706709"
     inkscape:window-x="1912"
     inkscape:window-y="-8"
     inkscape:window-maximized="1"
     inkscape:current-layer="Layer_1" />
  <defs
     id="defs4">
    <style
       id="style2">.cls-1{fill-rule:evenodd;}</style>
  </defs>
  <title
     id="title6">contract</title>
  <path
     sodipodi:nodetypes="ccccccccssccccccccccccccccccccccccccccccccccccccccccccccccccccccsscccccccccccccccccccccccccccccccccccccccccccccccccccccssccccccccccccccccccccccc"
     class="cls-1"
     d="m 1.6663975,14.596149 0.7741014,9.565668 c 0.00419,0.633573 0.1966259,1.2516 0.5529265,1.775515 0.2487289,0.233898 0.5890181,0.344322 0.9276945,0.301038 h 2.9673803 c 0.3586851,0.04087 0.7145915,-0.09689 0.9522685,-0.368617 0.2663993,-0.432986 0.3969345,-0.935869 0.3747616,-1.44376 V 13.883485 c -0.00944,-0.05696 -0.00944,-0.115048 0,-0.172006 v 0 c -0.026109,-0.228236 -0.14921,-0.434181 -0.3378984,-0.565226 -0.3791467,-0.192767 -0.8053002,-0.273746 -1.2287297,-0.23346 -1.2963115,0 -2.629484,0.03685 -3.9135064,0 -0.3381039,-0.02521 -0.6715984,0.09041 -0.9215499,0.319471 -0.2272501,0.399143 -0.2848056,0.872792 -0.1597585,1.314743 v 0.04916 z M 31.352528,12.581031 c 0.04855,-0.05776 0.102004,-0.11119 0.159759,-0.159738 0.534977,-0.437038 1.215012,-0.656405 1.90453,-0.614366 h 3.606323 c 0.777907,-0.05605 1.55272,0.144666 2.20557,0.571361 0.624338,0.509279 0.909347,1.326304 0.73724,2.113414 l -0.982987,10.155459 c -0.0107,0.763807 -0.269369,1.503438 -0.737236,2.10727 -0.481478,0.538922 -1.191577,0.815199 -1.910673,0.743383 H 33.17106 c -0.516783,0.03852 -1.029363,-0.116998 -1.437611,-0.436191 -0.253087,-0.210875 -0.461893,-0.469796 -0.614366,-0.761812 h -1.228732 c 0.117753,0.457164 0.105003,0.938182 -0.03683,1.388461 -0.167246,0.49967 -0.476887,0.939569 -0.890832,1.265595 -0.405192,0.315961 -0.882128,0.526994 -1.388467,0.614364 -0.46366,0.07889 -0.939843,0.03657 -1.382318,-0.12287 -0.450535,0.476327 -1.018328,0.825902 -1.646499,1.013703 -0.575454,0.155879 -1.183835,0.140948 -1.750942,-0.04301 -0.499052,0.559923 -1.157036,0.954284 -1.886102,1.130434 -0.757668,0.147365 -1.542718,0.04383 -2.236288,-0.294895 -0.224006,0.166197 -0.467457,0.30442 -0.724951,0.411625 -0.400649,0.166301 -0.831976,0.245875 -1.265593,0.23346 -0.850598,0.0151 -1.676333,-0.287138 -2.316156,-0.847828 -0.517936,-0.512943 -0.949471,-1.106304 -1.27788,-1.757085 L 10.943361,25.544137 H 9.4811735 C 9.3904105,25.969483 9.2080111,26.369928 8.9466743,26.717576 8.446765,27.352152 7.6632413,27.69552 6.857832,27.63298 H 3.9272791 C 3.1906491,27.692391 2.4663962,27.417127 1.9551646,26.883467 1.3883425,26.145031 1.0700291,25.246009 1.045908,24.315422 v -0.06142 L 0.27179818,14.712893 C 0.07343163,13.886251 0.24380163,13.014206 0.73871769,12.323011 1.239707,11.792 1.9442889,11.501219 2.673967,11.524337 h 3.9687969 c 0.6883146,-0.0429 1.3740706,0.117323 1.9721167,0.460773 0.3948457,0.248016 0.6937713,0.622758 0.8478236,1.062851 h 3.0226668 c 0.733455,-0.525914 1.540936,-0.940008 2.396027,-1.228736 0.876189,-0.289474 1.803778,-0.389981 2.721635,-0.294895 l 1.032133,-1.228732 0.06142,-0.06143 c 0.313312,-0.3006263 0.669409,-0.5532069 1.056707,-0.7495254 0.402146,-0.2138897 0.829338,-0.3769242 1.271733,-0.4853484 0.704563,-0.1775862 1.430066,-0.2581974 2.156427,-0.2396018 0.773558,0.013505 1.54279,0.1186739 2.291579,0.3133256 v 0 c 1.263831,0.4185872 2.444793,1.054809 3.489595,1.879958 l 0.78639,0.540642 1.566632,1.050565 z M 17.6829,30.2256 16.239142,27.497818 c -0.182491,-0.341252 -0.0565,-0.765803 0.282606,-0.952264 0.3432,-0.177983 0.765711,-0.04985 0.95227,0.28875 l 1.628068,3.071827 c 0.457803,0.254635 0.988718,0.345648 1.505193,0.258032 0.427709,-0.107351 0.814416,-0.338089 1.112002,-0.663516 l -2.316158,-3.630894 c -0.49828,-0.790168 0.685725,-1.538605 1.185726,-0.749528 l 2.457462,3.901222 c 0.347769,0.147008 0.73435,0.175088 1.099711,0.07986 0.372807,-0.117858 0.709143,-0.32939 0.976842,-0.614368 l -2.211715,-4.171523 c -0.548252,-0.848493 0.819947,-1.587316 1.228732,-0.663514 l 2.334583,4.392711 c 0.259479,0.132202 0.555242,0.175382 0.841685,0.12287 0.268025,-0.04259 0.520145,-0.154872 0.731092,-0.325612 0.203861,-0.154977 0.354229,-0.369766 0.430058,-0.614365 0.08846,-0.293018 0.06436,-0.608501 -0.06757,-0.884687 -0.03062,-0.06581 -0.04935,-0.136523 -0.0553,-0.208873 -0.103619,-0.07376 -0.186224,-0.173285 -0.239608,-0.288753 l -5.209812,-9.3998 c -0.49764,-0.841679 -0.933835,-0.872397 -1.345462,-0.614364 -0.384953,0.256428 -0.74492,0.548515 -1.075138,0.872396 -0.215031,0.20275 -0.436199,0.399338 -0.651227,0.577503 l -0.927695,0.767957 c -0.61195,0.493733 -1.355316,0.797062 -2.13799,0.872401 -0.464661,0.03949 -0.932327,-0.02342 -1.370034,-0.184295 -0.439145,-0.161457 -0.827257,-0.437163 -1.124289,-0.798673 -0.338873,-0.423165 -0.540369,-0.939765 -0.577503,-1.480621 -0.01636,-0.208055 0.0601,-0.412713 0.208874,-0.559073 l 2.525041,-3.004246 c -0.394034,0.02275 -0.783893,0.09288 -1.161152,0.208873 -0.77458,0.270799 -1.505256,0.653731 -2.168707,1.136576 -0.122808,0.100893 -0.277263,0.155292 -0.436201,0.153593 H 9.6162763 v 9.743833 h 1.7263657 c 0.259154,0.0046 0.49495,0.150846 0.614364,0.380904 l 2.334589,4.073244 c 0.257036,0.517919 0.590472,0.994255 0.98913,1.413039 0.39606,0.333595 0.901635,0.508688 1.419182,0.491494 0.238018,0.0078 0.474873,-0.0363 0.694232,-0.129015 0.09576,-0.03972 0.188196,-0.08695 0.276463,-0.141283 z m 12.969251,-5.33269 0.09831,-11.058575 -1.744798,-1.161148 -0.810964,-0.534498 C 27.274645,11.4074 26.235512,10.840035 25.122868,10.461472 v 0 c -0.638483,-0.165861 -1.294151,-0.256583 -1.953683,-0.270322 -0.601793,-0.01739 -1.203176,0.04668 -1.787801,0.19046 -0.337219,0.08619 -0.66305,0.211984 -0.970698,0.374764 -0.265487,0.136378 -0.511397,0.307893 -0.731093,0.509922 l -1.155008,1.370036 c -0.0437,0.0816 -0.104478,0.152838 -0.178171,0.208873 l -3.200842,3.778343 c 0.08722,0.388718 0.371595,0.703395 0.749527,0.829396 0.244319,0.08531 0.5042,0.116747 0.76181,0.09215 0.506369,-0.05262 0.986576,-0.251105 1.382323,-0.571358 l 0.903118,-0.74953 c 0.208873,-0.165882 0.405481,-0.350188 0.614364,-0.528353 0.398893,-0.389963 0.83514,-0.739784 1.302454,-1.044422 1.112004,-0.669656 2.205572,-0.669656 3.280713,1.112004 L 29.202248,24.8929 Z M 5.6966337,21.968531 c 1.4089625,-2e-6 -0.8969674,2.305939 -0.8969716,0.896976 -0.00336,-0.496801 0.4001702,-0.900413 0.8969716,-0.896976 z m 28.8751683,0 c 1.410969,-0.0096 -0.890794,2.307977 -0.890832,0.896976 -0.0036,-0.48727 0.385218,-0.886905 0.872398,-0.896976 z"
     id="path8"
     style="stroke-width:0.999999" />
</svg>
