<?xml version="1.0" encoding="UTF-8" standalone="no"?>
<svg
   xmlns:dc="http://purl.org/dc/elements/1.1/"
   xmlns:cc="http://creativecommons.org/ns#"
   xmlns:rdf="http://www.w3.org/1999/02/22-rdf-syntax-ns#"
   xmlns:svg="http://www.w3.org/2000/svg"
   xmlns="http://www.w3.org/2000/svg"
   xmlns:sodipodi="http://sodipodi.sourceforge.net/DTD/sodipodi-0.dtd"
   xmlns:inkscape="http://www.inkscape.org/namespaces/inkscape"
   sodipodi:docname="barcode.svg"
   inkscape:version="1.0 (4035a4fb49, 2020-05-01)"
   id="svg8"
   version="1.1"
   viewBox="0 0 10.583333 10.583334"
   height="40"
   width="40">
  <defs
     id="defs2" />
  <sodipodi:namedview
     inkscape:window-maximized="1"
     inkscape:window-y="-8"
     inkscape:window-x="-8"
     inkscape:window-height="1017"
     inkscape:window-width="1920"
     units="px"
     showgrid="false"
     inkscape:document-rotation="0"
     inkscape:current-layer="layer1"
     inkscape:document-units="px"
     inkscape:cy="11.432154"
     inkscape:cx="1.4794748"
     inkscape:zoom="15.839192"
     inkscape:pageshadow="2"
     inkscape:pageopacity="0.0"
     borderopacity="1.0"
     bordercolor="#666666"
     pagecolor="#ffffff"
     id="base" />
  <metadata
     id="metadata5">
    <rdf:RDF>
      <cc:Work
         rdf:about="">
        <dc:format>image/svg+xml</dc:format>
        <dc:type
           rdf:resource="http://purl.org/dc/dcmitype/StillImage" />
        <dc:title></dc:title>
      </cc:Work>
    </rdf:RDF>
  </metadata>
  <g
     id="layer1"
     inkscape:groupmode="layer"
     inkscape:label="Calque 1">
    <path
       sodipodi:nodetypes="ccccccccccccccccsccccccccccccccccccccccccccccccccccccccccccscscccssccsccccccssccccscccscscccscccccccsscccccsssssssccccsssccsssscccccssssccssscccsssscc"
       d="m 2.7024089,0.13009152 c -0.044437,2.804e-5 -0.1017202,0.001166 -0.1775897,0.002738 -0.432101,0.008928 -0.3950903,-0.0500551 -0.4112885,0.65557297 -0.00706,0.30745951 -0.013728,1.72272211 -0.01484,3.14505211 l -0.00203,2.5860703 0.054458,0.051967 c 0.037029,0.035326 0.083012,0.054879 0.1436043,0.061066 0.049022,0.00505 0.1984319,0.00571 0.332026,0.00165 0.2126086,-0.00653 0.2502948,-0.012895 0.3020756,-0.051182 l 0.059143,-0.043738 V 3.384086 0.22887872 l -0.077395,-0.051208 c -0.057133,-0.0378082 -0.07485,-0.0476632 -0.2081625,-0.0475792 z m 1.8246658,3.5102e-4 c -0.1881508,-0.00219 -0.2592796,0.013124 -0.3055148,0.0593589 -0.037699,0.0376994 -0.038507,0.08651 -0.038183,2.32125686 L 4.1837281,4.793834 4.2264331,4.72451 C 4.3819177,4.472253 4.4763921,4.351787 4.6914484,4.1314882 L 4.9343005,3.8827059 4.9350047,2.0589603 4.935709,0.2352144 4.8846638,0.18720179 c -0.046525,-0.0437551 -0.070474,-0.0486226 -0.2695255,-0.0547821 -0.031923,-9.8426e-4 -0.061185,-0.001662 -0.088064,-0.001977 z m -0.9147832,4.612e-4 c -0.044474,-0.002175 -0.090414,0.0177573 -0.138351,0.0598465 l -0.070028,0.061471 V 3.3858727 6.5195246 l 0.054484,0.050752 c 0.029958,0.027915 0.067823,0.055607 0.084164,0.061554 0.01634,0.00596 0.035812,0.011513 0.043274,0.012374 0.031087,0.00356 0.1282009,-0.043597 0.169655,-0.08243 l 0.044574,-0.041728 -0.00146,-1.5860658 C 3.7977962,4.0616423 3.7905869,2.6447973 3.7825963,1.7854277 L 3.7680813,0.22294816 3.7136235,0.17609996 C 3.6805625,0.14766216 3.6468815,0.13259746 3.6122915,0.13090374 Z M 9.604556,0.13106619 C 9.4878879,0.13159595 9.3958039,0.13724471 9.3648459,0.14655634 9.2254296,0.18850746 9.2357188,-0.0135494 9.2298257,2.803224 c -0.0038,1.813995 0.00116,2.5935704 0.017138,2.7135621 0.012365,0.092598 0.026674,0.3688969 0.031794,0.6140074 0.00521,0.2501651 0.017907,0.4560432 0.028924,0.4693208 0.010786,0.013011 0.052348,0.027642 0.092369,0.032522 0.087586,0.010686 0.5922313,-0.00587 0.6308533,-0.020661 0.07647,-0.029346 0.07556,0.0067 0.08121,-3.2276732 l 0.0055,-3.13273078 -0.04831,-0.0561907 -0.04831,-0.0561907 -0.292923,-0.006906 c -0.043,-0.001009 -0.08462,-0.001398 -0.123512,-0.001216 z m -3.4332356,1.1e-4 c -0.1684109,2.8304e-4 -0.3045261,0.00493 -0.3331091,0.0122942 -0.1240917,0.0319886 -0.1217232,0.00225 -0.1335848,1.68244311 -0.00586,0.8295319 -0.00552,1.5216597 7.582e-4,1.5382158 0.00919,0.023915 0.026137,0.026111 0.08698,0.011265 0.2435842,-0.059435 0.4152083,-0.076974 0.7539843,-0.076988 h 0.3614617 l -0.00114,-1.312207 C 6.9060448,1.264483 6.8982626,0.57283339 6.8893696,0.44922889 6.8659061,0.12310928 6.8962347,0.14085911 6.3477187,0.13239486 6.2871906,0.13146105 6.2274576,0.1310814 6.1713204,0.13117619 Z m 2.5104637,0.002655 c -0.069788,-0.001704 -0.1631828,0.0307032 -0.1824098,0.0699199 -0.0093,0.0189649 -0.019421,0.90119591 -0.022503,1.96052631 l -0.00561,1.9260532 0.1046907,0.1239716 c 0.05758,0.068181 0.1403257,0.1727592 0.1838723,0.2323992 l 0.079182,0.1084274 0.00504,-2.1366529 c 0.00479,-2.03009931 0.00325,-2.13972501 -0.030763,-2.19796231 -0.019689,-0.0337123 -0.059371,-0.069594 -0.088172,-0.0797229 -0.012392,-0.004359 -0.027223,-0.006567 -0.043328,-0.006956 z m -1.1835243,0.002357 c -0.023843,4.9784e-4 -0.047389,0.005972 -0.069623,0.0166266 -0.118155,0.0566307 -0.114196,0.001356 -0.1209114,1.69221931 L 7.3015754,3.39243 7.4958731,3.471882 c 0.1068711,0.043706 0.1965572,0.080479 0.1992806,0.081727 0.00272,0.00125 0.00495,-0.7407419 0.00495,-1.6488912 V 0.25352145 L 7.6491501,0.2025572 C 7.6046175,0.1580245 7.5507142,0.135091 7.4982612,0.13618452 Z m -6.218962,0.002572 c -0.057346,-8.4e-6 -0.1235147,4.356e-4 -0.1999574,4.356e-4 H 0.59591111 l -0.0607398,0.0581675 -0.0607671,0.0581675 V 3.3875307 6.5195304 l 0.0544844,0.052017 c 0.0395732,0.037799 0.0815376,0.054457 0.1534884,0.060933 0.05447,0.00488 0.2715906,0.00645 0.48248159,0.00347 0.3455867,-0.00488 0.4942637,-0.038539 0.4357416,-0.044465 l 0.052318,-0.039023 0.012077,-0.7505719 C 1.6818978,4.7500984 1.682533,0.85145409 1.6658642,0.51071009 1.6487521,0.16095388 1.6807241,0.13883194 1.2792995,0.13876858 Z M 6.5126617,3.7799946 c -0.2299677,0.00159 -0.6118198,0.064803 -0.7635431,0.1319332 -0.021788,0.00964 -0.097546,0.041891 -0.1683553,0.07168 C 5.2296169,4.1313337 4.8045635,4.4911048 4.5884225,4.8235433 4.3074731,5.255661 4.1960938,5.6674809 4.2200826,6.1854425 c 0.026673,0.5759107 0.2605921,1.1008696 0.6773209,1.5199648 0.2858969,0.2875199 0.6286787,0.4821005 1.0385659,0.5895548 0.2050492,0.053754 0.2613208,0.060255 0.5360997,0.061901 0.4039735,0.0024 0.7222016,-0.062877 0.999273,-0.2050212 l 0.07826,-0.040132 0.057111,0.05435 c 0.031414,0.0299 0.088073,0.09635 0.1258938,0.1476668 0.073903,0.1002733 0.07248,0.1267302 -0.010859,0.2021512 -0.022797,0.020628 -0.049485,0.050991 -0.041459,0.061388 L 8.5868135,9.7515838 C 9.4111665,11.152237 10.661829,10.20431 9.512698,9.1018335 L 8.4085731,7.9241553 c -0.029409,-0.031369 -0.06986,0.047096 -0.082107,0.043142 C 8.3034141,7.9598535 8.1399187,7.7372065 8.1373138,7.7097141 8.1365016,7.7011618 8.1920298,7.6254066 8.2606897,7.5413587 8.4810786,7.2715771 8.5732968,7.0972831 8.6983,6.7142326 L 8.7696823,6.4954813 V 6.066699 5.6378902 L 8.7012247,5.4288872 C 8.5716308,5.033263 8.4022564,4.7513717 8.1300596,4.4782211 7.921654,4.2690861 7.7581472,4.14794 7.5316219,4.034843 7.2532368,3.8958538 6.9668879,3.8184597 6.6008066,3.783244 6.5752676,3.780784 6.5455146,3.779774 6.5126617,3.7799946 Z m -0.022178,0.788673 c 0.4323416,-3.144e-4 0.7709912,0.1376377 1.0705742,0.433142 0.2247876,0.2217272 0.3919281,0.5283641 0.4360123,0.7999654 0.036469,0.2246817 0.017066,0.5871908 -0.03829,0.71526 -0.00942,0.021786 -0.036175,0.088644 -0.05944,0.1485601 C 7.7477646,7.0559482 7.3120467,7.4382816 6.8950023,7.5469078 6.7700349,7.5794547 6.2897376,7.585261 6.1417767,7.5560061 5.9641411,7.5208869 5.6408252,7.3411761 5.4591206,7.1765651 5.2818468,7.0159672 5.1016924,6.7179356 5.033886,6.4731121 4.9839292,6.2927355 4.9751089,5.9470134 5.0157151,5.7613457 5.0881288,5.4302429 5.3116351,5.0817623 5.5850687,4.8736413 5.842069,4.6780273 6.0630967,4.5915597 6.3532155,4.5731632 c 0.046791,-0.00297 0.092543,-0.00447 0.1372677,-0.0045 z"
       style="fill:#000000;stroke:none;stroke-width:0.661458;stroke-linecap:round;stroke-linejoin:round"
       id="path38" />
  </g>
</svg>
