<svg height="512" viewBox="0 0 64 64" width="512" xmlns="http://www.w3.org/2000/svg"><g id="bill-payment-invoice-4" data-name="bill-payment-invoice"><path d="m61 44h-1v-29a3 3 0 0 0 -3-3h-28v-7a1 1 0 0 0 -.445-.832l-3-2a1 1 0 0 0 -1-.063l-3.483 1.741-2.517-1.678a1 1 0 0 0 -1.11 0l-2.445 1.632-2.445-1.63a1 1 0 0 0 -1.555.83v9h-4a3 3 0 0 0 -3 3v29h-1a1 1 0 0 0 -1 1v16a1 1 0 0 0 1 1h58a1 1 0 0 0 1-1v-16a1 1 0 0 0 -1-1zm-32-21a1 1 0 0 1 0 2zm-16-18.131 1.445.963a1 1 0 0 0 1.11 0l2.445-1.632 2.445 1.63a1.006 1.006 0 0 0 1 .063l3.481-1.741 2.074 1.383v19.465h-14zm-3 19.131a1 1 0 0 1 1-1v2a1 1 0 0 1 -1-1zm-4-9a1 1 0 0 1 1-1h4v7a3 3 0 0 0 0 6h18a3 3 0 0 0 0-6v-7h28a1 1 0 0 1 1 1v29h-52zm54 45h-56v-14h56z"/><path d="m57 47h-50a1 1 0 0 0 -1 1v10a1 1 0 0 0 1 1h50a1 1 0 0 0 1-1v-10a1 1 0 0 0 -1-1zm-1 10h-48v-8h48z"/><path d="m32 56a3 3 0 1 0 -3-3 3 3 0 0 0 3 3zm0-4a1 1 0 1 1 -1 1 1 1 0 0 1 1-1z"/><path d="m55 16h-20a1 1 0 0 0 -1 1v6a1 1 0 0 0 1 1h20a1 1 0 0 0 1-1v-6a1 1 0 0 0 -1-1zm-1 6h-18v-4h18z"/><circle cx="39" cy="28" r="2"/><circle cx="45" cy="28" r="2"/><circle cx="51" cy="28" r="2"/><circle cx="39" cy="34" r="2"/><circle cx="45" cy="34" r="2"/><circle cx="51" cy="34" r="2"/><circle cx="39" cy="40" r="2"/><circle cx="45" cy="40" r="2"/><circle cx="51" cy="40" r="2"/><path d="m15 9h3v2h-3z"/><path d="m20 9h5v2h-5z"/><path d="m15 13h10v2h-10z"/><path d="m15 17h3v2h-3z"/><path d="m20 17h5v2h-5z"/></g></svg>