<?xml version="1.0" encoding="UTF-8" standalone="no"?>
<svg
   xmlns:dc="http://purl.org/dc/elements/1.1/"
   xmlns:cc="http://creativecommons.org/ns#"
   xmlns:rdf="http://www.w3.org/1999/02/22-rdf-syntax-ns#"
   xmlns:svg="http://www.w3.org/2000/svg"
   xmlns="http://www.w3.org/2000/svg"
   xmlns:sodipodi="http://sodipodi.sourceforge.net/DTD/sodipodi-0.dtd"
   xmlns:inkscape="http://www.inkscape.org/namespaces/inkscape"
   sodipodi:docname="calc.svg"
   inkscape:version="1.0 (4035a4fb49, 2020-05-01)"
   id="svg8"
   version="1.1"
   viewBox="0 0 6.3500001 6.3500002"
   height="24"
   width="24">
  <defs
     id="defs2" />
  <sodipodi:namedview
     inkscape:window-maximized="1"
     inkscape:window-y="-8"
     inkscape:window-x="-8"
     inkscape:window-height="1017"
     inkscape:window-width="1920"
     units="px"
     showgrid="false"
     inkscape:document-rotation="0"
     inkscape:current-layer="layer1"
     inkscape:document-units="mm"
     inkscape:cy="3.0845676"
     inkscape:cx="29.101471"
     inkscape:zoom="15.839192"
     inkscape:pageshadow="2"
     inkscape:pageopacity="0.0"
     borderopacity="1.0"
     bordercolor="#666666"
     pagecolor="#ffffff"
     id="base" />
  <metadata
     id="metadata5">
    <rdf:RDF>
      <cc:Work
         rdf:about="">
        <dc:format>image/svg+xml</dc:format>
        <dc:type
           rdf:resource="http://purl.org/dc/dcmitype/StillImage" />
        <dc:title></dc:title>
      </cc:Work>
    </rdf:RDF>
  </metadata>
  <g
     id="layer1"
     inkscape:groupmode="layer"
     inkscape:label="Calque 1">
    <path
       transform="scale(0.26458333)"
       d="M 5.7851562 1 C 4.7958707 1 4 1.7958706 4 2.7851562 L 4 21.214844 C 4 22.204129 4.7958707 23 5.7851562 23 L 18.214844 23 C 19.20413 23 20 22.204129 20 21.214844 L 20 2.7851562 C 20 1.7958706 19.20413 1 18.214844 1 L 5.7851562 1 z M 6.0742188 2 L 17.925781 2 C 18.520382 2 19 2.4796177 19 3.0742188 L 19 3.9257812 C 19 4.5203822 18.520382 5 17.925781 5 L 6.0742188 5 C 5.4796178 5 5 4.5203822 5 3.9257812 L 5 3.0742188 C 5 2.4796177 5.4796178 2 6.0742188 2 z M 7.7089844 7.6035156 L 8.8613281 7.6035156 L 8.8613281 9.6953125 L 10.759766 9.6953125 L 10.759766 10.783203 L 8.8613281 10.783203 L 8.8613281 12.873047 L 7.7089844 12.873047 L 7.7089844 10.783203 L 5.8105469 10.783203 L 5.8105469 9.6953125 L 7.7089844 9.6953125 L 7.7089844 7.6035156 z M 13.527344 9.7421875 L 17.152344 9.7421875 L 17.152344 10.925781 L 13.527344 10.925781 L 13.527344 9.7421875 z M 15.339844 15.363281 C 15.546065 15.363281 15.726368 15.429343 15.882812 15.564453 C 16.039257 15.699564 16.119141 15.889081 16.119141 16.130859 C 16.119141 16.379749 16.039257 16.571921 15.882812 16.707031 C 15.726369 16.842142 15.546065 16.910156 15.339844 16.910156 C 15.133623 16.910156 14.951367 16.842142 14.794922 16.707031 C 14.645588 16.571921 14.572266 16.379749 14.572266 16.130859 C 14.572266 15.889083 14.645588 15.699565 14.794922 15.564453 C 14.951367 15.429343 15.133622 15.363281 15.339844 15.363281 z M 6.78125 15.970703 L 8.2851562 17.474609 L 9.7890625 15.970703 L 10.546875 16.738281 L 9.0429688 18.242188 L 10.546875 19.736328 L 9.7890625 20.503906 L 8.2851562 19 L 6.78125 20.503906 L 6.0234375 19.736328 L 7.5292969 18.242188 L 6.0234375 16.738281 L 6.78125 15.970703 z M 12.865234 17.699219 L 17.814453 17.699219 L 17.814453 18.787109 L 12.865234 18.787109 L 12.865234 17.699219 z M 15.339844 19.576172 C 15.546065 19.576172 15.726368 19.644186 15.882812 19.779297 C 16.039257 19.914407 16.119141 20.10658 16.119141 20.355469 C 16.119141 20.597248 16.039257 20.784812 15.882812 20.919922 C 15.726369 21.055032 15.546065 21.123047 15.339844 21.123047 C 15.133623 21.123047 14.951367 21.055032 14.794922 20.919922 C 14.645588 20.784811 14.572266 20.597247 14.572266 20.355469 C 14.572266 20.106579 14.645588 19.914407 14.794922 19.779297 C 14.951367 19.644186 15.133622 19.576172 15.339844 19.576172 z "
       style="fill:#000000;stroke-width:2.5;stroke-linecap:round;stroke-linejoin:round"
       id="rect833" />
    <g
       style="font-weight:500;font-size:4.23333px;line-height:1.25;font-family:Ubuntu;-inkscape-font-specification:'Ubuntu Medium';letter-spacing:0px;word-spacing:0px;stroke-width:0.264583"
       id="text872"
       aria-label="
" />
  </g>
</svg>
