<?xml version="1.0" encoding="UTF-8" standalone="no"?>
<svg
   xmlns:dc="http://purl.org/dc/elements/1.1/"
   xmlns:cc="http://creativecommons.org/ns#"
   xmlns:rdf="http://www.w3.org/1999/02/22-rdf-syntax-ns#"
   xmlns:svg="http://www.w3.org/2000/svg"
   xmlns="http://www.w3.org/2000/svg"
   xmlns:sodipodi="http://sodipodi.sourceforge.net/DTD/sodipodi-0.dtd"
   xmlns:inkscape="http://www.inkscape.org/namespaces/inkscape"
   sodipodi:docname="card.svg"
   inkscape:version="1.0 (4035a4fb49, 2020-05-01)"
   id="svg8"
   version="1.1"
   viewBox="0 0 6.3499999 6.3500002"
   height="24"
   width="24">
  <defs
     id="defs2" />
  <sodipodi:namedview
     inkscape:window-maximized="1"
     inkscape:window-y="-8"
     inkscape:window-x="-8"
     inkscape:window-height="1017"
     inkscape:window-width="1920"
     units="px"
     showgrid="false"
     inkscape:document-rotation="0"
     inkscape:current-layer="layer1"
     inkscape:document-units="px"
     inkscape:cy="10.860472"
     inkscape:cx="10.156029"
     inkscape:zoom="7.279046"
     inkscape:pageshadow="2"
     inkscape:pageopacity="0.0"
     borderopacity="1.0"
     bordercolor="#666666"
     pagecolor="#ffffff"
     id="base" />
  <metadata
     id="metadata5">
    <rdf:RDF>
      <cc:Work
         rdf:about="">
        <dc:format>image/svg+xml</dc:format>
        <dc:type
           rdf:resource="http://purl.org/dc/dcmitype/StillImage" />
        <dc:title></dc:title>
      </cc:Work>
    </rdf:RDF>
  </metadata>
  <g
     id="layer1"
     inkscape:groupmode="layer"
     inkscape:label="Calque 1">
    <rect
       ry="0.24886633"
       rx="0.25410536"
       y="1.1840693"
       x="0.12573612"
       height="3.9818614"
       width="6.0985279"
       id="rect847"
       style="fill:none;stroke:#000000;stroke-width:0.251472;stroke-linecap:round;stroke-linejoin:round;stroke-miterlimit:4;stroke-dasharray:none;stroke-opacity:1" />
    <rect
       ry="0"
       rx="0"
       y="1.8520833"
       x="0"
       height="0.5291667"
       width="6.3499999"
       id="rect849"
       style="fill:#000000;fill-opacity:1;stroke:none;stroke-width:0.269188;stroke-linecap:round;stroke-linejoin:round;stroke-miterlimit:4;stroke-dasharray:none;stroke-opacity:1" />
    <path
       transform="scale(0.26458334)"
       d="M 19 14 C 18.628119 14 18.318802 14.316079 18.146484 14.765625 L 19.865234 14.765625 L 19.865234 14 L 19 14 z M 20.166016 14 L 20.166016 14.765625 L 21.853516 14.765625 C 21.681199 14.316079 21.371881 14 21 14 L 20.166016 14 z M 18.058594 15.066406 C 18.030012 15.206272 18 15.345723 18 15.5 C 18 15.610451 18.026051 15.70701 18.041016 15.810547 L 19.865234 15.810547 L 19.865234 15.066406 L 18.058594 15.066406 z M 20.166016 15.066406 L 20.166016 15.810547 L 21.958984 15.810547 C 21.973949 15.70701 22 15.610451 22 15.5 C 22 15.345723 21.969988 15.206272 21.941406 15.066406 L 20.166016 15.066406 z M 18.089844 16.109375 C 18.245614 16.6328 18.591883 17 19 17 L 19.865234 17 L 19.865234 16.109375 L 18.089844 16.109375 z M 20.166016 16.109375 L 20.166016 17 L 21 17 C 21.408117 17 21.754386 16.6328 21.910156 16.109375 L 20.166016 16.109375 z "
       style="fill:#000000;fill-opacity:1;stroke:none;stroke-width:0.779369;stroke-linecap:round;stroke-linejoin:round;stroke-miterlimit:4;stroke-dasharray:none;stroke-opacity:1"
       id="rect851" />
    <g
       transform="matrix(0.18094444,0,0,0.1714287,0.85395619,4.0914733)"
       style="font-style:normal;font-weight:normal;font-size:2.82222px;line-height:1.25;font-family:sans-serif;letter-spacing:0px;word-spacing:0px;fill:#000000;fill-opacity:1;stroke:none;stroke-width:0.264583"
       id="text855"
       aria-label="xxxx xxxx xxxx xxxx">
      <path
         id="path857"
         style="font-size:2.82222px;stroke-width:0.264583"
         d="m -0.32735868,-6.8894924 -0.55810505,0.7510302 0.58704383,0.7923714 h -0.29903406 l -0.44924014,-0.6063363 -0.4492401,0.6063363 h -0.299034 l 0.5994461,-0.8075298 -0.5484588,-0.7358718 h 0.2990341 l 0.409277,0.5498368 0.40927706,-0.5498368 z" />
      <path
         id="path859"
         style="font-size:2.82222px;stroke-width:0.264583"
         d="M 1.3428224,-6.8894924 0.78471731,-6.1384622 1.3717611,-5.3460908 H 1.0727271 L 0.62348696,-5.9524271 0.17424685,-5.3460908 h -0.29903406 l 0.59944616,-0.8075298 -0.54845879,-0.7358718 h 0.29903406 l 0.40927704,0.5498368 0.40927704,-0.5498368 z" />
      <path
         id="path861"
         style="font-size:2.82222px;stroke-width:0.264583"
         d="m 3.0130034,-6.8894924 -0.5581051,0.7510302 0.5870439,0.7923714 H 2.7429081 L 2.293668,-5.9524271 1.8444279,-5.3460908 H 1.5453938 L 2.14484,-6.1536206 1.5963812,-6.8894924 h 0.2990341 l 0.409277,0.5498368 0.409277,-0.5498368 z" />
      <path
         id="path863"
         style="font-size:2.82222px;stroke-width:0.264583"
         d="M 4.6831842,-6.8894924 4.1250791,-6.1384622 4.712123,-5.3460908 H 4.4130889 L 3.9638488,-5.9524271 3.5146087,-5.3460908 H 3.2155746 L 3.8150208,-6.1536206 3.266562,-6.8894924 h 0.2990341 l 0.409277,0.5498368 0.409277,-0.5498368 z" />
      <path
         id="path865"
         style="font-size:2.82222px;stroke-width:0.264583"
         d="m 7.2518459,-6.8894924 -0.5581051,0.7510302 0.5870439,0.7923714 H 6.9817506 L 6.5325105,-5.9524271 6.0832704,-5.3460908 H 5.7842363 L 6.3836825,-6.1536206 5.8352237,-6.8894924 h 0.299034 l 0.4092771,0.5498368 0.409277,-0.5498368 z" />
      <path
         id="path867"
         style="font-size:2.82222px;stroke-width:0.264583"
         d="m 8.9220272,-6.8894924 -0.5581051,0.7510302 0.5870438,0.7923714 H 8.6519319 L 8.2026918,-5.9524271 7.7534516,-5.3460908 H 7.4544176 L 8.0538637,-6.1536206 7.505405,-6.8894924 h 0.299034 l 0.4092771,0.5498368 0.409277,-0.5498368 z" />
      <path
         id="path869"
         style="font-size:2.82222px;stroke-width:0.264583"
         d="m 10.592207,-6.8894924 -0.558105,0.7510302 0.587044,0.7923714 H 10.322112 L 9.8728721,-5.9524271 9.423632,-5.3460908 H 9.1245979 L 9.7240441,-6.1536206 9.1755853,-6.8894924 h 0.299034 l 0.4092771,0.5498368 0.4092766,-0.5498368 z" />
      <path
         id="path871"
         style="font-size:2.82222px;stroke-width:0.264583"
         d="m 12.262389,-6.8894924 -0.558105,0.7510302 0.587044,0.7923714 h -0.299035 l -0.44924,-0.6063363 -0.44924,0.6063363 h -0.299034 l 0.599446,-0.8075298 -0.548458,-0.7358718 h 0.299034 l 0.409277,0.5498368 0.409277,-0.5498368 z" />
      <path
         id="path873"
         style="font-size:2.82222px;stroke-width:0.264583"
         d="m 14.83105,-6.8894924 -0.558105,0.7510302 0.587044,0.7923714 h -0.299034 l -0.44924,-0.6063363 -0.44924,0.6063363 h -0.299034 l 0.599446,-0.8075298 -0.548459,-0.7358718 h 0.299034 l 0.409277,0.5498368 0.409277,-0.5498368 z" />
      <path
         id="path875"
         style="font-size:2.82222px;stroke-width:0.264583"
         d="m 16.501232,-6.8894924 -0.558105,0.7510302 0.587043,0.7923714 h -0.299034 l -0.44924,-0.6063363 -0.44924,0.6063363 h -0.299034 l 0.599446,-0.8075298 -0.548458,-0.7358718 h 0.299034 l 0.409277,0.5498368 0.409277,-0.5498368 z" />
      <path
         id="path877"
         style="font-size:2.82222px;stroke-width:0.264583"
         d="m 18.171413,-6.8894924 -0.558105,0.7510302 0.587044,0.7923714 h -0.299034 l -0.44924,-0.6063363 -0.449241,0.6063363 h -0.299034 l 0.599447,-0.8075298 -0.548459,-0.7358718 h 0.299034 l 0.409277,0.5498368 0.409277,-0.5498368 z" />
      <path
         id="path879"
         style="font-size:2.82222px;stroke-width:0.264583"
         d="m 19.841592,-6.8894924 -0.558105,0.7510302 0.587044,0.7923714 h -0.299034 l -0.44924,-0.6063363 -0.44924,0.6063363 h -0.299034 l 0.599446,-0.8075298 -0.548459,-0.7358718 h 0.299034 l 0.409277,0.5498368 0.409277,-0.5498368 z" />
      <path
         id="path881"
         style="font-size:2.82222px;stroke-width:0.264583"
         d="m 22.410255,-6.8894924 -0.558105,0.7510302 0.587044,0.7923714 H 22.14016 l -0.44924,-0.6063363 -0.449241,0.6063363 h -0.299034 l 0.599447,-0.8075298 -0.548459,-0.7358718 h 0.299034 l 0.409277,0.5498368 0.409277,-0.5498368 z" />
      <path
         id="path883"
         style="font-size:2.82222px;stroke-width:0.264583"
         d="m 24.080436,-6.8894924 -0.558105,0.7510302 0.587044,0.7923714 h -0.299034 l -0.44924,-0.6063363 -0.44924,0.6063363 h -0.299034 l 0.599446,-0.8075298 -0.548459,-0.7358718 h 0.299034 l 0.409277,0.5498368 0.409277,-0.5498368 z" />
      <path
         id="path885"
         style="font-size:2.82222px;stroke-width:0.264583"
         d="m 25.750616,-6.8894924 -0.558105,0.7510302 0.587043,0.7923714 H 25.48052 l -0.44924,-0.6063363 -0.44924,0.6063363 h -0.299034 l 0.599446,-0.8075298 -0.548459,-0.7358718 h 0.299035 l 0.409277,0.5498368 0.409277,-0.5498368 z" />
      <path
         id="path887"
         style="font-size:2.82222px;stroke-width:0.264583"
         d="m 27.420797,-6.8894924 -0.558105,0.7510302 0.587044,0.7923714 h -0.299034 l -0.44924,-0.6063363 -0.449241,0.6063363 h -0.299034 l 0.599447,-0.8075298 -0.548459,-0.7358718 h 0.299034 l 0.409277,0.5498368 0.409277,-0.5498368 z" />
    </g>
    <g
       transform="matrix(0.07428863,0,0,0.07760509,2.8561295,3.7432404)"
       style="font-style:normal;font-weight:normal;font-size:6.23425px;line-height:1.25;font-family:sans-serif;letter-spacing:0px;word-spacing:0px;fill:#000000;fill-opacity:1;stroke:none;stroke-width:0.155857"
       id="text919"
       aria-label="xxx">
      <path
         id="path921"
         style="stroke-width:0.155857"
         d="m 0.41113386,3.9286682 -1.2328473,1.6590167 1.29677272,1.7503388 H -0.18550335 L -1.1778693,5.998634 -2.1702353,7.3380237 h -0.6605626 l 1.3241693,-1.7838235 -1.2115388,-1.625532 h 0.6605626 l 0.904088,1.2145829 0.90408804,-1.2145829 z" />
      <path
         id="path923"
         style="stroke-width:0.155857"
         d="M 4.1005436,3.9286682 2.8676963,5.5876849 4.164469,7.3380237 H 3.5039064 L 2.5115404,5.998634 1.5191744,7.3380237 H 0.8586118 L 2.1827811,5.5542002 0.97124229,3.9286682 H 1.6318049 L 2.5358929,5.1432511 3.439981,3.9286682 Z" />
      <path
         id="path925"
         style="stroke-width:0.155857"
         d="M 7.7899533,3.9286682 6.557106,5.5876849 7.8538787,7.3380237 H 7.1933161 L 6.2009501,5.998634 5.2085842,7.3380237 H 4.5480215 L 5.8721909,5.5542002 4.660652,3.9286682 h 0.6605627 l 0.904088,1.2145829 0.904088,-1.2145829 z" />
    </g>
    <g
       transform="matrix(0.04728497,0,0,0.04563294,0.53881237,3.8787782)"
       style="font-style:normal;font-weight:normal;font-size:10.5833px;line-height:1.25;font-family:sans-serif;letter-spacing:0px;word-spacing:0px;fill:#000000;fill-opacity:1;stroke:none;stroke-width:0.264583"
       id="text930"
       aria-label="xx/xx">
      <path
         id="path932"
         style="stroke-width:0.264583"
         d="M 5.2995317,3.8991677 3.2066429,6.7155243 5.4080519,9.6869097 H 4.2866769 L 2.6020305,7.4131539 0.9173842,9.6869097 H -0.20399081 L 2.0439268,6.6586804 -0.01278862,3.8991677 H 1.1085864 L 2.6433715,5.9610508 4.1781567,3.8991677 Z" />
      <path
         id="path934"
         style="stroke-width:0.264583"
         d="M 11.562695,3.8991677 9.4698064,6.7155243 11.671215,9.6869097 H 10.54984 L 8.8651941,7.4131539 7.1805478,9.6869097 H 6.0591728 L 8.3070904,6.6586804 6.2503749,3.8991677 H 7.37175 L 8.9065351,5.9610508 10.44132,3.8991677 Z" />
      <path
         id="path936"
         style="stroke-width:0.264583"
         d="m 14.704612,1.9716429 h 0.878497 l -2.687166,8.6971161 h -0.878497 z" />
      <path
         id="path938"
         style="stroke-width:0.264583"
         d="m 21.401857,3.8991677 -2.092889,2.8163566 2.201409,2.9713854 H 20.389002 L 18.704356,7.4131539 17.01971,9.6869097 H 15.898335 L 18.146252,6.6586804 16.089537,3.8991677 h 1.121375 l 1.534785,2.0618831 1.534785,-2.0618831 z" />
      <path
         id="path940"
         style="stroke-width:0.264583"
         d="M 27.66502,3.8991677 25.572131,6.7155243 27.77354,9.6869097 H 26.652165 L 24.967519,7.4131539 23.282872,9.6869097 H 22.161497 L 24.409415,6.6586804 22.352699,3.8991677 h 1.121375 l 1.534786,2.0618831 1.534785,-2.0618831 z" />
    </g>
  </g>
</svg>
