<?xml version="1.0" encoding="UTF-8" standalone="no"?>
<svg
   xmlns:dc="http://purl.org/dc/elements/1.1/"
   xmlns:cc="http://creativecommons.org/ns#"
   xmlns:rdf="http://www.w3.org/1999/02/22-rdf-syntax-ns#"
   xmlns:svg="http://www.w3.org/2000/svg"
   xmlns="http://www.w3.org/2000/svg"
   xmlns:sodipodi="http://sodipodi.sourceforge.net/DTD/sodipodi-0.dtd"
   xmlns:inkscape="http://www.inkscape.org/namespaces/inkscape"
   inkscape:version="1.0 (4035a4fb49, 2020-05-01)"
   height="40"
   width="40"
   sodipodi:docname="contract.svg"
   version="1.1"
   viewBox="0 0 40 40.000001"
   data-name="Layer 1"
   id="Layer_1">
  <metadata
     id="metadata13">
    <rdf:RDF>
      <cc:Work
         rdf:about="">
        <dc:format>image/svg+xml</dc:format>
        <dc:type
           rdf:resource="http://purl.org/dc/dcmitype/StillImage" />
        <dc:title>contract</dc:title>
      </cc:Work>
    </rdf:RDF>
  </metadata>
  <sodipodi:namedview
     inkscape:current-layer="Layer_1"
     inkscape:window-maximized="1"
     inkscape:window-y="-8"
     inkscape:window-x="-8"
     inkscape:cy="20.706709"
     inkscape:cx="19.338797"
     inkscape:zoom="13.051092"
     showgrid="false"
     id="namedview11"
     inkscape:window-height="1017"
     inkscape:window-width="1920"
     inkscape:pageshadow="2"
     inkscape:pageopacity="0"
     guidetolerance="10"
     gridtolerance="10"
     objecttolerance="10"
     borderopacity="1"
     bordercolor="#666666"
     pagecolor="#ffffff" />
  <defs
     id="defs4">
    <style
       id="style2">.cls-1{fill-rule:evenodd;}</style>
  </defs>
  <title
     id="title6">contract</title>
  <path
     style="stroke-width:1"
     id="path8"
     d="m 10.440123,10.586213 0.389633,4.814743 a 1.6080068,1.6080068 0 0 0 0.278308,0.893681 0.57517162,0.57517162 0 0 0 0.466942,0.151523 h 1.493589 a 0.55352537,0.55352537 0 0 0 0.479311,-0.185538 1.2802207,1.2802207 0 0 0 0.188631,-0.726697 v -5.306422 a 0.26593957,0.26593957 0 0 1 0,-0.08658 v 0 A 0.40200167,0.40200167 0 0 0 13.56646,9.8564247 1.128697,1.128697 0 0 0 12.947996,9.7389164 c -0.65248,0 -1.323513,0.018551 -1.969808,0 a 0.61846412,0.61846412 0 0 0 -0.463849,0.160801 0.86275744,0.86275744 0 0 0 -0.08041,0.6617566 v 0.02474 z m 22.617233,13.794842 3.030474,2.390364 a 0.9276962,0.9276962 0 0 1 0.154618,1.301867 l -1.323517,1.685314 -4.486955,-3.5438 1.326605,-1.679129 a 0.9276962,0.9276962 0 0 1 1.301867,-0.154616 z M 21.037505,36.979169 a 1.0111888,1.0111888 0 1 1 0,2.019284 H 5.3501645 A 2.353256,2.353256 0 0 1 3,36.648291 V 3.3501828 A 2.353256,2.353256 0 0 1 5.3501645,1.0000183 H 33.416064 a 2.353256,2.353256 0 0 1 2.362533,2.3501645 V 20.357945 c 0,1.100866 -0.473125,1.270944 -0.961709,1.30496 -0.488588,0.03401 -1.057575,-0.132969 -1.057575,-1.30496 V 3.3501828 A 0.30923207,0.30923207 0 0 0 33.660363,3.118258 0.33087829,0.33087829 0 0 0 33.428437,3.0193078 H 5.3501645 A 0.3432476,0.3432476 0 0 0 5.1151479,3.1151718 0.34943223,0.34943223 0 0 0 5.0192838,3.3501884 V 36.645203 a 0.30923207,0.30923207 0 0 0 0.09895,0.231923 0.33087829,0.33087829 0 0 0 0.2350166,0.09895 z M 10.291693,31.270745 a 1.0235581,1.0235581 0 0 1 0,-2.044024 h 14.422583 l -1.304959,1.682222 a 2.6470264,2.6470264 0 0 0 -0.256664,0.361802 z m 0.392724,-5.615655 a 1.0111888,1.0111888 0 0 1 0,-2.019284 h 16.534638 a 1.0111888,1.0111888 0 0 1 1.008097,1.011188 0.37417079,0.37417079 0 0 1 0,0.05875 2.5728107,2.5728107 0 0 0 -0.188632,0.309232 2.517149,2.517149 0 0 0 -0.386541,0.41437 l -0.142246,0.179357 a 1.0173735,1.0173735 0 0 1 -0.290678,0.04329 z m 19.252788,10.513891 c -1.048297,0.463847 -1.889407,0.692678 -2.934612,1.156528 -2.226471,0.766895 -2.164625,1.283312 -1.979086,-0.927696 l 0.432925,-3.766445 v 0 l 4.310695,-5.56618 4.486958,3.537615 -4.310696,5.566178 z m -3.710785,-2.928428 2.946982,2.325423 -2.062579,0.927698 c -1.614191,0.714327 -1.564714,1.057573 -1.301866,-0.618464 L 26.22642,33.246738 Z M 25.382217,9.5719317 a 0.65866427,0.65866427 0 0 1 0.08041,-0.080398 1.3822673,1.3822673 0 0 1 0.958619,-0.3092324 h 1.815191 a 1.7935459,1.7935459 0 0 1 1.110143,0.2875859 1.0761275,1.0761275 0 0 1 0.371079,1.0637578 l -0.494772,5.111607 a 1.7718997,1.7718997 0 0 1 -0.371078,1.060664 1.137974,1.137974 0 0 1 -0.96171,0.374171 H 26.29755 a 1.0482967,1.0482967 0 0 1 -0.723602,-0.219554 1.2554821,1.2554821 0 0 1 -0.309232,-0.383448 h -0.618465 a 1.2709438,1.2709438 0 0 1 -0.01854,0.698863 1.3606211,1.3606211 0 0 1 -0.448387,0.637019 1.5708989,1.5708989 0 0 1 -0.698865,0.309231 1.3729903,1.3729903 0 0 1 -0.695771,-0.06184 1.8832232,1.8832232 0 0 1 -0.828742,0.510233 1.5461602,1.5461602 0 0 1 -0.881312,-0.02165 1.8553923,1.8553923 0 0 1 -0.949342,0.568988 1.7873614,1.7873614 0 0 1 -1.125605,-0.148431 1.7255148,1.7255148 0 0 1 -0.364894,0.207186 1.5461602,1.5461602 0 0 1 -0.637018,0.117508 1.7224226,1.7224226 0 0 1 -1.165804,-0.426742 3.4015527,3.4015527 0 0 1 -0.643203,-0.884403 l -1.079221,-1.886315 h -0.735971 a 1.5059602,1.5059602 0 0 1 -0.269033,0.590634 1.2183743,1.2183743 0 0 1 -1.051389,0.460755 H 11.578106 A 1.2369283,1.2369283 0 0 1 10.58547,16.77086 2.2171938,2.2171938 0 0 1 10.127808,15.478271 v -0.03092 l -0.389637,-4.80238 a 1.4750369,1.4750369 0 0 1 0.235018,-1.2029135 1.283313,1.283313 0 0 1 0.97408,-0.4020014 h 1.997638 a 1.7718997,1.7718997 0 0 1 0.992637,0.2319237 1.0359274,1.0359274 0 0 1 0.42674,0.5349713 H 15.8857 A 4.5890038,4.5890038 0 0 1 17.091706,9.188487 3.2871368,3.2871368 0 0 1 18.461603,9.0400557 l 0.51951,-0.6184645 0.03092,-0.030919 a 2.2141016,2.2141016 0 0 1 0.531879,-0.3772632 2.7645346,2.7645346 0 0 1 0.640109,-0.2442933 4.0200167,4.0200167 0 0 1 1.085406,-0.1206001 4.9260666,4.9260666 0 0 1 1.153435,0.157708 v 0 A 5.7517162,5.7517162 0 0 1 24.1793,8.752474 l 0.395818,0.2721242 0.788542,0.5287865 z m -6.880414,8.8811443 -0.726695,-1.372991 a 0.35561687,0.35561687 0 0 1 0.142246,-0.479308 0.35870917,0.35870917 0 0 1 0.479311,0.145338 l 0.819465,1.546161 a 1.1596202,1.1596202 0 0 0 0.757618,0.129876 1.1317894,1.1317894 0 0 0 0.55971,-0.333971 l -1.165805,-1.827559 a 0.35303011,0.35303011 0 0 1 0.596819,-0.377264 l 1.236928,1.963624 a 0.86275744,0.86275744 0 0 0 0.553524,0.0402 1.1503433,1.1503433 0 0 0 0.49168,-0.309233 l -1.113236,-2.099682 a 0.35252453,0.35252453 0 1 1 0.618465,-0.33397 l 1.17508,2.211009 a 0.66794124,0.66794124 0 0 0 0.42365,0.06184 0.77926479,0.77926479 0 0 0 0.367985,-0.163892 0.61846412,0.61846412 0 0 0 0.216463,-0.309232 0.61846412,0.61846412 0 0 0 -0.03401,-0.445294 0.30923207,0.30923207 0 0 1 -0.02783,-0.105134 0.36798615,0.36798615 0 0 1 -0.120604,-0.145339 l -2.622285,-4.731256 c -0.25048,-0.423647 -0.470033,-0.439109 -0.677219,-0.309231 a 3.7107849,3.7107849 0 0 0 -0.541156,0.439108 c -0.108232,0.102047 -0.219555,0.201001 -0.327786,0.290678 l -0.466942,0.38654 a 2.0223776,2.0223776 0 0 1 -1.076127,0.439111 1.6049144,1.6049144 0 0 1 -0.689587,-0.09276 1.3235133,1.3235133 0 0 1 -0.565895,-0.402001 1.3389747,1.3389747 0 0 1 -0.290678,-0.74525 0.35561687,0.35561687 0 0 1 0.105134,-0.281401 L 17.87097,9.7296482 a 2.4738565,2.4738565 0 0 0 -0.584449,0.1051344 4.22411,4.22411 0 0 0 -1.091588,0.5720794 0.34015527,0.34015527 0 0 1 -0.219556,0.07731 h -1.53379 v 4.90442 h 0.868942 a 0.35561687,0.35561687 0 0 1 0.309232,0.191723 l 1.175082,2.05021 a 2.9036891,2.9036891 0 0 0 0.497864,0.711233 1.0544813,1.0544813 0 0 0 0.714325,0.247386 0.82874191,0.82874191 0 0 0 0.349433,-0.06494 0.9864503,0.9864503 0 0 0 0.139154,-0.07111 z m 6.527889,-2.684134 0.04948,-5.566178 -0.878219,-0.5844478 -0.408187,-0.2690316 a 5.151806,5.151806 0 0 0 -1.54616,-0.8442032 v 0 a 4.26431,4.26431 0 0 0 -0.983359,-0.1360629 3.3613523,3.3613523 0 0 0 -0.899864,0.095865 2.2202861,2.2202861 0 0 0 -0.488587,0.1886321 1.6729454,1.6729454 0 0 0 -0.367986,0.256662 l -0.581357,0.6895871 a 0.32469365,0.32469365 0 0 1 -0.08968,0.1051338 l -1.611098,1.9017755 a 0.57207932,0.57207932 0 0 0 0.377264,0.417465 0.9029576,0.9029576 0 0 0 0.383446,0.04638 1.3235133,1.3235133 0 0 0 0.695773,-0.287586 l 0.454572,-0.377264 c 0.105133,-0.08349 0.204092,-0.176262 0.309231,-0.265939 a 4.2859564,4.2859564 0 0 1 0.655572,-0.525695 c 0.559711,-0.337062 1.110143,-0.337062 1.6513,0.559711 l 2.548071,4.595187 z M 12.468685,14.296997 a 0.45147881,0.45147881 0 1 1 -0.451477,0.45148 0.44838647,0.44838647 0 0 1 0.451477,-0.45148 z m 14.533908,0 a 0.45147881,0.45147881 0 1 1 -0.448387,0.45148 0.44838647,0.44838647 0 0 1 0.439109,-0.45148 z"
     class="cls-1" />
</svg>
