<?xml version="1.0" encoding="UTF-8" standalone="no"?>
<svg
   xmlns:dc="http://purl.org/dc/elements/1.1/"
   xmlns:cc="http://creativecommons.org/ns#"
   xmlns:rdf="http://www.w3.org/1999/02/22-rdf-syntax-ns#"
   xmlns:svg="http://www.w3.org/2000/svg"
   xmlns="http://www.w3.org/2000/svg"
   xmlns:sodipodi="http://sodipodi.sourceforge.net/DTD/sodipodi-0.dtd"
   xmlns:inkscape="http://www.inkscape.org/namespaces/inkscape"
   inkscape:version="1.0 (4035a4fb49, 2020-05-01)"
   sodipodi:docname="crown.svg"
   id="svg4"
   version="1.1"
   viewBox="0 0 24 24"
   height="24"
   width="24">
  <metadata
     id="metadata10">
    <rdf:RDF>
      <cc:Work
         rdf:about="">
        <dc:format>image/svg+xml</dc:format>
        <dc:type
           rdf:resource="http://purl.org/dc/dcmitype/StillImage" />
      </cc:Work>
    </rdf:RDF>
  </metadata>
  <defs
     id="defs8" />
  <sodipodi:namedview
     inkscape:current-layer="svg4"
     inkscape:window-maximized="1"
     inkscape:window-y="-8"
     inkscape:window-x="-8"
     inkscape:cy="29.998942"
     inkscape:cx="3.1852347"
     inkscape:zoom="10.857086"
     showgrid="false"
     id="namedview6"
     inkscape:window-height="1017"
     inkscape:window-width="1920"
     inkscape:pageshadow="2"
     inkscape:pageopacity="0"
     guidetolerance="10"
     gridtolerance="10"
     objecttolerance="10"
     borderopacity="1"
     bordercolor="#666666"
     pagecolor="#ffffff" />
  <path
     d="m 12.019036,2.6013736 c -0.79834,-0.021723 -1.544929,0.568995 -1.544929,1.5298003 0,0.4665779 0.11875,0.7263627 0.679737,1.4846754 C 11.243624,5.7372127 10.8855,6.4471215 9.9873885,7.9273735 9.2744936,9.1023558 8.4644809,10.453228 8.1876219,10.92933 7.9107651,11.405431 7.6369457,11.796678 7.5788326,11.798956 7.5207207,11.801195 6.4558665,10.947948 5.2127931,9.9026808 3.9697182,8.8574138 2.9308197,7.9847189 2.9038779,7.9633688 2.8769346,7.9420211 2.9552362,7.7813466 3.0778557,7.6062854 3.3621492,7.2003931 3.365248,6.2514164 3.0836115,5.8492975 2.3341425,4.7792823 0.80322947,4.9617949 0.29345335,6.1818623 -0.09025844,7.1002135 0.49074676,8.0680324 1.558767,8.2899358 l 0.5482763,0.113984 0.5889657,4.6418292 c 0.3238502,2.553072 0.6398833,4.693266 0.7024306,4.755814 0.062549,0.06255 0.707949,0.268812 1.4343334,0.458288 1.146552,0.299076 1.9679562,0.448652 3.8256753,0.697213 0.229621,0.03072 1.9831097,0.03883 3.8966217,0.018 2.568153,-0.02795 3.8253,-0.101203 4.801199,-0.279877 1.631109,-0.298631 3.479285,-0.868103 3.479285,-1.072034 0,-0.08356 0.15434,-1.411498 0.343259,-2.951093 0.188921,-1.539594 0.423825,-3.581204 0.521932,-4.536973 l 0.178412,-1.7376852 0.486978,-0.08059 c 1.327198,-0.2190916 1.899099,-1.2429954 1.31983,-2.3631754 -0.621479,-1.2018086 -2.47321,-1.0312374 -2.861105,0.2634435 -0.15899,0.5306619 -0.133937,0.7147561 0.212319,1.5650133 0.06704,0.1646409 -0.263704,0.5126636 -1.256704,1.3221756 -0.7412,0.604241 -1.759699,1.4585142 -2.26327,1.8986212 -0.503573,0.440108 -0.980541,0.800236 -1.060036,0.799982 -0.0795,-2.53e-4 -0.4553,-0.548361 -0.834934,-1.21784 C 15.242599,9.9155528 14.444286,8.5606768 13.848032,7.5742075 13.251775,6.5877376 12.763999,5.7506505 12.763999,5.7139282 c 0,-0.036721 0.187716,-0.2807527 0.417336,-0.5422763 0.563054,-0.6412814 0.576423,-1.3994447 0.03495,-1.9969569 -0.34653,-0.3823815 -0.779067,-0.5619357 -1.197246,-0.5733144 z m 9.048905,16.2993504 c -0.154598,0 -0.729684,0.154582 -1.277833,0.34378 -2.0458,0.706113 -3.268092,0.83911 -7.722035,0.83911 -4.4396074,0 -5.7604702,-0.143793 -7.8461935,-0.853194 -1.1810915,-0.401715 -1.3996474,-0.407943 -1.7562054,-0.05139 -0.3667969,0.366797 -0.3528947,0.856366 0.034689,1.216535 0.509709,0.473657 3.2230769,1.154036 5.8797531,1.474504 0.9724336,0.117303 6.5046768,0.08064 7.5882258,-0.05034 2.692897,-0.32552 5.453772,-1.063651 5.700039,-1.523802 0.326953,-0.610916 -0.01056,-1.395208 -0.600442,-1.395208 z"
     style="fill:#000000;fill-opacity:1;stroke:none;stroke-width:0.139165;stroke-linecap:round;stroke-linejoin:round"
     id="path877" />
</svg>
