<?xml version="1.0" standalone="no"?><!DOCTYPE svg PUBLIC "-//W3C//DTD SVG 1.1//EN" "http://www.w3.org/Graphics/SVG/1.1/DTD/svg11.dtd"><svg class="icon" height="512" viewBox="0 0 1024 1024" version="1.1" xmlns="http://www.w3.org/2000/svg"><path d="M804.99699999 601.915c-11.853-11.853-38.348-18.126-78.088-18.126-27.193 0-59.268 2.091-93.433 6.973-15.342-9.064-31.377-18.131-43.229-29.983-33.467-31.377-61.359-74.605-78.786-122.017 1.392-4.186 2.091-8.368 2.785-12.55 0 0 18.83-106.679 13.948-142.936-0.698-4.881-1.397-6.278-2.789-10.46l-1.398-4.182c-4.88-11.853-15.336-24.403-30.677-23.705h-9.761c-17.433 0-32.074 9.064-35.559 22.313-11.158 41.832 0.694 104.584 21.615 186.165l-5.58 13.246c-15.341 36.955-34.166 74.604-50.899 107.377l-2.091 4.182c-17.433 34.863-34.166 64.149-48.11 89.247l-15.342 7.67c-1.392 0.699-27.193 13.945-32.768 18.131-51.597 30.678-85.763 65.542-91.343 93.43-2.091 9.063-0.693 20.222 8.369 25.102l14.643 7.666c6.274 3.489 13.245 4.881 19.523 4.881 36.257 0 78.787-45.32 137.357-147.812 67.633-22.313 144.332-40.444 211.966-50.205 51.593 28.587 114.345 48.807 154.09 48.807 6.971 0 13.249-0.698 18.131-2.09 7.666-2.091 13.944-6.274 18.126-12.552 7.67-11.853 9.062-27.888 6.971-43.927-0.001-4.884-3.484-11.158-7.671-14.645zM258.35599999 796.448c6.971-18.131 32.769-54.387 71.815-86.458 2.096-2.091 8.369-7.67 13.948-13.249-40.444 65.542-67.632 91.338-85.763 99.707zM489.83999999 263.751c11.857 0 18.131 29.983 18.83 57.172 0.694 27.892-6.278 47.416-13.948 62.058-6.972-21.614-9.762-55.085-9.762-77.394 0 0-0.695-41.836 4.88-41.836z m-69.025 379.302c8.365-14.643 16.734-29.98 25.102-46.713 20.916-40.444 34.86-71.819 44.622-97.616 19.523 36.256 44.626 66.934 73.91 91.338 3.483 2.79 7.666 6.278 11.155 9.063-59.264 12.551-110.163 27.194-154.789 43.928z m372.33-2.79c-3.484 2.096-13.944 3.488-20.217 3.488-21.619 0-48.114-9.761-85.064-25.797 14.642-1.397 27.189-1.397 39.046-1.397 21.614 0 27.888 0 48.804 5.579 20.918 4.881 21.613 15.341 17.431 18.127z m0 0"  /><path d="M743.22899999 893.366H205.36499999c-6.277 0-11.154-4.881-11.154-11.155V140.338c0-6.277 4.877-11.154 11.154-11.154h359.779c6.278 0 11.158 4.877 11.158 11.154v196.625c0 25.797 20.916 47.412 47.412 47.412h196.624c6.274 0 11.155 4.88 11.155 11.158v191.331h63.45V310.467c0-13.948-5.579-27.193-16.035-37.654L687.16399999 80.375c-10.46-9.761-23.705-15.341-38.348-15.341H183.75099999c-29.284 0-53.689 23.705-53.689 53.689V904.52c0 29.284 23.705 53.689 53.689 53.689h559.478v-64.843zM639.75299999 153.584c0-11.155 13.245-16.734 21.614-9.064l154.789 154.094c7.67 7.667 2.091 21.615-9.068 21.615H652.29899999a12.497 12.497 0 0 1-12.546-12.552V153.584z"  /><path d="M1021.66599999 813.977L833.48099999 672.838v94.092h-94.092v94.093h94.092v94.092z"  /></svg>