<?xml version="1.0" standalone="no"?><!DOCTYPE svg PUBLIC "-//W3C//DTD SVG 1.1//EN" "http://www.w3.org/Graphics/SVG/1.1/DTD/svg11.dtd"><svg class="icon" height="512" viewBox="0 0 1024 1024" version="1.1" xmlns="http://www.w3.org/2000/svg"><path d="M801.676 599.891c-98.371 0-178.197 79.824-178.197 178.197s79.826 178.146 178.197 178.146S979.82 876.461 979.82 778.088s-79.773-178.197-178.144-178.197zM905.91 788.105l-86.863 87.82c-2.234 2.182-5.272 3.572-8.683 3.572-6.82 0-12.364-5.596-12.364-12.418V831h-90.063c-1.01 1-2.184 0.563-3.25 0.563-6.873 0-12.688-5.409-12.688-12.335V737.48c0-6.82 6.031-12.48 12.904-12.48H798v-35.902c0-6.875 5.544-12.471 12.364-12.471 3.729 0 7.062 1.65 9.353 4.264l86.74 87.82c2.77 2.289 4.413 5.646 4.413 9.482 0 4.053-1.923 7.621-4.96 9.912z"  /><path d="M768 547.54V192c0-70.692-57.308-128-128-128H256c-70.692 0-128 57.308-128 128v512c0 70.692 57.308 128 128 128h319.288A233.59 233.59 0 0 1 569 778.062c0-26.263 4.349-51.509 12.359-75.063H215c-8.836 0-16-7.163-16-16v-8c0-8.837 7.164-16 16-16h376c2.653 0 5.149 0.656 7.353 1.799C632.909 602.8 694.946 558.222 768 547.54zM179.188 325.889c0-30.659 7.916-54.47 23.748-71.434 15.832-16.963 36.647-25.444 62.449-25.444 22.533 0 40.837 6.66 54.91 19.979 8.375 7.875 14.658 19.184 18.848 33.926l-36.816 8.796c-2.179-9.55-6.722-17.089-13.633-22.618-6.911-5.529-15.31-8.293-25.193-8.293-13.655 0-24.734 4.9-33.235 14.701-8.503 9.801-12.754 25.676-12.754 47.623 0 23.289 4.188 39.875 12.565 49.758 8.375 9.885 19.266 14.827 32.669 14.827 9.883 0 18.387-3.141 25.507-9.424 7.119-6.283 12.229-16.166 15.33-29.654l36.063 11.434c-5.529 20.104-14.723 35.038-27.581 44.795-12.86 9.76-29.173 14.638-48.942 14.638-24.461 0-44.565-8.355-60.313-25.067-15.749-16.712-23.622-39.559-23.622-68.543zM511 549c0 8.837-7.164 16-16 16H215c-8.836 0-16-7.163-16-16v-8c0-8.836 7.164-16 16-16h280c8.836 0 16 7.164 16 16v8z m4.987-156.641c-5.865 9.216-14.158 16.064-24.88 20.544-10.724 4.48-24.084 6.723-40.083 6.723-23.289 0-41.173-5.381-53.653-16.146-12.483-10.763-19.938-26.45-22.366-47.057l36.188-3.519c2.177 12.147 6.597 21.068 13.256 26.764 6.659 5.697 15.644 8.544 26.952 8.544 11.979 0 21.004-2.533 27.078-7.602 6.073-5.067 9.11-10.995 9.11-17.78 0-4.354-1.278-8.062-3.833-11.12-2.556-3.057-7.017-5.717-13.382-7.979-4.356-1.508-14.283-4.188-29.78-8.042-19.938-4.941-33.926-11.014-41.968-18.22-11.309-10.134-16.963-22.492-16.963-37.067 0-9.38 2.658-18.157 7.979-26.324 5.318-8.167 12.983-14.387 22.994-18.659 10.009-4.272 22.093-6.408 36.251-6.408 23.12 0 40.522 5.069 52.208 15.204 11.686 10.136 17.822 23.666 18.409 40.585l-37.194 1.633c-1.592-9.465-5.006-16.272-10.241-20.418-5.236-4.146-13.089-6.22-23.56-6.22-10.806 0-19.268 2.221-25.381 6.66-3.938 2.849-5.906 6.66-5.906 11.435 0 4.356 1.841 8.085 5.529 11.183 4.69 3.938 16.083 8.042 34.177 12.313 18.094 4.272 31.476 8.692 40.146 13.256 8.67 4.567 15.456 10.806 20.356 18.723 4.9 7.916 7.351 17.697 7.351 29.339 0.002 10.556-2.931 20.441-8.794 29.655zM550.089 232h40.335l46.617 136.333L682.149 232h39.455l-65.967 184H615.93l-65.841-184z"  /></svg>