<?xml version="1.0" encoding="UTF-8" standalone="no"?>
<svg
   xmlns:dc="http://purl.org/dc/elements/1.1/"
   xmlns:cc="http://creativecommons.org/ns#"
   xmlns:rdf="http://www.w3.org/1999/02/22-rdf-syntax-ns#"
   xmlns:svg="http://www.w3.org/2000/svg"
   xmlns="http://www.w3.org/2000/svg"
   xmlns:sodipodi="http://sodipodi.sourceforge.net/DTD/sodipodi-0.dtd"
   xmlns:inkscape="http://www.inkscape.org/namespaces/inkscape"
   inkscape:version="1.0 (4035a4fb49, 2020-05-01)"
   sodipodi:docname="hidden.svg"
   xml:space="preserve"
   style="enable-background:new 0 0 302.4 302.4;"
   viewBox="0 0 302.4 302.4"
   y="0px"
   x="0px"
   id="Capa_1"
   version="1.1"><metadata
   id="metadata91"><rdf:RDF><cc:Work
       rdf:about=""><dc:format>image/svg+xml</dc:format><dc:type
         rdf:resource="http://purl.org/dc/dcmitype/StillImage" /></cc:Work></rdf:RDF></metadata><defs
   id="defs89" /><sodipodi:namedview
   inkscape:current-layer="Capa_1"
   inkscape:window-maximized="1"
   inkscape:window-y="-8"
   inkscape:window-x="-8"
   inkscape:cy="660.8729"
   inkscape:cx="-550.85532"
   inkscape:zoom="0.43083674"
   showgrid="false"
   id="namedview87"
   inkscape:window-height="1017"
   inkscape:window-width="1920"
   inkscape:pageshadow="2"
   inkscape:pageopacity="0"
   guidetolerance="10"
   gridtolerance="10"
   objecttolerance="10"
   borderopacity="1"
   bordercolor="#666666"
   pagecolor="#ffffff" />
























<path
   d="m 268.70764,20.538463 c -2.00977,-0.02888 -4.02244,0.105365 -5.00066,0.41624 -5.08607,1.616319 0.84853,-4.15742 -122.15292,118.821087 C 77.583708,203.7342 24.750201,256.86538 24.145856,257.84456 c -3.711459,6.01341 -3.657046,13.75629 0.138103,19.55162 2.107071,3.21758 4.558392,5.01901 9.799468,7.20257 1.470227,0.61252 8.055835,0.56502 9.738626,-0.0705 5.192528,-1.96101 0.160082,2.9432 122.408857,-119.29528 92.51247,-92.504683 117.10184,-117.303054 117.74814,-118.747693 1.90666,-4.261848 2.08602,-4.993739 2.08602,-8.520815 0,-3.549204 -0.23605,-4.494604 -2.10823,-8.445487 -1.54515,-3.260739 -6.0182,-6.929297 -10.26786,-8.421343 -0.9649,-0.338772 -2.97157,-0.530307 -4.98134,-0.559169 z M 155.14796,77.172959 c -11.60784,-0.03593 -24.21486,0.467791 -27.126,1.351085 -0.67143,0.203725 -3.5944,0.756118 -6.49564,1.227469 -2.90123,0.47135 -5.82322,1.019121 -6.49274,1.217811 -0.66951,0.19869 -2.86076,0.762246 -4.86931,1.251612 -5.52282,1.345591 -10.00443,2.602807 -11.361082,3.186976 -0.66952,0.288292 -2.31247,0.845762 -3.65151,1.239058 -1.33903,0.393296 -3.57102,1.194755 -4.95912,1.781809 -1.3881,0.587055 -2.803,1.06812 -3.14449,1.06812 -0.34148,0 -0.62097,0.162212 -0.62097,0.361191 0,0.198978 -0.50172,0.484585 -1.11545,0.634498 -0.98586,0.240814 -7.36472,2.955989 -9.05487,3.854309 -0.34926,0.185633 -2.44928,1.298674 -4.66651,2.473287 -8.72277,4.621056 -7.80736,4.091626 -15.25499,8.827926 -1.861342,1.18371 -4.042032,2.64422 -4.846133,3.24588 -0.804101,0.60167 -2.355833,1.7203 -3.448694,2.48585 -2.097465,1.46927 -7.375973,5.67721 -11.116752,8.86172 -3.056116,2.60166 -15.266796,14.81338 -17.476218,17.47815 -0.988988,1.19282 -2.254335,2.65953 -2.812265,3.25941 -0.55793,0.59988 -1.37989,1.61351 -1.826234,2.25213 -0.446344,0.63861 -1.273282,1.72804 -1.837822,2.42113 -1.521064,1.86745 -7.0097848,9.30398 -8.8636548,12.00911 l -0.970578,1.41675 0.935808,1.62729 c 0.514752,0.89467 1.72206,2.63073 2.682855,3.85818 0.9608,1.22744 2.477237,3.23625 3.3704688,4.4637 2.692816,3.70036 5.746836,7.49781 10.279446,12.7817 2.597062,3.02753 11.352195,11.75695 15.056048,15.01259 1.523379,1.33903 3.075122,2.70928 3.448694,3.04404 1.151754,1.03209 6.654295,5.44264 7.592729,6.08616 0.488167,0.33476 2.489238,1.74965 4.44728,3.14448 1.958043,1.39483 3.576458,2.53607 3.595489,2.53607 0.01904,0 5.108173,-5.07623 11.309903,-11.28093 l 11.2761,-11.2819 -2.2502,-1.49981 c -1.23764,-0.82522 -3.29326,-2.18494 -4.568,-3.02183 -1.27474,-0.8369 -2.59841,-1.7387 -2.94167,-2.00394 -5.56227,-4.29791 -8.58762,-6.77933 -11.32439,-9.28955 -1.479863,-1.35736 -3.503318,-3.18372 -4.497501,-4.05808 -0.994187,-0.87437 -2.363009,-2.22914 -3.041147,-3.01024 -0.678135,-0.78111 -2.299931,-2.54744 -3.604181,-3.92578 -1.365265,-1.44281 -2.313603,-2.79066 -2.234746,-3.17635 0.273402,-1.3372 9.850939,-11.09238 16.132855,-16.43224 1.8194,-1.54655 7.26426,-5.73247 10.6532,-8.19053 2.10207,-1.52467 7.76305,-5.1996 8.00993,-5.1996 0.14539,0 1.26302,-0.64727 2.48294,-1.438 4.28934,-2.78026 17.7288,-9.11107 19.34302,-9.11186 0.36464,-1.5e-4 0.33807,0.4298 -0.10624,1.6891 -0.32784,0.92921 -0.77053,1.89939 -0.98313,2.15555 -0.21259,0.25617 -0.77172,2.00681 -1.24292,3.89005 -2.52085,10.07502 -3.02204,17.94246 -1.62729,25.5383 1.06303,5.78928 2.1665,9.93001 3.32411,12.47556 l 0.96768,2.12948 8.901322,-8.90905 8.90229,-8.90807 -1.28252,-1.78665 c -2.23013,-3.1054 -3.14061,-6.07626 -3.14061,-10.25626 0,-2.03008 0.19581,-3.94766 0.43458,-4.26089 0.23876,-0.31323 0.68684,-1.36968 0.99569,-2.34774 0.38256,-1.21144 1.40837,-2.64399 3.21788,-4.49364 2.21945,-2.26867 3.19031,-2.92728 5.90267,-4.00593 4.48931,-1.78531 7.84061,-1.794 12.02842,-0.0299 1.64136,0.6914 3.53651,1.7832 4.21163,2.42596 l 1.22747,1.16856 22.49233,-22.49522 c 12.37076,-12.372269 22.40977,-22.573892 22.30787,-22.67099 -0.36382,-0.346629 -7.58495,-1.533935 -13.16994,-2.165212 -3.93532,-0.444814 -10.54049,-0.660259 -17.50519,-0.68182 z m 89.49608,25.308451 c -0.19638,0 -5.43648,5.08088 -11.64405,11.29155 -7.41365,7.41736 -11.1405,11.42082 -10.8618,11.66627 0.23336,0.20552 1.24593,0.79101 2.2502,1.30087 1.00428,0.50985 2.82967,1.55032 4.05712,2.312 1.22744,0.76168 2.74234,1.67673 3.36564,2.03387 0.62329,0.35715 2.69156,1.78158 4.59697,3.16573 1.90541,1.38415 3.86079,2.78626 4.34491,3.11551 6.20515,4.22012 23.16665,20.41773 22.92112,21.88873 -0.28487,1.70668 -12.06296,13.31421 -19.17787,18.9007 -0.85269,0.66952 -2.1193,1.69218 -2.81516,2.27241 -1.15235,0.96086 -5.11427,3.78523 -7.28659,5.19477 -0.48238,0.313 -1.63682,1.08935 -2.566,1.72483 -0.92917,0.63548 -1.78049,1.15504 -1.8919,1.15504 -0.11142,0 -1.17329,0.63951 -2.35933,1.42062 -1.18605,0.7811 -2.38914,1.41965 -2.6732,1.41965 -0.28406,0 -0.51571,0.14492 -0.51571,0.3216 0,0.17667 -0.59391,0.6039 -1.31921,0.94933 -0.72531,0.34544 -2.23144,1.09755 -3.34729,1.67171 -3.26688,1.68095 -11.78214,5.57914 -12.18777,5.57914 -0.14747,0 -0.84389,0.26129 -1.54714,0.58139 -2.13417,0.97141 -7.17744,2.71523 -10.61166,3.66888 -1.78537,0.49579 -3.61077,1.03744 -4.05712,1.20429 -1.53005,0.57194 -2.03594,0.70223 -5.88335,1.51043 -6.39968,1.34435 -9.6215,1.87928 -16.8282,2.79682 -6.09129,0.77552 -8.17564,0.85183 -18.05663,0.66057 -6.14374,-0.11892 -11.64702,-0.33789 -12.22929,-0.48674 -0.96811,-0.24748 -2.21083,0.88192 -14.52876,13.20084 -7.4087,7.40931 -13.41407,13.51625 -13.3457,13.57073 0.0684,0.0545 1.5851,0.32559 3.37047,0.60262 1.78538,0.27704 4.15907,0.75144 5.27493,1.0546 1.11586,0.30316 2.39392,0.6505 2.84027,0.77164 1.19495,0.32431 14.74724,1.87985 19.68006,2.25889 5.67928,0.43639 23.22064,0.17731 27.79429,-0.41045 2.00855,-0.25811 6.29983,-0.79815 9.53582,-1.20042 3.236,-0.40228 6.88776,-1.0087 8.1152,-1.34722 1.22745,-0.33852 3.60114,-0.82773 5.27493,-1.08744 1.67379,-0.2597 3.40893,-0.63623 3.85527,-0.83731 0.44635,-0.20107 2.45419,-0.81655 4.46274,-1.3675 10.13212,-2.77924 17.56629,-5.52801 27.42924,-10.14231 1.24898,-0.58432 2.38333,-1.06232 2.52157,-1.06232 0.42846,0 12.12038,-6.50414 13.92998,-7.74918 0.94154,-0.6478 1.88182,-1.17822 2.08989,-1.17822 0.20807,0 1.07303,-0.55194 1.92184,-1.2265 0.84883,-0.67456 1.96978,-1.33334 2.49067,-1.46408 0.5209,-0.13073 0.94644,-0.37024 0.94644,-0.53213 0,-0.16188 1.05001,-1.00884 2.33325,-1.88225 4.69892,-3.19822 6.78713,-4.76233 10.85503,-8.13258 10.10937,-8.37556 20.95519,-19.40741 27.26507,-27.73248 1.9176,-2.53003 2.25031,-2.97435 4.89539,-6.54489 1.95236,-2.63548 2.44067,-3.28268 3.49311,-4.62595 0.52457,-0.66951 1.24601,-1.78713 1.60315,-2.48391 0.64774,-1.26376 0.64389,-1.27412 -1.37523,-4.05808 -1.11324,-1.53494 -2.47935,-3.42957 -3.03632,-4.21067 -0.55697,-0.7811 -1.51058,-2.07661 -2.11885,-2.87891 -0.60828,-0.80228 -1.88048,-2.48177 -2.82772,-3.73262 -4.74575,-6.26681 -16.18938,-18.53656 -21.84624,-23.42331 -8.11874,-7.01349 -12.38612,-10.29912 -19.60763,-15.09661 -5.6648,-3.76331 -6.635,-4.37195 -6.96885,-4.37195 z m -33.47388,34.00504 c -1.0166,0.14973 -5.87225,4.97398 -32.56606,31.67081 -17.92465,17.92668 -32.49386,32.68946 -32.37678,32.80654 0.11709,0.11709 1.63741,0.33486 3.37819,0.48384 7.42119,0.63513 17.04767,-0.79899 24.34174,-3.62735 5.0285,-1.94987 8.36762,-3.78237 14.6852,-8.05823 3.59671,-2.43432 11.75877,-11.45543 14.32594,-15.83347 1.19306,-2.03465 4.38741,-8.40736 4.38741,-8.7526 0,-0.11856 0.35654,-0.98931 0.79191,-1.93536 0.69173,-1.50311 1.71834,-5.68986 3.2372,-13.20277 0.4614,-2.28229 0.51472,-11.22879 0.0792,-13.26362 -0.0393,-0.18371 -0.0957,-0.31552 -0.28394,-0.28779 z"
   style="fill:#000000;stroke-width:1.5;stroke-linecap:round;stroke-linejoin:round;fill-opacity:1"
   id="path930" /></svg>
