<?xml version="1.0" encoding="UTF-8" standalone="no"?>
<svg
   viewBox="0 0 512 512"
   version="1.1"
   id="svg4"
   sodipodi:docname="horse-face-outline.svg"
   xml:space="preserve"
   inkscape:version="1.2.1 (9c6d41e410, 2022-07-14)"
   xmlns:inkscape="http://www.inkscape.org/namespaces/inkscape"
   xmlns:sodipodi="http://sodipodi.sourceforge.net/DTD/sodipodi-0.dtd"
   xmlns="http://www.w3.org/2000/svg"
   xmlns:svg="http://www.w3.org/2000/svg"><defs
     id="defs8" /><sodipodi:namedview
     id="namedview6"
     pagecolor="#ffffff"
     bordercolor="#666666"
     borderopacity="1.0"
     inkscape:showpageshadow="2"
     inkscape:pageopacity="0.0"
     inkscape:pagecheckerboard="0"
     inkscape:deskcolor="#d1d1d1"
     showgrid="false"
     inkscape:zoom="1.3037281"
     inkscape:cx="233.17745"
     inkscape:cy="247.75105"
     inkscape:window-width="1920"
     inkscape:window-height="1017"
     inkscape:window-x="1912"
     inkscape:window-y="-8"
     inkscape:window-maximized="1"
     inkscape:current-layer="svg4" /><!--! Font Awesome Pro 6.1.1 by @fontawesome - https://fontawesome.com License - https://fontawesome.com/license (Commercial License) Copyright 2022 Fonticons, Inc. --><path
     id="path1771"
     style="fill:#000000;stroke:none;stroke-width:17.8106;stroke-linecap:round;stroke-linejoin:round;stroke-dasharray:none;stroke-opacity:1"
     d="m 120.28862,3.1257064 c -5.67824,0.2764588 -10.36381,2.7746494 -14.3668,5.3042869 -9.898739,6.4046377 -17.297589,14.3426827 -23.590313,22.5161707 -6.058053,8.019044 -11.007493,16.477157 -13.84934,25.292063 -2.33897,8.195294 -2.751256,16.583787 -2.498183,24.909339 0.24489,6.826672 1.176449,13.70776 4.18866,20.256164 7.229185,16.96912 19.934693,32.75753 36.165776,46.54165 0.5641,0.49085 1.12824,0.98171 1.69237,1.47256 -4.61302,4.46807 -8.749474,9.16262 -12.183534,14.09607 -9.118703,12.76744 -15.56525,26.33549 -20.647271,40.07003 -1.99346,5.44463 -3.389613,11.0057 -3.605988,16.62231 -0.21269,4.26364 -0.20786,8.53488 -0.01073,12.79808 0.214814,3.03618 1.355867,6.04747 3.55324,8.7078 3.934278,5.34278 9.108046,10.20191 14.369532,14.9707 1.982296,1.88722 3.395868,4.09754 3.494603,6.43851 1.933322,10.98887 3.789238,21.98984 6.533217,32.90312 3.898141,16.0995 8.520311,32.13517 14.647001,47.91888 3.74858,9.56163 8.40719,18.98695 14.71722,27.92304 5.89764,8.62237 12.94036,16.86566 18.67331,25.54036 0.55824,0.97755 1.28728,1.974 1.52814,2.99694 -2.1796,4.97045 -5.02702,9.69766 -7.16386,14.68493 -3.12842,7.15537 -5.41422,14.56461 -5.38616,22.05511 0.25636,7.05801 3.42187,13.88049 6.95706,20.46159 5.57668,10.11168 12.81539,19.81122 21.57609,28.82984 4.7735,4.82138 9.97151,9.57492 16.70674,13.22873 5.68618,2.89083 11.95849,5.23683 18.46389,7.16754 4.93746,1.43568 10.15636,2.52138 15.54902,2.72561 9.76894,0.5646 19.58247,0.62779 29.38065,0.72928 13.57665,0.0949 36.03363,0.0549 49.58549,-0.55265 5.17573,-0.25589 10.1874,-1.26034 14.9683,-2.58997 8.36048,-2.28997 16.29105,-5.41433 23.05128,-9.47323 6.34102,-4.01186 11.32199,-8.88401 15.97081,-13.81339 8.70785,-9.42182 15.76869,-19.54275 21.05837,-30.06269 2.46258,-5.0675 4.52746,-10.28845 4.9922,-15.63401 0.38183,-6.34983 -1.45621,-12.6454 -3.64392,-18.78804 -2.20144,-6.12532 -5.59618,-12.00462 -8.48116,-17.9873 -0.0333,-0.29707 -0.67332,-0.90836 -0.22733,-1.33191 1.30728,-2.69277 3.13692,-5.07238 4.89774,-7.61535 6.3798,-8.6851 13.19221,-17.23473 18.90754,-26.13557 4.4814,-7.13299 7.69083,-14.59325 10.74727,-22.05175 5.3038,-13.35243 9.43962,-26.90742 12.95671,-40.52388 2.95574,-11.51914 5.25213,-23.11039 7.29415,-34.71836 0.55011,-2.80522 0.89268,-5.64068 1.70287,-8.41555 1.69214,-3.63366 5.85269,-6.34522 8.9568,-9.42182 5.75778,-5.3282 10.4123,-11.39656 11.754,-18.005 1.92003,-8.54228 0.0341,-17.2085 -2.39248,-25.61019 -4.03193,-13.38023 -10.24065,-26.45296 -18.26815,-38.9767 -4.32446,-6.69707 -9.41036,-13.19057 -15.66305,-19.15916 7.47693,-6.38151 14.52859,-13.01499 20.43166,-20.12324 11.05258,-13.19035 18.82698,-27.75427 21.5348,-42.844281 0.95859,-6.467113 0.53353,-12.991109 -0.30483,-19.452775 -1.14069,-7.612047 -3.13499,-15.197173 -6.57721,-22.494239 -2.76499,-5.330497 -7.05844,-10.213004 -10.17394,-15.443996 -1.28533,-1.823857 -3.22512,-3.386968 -4.77838,-5.106019 -4.63434,-4.782539 -9.51476,-9.489083 -15.38839,-13.6212 -3.54688,-2.5240714 -7.32547,-5.0333451 -11.98006,-6.5977643 -3.30806,-0.9397638 -7.11092,-0.723945 -10.44771,0.029404 -3.82526,0.8965267 -6.77536,2.9244208 -8.90674,5.1940266 -4.16852,4.1853327 -7.05222,8.8678557 -10.67541,13.2653527 -1.36641,1.713813 -2.93252,3.599232 -4.45543,5.349865 -3.10255,3.572605 -6.52232,7.093599 -10.02472,10.400792 -2.40287,2.270479 -4.85373,4.455296 -7.3775,6.600966 -5.02437,4.256771 -10.4999,8.270843 -15.13569,12.735123 -3.83373,3.632231 -7.29891,7.473933 -9.68965,11.648504 -4.2872,7.191008 -7.03849,14.768918 -8.89663,22.408732 -1.15915,4.834703 -1.69249,9.775569 -2.02255,14.621269 -14.14612,-2.378 -37.55407,-3.53215 -52.09489,-4.00693 -10.66828,-0.30267 -21.3693,0.18797 -31.89973,1.3717 -7.2004,0.75843 -14.37428,1.62717 -21.54626,2.49909 -0.47116,-6.046445 -1.19029,-12.101739 -3.0048,-18.040712 C 197.72547,80.145294 194.61443,72.53876 189.67926,65.455859 185.7258,60.111521 180.31152,55.339404 174.73129,50.736379 168.74951,46.017581 162.8967,41.1376 157.68462,35.964998 152.74774,31.132773 148.14744,25.990132 144.04265,20.725924 140.09279,15.668962 136.5561,10.396434 131.32375,5.8659387 128.5654,3.8380851 124.2621,3.0203161 120.28965,3.1257062 Z m -2.26368,35.5160566 c 9.08981,10.461932 20.01379,20.136257 31.65092,29.349083 8.33259,6.945648 13.41269,15.496166 15.56072,24.283984 0.23975,0.96105 0.53965,2.271265 0.74645,3.389491 0.35401,1.851384 0.61176,3.887004 0.77742,5.639109 0.10292,1.22958 0.17945,2.24249 0.23269,3.4637 0.0772,1.60753 0.0609,3.43238 0.0691,5.12416 0.002,0.89864 0.008,1.79727 0.006,2.6959 -2.02664,-5.38736 -3.74184,-10.85984 -6.73414,-16.050771 -2.40782,-3.597768 -3.53659,-7.537072 -6.3508,-11.01846 -4.37048,-5.877815 -10.73973,-10.90407 -16.78233,-16.006728 -2.89299,-2.3119 -5.75969,-4.65859 -9.00623,-6.748032 -2.07255,-1.298932 -5.51614,-1.662349 -7.80801,-0.420079 -1.36813,0.895619 -2.76328,2.030296 -2.55959,3.407302 0.18327,1.886695 1.86349,3.490121 2.92124,5.188344 4.98117,6.883476 11.28456,13.478889 13.76382,21.053425 2.39675,7.214113 2.68206,14.639359 3.39686,21.989869 0.36808,4.43336 0.73621,8.86673 1.1043,13.3001 -2.31398,1.39043 -4.47047,2.69029 -6.79972,4.03353 -4.81329,-4.26544 -9.34661,-8.68737 -13.37531,-13.3122 -5.62619,-6.71604 -9.95984,-13.90163 -13.49161,-21.233309 -2.21404,-4.702565 -4.06469,-9.560412 -4.03282,-14.530132 -0.0397,-3.985638 0.19353,-7.899473 0.43633,-11.852637 0.30307,-4.761657 1.078,-9.558683 3.40031,-14.083927 3.09204,-6.394958 6.89204,-12.662204 11.82316,-18.513849 0.17162,-0.566816 0.84694,0.802399 1.05164,0.852127 z m 276.41541,-0.80904 c 3.97769,4.676092 7.10252,9.664499 9.88661,14.713227 4.86191,8.706537 6.17243,18.132071 5.77874,27.379171 -0.21668,3.937024 -0.80848,7.876508 -2.08892,11.724288 -0.2694,0.785123 -0.63345,1.838041 -0.99093,2.722501 -5.21849,12.99344 -14.72409,25.07813 -26.63167,35.81597 -0.51264,0.23291 -0.89994,1.25287 -1.49519,0.96833 -2.18846,-1.2697 -4.33315,-2.57316 -6.4837,-3.87211 0.83556,-9.33943 1.25387,-18.67026 2.665,-27.985998 0.78587,-5.210713 2.4672,-10.394697 5.68884,-15.177039 3.88364,-5.913497 9.03352,-11.41158 12.75196,-17.374901 0.57015,-1.400287 0.12929,-3.034426 -1.56353,-3.998741 -1.25997,-1.034365 -3.35075,-1.594823 -5.28894,-1.1935 -3.02601,0.366466 -4.86794,2.204028 -6.8919,3.587947 -6.50756,4.888147 -12.74009,9.97042 -18.18367,15.428392 -6.71139,6.917917 -10.72368,14.829273 -13.80643,22.78497 -1.21529,3.08049 -2.32769,6.24304 -3.48081,9.28836 -0.0106,-3.21332 -0.0196,-6.461 0.16089,-9.6015 0.0493,-0.50366 0.10134,-1.35777 0.17315,-1.99835 0.8849,-9.723312 4.124,-19.576698 11.75266,-27.945983 4.37784,-4.94265 10.48536,-9.01769 15.6216,-13.581859 8.12374,-6.949613 15.62704,-14.239688 22.23953,-21.891269 0.0621,0.06936 0.12433,0.13873 0.18671,0.208094 z M 247.90588,126.19889 c 11.7828,0.0219 32.30183,0.48763 43.93261,1.9129 7.7064,0.99822 15.18145,2.67005 22.5898,4.39224 2.12055,0.50946 4.18671,1.11408 6.26385,1.69774 -0.67447,11.15659 -0.65554,22.47771 -4.84654,33.35609 -2.33948,6.06388 -6.39228,11.91139 -12.66426,16.57454 -4.60646,3.49073 -10.16246,6.33834 -15.9534,8.86671 -1.23289,0.53427 -2.81301,1.19823 -4.20327,1.75972 -2.12423,0.84335 -4.27171,1.66577 -6.50042,2.37689 -1.24749,-3.8253 -2.77637,-7.62431 -5.17166,-11.20148 -7.08426,-11.02094 -27.82489,-20.35304 -41.40688,-27.96693 -5.21276,-2.92926 -10.8813,-5.44831 -16.31699,-8.17597 -6.62023,-3.42448 -13.13062,-7.27188 -17.05083,-12.33983 -0.99125,-1.37472 -1.72947,-2.82982 -2.25091,-4.31743 6.97909,-1.7632 14.067,-3.05304 21.22197,-4.35764 7.18221,-1.28727 14.53842,-2.15147 21.96862,-2.36713 3.53169,-0.14238 6.84636,-0.19411 10.38831,-0.21042 z m -84.5697,19.56282 c 2.25433,3.37629 4.8837,6.65267 8.27468,9.57312 7.72234,6.9494 17.79752,12.50014 28.34645,17.37665 10.80711,5.24313 20.68802,11.65367 27.21623,19.57194 0.41383,0.48298 1.00121,1.2803 1.45184,1.89418 2.31936,3.10705 4.50533,6.38266 4.72522,9.91803 0.69497,5.29599 0.099,10.79014 2.84345,15.86454 1.63814,2.81053 5.22155,5.03341 9.51357,5.872 3.32417,0.7965 6.90576,0.47761 10.25049,-0.0748 8.09704,-1.24953 24.74182,-3.30325 32.29057,-5.62014 11.52405,-3.65777 22.54347,-8.1623 32.19492,-13.80356 10.24952,-6.01179 18.60851,-13.51973 24.03108,-21.94679 6.68562,-10.20692 9.42326,-21.35891 10.69815,-32.42325 0.12449,-0.92904 0.23437,-1.85901 0.37677,-2.7869 6.44596,3.97698 12.36354,8.35211 17.68408,13.02838 6.88938,6.40803 11.82103,13.66113 16.2255,20.97121 5.66203,9.61837 10.20281,19.55912 13.18147,29.71959 1.28092,4.53904 2.30922,9.13948 2.27935,13.77163 -5.56598,-2.60523 -12.60075,-3.27219 -19.22765,-3.0783 -7.84606,0.25905 -15.4043,1.98624 -22.54211,4.10896 -8.3903,2.55702 -15.95845,6.38061 -21.71758,11.25441 -5.98594,4.9856 -10.70328,10.61794 -14.73368,16.41833 -7.50489,11.03958 -11.91849,23.16752 -11.47115,35.36318 0.14085,1.5536 -0.3671,3.20469 0.7242,4.64428 0.49387,1.07575 1.79167,1.93304 3.442,2.14521 1.59864,0.51495 3.53212,0.34167 4.8769,-0.43248 1.61555,-0.5736 2.52989,-1.68673 2.9667,-2.84379 2.00615,-3.66137 3.86899,-7.17823 6.14667,-10.77282 5.1855,-8.18719 12.91754,-15.61212 22.36353,-21.79851 1.82134,-0.78508 4.08583,-0.32649 6.10768,-0.54219 7.66982,-0.3858 15.12761,-1.88907 22.25459,-3.78695 -1.83159,7.17156 -2.99354,14.4718 -4.45998,21.61774 -3.55337,17.34717 -7.99167,34.63056 -14.15093,51.64633 -2.27542,6.10774 -4.66329,12.20523 -7.6112,18.18166 -2.17002,4.18308 -4.83118,8.23832 -7.49926,12.22759 -5.92294,8.81491 -12.18599,17.5323 -19.12213,26.00443 -1.24664,1.56133 -2.8273,3.22688 -3.96675,4.91407 -2.74612,3.95482 -3.71154,8.65168 -1.36312,12.80954 1.42825,2.51855 3.49177,4.85073 4.74743,7.41881 1.28236,2.25231 2.51082,4.69039 3.48961,6.86132 1.047,2.32636 2.05272,4.89025 2.8411,7.24829 1.26814,3.73253 2.23143,7.59764 1.93206,11.49624 -0.15149,3.74066 -1.73916,7.36006 -3.73795,10.82136 -3.03074,5.31895 -6.71414,10.45532 -10.4482,15.56057 -1.30302,1.72655 -2.66568,3.4328 -4.12321,5.10206 -4.40146,-4.77419 -12.68025,-7.7485 -20.99419,-7.49445 -8.49905,0.12894 -16.60263,3.63767 -20.42993,8.76614 -3.76596,4.86719 -3.45932,11.0365 0.804,15.71424 -5.14395,0.19605 -19.1788,0.31845 -24.23668,0.394 -8.28737,0.13204 -16.58156,0.1432 -24.86696,-0.0517 -1.20307,0.19204 -0.25684,-0.55334 0.11246,-1.02687 4.13941,-5.05501 3.73289,-11.60645 -0.96953,-16.42485 -4.96819,-5.33346 -14.85695,-8.29012 -24.02423,-7.15465 -6.22945,0.69632 -11.97101,3.14558 -15.58081,6.65386 -5.41534,-6.61607 -10.34027,-13.43081 -14.42115,-20.47536 -1.89881,-3.17888 -3.25204,-6.56974 -3.53739,-10.03943 -0.67086,-6.49188 1.53679,-12.93682 4.58319,-19.05055 0.30106,-0.58349 0.7472,-1.47238 1.13955,-2.16848 2.51589,-4.5855 5.72317,-9.01988 7.33842,-13.81254 0.82642,-2.57441 1.56968,-5.25951 0.91291,-7.88954 -0.34922,-1.45391 -1.48988,-2.73008 -2.7904,-3.87801 -2.2431,-2.35154 -4.2626,-4.84725 -6.13746,-7.25171 -5.57778,-7.20799 -10.90947,-14.68023 -15.89167,-22.15217 -2.78006,-4.24548 -5.53773,-8.49438 -7.89304,-12.82029 -3.39633,-6.54744 -5.91433,-13.28487 -8.39766,-20.01191 -1.78229,-4.97186 -3.38362,-9.90837 -4.91343,-14.92794 -1.85973,-6.17688 -3.59889,-12.56559 -5.13826,-18.87578 -1.68951,-6.86137 -3.20717,-13.96262 -4.49108,-20.84106 -1.00934,-5.70395 -1.96514,-11.4842 -3.36968,-17.10846 6.61323,2.02164 13.71603,3.38202 20.95401,3.80407 2.1974,0.11595 4.47049,-0.0726 6.61252,0.30726 1.94584,0.79632 3.25642,2.11778 4.86035,3.18386 9.11578,6.73533 15.99004,14.76947 20.70981,23.30797 1.45511,2.47658 2.73687,5.00656 4.22168,7.46982 1.18382,1.18493 2.90552,2.55487 5.26863,2.31804 1.73029,0.0892 3.6295,-0.31546 4.51401,-1.39755 1.25303,-0.90568 1.73514,-2.15491 1.53664,-3.37042 0.1763,-5.46793 -2.9e-4,-10.97004 -1.50598,-16.35915 -3.32928,-12.86894 -11.2147,-25.15863 -22.52144,-35.72993 -8.59968,-7.69095 -21.18515,-13.12703 -34.75606,-15.88604 -7.93407,-1.56394 -16.61078,-2.20191 -24.60533,-0.47432 -2.12324,0.49334 -4.15321,1.18257 -5.96662,2.08095 -0.41941,-8.21745 2.35799,-16.31528 5.51849,-24.1934 4.51847,-10.60275 9.85414,-21.11912 17.52664,-30.88506 5.79494,-7.41426 13.27426,-14.23983 22.32458,-19.98128 3.44888,-2.20626 7.10733,-4.25953 10.91819,-6.17289 0.0937,0.13679 0.18767,0.27357 0.28151,0.41036 z"
     sodipodi:nodetypes="cccccccccccccccccccccccccccccccccccccccccccccccccccccccccccccccccccccccccccccccccccccccccccccccccccccccccccccccccccccccccccccccccccccccccccccccccccccccccccccccccccccccccccccccccccccccccccccccccccccccccccccccccccccccccccccccccccccccc" /></svg>
