<?xml version="1.0" encoding="UTF-8" standalone="no"?>
<svg
   xmlns:dc="http://purl.org/dc/elements/1.1/"
   xmlns:cc="http://creativecommons.org/ns#"
   xmlns:rdf="http://www.w3.org/1999/02/22-rdf-syntax-ns#"
   xmlns:svg="http://www.w3.org/2000/svg"
   xmlns="http://www.w3.org/2000/svg"
   xmlns:sodipodi="http://sodipodi.sourceforge.net/DTD/sodipodi-0.dtd"
   xmlns:inkscape="http://www.inkscape.org/namespaces/inkscape"
   height="512"
   width="512"
   viewBox="0 0 512 512"
   version="1.1"
   id="svg4"
   sodipodi:docname="hospital.svg"
   inkscape:version="1.0 (4035a4fb49, 2020-05-01)">
  <metadata
     id="metadata10">
    <rdf:RDF>
      <cc:Work
         rdf:about="">
        <dc:format>image/svg+xml</dc:format>
        <dc:type
           rdf:resource="http://purl.org/dc/dcmitype/StillImage" />
        <dc:title></dc:title>
      </cc:Work>
    </rdf:RDF>
  </metadata>
  <defs
     id="defs8" />
  <sodipodi:namedview
     inkscape:document-rotation="0"
     pagecolor="#ffffff"
     bordercolor="#666666"
     borderopacity="1"
     objecttolerance="10"
     gridtolerance="10"
     guidetolerance="10"
     inkscape:pageopacity="0"
     inkscape:pageshadow="2"
     inkscape:window-width="1920"
     inkscape:window-height="1017"
     id="namedview6"
     showgrid="false"
     inkscape:zoom="1.1425781"
     inkscape:cx="64.530408"
     inkscape:cy="277.58976"
     inkscape:window-x="-8"
     inkscape:window-y="-8"
     inkscape:window-maximized="1"
     inkscape:current-layer="svg4" />
  <path
     d="m 256.12534,1 a 25,25 0 0 0 -0.55273,0.00586 25,25 0 0 0 -0.41016,0.00977 25,25 0 0 0 -0.48242,0.023437 25,25 0 0 0 -0.6211,0.041016 25,25 0 0 0 -0.24414,0.021484 25,25 0 0 0 -0.17578,0.015625 25,25 0 0 0 -0.0332,0.00391 25,25 0 0 0 -0.40625,0.041016 25,25 0 0 0 -0.0117,0.00195 25,25 0 0 0 -0.38281,0.048828 25,25 0 0 0 -0.14453,0.019531 25,25 0 0 0 -0.6875,0.1035156 25,25 0 0 0 -0.0332,0.00586 25,25 0 0 0 -0.38086,0.066406 25,25 0 0 0 -0.10547,0.019531 25,25 0 0 0 -0.71874,0.1445312 25,25 0 0 0 -0.0332,0.00781 25,25 0 0 0 -0.39258,0.089844 25,25 0 0 0 -0.23437,0.056641 25,25 0 0 0 -0.16992,0.041016 25,25 0 0 0 -0.0215,0.00586 25,25 0 0 0 -0.375,0.099609 25,25 0 0 0 -0.22656,0.064453 25,25 0 0 0 -0.17773,0.048828 25,25 0 0 0 -0.0312,0.00977 25,25 0 0 0 -0.3711,0.109375 25,25 0 0 0 -0.14453,0.044922 25,25 0 0 0 -0.65625,0.2167969 25,25 0 0 0 -0.0312,0.011719 25,25 0 0 0 -0.0547,0.019531 25,25 0 0 0 -0.10351,0.035156 L 55.656593,70.433594 A 25,25 0 0 0 40.433937,102.34375 25,25 0 0 0 64.000343,119 V 399.33594 480 512 H 218.00034 v -32 -4 -80 c 0,-6.627 5.373,-12 12,-12 h 52 c 6.627,0 12,5.373 12,12 v 80 4 32 h 154 V 480 427.4707 118.99805 A 25,25 0 0 0 471.56479,102.34766 25,25 0 0 0 456.348,70.435547 L 264.40268,2.4355469 a 25,25 0 0 0 -0.79687,-0.2675781 25,25 0 0 0 -0.0312,-0.00977 25,25 0 0 0 -0.3711,-0.1132812 25,25 0 0 0 -0.0312,-0.00977 25,25 0 0 0 -1.18555,-0.3203124 25,25 0 0 0 -0.0312,-0.00781 25,25 0 0 0 -0.0781,-0.017578 25,25 0 0 0 -0.33203,-0.078125 25,25 0 0 0 -0.79101,-0.1660156 25,25 0 0 0 -0.0312,-0.00586 25,25 0 0 0 -0.38282,-0.068359 25,25 0 0 0 -0.0312,-0.00586 25,25 0 0 0 -0.11718,-0.019531 25,25 0 0 0 -0.29688,-0.048828 25,25 0 0 0 -0.38476,-0.056641 25,25 0 0 0 -0.0312,-0.00391 25,25 0 0 0 -0.38672,-0.050781 25,25 0 0 0 -0.0312,-0.00391 25,25 0 0 0 -0.38477,-0.042969 25,25 0 0 0 -0.0332,-0.00391 25,25 0 0 0 -1.22461,-0.097656 25,25 0 0 0 -0.0332,-0.00195 A 25,25 0 0 0 256.12534,1 Z m -22.125,111 h 48 c 3.31371,0 6,2.68629 6,6 v 56 h 56 c 3.31371,0 6,2.68629 6,6 v 48 c 0,3.31371 -2.68629,6 -6,6 h -56 v 56 c 0,3.31371 -2.68629,6 -6,6 h -48 c -3.31371,0 -6,-2.68629 -6,-6 v -56 h -56 c -3.31371,0 -6,-2.68629 -6,-6 v -48 c 0,-3.31371 2.68629,-6 6,-6 h 56 v -56 c 0,-3.31371 2.68629,-6 6,-6 z M 120.52378,382.46875 h 35.00781 c 5.33355,0 9.62695,4.2934 9.62695,9.62695 v 35.00782 c 0,5.33355 -4.2934,9.6289 -9.62695,9.6289 h -35.00781 c -5.33355,0 -9.62695,-4.29535 -9.62695,-9.6289 V 392.0957 c 0,-5.33355 4.2934,-9.62695 9.62695,-9.62695 z m 236,0 h 35.00781 c 5.33355,0 9.62695,4.2934 9.62695,9.62695 v 35.00782 c 0,5.33355 -4.2934,9.6289 -9.62695,9.6289 h -35.00781 c -5.33355,0 -9.62696,-4.29535 -9.62696,-9.6289 V 392.0957 c 0,-5.33355 4.29341,-9.62695 9.62696,-9.62695 z"
     id="path2" />
</svg>
