<?xml version="1.0" encoding="UTF-8" standalone="no"?>
<!-- Created with Inkscape (http://www.inkscape.org/) -->

<svg
   id="svg3039"
   sodipodi:docname="human-face.svg"
   viewBox="0 0 240 240"
   version="1.1"
   inkscape:version="1.2 (dc2aedaf03, 2022-05-15)"
   width="256"
   height="256"
   xml:space="preserve"
   xmlns:inkscape="http://www.inkscape.org/namespaces/inkscape"
   xmlns:sodipodi="http://sodipodi.sourceforge.net/DTD/sodipodi-0.dtd"
   xmlns:xlink="http://www.w3.org/1999/xlink"
   xmlns="http://www.w3.org/2000/svg"
   xmlns:svg="http://www.w3.org/2000/svg"
   xmlns:rdf="http://www.w3.org/1999/02/22-rdf-syntax-ns#"
   xmlns:cc="http://creativecommons.org/ns#"
   xmlns:dc="http://purl.org/dc/elements/1.1/"><defs
     id="defs11"><linearGradient
       inkscape:collect="always"
       id="linearGradient884"><stop
         style="stop-color:#ffc84c;stop-opacity:1;"
         offset="0"
         id="stop880" /><stop
         style="stop-color:#ffb72e;stop-opacity:1;"
         offset="1"
         id="stop882" /></linearGradient><linearGradient
       inkscape:collect="always"
       id="linearGradient876"><stop
         style="stop-color:#663414;stop-opacity:1;"
         offset="0"
         id="stop872" /><stop
         style="stop-color:#3f210d;stop-opacity:1;"
         offset="1"
         id="stop874" /></linearGradient><linearGradient
       inkscape:collect="always"
       xlink:href="#linearGradient876"
       id="linearGradient878"
       x1="34.406729"
       y1="-372.5818"
       x2="215.22057"
       y2="-372.5818"
       gradientUnits="userSpaceOnUse" /><linearGradient
       inkscape:collect="always"
       xlink:href="#linearGradient884"
       id="linearGradient886"
       x1="40.713709"
       y1="-294.53409"
       x2="207.51936"
       y2="-294.53409"
       gradientUnits="userSpaceOnUse" /></defs><title
     id="title3149">Horse</title><sodipodi:namedview
     id="base"
     bordercolor="#666666"
     inkscape:pageshadow="2"
     inkscape:window-y="-8"
     pagecolor="#ffffff"
     inkscape:window-height="1017"
     inkscape:window-maximized="1"
     inkscape:zoom="1.1260956"
     inkscape:window-x="-8"
     showgrid="false"
     borderopacity="1.0"
     inkscape:current-layer="capa1"
     inkscape:cx="-228.22219"
     inkscape:cy="148.74403"
     inkscape:window-width="1920"
     inkscape:pageopacity="0.0"
     inkscape:document-units="px"
     units="mm"
     inkscape:snap-global="false"
     showguides="false"
     inkscape:showpageshadow="2"
     inkscape:pagecheckerboard="0"
     inkscape:deskcolor="#d1d1d1" /><g
     id="capa1"
     inkscape:label="Capa 1"
     inkscape:groupmode="layer"
     transform="translate(0,435.82898)"><path
       style="fill:url(#linearGradient886);fill-opacity:1;stroke:none;stroke-width:1.875;stroke-linecap:round;stroke-linejoin:round;stroke-dasharray:none;stroke-opacity:1"
       d="m 112.78478,-202.26294 c -2.84134,-2.09377 -10.01127,-5.36345 -15.933184,-7.26596 -18.369715,-5.90154 -28.816598,-13.45802 -40.930761,-29.60625 -10.414071,-13.88197 -13.431481,-24.2841 -14.690843,-50.64489 -2.598753,-54.39594 3.385275,-62.85368 46.590054,-65.84971 35.492934,-2.46127 58.286004,-10.48567 78.699334,-27.70647 l 7.89738,-6.66228 5.15553,3.57265 c 8.86198,6.14113 21.16712,22.40779 24.68117,32.62697 2.80872,8.16812 3.3505,16.17213 3.25595,48.10202 -0.12913,43.6344 -1.24609,48.8361 -14.31787,66.68373 -10.35137,14.13326 -22.27967,22.93169 -38.87735,28.67624 -7.4076,2.56382 -14.936,5.90162 -16.72981,7.41735 -1.79378,1.5157 -6.94515,3.14006 -11.44748,3.60968 -6.40123,0.66765 -9.31243,0.0239 -13.35212,-2.95308 z"
       id="path399" /><ellipse
       style="fill:#0084a6;fill-opacity:1;stroke:none;stroke-width:1.87501;stroke-linecap:round;stroke-linejoin:round;stroke-dasharray:none;stroke-opacity:1"
       id="path1010"
       cx="97.161232"
       cy="-297.91418"
       rx="8.5856171"
       ry="8.0170002" /><ellipse
       style="fill:#0084a6;fill-opacity:1;stroke:none;stroke-width:1.87501;stroke-linecap:round;stroke-linejoin:round;stroke-dasharray:none;stroke-opacity:1"
       id="circle1064"
       cx="148.72511"
       cy="-297.91418"
       rx="8.5856171"
       ry="8.0170002" /><path
       style="color:#000000;fill:#aa0000;stroke:none;stroke-width:1;stroke-linecap:round;stroke-linejoin:round;-inkscape-stroke:none"
       d="m 97.511843,-252.20474 c -0.664585,0.19885 -1.217557,0.63648 -1.537338,1.21666 -0.665532,1.20796 -0.159034,2.69195 1.131621,3.31554 14.653044,12.36607 30.911564,22.52258 52.157664,-0.0719 1.24951,-0.69506 1.65997,-2.20625 0.9167,-3.37504 -0.74369,-1.16824 -2.35884,-1.55129 -3.6076,-0.85557 -18.0117,10.0339 -32.45521,6.96842 -47.054386,-0.0739 -0.620348,-0.29878 -1.342127,-0.35487 -2.006661,-0.15593 z"
       id="path1129"
       sodipodi:nodetypes="ccccccccc" /><path
       style="fill:url(#linearGradient878);fill-opacity:1;stroke:none;stroke-width:1.87501;stroke-linecap:round;stroke-linejoin:round;stroke-dasharray:none;stroke-opacity:1"
       d="m 37.570633,-324.94291 c -4.56178,-18.17157 -4.144912,-43.522 0.954789,-58.06276 7.104884,-20.25809 27.126356,-39.06917 47.741174,-44.85504 21.298564,-5.97777 47.566424,-5.68663 60.780894,0.67364 7.21382,3.4721 16.54257,12.23927 19.0023,17.85842 1.56926,3.58498 3.16556,4.2869 13.41758,5.89989 6.40004,1.00696 14.26436,3.34743 17.47636,5.20106 17.14433,9.89405 22.85667,37.44876 14.44597,69.68358 l -2.96586,11.36706 -1.09889,-7.7264 c -3.14527,-22.11443 -18.51122,-44.95477 -36.10773,-53.67145 l -7.27149,-3.60205 -8.4677,8.6514 c -9.05587,9.25233 -23.80821,17.83655 -35.69117,20.76831 -4.01718,0.99113 -16.29837,2.35229 -27.291579,3.02486 -16.976247,1.03862 -21.307187,1.84627 -28.746066,5.3607 -11.713958,5.53422 -15.268525,9.40861 -19.562175,21.32216 l -3.619723,10.04366 z"
       id="path401" /></g><metadata
     id="metadata8"><rdf:RDF><cc:Work><dc:format>image/svg+xml</dc:format><dc:type
           rdf:resource="http://purl.org/dc/dcmitype/StillImage" /><cc:license
           rdf:resource="http://creativecommons.org/publicdomain/zero/1.0/" /><dc:publisher><cc:Agent
             rdf:about="http://openclipart.org/"><dc:title>Openclipart</dc:title></cc:Agent></dc:publisher><dc:title>Horse</dc:title></cc:Work><cc:License
         rdf:about="http://creativecommons.org/publicdomain/zero/1.0/"><cc:permits
           rdf:resource="http://creativecommons.org/ns#Reproduction" /><cc:permits
           rdf:resource="http://creativecommons.org/ns#Distribution" /><cc:permits
           rdf:resource="http://creativecommons.org/ns#DerivativeWorks" /></cc:License></rdf:RDF></metadata></svg>
