<?xml version="1.0" encoding="UTF-8" standalone="no"?>
<svg
   xmlns:dc="http://purl.org/dc/elements/1.1/"
   xmlns:cc="http://creativecommons.org/ns#"
   xmlns:rdf="http://www.w3.org/1999/02/22-rdf-syntax-ns#"
   xmlns:svg="http://www.w3.org/2000/svg"
   xmlns="http://www.w3.org/2000/svg"
   xmlns:sodipodi="http://sodipodi.sourceforge.net/DTD/sodipodi-0.dtd"
   xmlns:inkscape="http://www.inkscape.org/namespaces/inkscape"
   sodipodi:docname="incognito.svg"
   inkscape:version="1.0 (4035a4fb49, 2020-05-01)"
   id="svg8"
   version="1.1"
   viewBox="0 0 8.4666665 8.4666669"
   height="32"
   width="32">
  <defs
     id="defs2" />
  <sodipodi:namedview
     inkscape:window-maximized="1"
     inkscape:window-y="-8"
     inkscape:window-x="-8"
     inkscape:window-height="1017"
     inkscape:window-width="1920"
     fit-margin-bottom="0"
     fit-margin-right="0"
     fit-margin-left="0"
     fit-margin-top="0"
     units="px"
     inkscape:guide-bbox="true"
     showguides="true"
     inkscape:snap-global="false"
     showgrid="false"
     inkscape:document-rotation="0"
     inkscape:current-layer="layer1"
     inkscape:document-units="mm"
     inkscape:cy="6.2534629"
     inkscape:cx="17.283367"
     inkscape:zoom="5.1117392"
     inkscape:pageshadow="2"
     inkscape:pageopacity="0.0"
     borderopacity="1.0"
     bordercolor="#666666"
     pagecolor="#ffffff"
     id="base">
    <inkscape:grid
       originy="-157.43071"
       originx="-16.136714"
       id="grid920"
       type="xygrid" />
  </sodipodi:namedview>
  <metadata
     id="metadata5">
    <rdf:RDF>
      <cc:Work
         rdf:about="">
        <dc:format>image/svg+xml</dc:format>
        <dc:type
           rdf:resource="http://purl.org/dc/dcmitype/StillImage" />
        <dc:title></dc:title>
      </cc:Work>
    </rdf:RDF>
  </metadata>
  <g
     transform="translate(-16.136714,-157.4307)"
     id="layer1"
     inkscape:groupmode="layer"
     inkscape:label="Calque 1">
    <path
       d="m 20.422673,157.95987 c -0.84145,5.3e-4 -1.522685,0.28381 -1.522645,0.63274 -3e-6,0.009 3.97e-4,0.017 0.0012,0.0255 h -0.0067 l -0.337132,1.18551 a 3.4651299,0.84444348 0 0 0 -1.652564,0.7197 3.4651299,0.84444348 0 0 0 3.465162,0.84447 3.4651299,0.84444348 0 0 0 3.465164,-0.84447 3.4651299,0.84444348 0 0 0 -1.547416,-0.70325 l -0.332198,-1.20196 h -0.0052 c 8.46e-4,-0.009 0.0013,-0.017 0.0013,-0.0255 3.9e-5,-0.34943 -0.68305,-0.63273 -1.525728,-0.63274 z m -1.922269,2.04448 a 2.9846704,0.90268094 0 0 0 1.957011,0.22109 2.9846704,0.90268094 0 0 0 1.886295,-0.2031 l 0.08151,0.29478 a 2.9846704,0.90268094 0 0 1 -1.967803,0.22407 2.9846704,0.90268094 0 0 1 -2.040369,-0.2438 z"
       style="fill:#000000;stroke-width:0.315754;stroke-linecap:round;stroke-linejoin:round"
       id="path887" />
    <path
       d="m 21.634138,161.5086 a 4.2513364,1.0360399 0 0 1 -1.125075,0.0497 0.63699046,0.5446817 0 0 0 -0.05756,0.19128 h -0.16281 a 0.63699046,0.5446817 0 0 0 -0.05715,-0.19056 4.2513364,1.0360399 0 0 1 -1.130523,-0.0433 0.63699046,0.5446817 0 0 0 -0.0848,0.27156 0.63699046,0.5446817 0 0 0 0.636954,0.54465 0.63699046,0.5446817 0 0 0 0.624414,-0.43683 h 0.185011 a 0.63699046,0.5446817 0 0 0 0.624311,0.43683 0.63699046,0.5446817 0 0 0 0.636954,-0.54465 0.63699046,0.5446817 0 0 0 -0.08973,-0.27875 z"
       inkscape:transform-center-y="-0.81102442"
       inkscape:transform-center-x="-2.3804294"
       style="fill:#000000;stroke-width:0.305147;stroke-linecap:round;stroke-linejoin:round"
       id="path900" />
    <path
       sodipodi:nodetypes="cccccccc"
       id="path918"
       d="m 18.064334,161.6069 2.337578,2.22285 2.276145,-2.22285 -0.367749,2.22285 2.086033,1.43415 h -8.052587 l 2.149763,-1.43415 z"
       style="fill:#000000;fill-opacity:1;stroke:none;stroke-width:0.0494489px;stroke-linecap:butt;stroke-linejoin:miter;stroke-opacity:1" />
  </g>
</svg>
