<?xml version="1.0" encoding="UTF-8" standalone="no"?>
<svg
   width="46"
   height="46"
   fill="none"
   version="1.1"
   id="svg10"
   sodipodi:docname="koala_mono.svg"
   viewBox="0 0 46 46"
   inkscape:version="1.2 (dc2aedaf03, 2022-05-15)"
   xmlns:inkscape="http://www.inkscape.org/namespaces/inkscape"
   xmlns:sodipodi="http://sodipodi.sourceforge.net/DTD/sodipodi-0.dtd"
   xmlns="http://www.w3.org/2000/svg"
   xmlns:svg="http://www.w3.org/2000/svg">
  <defs
     id="defs14" />
  <sodipodi:namedview
     id="namedview12"
     pagecolor="#ffffff"
     bordercolor="#000000"
     borderopacity="0.25"
     inkscape:showpageshadow="2"
     inkscape:pageopacity="0.0"
     inkscape:pagecheckerboard="0"
     inkscape:deskcolor="#d1d1d1"
     showgrid="false"
     inkscape:zoom="9.1076923"
     inkscape:cx="46.334459"
     inkscape:cy="23.002534"
     inkscape:window-width="1920"
     inkscape:window-height="1017"
     inkscape:window-x="-8"
     inkscape:window-y="-8"
     inkscape:window-maximized="1"
     inkscape:current-layer="svg10" />
  <path
     fill-rule="evenodd"
     clip-rule="evenodd"
     d="m 39.640483,23.336894 c 3.105292,-3.327674 3.605365,-7.62208 2.630569,-10.817247 0.213164,-0.752414 0.134812,-1.661532 -0.228144,-2.5913916 A 6.2866318,6.2866318 0 0 0 39.935457,7.1962903 c -1.463347,-1.062367 -3.308086,-1.240965 -4.679254,-0.518509 -1.714536,-0.188968 -3.040766,-0.212012 -4.05013,-0.07374 A 6.0688581,6.0688581 0 0 0 30.625343,4.8307376 C 30.102225,3.8156124 29.258784,3.7245853 28.923482,3.7349555 28.297814,3.7510869 27.690583,4.1025207 27.115614,4.7823434 A 2.0394682,2.0394682 0 0 0 26.865577,4.6475311 C 25.570458,4.0598877 24.207355,5.0957533 23.155359,6.0636363 a 17.998018,17.998018 0 0 0 -0.890683,0.884922 13.323373,13.323373 0 0 0 -2.680115,-1.168373 c -3.856554,-1.2063977 -7.459614,2.138561 -8.008081,2.846037 a 1.6477059,1.6477059 0 0 0 -0.377936,1.090021 C 10.587856,10.426024 9.9829294,11.565591 10.067042,13.25593 7.6980338,14.753845 6.212794,17.257666 5.9523873,20.268474 l -0.00576,0.04955 c -0.076048,0.460896 0.034567,0.932163 0.3111053,1.307794 -0.1037017,0.490855 -0.1440302,0.993233 -0.1175286,1.494458 0.036872,0.642951 0.176293,1.276684 0.4125026,1.87585 A 8.5865066,8.5865066 0 0 0 6.2335344,24.878594 23.077101,23.077101 0 0 1 6.1183102,24.837113 l -0.017284,-0.0058 A 11.416413,11.416413 0 0 0 3.5292226,24.315148 h -0.243123 c 0,0 -0.4355475,0.276538 0.2604066,1.175287 0.1198332,0.150943 0.2477321,0.297278 0.3836966,0.435547 0,0 1.1580031,1.374625 2.5118873,1.515198 0.5818822,0.06107 1.1003911,0.138269 1.5509176,0.221231 a 111.08188,111.08188 0 0 0 -3.8554014,0.311105 52.63441,52.63441 0 0 0 -2.6213503,0.319171 1.2605526,1.2605526 0 0 0 0.3940667,2.471559 l 0.072591,-0.01152 c 0.2753858,-0.03802 1.3273827,-0.186663 3.0592022,-0.345672 1.3043379,-0.120986 2.995829,-0.247732 5.0352961,-0.342216 l -0.01728,0.0092 c -1.3942117,0.806569 -2.5729552,2.09708 -3.4521157,3.27928 -0.6556257,0.876856 -1.2340511,1.807868 -1.7295151,2.782664 0,0 0.1785975,1.122284 2.9048018,0.0795 0,0 0.2984307,-0.09103 0.7385871,-0.27769 0.9321634,-0.394067 2.5038209,-1.223681 3.2608439,-2.570652 a 32.069197,32.069197 0 0 1 2.211152,-3.427919 l 0.531184,-0.0058 c 0.998993,-0.01498 1.989921,-0.01959 2.967023,-0.01498 h 0.08411 l -1.414953,4.505266 c -0.06107,0.194729 -0.114072,0.391762 -0.159009,0.587643 l -0.839984,3.679109 a 6.9422574,6.9422574 0 0 0 -0.129052,2.411642 21.890292,21.890292 0 0 0 11.01889,2.461189 l 0.2316,-0.0081 0.22584,-0.01383 c -2.507279,-2.549911 -3.661825,-5.776189 -3.433681,-9.624676 0.03918,-0.633734 0.111767,-1.266314 0.22123,-1.893134 0.04148,-0.203947 0.08987,-0.425177 0.146335,-0.661387 0.107159,-0.458592 0.30304,-0.891835 0.576121,-1.275532 0.986319,-1.380385 3.017722,-2.089014 5.743926,0.353739 a 14.936512,14.936512 0 0 1 1.81939,2.006053 8.8330864,8.8330864 0 0 0 -0.314562,1.255944 c -0.92525,0.274233 -3.219364,1.116522 -3.872685,2.882909 a 0.57397407,0.57397407 0 0 0 1.077346,0.396371 c 0.489703,-1.32623 2.6467,-2.084406 3.437138,-2.265308 a 0.57266422,0.57266422 0 0 0 0.444765,-0.501225 c 0,-0.0058 0.01268,-0.122137 0.04494,-0.305344 0.125595,-0.737435 0.555381,-2.589087 1.758321,-3.073029 a 1.5877893,1.5877893 0 0 1 0.576121,-0.115224 c 0.284604,-0.0081 0.49316,0.04263 0.589948,0.14403 a 0.31686652,0.31686652 0 0 1 0.06337,0.106006 0.55307611,0.55307611 0 0 1 0.02881,0.213165 0.57035974,0.57035974 0 0 0 0.299583,0.587643 0.57957768,0.57957768 0 0 0 0.659082,-0.08411 c 0.07374,-0.06913 0.744348,-0.645256 1.463347,-0.140574 0.639494,0.444766 0.414807,1.037018 0.332998,1.202941 a 0.58188216,0.58188216 0 0 0 0.106006,0.697106 c 0.182054,0.176293 0.459745,0.207404 0.675214,0.0749 0.07144,-0.03111 0.352586,-0.122138 0.694802,0.183206 0.09679,0.08527 0.177445,0.34913 0.141726,0.743196 -0.06913,0.757023 -0.525423,1.818238 -1.515198,2.958957 a 0.48163711,0.48163711 0 0 0 0.195881,0.774307 h 0.01383 a 0.77200207,0.77200207 0 0 0 0.844593,-0.251189 c 1.032409,-1.260552 1.518655,-2.460036 1.602768,-3.38183 0.06913,-0.744348 -0.116376,-1.34697 -0.518508,-1.700709 a 1.9518978,1.9518978 0 0 0 -0.989776,-0.489703 c 0.01844,-0.571511 -0.186663,-1.242116 -0.925251,-1.753712 a 2.1892596,2.1892596 0 0 0 -2.12704,-0.237273 1.4218665,1.4218665 0 0 0 -0.191272,-0.265015 c -0.350282,-0.383697 -0.876856,-0.557685 -1.567049,-0.518509 -0.178598,0.0092 -0.357195,0.03687 -0.531184,0.08066 -0.351434,-0.518512 -0.737435,-1.013976 -1.159155,-1.478329 -1.791736,-1.962268 -4.403869,-3.459031 -7.942404,-2.252633 a 13.580323,13.580323 0 0 1 -2.538388,-1.322774 0.25694994,0.25694994 0 0 0 -0.328389,0.03687 8.45976,8.45976 0 0 1 -5.488129,2.534932 0.25925443,0.25925443 0 0 0 -0.228143,0.156705 0.29958289,0.29958289 0 0 0 -0.01498,0.05185 0.26616788,0.26616788 0 0 0 0.05416,0.226991 c 0.150943,0.180902 0.192424,0.338759 0.124442,0.471267 -0.126747,0.244276 -0.678671,0.472419 -1.594703,0.398676 -1.426475,-0.115224 -2.355182,-0.599166 -2.91402,-1.0278 a 5.2519186,5.2519186 0 0 1 -0.14403,-0.115224 0.31917101,0.31917101 0 0 0 -0.36987,-0.03457 0.33415015,0.33415015 0 0 0 -0.159009,0.349129 l -0.02304,0.03457 C 11.240038,27.7085 10.992306,27.64858 10.683505,27.510312 A 4.7852606,4.7852606 0 0 1 9.0887896,26.309679 C 7.0089932,23.930299 7.6093112,21.898897 7.9711151,21.12459 A 0.28345151,0.28345151 0 0 0 7.9538315,20.842291 0.26847236,0.26847236 0 0 0 7.6600098,20.735132 c -0.1290511,0.03457 -0.2004901,0.02189 -0.2235349,0 -0.023045,-0.02074 -0.04609,-0.06222 -0.023045,-0.229296 0,-0.01152 0.0023,-0.02535 0.00461,-0.04494 l 0.00576,-0.06107 c 0.1209854,-1.381538 0.7455005,-4.447654 3.8680761,-6.131079 l 0.08642,-0.04379 0.04263,-0.02074 a 10.147794,10.147794 0 0 1 1.584334,-0.540393 c 1.434541,-0.366413 3.742481,-0.644104 6.593128,0.115224 a 0.73282585,0.73282585 0 0 0 0.911423,-0.600318 c 0.01383,-0.09679 0.288061,-1.818238 1.537091,-3.7309587 a 16.933347,16.933347 0 0 1 0.707476,-0.852659 c 0.443614,-0.501226 0.910271,-0.979406 1.403431,-1.432237 1.325078,-1.223681 1.872393,-1.247878 2.080949,-1.153394 0.398676,0.180902 0.373326,1.117674 0.364108,1.425323 a 0.29612617,0.29612617 0 0 0 0.564599,0.13366 c 0.729369,-1.610834 1.292815,-2.050991 1.638488,-2.133952 a 0.60377476,0.60377476 0 0 1 0.536945,0.140574 c 0.364108,0.286908 0.483941,1.57281 0.541553,2.191564 l 0.01613,0.163618 c 0.01152,0.140573 0.09103,0.266168 0.212012,0.339911 a 0.4977685,0.4977685 0 0 0 0.440157,0.02881 c 0.820396,-0.335302 2.373618,-0.376783 4.618185,-0.122137 -0.05415,0.05876 -0.103702,0.12329 -0.150944,0.188967 -0.777763,1.125741 -0.248884,2.6847237 1.283598,3.7931807 0.977101,0.705172 2.182346,1.128045 3.151381,1.128045 a 2.7653806,2.7653806 0 0 0 0.478181,-0.03802 c 0.327237,-0.04609 0.631428,-0.19012 0.875704,-0.410199 A 8.4298017,8.4298017 0 0 1 41.1407,14.29526 c -0.224687,0.730522 -0.610688,0.662539 -0.642951,0.656778 h -0.0023 c -0.12214,-0.02881 -0.172838,-0.138277 -0.228146,-0.265024 l -0.0069,-0.01613 a 0.51735661,0.51735661 0 0 0 -0.936773,-0.02535 c -0.403285,0.810026 -0.92525,1.31586 -1.555527,1.50598 -0.973644,0.286908 -1.931157,-0.252341 -1.951897,-0.265016 a 0.51735661,0.51735661 0 0 0 -0.52427,0.887227 4.0074973,4.0074973 0 0 0 1.866631,0.489702 c 0.301888,0.0012 0.603775,-0.04148 0.89414,-0.126746 0.713238,-0.212013 1.317013,-0.670605 1.807868,-1.371168 0.161314,0.120985 0.357195,0.194729 0.558837,0.212012 0.294974,0.01613 0.585339,-0.0795 0.81233,-0.266167 -0.02881,2.456579 -0.990928,5.323357 -3.69063,7.569077 a 0.26501564,0.26501564 0 0 0 0.02305,0.424025 c 2.910563,1.89659 5.105583,4.225271 6.512471,6.924973 0.207403,0.391763 0.396371,0.795047 0.569207,1.205245 0.03457,-0.06452 0.06914,-0.130203 0.107159,-0.195881 l 0.04724,-0.08987 a 23.355943,23.355943 0 0 0 0.676366,-1.454129 c -1.202957,-2.327533 -3.03963,-4.671194 -5.836122,-6.759056 z M 19.291891,12.286895 c -3.381829,-0.753567 -6.041204,-0.221231 -7.681996,0.360651 0.132508,-1.805563 1.371168,-2.465797 1.441454,-2.504974 h 0.0012 a 0.23044838,0.23044838 0 0 0 -0.08757,-0.4343947 0.60262251,0.60262251 0 0 1 -0.222382,-0.05761 0.35028154,0.35028154 0 0 1 0.04609,-0.06913 9.1672366,9.1672366 0 0 1 2.057904,-1.606226 c 1.901199,-1.095782 3.368003,-0.993232 4.263295,-0.712085 0.744349,0.230448 1.463347,0.53464 2.146627,0.906814 A 12.179197,12.179197 0 0 0 19.29194,12.286901 Z m 1.851653,9.825166 c -0.08872,-0.0772 -0.5139,-0.468962 -0.937925,-1.274379 a 8.1590249,8.1590249 0 0 1 -0.744348,-2.145475 11.30695,11.30695 0 0 1 -0.08642,-0.460896 12.613592,12.613592 0 0 1 -0.155553,-1.941528 0.34567257,0.34567257 0 0 0 -0.22123,-0.318019 l -0.02074,-0.0092 A 8.7962147,8.7962147 0 0 0 16.889466,15.49245 c -1.38269,-0.144031 -2.608676,0.07374 -3.577711,0.630276 -0.132508,0.07605 -0.261559,0.160162 -0.386001,0.250036 l -0.01844,0.01152 c -1.152242,0.844593 -1.774452,2.082101 -1.700709,3.395657 0.07259,1.42878 0.924098,2.721595 2.33329,3.545448 a 5.5998956,5.5998956 0 0 0 2.85756,0.728217 8.221246,8.221246 0 0 0 2.041772,-0.273081 11.153702,11.153702 0 0 0 2.659375,-1.062367 0.3410636,0.3410636 0 0 0 0.193576,-0.397524 0.33760688,0.33760688 0 0 0 -0.148639,-0.207403 z m 9.312419,-9.658091 c 0.483942,-0.331846 0.799656,-0.887227 0.936773,-1.65462 h 0.0046 l 0.0069,-0.03687 a 0.51641657,0.51641657 0 0 1 1.009364,0.218926 c -0.193576,1.055453 -0.656778,1.837825 -1.38269,2.329833 a 3.4071793,3.4071793 0 0 1 -1.915026,0.550771 3.3184567,3.3184567 0 0 1 -0.606079,-0.0507 0.51735661,0.51735661 0 0 1 0.201642,-1.011669 c 0.0265,0.0046 0.987471,0.173989 1.744494,-0.345672 z"
     fill="#2b3747"
     id="path8"
     style="fill:#000000;stroke-width:1" />
</svg>
