<?xml version="1.0" encoding="UTF-8" standalone="no"?>
<svg
   width="46"
   height="46"
   fill="none"
   version="1.1"
   id="svg10"
   sodipodi:docname="koala.svg"
   viewBox="0 0 46 46"
   inkscape:version="1.2.2 (b0a8486541, 2022-12-01)"
   xmlns:inkscape="http://www.inkscape.org/namespaces/inkscape"
   xmlns:sodipodi="http://sodipodi.sourceforge.net/DTD/sodipodi-0.dtd"
   xmlns="http://www.w3.org/2000/svg"
   xmlns:svg="http://www.w3.org/2000/svg">
  <defs
     id="defs14" />
  <sodipodi:namedview
     id="namedview12"
     pagecolor="#ffffff"
     bordercolor="#000000"
     borderopacity="0.25"
     inkscape:showpageshadow="2"
     inkscape:pageopacity="0.0"
     inkscape:pagecheckerboard="0"
     inkscape:deskcolor="#d1d1d1"
     showgrid="false"
     inkscape:zoom="9.1076923"
     inkscape:cx="58.631757"
     inkscape:cy="22.947635"
     inkscape:window-width="1920"
     inkscape:window-height="1019"
     inkscape:window-x="0"
     inkscape:window-y="1080"
     inkscape:window-maximized="1"
     inkscape:current-layer="svg10" />
  <g
     id="g801"
     transform="translate(2.7985134)">
    <path
       fill-rule="evenodd"
       clip-rule="evenodd"
       d="M 2.2639658,19.049 C 2.2639658,8.528 10.801966,0 21.333966,0 c 10.53,0 19.069,8.528 19.069,19.049 v 7.905 a 18.972,18.972 0 0 1 -1.47,7.339 c -1.032,-2.02 -2.626,-4.054 -5.053,-5.863 2.699,-2.886 3.129,-6.613 2.272,-9.383 0.183,-0.653 0.117,-1.442 -0.198,-2.25 a 5.455,5.455 0 0 0 -1.829,-2.37 c -1.267,-0.919 -2.867,-1.078 -4.061,-0.45 -1.484,-0.165 -2.639,-0.187 -3.515,-0.064 a 5.24,5.24 0 0 0 -0.503,-1.541 c -0.45,-0.881 -1.182,-0.96 -1.477,-0.951 -0.54,0.013 -1.066,0.319 -1.569,0.909 a 1.757,1.757 0 0 0 -0.217,-0.117 c -1.124,-0.51 -2.311,0.389 -3.22,1.229 -0.269,0.248 -0.526,0.505 -0.773,0.768 a 11.56,11.56 0 0 0 -2.326,-1.015 c -3.35,-1.046 -6.4740002,1.857 -6.9500002,2.47 a 1.43,1.43 0 0 0 -0.328,0.947 c -0.53,0.616 -1.055,1.605 -0.982,3.072 -2.056,1.303 -3.345,3.477 -3.571,6.085 l -0.005,0.044 c -0.066,0.399 0.03,0.808 0.27,1.135 a 4.977,4.977 0 0 0 0.257,2.912 7.338,7.338 0 0 0 -0.375,-0.137 l -0.016,-0.005 a 9.26,9.26 0 0 0 -0.554,-0.162 l -0.118,-0.03 -0.138,-0.032 -0.126,-0.028 -0.123,-0.026 -0.12,-0.024 -0.116,-0.021 -0.113,-0.02 -0.11,-0.018 -0.102,-0.016 -0.112,-0.015 -0.08,-0.011 -0.17,-0.02 c -0.1,-0.012 -0.185,-0.02 -0.254,-0.026 h -0.124 a 19.22,19.22 0 0 1 -0.14,-2.315 V 19.05 Z m 0.625,11.61 c 0,0 1.004,1.194 2.178,1.317 0.506,0.05 0.96,0.12 1.347,0.191 a 84.212,84.212 0 0 0 -3.345,0.27 19.207,19.207 0 0 1 -0.514,-2.155 c 0.105,0.132 0.215,0.258 0.334,0.378 z m 0.961,3.907 c 1.133,-0.105 2.6,-0.215 4.37,-0.297 l -0.015,0.008 c -1.21,0.7 -2.233,1.82 -2.996,2.846 a 18.892,18.892 0 0 1 -1.359,-2.557 z m 9.6220002,-0.42 h -0.008 c -0.458,0 -0.92,0.004 -1.384,0.012 h -0.011 l -0.45,0.007 a 27.824,27.824 0 0 0 -1.9200002,2.974 c -0.657,1.17 -2.021,1.89 -2.83,2.232 a 19.171,19.171 0 0 0 5.6520002,4.481 6.025,6.025 0 0 1 0.113,-2.092 l 0.728,-3.194 c 0.04,-0.17 0.086,-0.34 0.138,-0.509 l 1.228,-3.91 h -0.073 a 50.733,50.733 0 0 0 -1.183,0 z"
       fill="#64dfa3"
       id="path4" />
    <path
       fill-rule="evenodd"
       clip-rule="evenodd"
       d="m 32.643966,42.286 a 6.569,6.569 0 0 1 -0.766,0.538 l -0.69,0.407 c -0.484,0.286 -0.978,0.582 -0.978,0.582 a 18.98,18.98 0 0 1 -7.728,2.152 c -2.175,-2.21 -3.178,-5.013 -2.98,-8.353 0.033,-0.55 0.095,-1.099 0.188,-1.643 0.035,-0.177 0.078,-0.367 0.127,-0.574 0.094,-0.398 0.263,-0.774 0.5,-1.107 0.857,-1.198 2.62,-1.813 4.985,0.307 a 12.95,12.95 0 0 1 1.585,1.741 7.589,7.589 0 0 0 -0.262,1.076 c -0.804,0.237 -2.795,0.968 -3.362,2.502 a 0.498,0.498 0 0 0 0.935,0.343 c 0.425,-1.151 2.297,-1.809 2.983,-1.965 a 0.497,0.497 0 0 0 0.386,-0.436 c 0,-0.005 0.011,-0.106 0.039,-0.265 0.109,-0.638 0.483,-2.247 1.526,-2.667 a 1.378,1.378 0 0 1 0.5,-0.1 c 0.247,-0.007 0.428,0.033 0.512,0.125 a 0.273,0.273 0 0 1 0.055,0.093 0.48,0.48 0 0 1 0.025,0.184 0.496,0.496 0 0 0 0.26,0.51 0.503,0.503 0 0 0 0.572,-0.073 c 0.064,-0.06 0.642,-0.559 1.271,-0.122 0.558,0.387 0.36,0.9 0.288,1.044 a 0.505,0.505 0 0 0 0.092,0.605 c 0.158,0.153 0.4,0.18 0.587,0.065 0.061,-0.026 0.305,-0.106 0.602,0.159 0.084,0.073 0.154,0.301 0.123,0.645 -0.022,0.224 -0.008,0.477 0.006,0.75 0.033,0.622 0.072,1.354 -0.283,2.119 0.81,-1.037 1.195,-2.016 1.265,-2.778 0.059,-0.638 -0.102,-1.164 -0.45,-1.476 a 1.682,1.682 0 0 0 -0.853,-0.423 c -0.004,0 -0.005,-0.003 -0.005,-0.007 0.014,-0.495 -0.166,-1.074 -0.804,-1.517 a 1.947,1.947 0 0 0 -0.783,-0.328 1.96,1.96 0 0 0 -1.059,0.119 c -0.003,0.004 -0.008,0 -0.008,0 a 1.261,1.261 0 0 0 -0.163,-0.225 c -0.304,-0.332 -0.762,-0.483 -1.36,-0.45 a 2.513,2.513 0 0 0 -0.469,0.07 c -0.304,-0.45 -0.639,-0.878 -1.003,-1.28 -1.554,-1.703 -3.822,-3 -6.89,-1.956 h -0.006 a 11.728,11.728 0 0 1 -2.197,-1.146 0.223,0.223 0 0 0 -0.285,0.033 7.34,7.34 0 0 1 -4.76,2.2 0.225,0.225 0 0 0 -0.21,0.181 0.232,0.232 0 0 0 0.046,0.197 c 0.132,0.157 0.168,0.295 0.109,0.409 -0.113,0.212 -0.592,0.411 -1.385,0.347 -1.236,-0.1 -2.044,-0.524 -2.5280002,-0.893 a 4.543,4.543 0 0 1 -0.126,-0.1 0.277,0.277 0 0 0 -0.32,-0.03 0.278,0.278 0 0 0 -0.124,0.145 0.007,0.007 0 0 1 -0.006,0.005 h 0.004 a 0.297,0.297 0 0 0 -0.012,0.153 v 0.026 c -0.09,0.029 -0.317,-0.026 -0.607,-0.156 -0.529,-0.246 -1,-0.6 -1.384,-1.04 -1.813,-2.075 -1.279,-3.845 -0.965,-4.51 a 0.237,0.237 0 0 0 -0.275,-0.33 c -0.113,0.03 -0.183,0.014 -0.195,0 -0.012,-0.015 -0.039,-0.055 -0.02,-0.2 l 0.003,-0.011 a 0.473,0.473 0 0 0 0.007,-0.08 c 0.104,-1.202 0.65,-3.855 3.347,-5.317 0.005,-0.002 0.01,0 0.011,0.004 v -0.009 l 0.075,-0.038 0.038,-0.018 c 0.08,-0.035 0.166,-0.071 0.258,-0.108 v 0.003 c 0,-0.002 0.002,-0.004 0.005,-0.005 a 9.528,9.528 0 0 1 1.1070002,-0.358 c 1.247,-0.319 3.251,-0.56 5.723,0.1 a 0.636,0.636 0 0 0 0.791,-0.52 c 0.012,-0.086 0.25,-1.58 1.333,-3.24 0.112,-0.144 0.228,-0.289 0.353,-0.437 l 0.03,-0.036 a 16.975,16.975 0 0 1 1.444,-1.51 c 1.15,-1.062 1.621,-1.083 1.806,-1 0.346,0.156 0.324,0.97 0.316,1.237 a 0.26,0.26 0 0 0 0.208,0.261 0.272,0.272 0 0 0 0.29,-0.164 c 0.629,-1.384 1.116,-1.76 1.414,-1.834 a 0.524,0.524 0 0 1 0.466,0.122 c 0.316,0.249 0.421,1.366 0.47,1.902 l 0.017,0.139 c 0.01,0.121 0.079,0.231 0.184,0.295 a 0.432,0.432 0 0 0 0.382,0.024 c 0.712,-0.29 2.06,-0.326 4.008,-0.105 -0.047,0.051 -0.09,0.106 -0.13,0.164 -0.676,0.98 -0.214,2.334 1.113,3.298 0.848,0.61 1.894,0.979 2.735,0.979 0.14,0 0.278,-0.01 0.415,-0.033 0.284,-0.04 0.548,-0.164 0.76,-0.356 l 0.065,0.213 c 0.1,0.344 0.173,0.694 0.221,1.05 -0.2,0.66 -0.558,0.567 -0.558,0.567 -0.107,-0.024 -0.149,-0.118 -0.197,-0.227 l -0.007,-0.016 a 0.447,0.447 0 0 0 -0.813,-0.022 c -0.35,0.702 -0.803,1.142 -1.35,1.306 -0.845,0.254 -1.678,-0.217 -1.693,-0.226 a 0.449,0.449 0 0 0 -0.455,0.772 3.48,3.48 0 0 0 1.62,0.424 c 0.262,10e-4 0.523,-0.036 0.776,-0.11 0.617,-0.182 1.14,-0.58 1.561,-1.184 h 0.01 c 0.14,0.102 0.307,0.164 0.48,0.177 0.25,0.014 0.497,-0.065 0.693,-0.223 h 0.002 c 0.005,0 0.009,0.002 0.01,0.007 -0.029,2.128 -0.866,4.608 -3.204,6.554 a 0.231,0.231 0 0 0 0.021,0.369 c 2.525,1.645 4.427,3.667 5.652,6.009 a 13.925,13.925 0 0 1 0.492,1.049 19.15,19.15 0 0 1 -5.575,6.48 z m -17.168,-13.478 a 9.676,9.676 0 0 0 2.307,-0.922 v 0.001 a 0.296,0.296 0 0 0 0.166,-0.355 0.293,0.293 0 0 0 -0.124,-0.175 c -0.075,-0.066 -0.444,-0.406 -0.814,-1.106 a 7.087,7.087 0 0 1 -0.646,-1.862 9.813,9.813 0 0 1 -0.074,-0.401 10.948,10.948 0 0 1 -0.136,-1.684 0.3,0.3 0 0 0 -0.192,-0.276 l -0.018,-0.008 a 7.63,7.63 0 0 0 -1.812,-0.408 c -1.197,-0.125 -2.258,0.064 -3.097,0.543 a 0.007,0.007 0 0 1 -0.01,0 v 0.007 c -0.116,0.067 -0.227,0.14 -0.335,0.218 l -0.016,0.01 c -0.9960002,0.733 -1.5360002,1.806 -1.4770002,2.946 0.064,1.24 0.802,2.362 2.0250002,3.078 a 4.862,4.862 0 0 0 2.481,0.631 7.13,7.13 0 0 0 1.771,-0.237 z m 10.93,-9.084 c 0.625,-0.423 1.025,-1.095 1.193,-1.996 a 0.461,0.461 0 0 0 -0.277,-0.523 0.448,0.448 0 0 0 -0.602,0.34 c -0.118,0.665 -0.393,1.148 -0.812,1.435 -0.62,0.427 -1.399,0.316 -1.503,0.302 a 2.956,2.956 0 0 0 2.002,0.443 z m -10.196,-0.89 c -2.921,-0.65 -5.223,-0.191 -6.6460002,0.311 l -0.004,0.001 c -0.005,0 -0.008,-0.004 -0.007,-0.008 0.12,-1.567 1.1960002,-2.136 1.2510002,-2.163 a 0.2,0.2 0 0 0 -0.076,-0.377 0.522,0.522 0 0 1 -0.193,-0.05 0.304,0.304 0 0 1 0.04,-0.06 7.958,7.958 0 0 1 1.786,-1.394 c 1.65,-0.95 2.923,-0.861 3.7,-0.618 0.643,0.2 1.264,0.462 1.856,0.783 0.004,0.004 0.003,0.008 0,0.011 a 10.59,10.59 0 0 0 -1.698,3.56 0.007,0.007 0 0 1 -0.009,0.005 z"
       fill="#ffffff"
       id="path6" />
    <path
       fill-rule="evenodd"
       clip-rule="evenodd"
       d="m 33.879966,28.43 c 2.695,-2.888 3.129,-6.615 2.283,-9.388 0.185,-0.653 0.117,-1.442 -0.198,-2.249 a 5.456,5.456 0 0 0 -1.829,-2.371 c -1.27,-0.922 -2.871,-1.077 -4.061,-0.45 -1.488,-0.164 -2.639,-0.184 -3.515,-0.064 a 5.267,5.267 0 0 0 -0.504,-1.539 c -0.454,-0.881 -1.186,-0.96 -1.477,-0.951 -0.543,0.014 -1.07,0.319 -1.569,0.909 a 1.77,1.77 0 0 0 -0.217,-0.117 c -1.124,-0.51 -2.307,0.389 -3.22,1.229 a 15.62,15.62 0 0 0 -0.773,0.768 11.563,11.563 0 0 0 -2.326,-1.014 c -3.347,-1.047 -6.4740002,1.856 -6.9500002,2.47 a 1.43,1.43 0 0 0 -0.328,0.946 c -0.53,0.616 -1.055,1.605 -0.982,3.072 -2.056,1.3 -3.345,3.473 -3.571,6.086 l -0.005,0.043 c -0.066,0.4 0.03,0.809 0.27,1.135 -0.09,0.426 -0.125,0.862 -0.102,1.297 0.032,0.558 0.153,1.108 0.358,1.628 a 7.452,7.452 0 0 0 -0.277,-0.102 20.028,20.028 0 0 1 -0.1,-0.036 l -0.015,-0.005 a 9.908,9.908 0 0 0 -2.232,-0.448 h -0.211 c 0,0 -0.378,0.24 0.226,1.02 0.104,0.131 0.215,0.258 0.333,0.378 0,0 1.005,1.193 2.18,1.315 0.505,0.053 0.955,0.12 1.346,0.192 a 96.405,96.405 0 0 0 -3.346,0.27 45.68,45.68 0 0 0 -2.27500004,0.277 1.094,1.094 0 0 0 0.34200004,2.145 l 0.063,-0.01 c 0.239,-0.033 1.152,-0.162 2.655,-0.3 1.132,-0.105 2.6,-0.215 4.37,-0.297 l -0.015,0.008 c -1.21,0.7 -2.233,1.82 -2.996,2.846 -0.569,0.761 -1.071,1.569 -1.501,2.415 0,0 0.155,0.974 2.521,0.069 0,0 0.259,-0.079 0.641,-0.241 0.809,-0.342 2.173,-1.062 2.83,-2.231 A 27.832,27.832 0 0 1 11.621966,34.16 l 0.461,-0.005 c 0.867,-0.013 1.727,-0.017 2.575,-0.013 h 0.073 l -1.228,3.91 c -0.053,0.169 -0.099,0.34 -0.138,0.51 l -0.729,3.193 a 6.025,6.025 0 0 0 -0.112,2.093 18.998,18.998 0 0 0 9.563,2.136 l 0.201,-0.007 0.196,-0.012 c -2.176,-2.213 -3.178,-5.013 -2.98,-8.353 0.034,-0.55 0.097,-1.099 0.192,-1.643 0.036,-0.177 0.078,-0.369 0.127,-0.574 0.093,-0.398 0.263,-0.774 0.5,-1.107 0.856,-1.198 2.619,-1.813 4.985,0.307 a 12.963,12.963 0 0 1 1.579,1.741 7.666,7.666 0 0 0 -0.273,1.09 c -0.803,0.238 -2.794,0.969 -3.361,2.502 a 0.49813678,0.49813678 0 0 0 0.935,0.344 c 0.425,-1.151 2.297,-1.809 2.983,-1.966 a 0.497,0.497 0 0 0 0.386,-0.435 c 0,-0.005 0.011,-0.106 0.039,-0.265 0.109,-0.64 0.482,-2.247 1.526,-2.667 a 1.378,1.378 0 0 1 0.5,-0.1 c 0.247,-0.007 0.428,0.037 0.512,0.125 a 0.275,0.275 0 0 1 0.055,0.092 0.48,0.48 0 0 1 0.025,0.185 0.495,0.495 0 0 0 0.26,0.51 0.503,0.503 0 0 0 0.572,-0.073 c 0.064,-0.06 0.646,-0.56 1.27,-0.122 0.555,0.386 0.36,0.9 0.289,1.044 a 0.505,0.505 0 0 0 0.092,0.605 c 0.158,0.153 0.399,0.18 0.586,0.065 0.062,-0.027 0.306,-0.106 0.603,0.159 0.084,0.074 0.154,0.303 0.123,0.645 -0.06,0.657 -0.456,1.578 -1.315,2.568 a 0.418,0.418 0 0 0 0.17,0.672 h 0.012 a 0.67,0.67 0 0 0 0.733,-0.218 c 0.896,-1.094 1.318,-2.135 1.391,-2.935 0.06,-0.646 -0.101,-1.169 -0.45,-1.476 a 1.694,1.694 0 0 0 -0.859,-0.425 c 0.016,-0.496 -0.162,-1.078 -0.803,-1.522 a 1.9,1.9 0 0 0 -1.846,-0.206 1.234,1.234 0 0 0 -0.166,-0.23 c -0.304,-0.333 -0.761,-0.484 -1.36,-0.45 -0.155,0.008 -0.31,0.032 -0.461,0.07 -0.305,-0.45 -0.64,-0.88 -1.006,-1.283 -1.555,-1.703 -3.822,-3.002 -6.893,-1.955 a 11.786,11.786 0 0 1 -2.203,-1.148 0.223,0.223 0 0 0 -0.285,0.032 7.342,7.342 0 0 1 -4.763,2.2 0.225,0.225 0 0 0 -0.198,0.136 0.26,0.26 0 0 0 -0.013,0.045 0.231,0.231 0 0 0 0.047,0.197 c 0.131,0.157 0.167,0.294 0.108,0.409 -0.11,0.212 -0.589,0.41 -1.384,0.346 -1.238,-0.1 -2.044,-0.52 -2.5290002,-0.892 a 4.558,4.558 0 0 1 -0.125,-0.1 0.277,0.277 0 0 0 -0.321,-0.03 0.29,0.29 0 0 0 -0.138,0.303 l -0.02,0.03 c -0.1,0.012 -0.315,-0.04 -0.583,-0.16 a 4.153,4.153 0 0 1 -1.384,-1.042 c -1.805,-2.065 -1.284,-3.828 -0.97,-4.5 a 0.246,0.246 0 0 0 -0.015,-0.245 0.233,0.233 0 0 0 -0.255,-0.093 c -0.112,0.03 -0.174,0.019 -0.194,0 -0.02,-0.018 -0.04,-0.054 -0.02,-0.199 0,-0.01 0.002,-0.022 0.004,-0.039 l 0.005,-0.053 c 0.105,-1.199 0.647,-3.86 3.357,-5.321 l 0.075,-0.038 0.037,-0.018 a 8.807,8.807 0 0 1 1.3750002,-0.469 c 1.245,-0.318 3.248,-0.559 5.722,0.1 a 0.636,0.636 0 0 0 0.791,-0.521 c 0.012,-0.084 0.25,-1.578 1.334,-3.238 a 14.696,14.696 0 0 1 0.614,-0.74 c 0.385,-0.435 0.79,-0.85 1.218,-1.243 1.15,-1.062 1.625,-1.083 1.806,-1.001 0.346,0.157 0.324,0.97 0.316,1.237 a 0.257,0.257 0 0 0 0.49,0.116 c 0.633,-1.398 1.122,-1.78 1.422,-1.852 a 0.524,0.524 0 0 1 0.466,0.122 c 0.316,0.249 0.42,1.365 0.47,1.902 l 0.014,0.142 c 0.01,0.122 0.079,0.231 0.184,0.295 a 0.432,0.432 0 0 0 0.382,0.025 c 0.712,-0.291 2.06,-0.327 4.008,-0.106 -0.047,0.051 -0.09,0.107 -0.131,0.164 -0.675,0.977 -0.216,2.33 1.114,3.292 0.848,0.612 1.894,0.979 2.735,0.979 a 2.4,2.4 0 0 0 0.415,-0.033 c 0.284,-0.04 0.548,-0.165 0.76,-0.356 a 7.316,7.316 0 0 1 0.288,1.264 c -0.195,0.634 -0.53,0.575 -0.558,0.57 h -0.002 c -0.106,-0.025 -0.15,-0.12 -0.198,-0.23 l -0.006,-0.014 a 0.449,0.449 0 0 0 -0.813,-0.022 c -0.35,0.703 -0.803,1.142 -1.35,1.307 -0.845,0.249 -1.676,-0.219 -1.694,-0.23 a 0.449,0.449 0 0 0 -0.455,0.77 3.478,3.478 0 0 0 1.62,0.425 c 0.262,0.001 0.524,-0.036 0.776,-0.11 0.619,-0.184 1.143,-0.582 1.569,-1.19 0.14,0.105 0.31,0.169 0.485,0.184 0.256,0.014 0.508,-0.069 0.705,-0.231 -0.025,2.132 -0.86,4.62 -3.203,6.569 a 0.23,0.23 0 0 0 0.02,0.368 c 2.526,1.646 4.431,3.667 5.652,6.01 0.18,0.34 0.344,0.69 0.494,1.046 0.03,-0.056 0.06,-0.113 0.093,-0.17 l 0.041,-0.078 a 20.27,20.27 0 0 0 0.587,-1.262 c -1.044,-2.02 -2.638,-4.054 -5.065,-5.866 z m -17.66,-9.59 c -2.935,-0.654 -5.243,-0.192 -6.6670002,0.313 0.115,-1.567 1.1900002,-2.14 1.2510002,-2.174 h 10e-4 a 0.2,0.2 0 0 0 -0.076,-0.377 0.523,0.523 0 0 1 -0.193,-0.05 0.304,0.304 0 0 1 0.04,-0.06 7.956,7.956 0 0 1 1.786,-1.394 c 1.65,-0.951 2.923,-0.862 3.7,-0.618 0.646,0.2 1.27,0.464 1.863,0.787 a 10.57,10.57 0 0 0 -1.705,3.573 z m 1.607,8.527 c -0.077,-0.067 -0.446,-0.407 -0.814,-1.106 a 7.081,7.081 0 0 1 -0.646,-1.862 9.813,9.813 0 0 1 -0.075,-0.4 10.947,10.947 0 0 1 -0.135,-1.685 0.3,0.3 0 0 0 -0.192,-0.276 l -0.018,-0.008 a 7.634,7.634 0 0 0 -1.812,-0.408 c -1.2,-0.125 -2.264,0.064 -3.105,0.547 -0.115,0.066 -0.227,0.139 -0.335,0.217 l -0.016,0.01 c -1.0000002,0.733 -1.5400002,1.807 -1.4760002,2.947 0.063,1.24 0.8020002,2.362 2.0250002,3.077 a 4.86,4.86 0 0 0 2.48,0.632 7.135,7.135 0 0 0 1.772,-0.237 9.68,9.68 0 0 0 2.308,-0.922 0.296,0.296 0 0 0 0.168,-0.345 0.293,0.293 0 0 0 -0.129,-0.18 z m 8.082,-8.382 c 0.42,-0.288 0.694,-0.77 0.813,-1.436 h 0.004 l 0.006,-0.032 a 0.44818411,0.44818411 0 0 1 0.876,0.19 c -0.168,0.916 -0.57,1.595 -1.2,2.022 a 2.957,2.957 0 0 1 -1.662,0.478 2.88,2.88 0 0 1 -0.526,-0.044 0.449,0.449 0 0 1 0.175,-0.878 c 0.023,0.004 0.857,0.151 1.514,-0.3 z"
       fill="#2b3747"
       id="path8" />
  </g>
</svg>
