<?xml version="1.0" encoding="UTF-8" standalone="no"?>
<svg
   xmlns:dc="http://purl.org/dc/elements/1.1/"
   xmlns:cc="http://creativecommons.org/ns#"
   xmlns:rdf="http://www.w3.org/1999/02/22-rdf-syntax-ns#"
   xmlns:svg="http://www.w3.org/2000/svg"
   xmlns="http://www.w3.org/2000/svg"
   xmlns:sodipodi="http://sodipodi.sourceforge.net/DTD/sodipodi-0.dtd"
   xmlns:inkscape="http://www.inkscape.org/namespaces/inkscape"
   sodipodi:docname="no_img.svg"
   inkscape:version="1.0 (4035a4fb49, 2020-05-01)"
   id="svg8"
   version="1.1"
   viewBox="0 0 67.733332 67.733335"
   height="256"
   width="256">
  <defs
     id="defs2" />
  <sodipodi:namedview
     inkscape:window-maximized="1"
     inkscape:window-y="-8"
     inkscape:window-x="-8"
     inkscape:window-height="1017"
     inkscape:window-width="1920"
     units="px"
     borderlayer="true"
     showgrid="false"
     inkscape:document-rotation="0"
     inkscape:current-layer="layer1"
     inkscape:document-units="px"
     inkscape:cy="-37.721965"
     inkscape:cx="-938.61323"
     inkscape:zoom="0.49497475"
     inkscape:pageshadow="2"
     inkscape:pageopacity="0.0"
     borderopacity="1.0"
     bordercolor="#666666"
     pagecolor="#ffffff"
     id="base" />
  <metadata
     id="metadata5">
    <rdf:RDF>
      <cc:Work
         rdf:about="">
        <dc:format>image/svg+xml</dc:format>
        <dc:type
           rdf:resource="http://purl.org/dc/dcmitype/StillImage" />
        <dc:title></dc:title>
      </cc:Work>
    </rdf:RDF>
  </metadata>
  <g
     id="layer1"
     inkscape:groupmode="layer"
     inkscape:label="Calque 1">
    <rect
       y="0"
       x="0"
       height="67.657738"
       width="67.657738"
       id="rect870"
       style="fill:#f2f2f2;stroke-width:0.264999;stroke-linecap:round;stroke-linejoin:round" />
    <path
       transform="scale(0.26458333)"
       d="M 87.191406 89.246094 C 86.888549 89.242533 86.637969 89.322969 86.464844 89.496094 C 85.772344 90.18859 86.570165 92.099462 88.251953 93.78125 L 158.25195 163.78125 C 159.93374 165.46303 161.84461 166.26086 162.53711 165.56836 C 163.22961 164.87586 162.43374 162.96303 160.75195 161.28125 L 90.751953 91.28125 C 89.490612 90.019918 88.099978 89.256776 87.191406 89.246094 z M 120.36523 97.857422 C 120.37544 97.877453 120.38237 97.897231 120.39258 97.916016 C 118.70438 98.048639 117.10173 98.788377 115.97656 100.03516 L 111.82422 104.55469 L 108.27148 104.55469 L 120.23633 116.51953 C 120.64474 116.30502 121.05711 116.09878 121.48438 115.91797 C 123.48759 115.07018 125.68905 114.60352 128 114.60352 C 130.31095 114.60352 132.51241 115.07018 134.51562 115.91797 C 136.51888 116.76572 138.32433 117.99425 139.83984 119.50977 C 142.11312 121.78304 143.73668 124.70518 144.40625 127.97461 C 144.51778 128.51949 144.6029 129.07203 144.66016 129.63477 C 144.71776 130.19957 144.74609 130.76966 144.74609 131.34961 C 144.74609 134.15262 144.04911 136.79116 142.83008 139.11328 L 159.69922 155.98242 C 160.22365 155.41678 160.65709 154.76857 160.96289 154.04883 C 161.30305 153.24817 161.49219 152.36635 161.49219 151.44531 L 161.49219 117.01758 L 161.49219 111.25391 C 161.49219 107.56978 158.4771 104.55469 154.79297 104.55469 L 144.17773 104.55469 L 140.02344 100.03516 C 138.89837 98.788373 137.29529 98.048545 135.60742 97.916016 C 135.61763 97.895984 135.62456 97.876168 135.63477 97.857422 L 135.09766 97.857422 L 120.90234 97.857422 L 120.36523 97.857422 z M 96.621094 106.39258 C 95.325176 107.61601 94.507812 109.34201 94.507812 111.25391 L 94.507812 117.01758 L 94.507812 151.44531 C 94.507812 152.36635 94.696846 153.24817 95.037109 154.04883 C 95.207226 154.44916 95.41096 154.8232 95.652344 155.17969 C 95.894498 155.53802 96.171688 155.86895 96.476562 156.17383 C 97.083608 156.78087 97.802819 157.2731 98.603516 157.61328 C 99.404178 157.9534 100.286 158.14258 101.20703 158.14258 L 148.37109 158.14258 L 136.17969 145.95117 C 133.75915 147.3108 130.97208 148.0957 128 148.0957 C 118.75619 148.0957 111.25391 140.59342 111.25391 131.34961 C 111.25391 130.76966 111.2816 130.19957 111.33984 129.63477 C 111.3971 129.07203 111.48218 128.51949 111.59375 127.97461 C 111.94468 126.26105 112.56342 124.6453 113.39453 123.16602 L 96.621094 106.39258 z M 154.82031 109.63867 A 2.325957 2.325957 0 0 1 154.95117 109.63867 A 2.325957 2.325957 0 0 1 157.2793 111.96094 A 2.325957 2.325957 0 0 1 154.95117 114.28906 A 2.325957 2.325957 0 0 1 152.62109 111.96094 A 2.325957 2.325957 0 0 1 154.82031 109.63867 z M 127.83008 121.30078 A 10.047622 10.047622 0 0 0 125.36914 121.65234 L 137.69727 133.98047 A 10.047622 10.047622 0 0 0 138.04688 131.34961 A 10.047622 10.047622 0 0 0 128 121.30078 A 10.047622 10.047622 0 0 0 127.83008 121.30078 z M 118.45117 128.22266 A 10.047622 10.047622 0 0 0 117.95312 131.34961 A 10.047622 10.047622 0 0 0 128 141.39648 A 10.047622 10.047622 0 0 0 131.12695 140.89844 L 118.45117 128.22266 z "
       style="fill:#999999;stroke-width:0.999999"
       id="path839" />
    <rect
       transform="rotate(45)"
       rx="1.1358955"
       ry="1.1358955"
       y="0.099238105"
       x="32.920433"
       height="0.93544334"
       width="28.464205"
       id="rect872"
       style="fill:#999999;stroke-width:0.264999;stroke-linecap:round;stroke-linejoin:round" />
  </g>
</svg>
