<?xml version="1.0" encoding="UTF-8" standalone="no"?>
<!-- Created with Inkscape (http://www.inkscape.org/) -->

<svg
   width="40"
   height="40"
   viewBox="0 0 10.583333 10.583333"
   version="1.1"
   id="svg5"
   xml:space="preserve"
   inkscape:version="1.2 (dc2aedaf03, 2022-05-15)"
   sodipodi:docname="palette.svg"
   xmlns:inkscape="http://www.inkscape.org/namespaces/inkscape"
   xmlns:sodipodi="http://sodipodi.sourceforge.net/DTD/sodipodi-0.dtd"
   xmlns="http://www.w3.org/2000/svg"
   xmlns:svg="http://www.w3.org/2000/svg"><sodipodi:namedview
     id="namedview7"
     pagecolor="#ffffff"
     bordercolor="#666666"
     borderopacity="1.0"
     inkscape:showpageshadow="2"
     inkscape:pageopacity="0.0"
     inkscape:pagecheckerboard="0"
     inkscape:deskcolor="#d1d1d1"
     inkscape:document-units="mm"
     showgrid="false"
     inkscape:zoom="4.7572176"
     inkscape:cx="-1.4714484"
     inkscape:cy="19.023725"
     inkscape:window-width="1920"
     inkscape:window-height="1017"
     inkscape:window-x="-8"
     inkscape:window-y="-8"
     inkscape:window-maximized="1"
     inkscape:current-layer="layer1" /><defs
     id="defs2" /><g
     inkscape:label="Calque 1"
     inkscape:groupmode="layer"
     id="layer1"><path
       style="fill:#000000;stroke:none;stroke-width:1.05833;stroke-linecap:round;stroke-linejoin:round"
       d="M 6.7002348,9.4422068 C 6.1639923,9.2321384 5.8689492,8.6286236 5.8842477,8.0662813 5.7080684,7.2814212 4.8453819,6.8629899 4.1030605,6.96128 2.9906758,6.9914698 1.8164259,7.3166 0.75637465,6.8143247 0.23181898,6.6391187 0.08889439,6.0634986 0.14470821,5.5650531 0.22235164,4.2185599 1.198997,3.0944037 2.3399857,2.4973484 3.0726769,2.0935228 3.8864325,1.7855023 4.7318907,1.8198144 5.7513865,1.8163782 6.8254184,1.7450879 7.7712839,2.2047982 8.8564313,2.6909074 9.859722,3.5079791 10.297344,4.6582245 10.683383,5.569999 10.57573,6.6435777 10.073622,7.4870002 9.5059453,8.4873276 8.5287109,9.2719738 7.4117963,9.5217591 7.1732667,9.5555864 6.9242094,9.5357595 6.7002348,9.4422068 Z M 8.1678265,8.430742 C 8.7331029,8.046936 8.5402583,7.0275886 7.8718486,6.8850113 7.3432237,6.6889126 6.7365127,7.142034 6.7758354,7.7162163 6.7680816,8.1957928 7.1966588,8.6736529 7.6891069,8.5681056 7.8552826,8.5599462 8.0304777,8.5338919 8.1678265,8.430742 Z M 9.3330903,6.0479616 C 9.781036,5.7077364 9.295977,4.9239636 8.7942263,5.1208441 8.2103198,5.3076115 8.4186223,6.2352161 9.0163137,6.1905156 9.1348925,6.1841175 9.24738,6.1294908 9.3330903,6.0479616 Z M 2.2982795,4.7292633 C 2.8974479,4.4342476 2.3187842,3.3928003 1.7595979,3.7712832 1.2072616,4.1350586 1.6500334,5.1517869 2.2982795,4.7292633 Z M 8.3042619,4.0885995 C 8.8525473,3.7059961 8.1679079,2.8141028 7.6477236,3.225842 7.1209185,3.5559684 7.6225823,4.5106343 8.1711617,4.1795795 l 0.068936,-0.043028 z M 4.041861,3.5188385 C 4.5139244,3.0632587 3.7158436,2.3034175 3.27432,2.7579964 2.8106383,3.1989232 3.5154488,4.1025005 3.9910174,3.5730328 Z M 6.2127488,3.3716005 C 6.6950196,2.9812088 5.9914704,2.1120535 5.5251884,2.5390768 4.9858518,2.9040608 5.4843751,3.7863417 6.0644243,3.4749205 l 0.078258,-0.045022 z"
       id="path317" /></g></svg>
