<?xml version="1.0" encoding="UTF-8" standalone="no"?>
<svg
   class="icon"
   height="64"
   version="1.1"
   id="svg4"
   sodipodi:docname="payment-amount.svg"
   width="64"
   inkscape:version="1.2 (dc2aedaf03, 2022-05-15)"
   xmlns:inkscape="http://www.inkscape.org/namespaces/inkscape"
   xmlns:sodipodi="http://sodipodi.sourceforge.net/DTD/sodipodi-0.dtd"
   xmlns="http://www.w3.org/2000/svg"
   xmlns:svg="http://www.w3.org/2000/svg">
  <defs
     id="defs8" />
  <sodipodi:namedview
     id="namedview6"
     pagecolor="#ffffff"
     bordercolor="#666666"
     borderopacity="1.0"
     inkscape:showpageshadow="2"
     inkscape:pageopacity="0.0"
     inkscape:pagecheckerboard="0"
     inkscape:deskcolor="#d1d1d1"
     showgrid="false"
     inkscape:zoom="1.84375"
     inkscape:cx="69.423729"
     inkscape:cy="-39.322034"
     inkscape:window-width="1920"
     inkscape:window-height="1017"
     inkscape:window-x="-8"
     inkscape:window-y="-8"
     inkscape:window-maximized="1"
     inkscape:current-layer="svg4" />
  <path
     d="m 61.373928,30.041832 c -0.04353,-0.06531 -1.734283,-2.387361 -2.888054,-3.962002 l 0.89254,-0.89254 c 0.819976,-0.812717 0.819976,-2.12613 0,-2.931591 L 40.366607,3.3672506 c -0.783694,-0.7764358 -2.176925,-0.7764358 -2.960619,0 L 2.8872216,37.639298 c -0.8199747,0.81272 -0.8199747,2.12613 0,2.931593 L 13.242127,50.845975 v 3.308926 c 0,5.333469 9.839697,8.119928 19.556038,8.119928 9.71634,0 19.556039,-2.786459 19.556039,-8.119928 V 39.076068 l 8.555315,-6.146182 c 0.449898,-0.326539 0.74741,-0.81272 0.834486,-1.35695 0.08708,-0.529718 -0.04354,-1.088462 -0.370077,-1.531104 z m -48.110031,9.563955 c -0.0073,0.10159 -0.02178,0.210435 -0.02178,0.319282 v 7.118545 L 5.2528067,39.105096 38.886291,6.0448668 57.353869,23.721495 46.440218,34.061885 c -3.519361,-1.117487 -9.251928,-2.264001 -13.642059,-2.264001 -9.527673,0 -19.156936,2.684874 -19.534269,7.807903 z m 35.128305,10.071906 c -0.529719,0.341052 -1.197309,0.682102 -2.017284,1.008643 -0.79095,0.319284 -1.727027,0.624049 -2.779209,0.899794 -2.336564,0.609539 -5.289925,1.081205 -8.860083,1.204563 -0.631306,0.02177 -1.284384,0.03629 -1.951974,0.03629 h -0.268488 c -1.785076,-0.0073 -3.432283,-0.101592 -4.948876,-0.253979 -0.297513,-0.02903 -0.595025,-0.06531 -0.892538,-0.101591 -1.777821,-0.217688 -3.345207,-0.522458 -4.702155,-0.878023 -1.052182,-0.275745 -1.988258,-0.580515 -2.779207,-0.899794 -0.819976,-0.333798 -1.487566,-0.674848 -2.017284,-1.008644 -0.943335,-0.602283 -1.444028,-1.190052 -1.444028,-1.654462 0,-0.464412 0.500693,-1.052182 1.444028,-1.647207 1.53836,0.682101 3.359718,1.226334 5.355234,1.654463 1.872154,0.391847 3.903951,0.674846 5.986541,0.834489 0.616795,0.04354 1.240848,0.07982 1.864898,0.108846 0.783694,0.03628 1.5819,0.05079 2.372849,0.05079 h 0.03628 c 1.306154,0 2.612311,-0.04354 3.896696,-0.137873 0.12336,-0.0073 0.246717,-0.0145 0.377333,-0.02902 1.422259,-0.108846 2.815489,-0.275744 4.150671,-0.493436 0.62405,-0.10159 1.23359,-0.217694 1.828617,-0.341051 1.995514,-0.420874 3.809617,-0.972362 5.355233,-1.654466 0.943335,0.602283 1.444028,1.190053 1.444028,1.64721 0,0.464409 -0.500693,1.052179 -1.451284,1.654462 z m 2.808232,-12.698729 c -0.03628,-0.02902 -0.137871,-0.362819 -0.732898,-0.827231 -0.478923,-0.370077 -1.465796,-0.892537 -1.567386,-0.957847 0,0 7.764365,-7.278183 7.822416,-7.198363 0,0 2.111616,2.750182 2.445412,3.207336 z m -1.248103,3.388747 c 0,3.033181 -8.272314,6.102645 -17.14691,6.102645 -8.874597,0 -17.233986,-3.069464 -17.233986,-6.102645 0,-3.033181 8.352134,-6.363877 17.233986,-6.363877 8.874596,-0.0073 17.14691,3.330696 17.14691,6.363877 z m -1.560129,15.964115 c -0.529719,0.341051 -1.197309,0.682102 -2.017284,1.008648 -0.79095,0.319279 -1.727027,0.624049 -2.779209,0.899789 -2.336564,0.609539 -5.289925,1.08121 -8.860083,1.204564 -0.631306,0.02177 -1.284384,0.03624 -1.951974,0.03624 h -0.268488 c -1.785076,-0.0073 -3.432283,-0.101592 -4.948876,-0.253974 -0.297513,-0.02908 -0.595025,-0.06531 -0.892538,-0.101592 -1.777821,-0.217697 -3.345207,-0.522466 -4.702155,-0.878027 -1.052182,-0.275745 -1.988258,-0.58051 -2.779207,-0.899799 -0.819976,-0.333793 -1.487566,-0.674844 -2.017284,-1.008637 -0.943335,-0.602282 -1.444028,-1.190054 -1.444028,-1.654468 0,-0.457152 0.500693,-1.052177 1.444028,-1.647201 1.53836,0.674844 3.359719,1.226335 5.355234,1.654463 1.872154,0.391841 3.903951,0.674844 5.986541,0.834489 0.616795,0.04349 1.240848,0.08707 1.864898,0.108843 0.783694,0.03624 1.5819,0.05079 2.372849,0.05079 h 0.03628 c 1.306154,0 2.612311,-0.04349 3.896696,-0.137872 0.12336,-0.0073 0.246717,-0.02177 0.377333,-0.02908 1.422259,-0.108849 2.815489,-0.268489 4.150671,-0.493438 0.62405,-0.101587 1.23359,-0.217693 1.828617,-0.341051 1.995514,-0.420871 3.809617,-0.972362 5.355233,-1.654463 0.943335,0.602282 1.444028,1.190049 1.444028,1.647206 0,0.471666 -0.500693,1.052186 -1.451284,1.654463 z"
     id="path2"
     style="stroke-width:0.999998" />
</svg>
