<?xml version="1.0" encoding="iso-8859-1"?>
<!-- Generator: Adobe Illustrator 19.0.0, SVG Export Plug-In . SVG Version: 6.00 Build 0)  -->
<svg version="1.1" id="Layer_1" xmlns="http://www.w3.org/2000/svg" xmlns:xlink="http://www.w3.org/1999/xlink" x="0px" y="0px"
	 viewBox="0 0 498.776 498.776" style="enable-background:new 0 0 498.776 498.776;" xml:space="preserve">
<g>
	<g>
		<g>
			<path d="M138.568,210.08H359.84l83.472,33.384L498.776,188L446.104,56.312L360.216,82.08h-221.28L55.464,48.696L0,104.16
				l52.672,131.688L138.568,210.08z M449.392,107.624l26.168,65.416l-26.168-8.728V107.624z M449.392,181.184l25.192,8.4
				l-25.192,25.184V181.184z M369.392,96.032l64-19.2v145.432l-64-25.6V96.032z M65.392,69.896l64,25.6v66.584h16v-64h208v96h-208
				v-16h-16v18.048l-64,19.2V69.896z M49.392,184.536L23.224,119.12l26.168,8.728V184.536z M49.392,110.976l-25.192-8.4
				l25.192-25.184V110.976z"/>
			<path d="M89.392,314.08c-22.056,0-40,17.944-40,40c0,22.056,17.944,40,40,40c22.056,0,40-17.944,40-40
				C129.392,332.024,111.448,314.08,89.392,314.08z M89.392,378.08c-13.232,0-24-10.768-24-24s10.768-24,24-24s24,10.768,24,24
				S102.624,378.08,89.392,378.08z"/>
			<path d="M89.392,266.08c-48.52,0-88,39.48-88,88c0,48.52,39.48,88,88,88s88-39.48,88-88
				C177.392,305.56,137.912,266.08,89.392,266.08z M89.392,426.08c-39.696,0-72-32.304-72-72s32.304-72,72-72s72,32.304,72,72
				S129.088,426.08,89.392,426.08z"/>
			<path d="M441.392,274.08c-25.112,0-46.68,16.464-53.632,40h-84.736c-6.952-23.536-28.52-40-53.632-40c-30.88,0-56,25.12-56,56
				c0,11.496,3.544,22.632,10.096,32c-6.552,9.368-10.096,20.504-10.096,32c0,30.88,25.12,56,56,56c25.112,0,46.68-16.464,53.632-40
				h84.736c6.952,23.536,28.52,40,53.632,40c30.88,0,56-25.12,56-56c0-11.496-3.544-22.632-10.096-32
				c6.552-9.368,10.096-20.504,10.096-32C497.392,299.2,472.272,274.08,441.392,274.08z M471.144,367.416
				c6.608,7.376,10.248,16.84,10.248,26.664c0,22.056-17.944,40-40,40c-19.576,0-36.144-14.016-39.392-33.328l-1.12-6.672H289.904
				l-1.128,6.672c-3.24,19.312-19.808,33.328-39.384,33.328c-22.056,0-40-17.944-40-40c0-9.824,3.64-19.288,10.248-26.664
				l4.792-5.336l-4.792-5.336c-6.608-7.376-10.248-16.84-10.248-26.664c0-22.056,17.944-40,40-40
				c19.576,0,36.144,14.016,39.392,33.328l1.12,6.672h110.968l1.128-6.672c3.248-19.312,19.816-33.328,39.392-33.328
				c22.056,0,40,17.944,40,40c0,9.824-3.64,19.288-10.248,26.664l-4.792,5.336L471.144,367.416z"/>
			<rect x="161.392" y="114.08" width="88" height="16"/>
			<rect x="265.392" y="114.08" width="16" height="16"/>
			<rect x="289.392" y="346.08" width="56" height="16"/>
			<rect x="361.392" y="346.08" width="16" height="16"/>
		</g>
	</g>
</g>
<g>
</g>
<g>
</g>
<g>
</g>
<g>
</g>
<g>
</g>
<g>
</g>
<g>
</g>
<g>
</g>
<g>
</g>
<g>
</g>
<g>
</g>
<g>
</g>
<g>
</g>
<g>
</g>
<g>
</g>
</svg>
