<?xml version="1.0" encoding="UTF-8" standalone="no"?>
<svg
   xmlns:dc="http://purl.org/dc/elements/1.1/"
   xmlns:cc="http://creativecommons.org/ns#"
   xmlns:rdf="http://www.w3.org/1999/02/22-rdf-syntax-ns#"
   xmlns:svg="http://www.w3.org/2000/svg"
   xmlns="http://www.w3.org/2000/svg"
   xmlns:sodipodi="http://sodipodi.sourceforge.net/DTD/sodipodi-0.dtd"
   xmlns:inkscape="http://www.inkscape.org/namespaces/inkscape"
   inkscape:version="1.0 (4035a4fb49, 2020-05-01)"
   sodipodi:docname="pet_grooming.svg"
   xml:space="preserve"
   style="enable-background:new 0 0 495.893 495.893;"
   viewBox="0 0 495.893 495.893"
   y="0px"
   x="0px"
   id="Capa_1"
   version="1.1"><metadata
   id="metadata51"><rdf:RDF><cc:Work
       rdf:about=""><dc:format>image/svg+xml</dc:format><dc:type
         rdf:resource="http://purl.org/dc/dcmitype/StillImage" /></cc:Work></rdf:RDF></metadata><defs
   id="defs49">
	
	
	
	
	
	
</defs><sodipodi:namedview
   inkscape:current-layer="Capa_1"
   inkscape:window-maximized="1"
   inkscape:window-y="-8"
   inkscape:window-x="-8"
   inkscape:cy="256.65016"
   inkscape:cx="284.72267"
   inkscape:zoom="1.1433918"
   showgrid="false"
   id="namedview47"
   inkscape:window-height="1017"
   inkscape:window-width="1920"
   inkscape:pageshadow="2"
   inkscape:pageopacity="0"
   guidetolerance="10"
   gridtolerance="10"
   objecttolerance="10"
   borderopacity="1"
   bordercolor="#666666"
   pagecolor="#ffffff" />
<path
   style="stroke-width:1"
   d="m 348.99021,310.22369 c -29.82859,0 -54.09748,22.6359 -54.09748,50.45897 0,13.73406 8.10056,21.93302 21.66828,21.93302 5.98258,0 12.44898,-1.49828 18.70217,-2.94619 5.03254,-1.16559 10.23611,-2.37101 13.72703,-2.37101 3.01882,0 7.95765,1.15153 12.73364,2.26558 6.43711,1.50062 13.09211,3.05162 19.32304,3.05162 10e-4,0 0.002,0 0.004,0 13.802,-10e-4 22.04197,-8.20131 22.04197,-21.93302 -10e-4,-27.82307 -24.27007,-50.45897 -54.10217,-50.45897 z m 34.22035,52.50549 c -0.37487,0.0879 -1.05548,0.19329 -2.16367,0.19329 -3.96535,0.001 -9.50044,-1.28977 -14.85279,-2.53853 -6.13019,-1.42917 -11.92183,-2.77985 -17.20506,-2.77985 -5.74127,0 -12.06006,1.46431 -18.17034,2.87942 -5.17545,1.19956 -10.52663,2.43896 -14.25886,2.43896 -0.8657,0 -1.43971,-0.0691 -1.79232,-0.13589 -0.0867,-0.39127 -0.18275,-1.06134 -0.18275,-2.1051 0,-16.96491 15.43384,-30.76574 34.40427,-30.76574 18.97278,0 34.40895,13.80083 34.40895,30.76574 0.001,1.03791 -0.10192,1.68572 -0.18743,2.0477 z"
   id="path2" /><path
   style="stroke-width:1"
   d="m 317.71957,295.17995 c 0,-15.60603 -10.92024,-28.30219 -24.3427,-28.30219 -13.42245,0 -24.34386,12.69616 -24.34386,28.30219 0,15.60604 10.92024,28.30219 24.34386,28.30219 13.42363,0 24.3427,-12.69615 24.3427,-28.30219 z m -24.34152,8.60898 c -1.85089,0 -4.65065,-3.43352 -4.65065,-8.61015 0,-5.17663 2.79976,-8.61014 4.65065,-8.61014 1.85206,0 4.64947,3.43468 4.64947,8.61014 0,5.17663 -2.79859,8.61015 -4.64947,8.61015 z"
   id="path4" /><path
   style="stroke-width:1"
   d="m 350.51661,292.96006 c 13.42245,0 24.34386,-12.69616 24.34386,-28.30219 0,-15.60604 -10.92024,-28.30219 -24.34386,-28.30219 -13.42246,0 -24.34153,12.69615 -24.34153,28.30219 0,15.60603 10.91907,28.30219 24.34153,28.30219 z m 0,-36.91351 c 1.85206,0 4.65182,3.43469 4.65182,8.61015 0,5.17545 -2.79976,8.61014 -4.65182,8.61014 -1.85089,0 -4.64948,-3.43469 -4.64948,-8.61014 0,-5.17546 2.79859,-8.61015 4.64948,-8.61015 z"
   id="path6" /><path
   style="stroke-width:1"
   d="m 407.65868,266.87776 c -13.42245,0 -24.34386,12.69616 -24.34386,28.30219 0,15.60604 10.92024,28.30219 24.34386,28.30219 13.42363,0 24.3427,-12.69615 24.3427,-28.30219 0,-15.6072 -10.92024,-28.30219 -24.3427,-28.30219 z m 0,36.91117 c -1.85206,0 -4.65182,-3.43352 -4.65182,-8.61015 0,-5.17663 2.79976,-8.61014 4.65182,-8.61014 1.85206,0 4.65065,3.43468 4.65065,8.61014 0,5.17663 -2.79976,8.61015 -4.65065,8.61015 z"
   id="path8" /><path
   sodipodi:nodetypes="sccccssscccccssscsccscccccssccccsc"
   d="m 71.716442,242.64934 v 18.96875 c 0.08547,0.0222 0.16805,0.0487 0.253907,0.0703 0.572998,14.226 1.509328,47.85309 -0.01367,59.49609 -1.531,11.702 -3.827829,23.95378 -6.048828,35.80078 -3.309,17.652 -6.166016,32.89642 -6.166016,43.98242 0,39.703 21.262296,70.80274 48.404295,70.80274 27.143,0 48.40234,-31.10074 48.40234,-70.80274 0,-11.086 -2.85701,-26.33042 -6.16601,-43.98242 -2.22,-11.847 -4.51588,-24.09878 -6.04688,-35.80078 -1.699,-12.99 -0.35472,-50.72809 -0.0117,-59.49609 v -18.01367 c -0.42644,0.22966 -0.82991,0.45752 -1.25976,0.6875 -2.244,1.125 -4.94133,1.65039 -8.48633,1.65039 -3.706,0 -7.75688,-0.57369 -12.04688,-1.17969 -4.672,-0.66 -9.50476,-1.3418 -14.38476,-1.3418 -4.879,0 -9.710809,0.6828 -14.382809,1.3418 -4.29,0.606 -8.34283,1.17969 -12.04883,1.17969 -3.545002,0 -6.242328,-0.5244 -8.486328,-1.65039 -0.515318,-0.57555 -1.004905,-1.1408 -1.511719,-1.7129 z m 36.429688,17.65235 c 3.699,0 7.7472,0.57078 12.0332,1.17578 2.393,0.338 4.82997,0.68055 7.29297,0.93555 -0.426,11.156 -1.61364,47.13117 0.19336,60.95117 1.591,12.162 3.93231,24.64581 6.19531,36.71679 3.023,16.128 5.87696,31.36272 5.87696,40.88672 0.002,29.268 -14.4658,53.99219 -31.5918,53.99219 -17.125999,0 -31.59375,-24.72619 -31.59375,-53.99219 0,-9.524 2.855901,-24.75676 5.878911,-40.88476 2.263,-12.072 4.60235,-24.5548 6.19335,-36.7168 1.808,-13.82 0.62232,-49.79612 0.19532,-60.95312 2.463,-0.255 4.89897,-0.59755 7.29297,-0.93555 4.285999,-0.605 8.335199,-1.17578 12.033199,-1.17578 z"
   id="path10" /><path
   style="stroke-width:1"
   d="M 438.09291,80.913857 H 416.8487 V 50.103595 c 0,-18.616657 -15.14566,-33.76114 -33.76114,-33.76114 h -60.58614 c -18.61548,0 -33.76114,15.145655 -33.76114,33.76114 v 30.810262 h -21.24421 c -18.61666,0 -33.76114,15.145655 -33.76114,33.762313 V 448.6924 c 0,18.61665 15.14565,33.76114 33.76114,33.76114 h 170.59567 c 18.61666,0 33.76114,-15.14566 33.76114,-33.76114 V 114.675 c 0.002,-18.615488 -15.14331,-33.761143 -33.75997,-33.761143 z M 253.42814,223.37017 H 452.16201 V 398.43609 H 253.42814 Z M 308.4335,50.103595 c 0,-7.758502 6.31059,-14.069095 14.06909,-14.069095 h 60.58614 c 7.75733,0 14.06909,6.310593 14.06909,14.069095 V 80.913857 H 308.43467 V 50.103595 Z m -40.93626,50.502305 170.59567,0.001 c 7.75733,0 14.0691,6.31176 14.0691,14.0691 v 89.0031 H 253.42814 v -89.00313 c 0,-7.7585 6.3106,-14.07027 14.0691,-14.07027 z M 438.09291,462.76149 H 267.49724 c -7.7585,0 -14.0691,-6.31176 -14.0691,-14.06909 v -30.56309 h 198.73387 v 30.56309 c 0,7.75733 -6.3106,14.06909 -14.0691,14.06909 z"
   id="path12" />
<g
   id="g16">
</g>
<g
   id="g18">
</g>
<g
   id="g20">
</g>
<g
   id="g22">
</g>
<g
   id="g24">
</g>
<g
   id="g26">
</g>
<g
   id="g28">
</g>
<g
   id="g30">
</g>
<g
   id="g32">
</g>
<g
   id="g34">
</g>
<g
   id="g36">
</g>
<g
   id="g38">
</g>
<g
   id="g40">
</g>
<g
   id="g42">
</g>
<g
   id="g44">
</g>
<rect
   y="19.443027"
   x="97.07959"
   height="226.56126"
   width="24.488543"
   id="rect894"
   style="fill:#000000;fill-opacity:1;stroke:none;stroke-width:3;stroke-linecap:round;stroke-linejoin:round" /><rect
   y="32.814037"
   x="22.739361"
   height="5.2475452"
   width="174.04358"
   id="rect896"
   style="fill:#000000;fill-opacity:1;stroke:none;stroke-width:3;stroke-linecap:round;stroke-linejoin:round" /><rect
   style="fill:#000000;fill-opacity:1;stroke:none;stroke-width:3;stroke-linecap:round;stroke-linejoin:round"
   id="rect898"
   width="174.04358"
   height="5.2475452"
   x="22.739361"
   y="63.562672" /><rect
   y="53.313129"
   x="22.739361"
   height="5.2475452"
   width="174.04358"
   id="rect900"
   style="fill:#000000;fill-opacity:1;stroke:none;stroke-width:3;stroke-linecap:round;stroke-linejoin:round" /><rect
   style="fill:#000000;fill-opacity:1;stroke:none;stroke-width:3;stroke-linecap:round;stroke-linejoin:round"
   id="rect902"
   width="174.04358"
   height="5.2475452"
   x="22.739361"
   y="43.063583" /><rect
   y="73.812218"
   x="22.739361"
   height="5.2475452"
   width="174.04358"
   id="rect904"
   style="fill:#000000;fill-opacity:1;stroke:none;stroke-width:3;stroke-linecap:round;stroke-linejoin:round" /><rect
   style="fill:#000000;fill-opacity:1;stroke:none;stroke-width:3;stroke-linecap:round;stroke-linejoin:round"
   id="rect906"
   width="174.04358"
   height="5.2475452"
   x="22.739361"
   y="84.06176" /><rect
   y="94.31131"
   x="22.739361"
   height="5.2475452"
   width="174.04358"
   id="rect908"
   style="fill:#000000;fill-opacity:1;stroke:none;stroke-width:3;stroke-linecap:round;stroke-linejoin:round" /><rect
   style="fill:#000000;fill-opacity:1;stroke:none;stroke-width:3;stroke-linecap:round;stroke-linejoin:round"
   id="rect910"
   width="174.04358"
   height="5.2475452"
   x="22.739361"
   y="114.8104" /><rect
   y="166.05814"
   x="22.739361"
   height="5.2475452"
   width="174.04358"
   id="rect912"
   style="fill:#000000;fill-opacity:1;stroke:none;stroke-width:3;stroke-linecap:round;stroke-linejoin:round" /><rect
   style="fill:#000000;fill-opacity:1;stroke:none;stroke-width:3;stroke-linecap:round;stroke-linejoin:round"
   id="rect914"
   width="174.04358"
   height="5.2475452"
   x="22.739361"
   y="155.80858" /><rect
   y="104.56086"
   x="22.739361"
   height="5.2475452"
   width="174.04358"
   id="rect916"
   style="fill:#000000;fill-opacity:1;stroke:none;stroke-width:3;stroke-linecap:round;stroke-linejoin:round" /><rect
   style="fill:#000000;fill-opacity:1;stroke:none;stroke-width:3;stroke-linecap:round;stroke-linejoin:round"
   id="rect918"
   width="174.04358"
   height="5.2475452"
   x="22.739361"
   y="125.05994" /><rect
   y="135.30949"
   x="22.739361"
   height="5.2475452"
   width="174.04358"
   id="rect920"
   style="fill:#000000;fill-opacity:1;stroke:none;stroke-width:3;stroke-linecap:round;stroke-linejoin:round" /><rect
   style="fill:#000000;fill-opacity:1;stroke:none;stroke-width:3;stroke-linecap:round;stroke-linejoin:round"
   id="rect922"
   width="174.04358"
   height="5.2475452"
   x="22.739361"
   y="145.55904" /><rect
   y="176.30768"
   x="22.739361"
   height="5.2475452"
   width="174.04358"
   id="rect924"
   style="fill:#000000;fill-opacity:1;stroke:none;stroke-width:3;stroke-linecap:round;stroke-linejoin:round" /><rect
   style="fill:#000000;fill-opacity:1;stroke:none;stroke-width:3;stroke-linecap:round;stroke-linejoin:round"
   id="rect926"
   width="174.04358"
   height="5.2475452"
   x="22.739361"
   y="186.55722" /><rect
   y="196.80676"
   x="22.739361"
   height="5.2475452"
   width="174.04358"
   id="rect928"
   style="fill:#000000;fill-opacity:1;stroke:none;stroke-width:3;stroke-linecap:round;stroke-linejoin:round" /><rect
   style="fill:#000000;fill-opacity:1;stroke:none;stroke-width:3;stroke-linecap:round;stroke-linejoin:round"
   id="rect930"
   width="174.04358"
   height="5.2475452"
   x="22.739361"
   y="207.0563" /><rect
   y="217.30586"
   x="22.739361"
   height="5.2475452"
   width="174.04358"
   id="rect932"
   style="fill:#000000;fill-opacity:1;stroke:none;stroke-width:3;stroke-linecap:round;stroke-linejoin:round" /></svg>
