<?xml version="1.0" encoding="UTF-8" standalone="no"?>
<svg
   xmlns:dc="http://purl.org/dc/elements/1.1/"
   xmlns:cc="http://creativecommons.org/ns#"
   xmlns:rdf="http://www.w3.org/1999/02/22-rdf-syntax-ns#"
   xmlns:svg="http://www.w3.org/2000/svg"
   xmlns="http://www.w3.org/2000/svg"
   xmlns:sodipodi="http://sodipodi.sourceforge.net/DTD/sodipodi-0.dtd"
   xmlns:inkscape="http://www.inkscape.org/namespaces/inkscape"
   inkscape:version="1.0 (4035a4fb49, 2020-05-01)"
   sodipodi:docname="rabbit-face-outline.svg"
   xml:space="preserve"
   style="enable-background:new 0 0 512.001 512.001;"
   viewBox="0 0 512.001 512.001"
   y="0px"
   x="0px"
   id="Layer_1"
   version="1.1"><metadata
   id="metadata47"><rdf:RDF><cc:Work
       rdf:about=""><dc:format>image/svg+xml</dc:format><dc:type
         rdf:resource="http://purl.org/dc/dcmitype/StillImage" /></cc:Work></rdf:RDF></metadata><defs
   id="defs45">
	
	
</defs><sodipodi:namedview
   inkscape:current-layer="Layer_1"
   inkscape:window-maximized="1"
   inkscape:window-y="-8"
   inkscape:window-x="-8"
   inkscape:cy="383.83272"
   inkscape:cx="-146.39939"
   inkscape:zoom="0.71972852"
   showgrid="false"
   id="namedview43"
   inkscape:window-height="1017"
   inkscape:window-width="1920"
   inkscape:pageshadow="2"
   inkscape:pageopacity="0"
   guidetolerance="10"
   gridtolerance="10"
   objecttolerance="10"
   borderopacity="1"
   bordercolor="#666666"
   pagecolor="#ffffff" />
<path
   d="m 210.41211,401.13672 c -7.999,0 -14.48242,6.48342 -14.48242,14.48242 v 79.89844 c 0,7.999 6.48342,14.48437 14.48242,14.48437 h 93.17383 c 7.999,0 14.48242,-6.48537 14.48242,-14.48437 v -79.89844 c 0,-7.999 -6.48342,-14.48242 -14.48242,-14.48242 z m 8.48437,26.9668 h 29.76563 v 58.93164 h -29.76563 z m 46.43946,0 h 27.76758 v 58.93164 h -27.76758 z"
   style="fill:#000000;fill-opacity:1"
   id="path2" /><path
   sodipodi:nodetypes="ccsccscccccccccc"
   d="M 109.41016,3.9179688 C 44.535187,38.27391 76.219095,191.94826 107.7793,236.40625 c -11.535003,22.969 -17.605472,48.5523 -17.605472,74.4043 0,21.37874 4.148181,42.39773 12.013672,61.93945 4.66014,-9.68487 11.83123,-18.95474 21.29492,-27.52734 -2.83488,-11.0207 -4.3418,-22.55436 -4.3418,-34.41211 1e-5,-23.162 5.89674,-46.05327 17.05274,-66.19727 1.992,-3.599 2.36172,-7.87662 1.01172,-11.76562 C 111.21413,179.71132 65.639818,77.487291 114.21801,30.701913 c 52.72736,89.690497 45.70181,139.745427 53.51051,181.419177 1.024,4.293 3.95021,7.88486 7.94921,9.75586 3.998,1.869 -9.6e-4,0.002 12.58204,-0.14648 18.993,-9.436 46.39709,-9.7793 67.74609,-9.7793 l -0.004,-28.96875 c -19.778,0 -45.87865,-1.04803 -64.09765,5.66797 C 182.04315,144.69064 175.69483,50.46 109.41016,3.9179688 Z"
   style="fill:#000000;fill-opacity:1"
   id="path4" />

<path
   d="M 178.51562 307.78906 C 125.80863 307.78906 82.929688 350.66995 82.929688 403.37695 C 82.929688 456.08395 125.80763 498.96484 178.51562 498.96484 L 200.07617 498.96484 L 200.07617 407.48047 C 197.51313 410.09313 195.92969 413.66988 195.92969 417.61914 L 195.92969 469.99805 L 178.51562 469.99805 C 141.78162 469.99805 111.89453 440.11095 111.89453 403.37695 C 111.89453 366.64295 141.78162 336.75586 178.51562 336.75586 C 207.90062 336.75586 233.47906 355.59672 242.16406 383.63672 C 242.44991 384.55972 242.83311 385.43009 243.28125 386.25586 L 268.7168 386.25586 C 269.16494 385.43009 269.54618 384.55972 269.83203 383.63672 C 278.51803 355.59572 304.09842 336.75586 333.48242 336.75586 C 370.21642 336.75586 400.10352 366.64295 400.10352 403.37695 C 400.10352 440.11095 370.21642 469.99805 333.48242 469.99805 L 317.10352 469.99805 L 317.10352 484.48047 C 317.13482 485.30034 317.0123 486.10386 316.78516 486.88672 L 316.78516 498.96484 L 333.48438 498.96484 C 386.19138 498.96484 429.07031 456.08395 429.07031 403.37695 C 429.07031 350.66995 386.19238 307.78906 333.48438 307.78906 C 302.00938 307.78906 273.575 322.86205 256 347.24805 C 238.425 322.86105 209.98962 307.78906 178.51562 307.78906 z M 317.10352 469.99805 L 317.10352 432.10156 L 316.78516 432.10156 L 316.78516 469.99805 L 317.10352 469.99805 z "
   style="fill:#000000;fill-opacity:1"
   id="path10" />
<g
   id="g12">
</g>
<g
   id="g14">
</g>
<g
   id="g16">
</g>
<g
   id="g18">
</g>
<g
   id="g20">
</g>
<g
   id="g22">
</g>
<g
   id="g24">
</g>
<g
   id="g26">
</g>
<g
   id="g28">
</g>
<g
   id="g30">
</g>
<g
   id="g32">
</g>
<g
   id="g34">
</g>
<g
   id="g36">
</g>
<g
   id="g38">
</g>
<g
   id="g40">
</g>
<path
   id="path888"
   style="fill:#000000;fill-opacity:1"
   d="m 402.19028,3.9179688 c 64.87497,34.3559412 33.19106,188.0302912 1.63086,232.4882812 11.535,22.969 17.60547,48.5523 17.60547,74.4043 0,21.37874 -4.14818,42.39773 -12.01367,61.93945 -4.66014,-9.68487 -11.83123,-18.95474 -21.29492,-27.52734 2.83488,-11.0207 4.3418,-22.55436 4.3418,-34.41211 -10e-6,-23.162 -5.89674,-46.05327 -17.05274,-66.19727 -1.992,-3.599 -2.36172,-7.87662 -1.01172,-11.76562 25.99095,-53.13634 71.56526,-156.749782 22.98707,-203.53516 -52.72736,89.6905 -45.70181,141.13484 -53.51051,182.80859 -1.024,4.293 -3.95021,7.88486 -7.94921,9.75586 -3.998,1.869 9.6e-4,0.002 -12.58204,-0.14648 -18.993,-9.436 -46.39709,-9.7793 -67.74609,-9.7793 l 0.004,-28.96875 c 19.778,0 45.87865,-1.04803 64.09765,5.66797 C 329.55729,144.69064 335.90561,50.46 402.19028,3.9179688 Z"
   sodipodi:nodetypes="ccsccscccccccccc" /><circle
   r="25.00943"
   cy="269.44022"
   cx="208.24368"
   id="path890"
   style="fill:#000000;fill-opacity:1;stroke:none;stroke-width:1.5;stroke-linecap:round;stroke-linejoin:round" /><circle
   style="fill:#000000;fill-opacity:1;stroke:none;stroke-width:1.5;stroke-linecap:round;stroke-linejoin:round"
   id="circle892"
   cx="302.24368"
   cy="269.44022"
   r="25.00943" /></svg>
