<?xml version="1.0" encoding="UTF-8" standalone="no"?>
<svg
   xmlns:dc="http://purl.org/dc/elements/1.1/"
   xmlns:cc="http://creativecommons.org/ns#"
   xmlns:rdf="http://www.w3.org/1999/02/22-rdf-syntax-ns#"
   xmlns:svg="http://www.w3.org/2000/svg"
   xmlns="http://www.w3.org/2000/svg"
   xmlns:sodipodi="http://sodipodi.sourceforge.net/DTD/sodipodi-0.dtd"
   xmlns:inkscape="http://www.inkscape.org/namespaces/inkscape"
   sodipodi:docname="room.svg"
   inkscape:version="1.0 (4035a4fb49, 2020-05-01)"
   id="svg8"
   version="1.1"
   viewBox="0 0 5.2916665 5.2916668"
   height="20"
   width="20">
  <defs
     id="defs2" />
  <sodipodi:namedview
     inkscape:window-maximized="1"
     inkscape:window-y="-8"
     inkscape:window-x="-8"
     inkscape:window-height="1017"
     inkscape:window-width="1920"
     units="px"
     showgrid="false"
     inkscape:document-rotation="0"
     inkscape:current-layer="layer1"
     inkscape:document-units="mm"
     inkscape:cy="12.529395"
     inkscape:cx="4.8874813"
     inkscape:zoom="10.223478"
     inkscape:pageshadow="2"
     inkscape:pageopacity="0.0"
     borderopacity="1.0"
     bordercolor="#666666"
     pagecolor="#ffffff"
     id="base" />
  <metadata
     id="metadata5">
    <rdf:RDF>
      <cc:Work
         rdf:about="">
        <dc:format>image/svg+xml</dc:format>
        <dc:type
           rdf:resource="http://purl.org/dc/dcmitype/StillImage" />
        <dc:title></dc:title>
      </cc:Work>
    </rdf:RDF>
  </metadata>
  <g
     id="layer1"
     inkscape:groupmode="layer"
     inkscape:label="Calque 1">
    <path
       id="path847"
       d="M 0.40377634,5.2808664 C 0.32268319,5.2672324 0.20886472,5.2096577 0.1451058,5.1500188 0.11022001,5.1173871 0.07209725,5.064295 0.04447215,5.0098691 L -3.20956e-8,4.9222515 V 3.6424944 2.3627377 L 0.03929166,2.2829247 C 0.09092622,2.1780398 0.16494431,2.1004569 0.25783013,2.0538599 c 0.100123,-0.050227 0.1696647,-0.063286 0.33701308,-0.063286 h 0.14080684 l 0.0678837,-0.06034 c 0.037336,-0.033187 0.0842984,-0.073175 0.10436091,-0.088861 C 0.93975802,1.8164584 1.1208379,1.663418 1.4611396,1.3737957 1.5151708,1.3278107 1.5929165,1.2621698 1.6339078,1.2279266 1.6748986,1.1936835 1.7347423,1.1435926 1.7668936,1.1166132 1.7990448,1.0896339 1.9009488,1.0041313 1.9933475,0.92660798 2.0857457,0.84908467 2.1613447,0.78394731 2.1613447,0.78185811 c 0,-0.002091 -0.00706,-0.0237976 -0.01568,-0.0482406 C 2.0703887,0.52026183 2.1148157,0.30573374 2.2654782,0.15507156 2.3583862,0.06216377 2.4480242,0.01991781 2.5913503,0.00149004 2.6549583,-0.0066882 2.8082577,0.0201214 2.8660804,0.04953577 c 0.1241492,0.063155 0.2310313,0.18575677 0.2710239,0.31088546 0.034457,0.10780778 0.034078,0.25699919 -9.046e-4,0.35578843 -0.025162,0.0710584 -0.025273,0.073397 -0.00443,0.0929336 0.02587,0.0242456 0.4255843,0.35906924 0.4864453,0.40747464 0.023788,0.018919 0.165253,0.1375921 0.314368,0.2637182 0.149115,0.1261265 0.2891081,0.2431331 0.3110957,0.2600149 0.021988,0.016882 0.059445,0.04784 0.083238,0.068796 0.023793,0.020956 0.055794,0.048434 0.071112,0.061063 0.015318,0.012628 0.053982,0.044877 0.08592,0.071662 l 0.058068,0.048701 h 0.1391562 c 0.1693569,0 0.2371932,0.013219 0.3384804,0.065954 0.09362,0.048744 0.1653697,0.1247281 0.2172094,0.2300296 l 0.037503,0.07618 V 3.641681 4.9206244 l -0.03939,0.080021 c -0.046871,0.095225 -0.133195,0.1858052 -0.2180487,0.2288038 -0.1297621,0.065755 -0.02494,0.06304 -2.3854765,0.061791 -1.1950459,-6.304e-4 -2.19749973,-0.0053 -2.22767534,-0.010374 z M 4.8760297,4.9488694 c 0.020553,-0.012532 0.047622,-0.039601 0.060153,-0.060154 0.022355,-0.036665 0.022785,-0.060164 0.022785,-1.2470345 0,-1.1868705 -4.269e-4,-1.2103693 -0.022785,-1.2470345 -0.012531,-0.020553 -0.0396,-0.047622 -0.060153,-0.060153 -0.036946,-0.022526 -0.062345,-0.022785 -2.2390243,-0.022827 -2.11042766,-3.91e-5 -2.20327314,8.263e-4 -2.24072078,0.020908 -0.0214864,0.011523 -0.0485519,0.038612 -0.0601452,0.060197 -0.0201389,0.037495 -0.0209452,0.093764 -0.0180849,1.2620407 0.002949,1.2043899 0.00334,1.223184 0.025926,1.2485715 0.0126127,0.014176 0.0384114,0.035337 0.05733,0.047023 0.0331764,0.020493 0.11259628,0.021248 2.23587388,0.021248 2.1765389,0 2.201899,-2.741e-4 2.2388454,-0.022784 z M 4.0417717,1.9862739 c 0,-0.00237 -0.054902,-0.050092 -0.1220057,-0.1060609 C 3.8526632,1.824245 3.7739776,1.7575033 3.7449095,1.7318984 3.7158413,1.7062932 3.6785777,1.6753352 3.6621011,1.6631023 3.6456249,1.6508691 3.5068305,1.5350868 3.3536687,1.4058071 3.2005072,1.2765278 3.0556152,1.1552748 3.0316868,1.1363558 3.007758,1.1174368 2.9645566,1.0818919 2.935683,1.0573667 L 2.883186,1.0127757 2.800316,1.0373377 C 2.6923652,1.0693333 2.5782899,1.0694511 2.4754065,1.0376899 2.3837405,1.0093768 2.3962972,1.0042946 2.2503337,1.1287846 2.193682,1.1771019 2.1279823,1.2321132 2.1043343,1.2510323 2.0806867,1.2699509 1.9387896,1.3886244 1.7890077,1.5147505 1.6392261,1.6408766 1.4944786,1.76213 1.4673473,1.7842022 1.3048231,1.9164193 1.2596092,1.9546176 1.2455256,1.9716073 c -0.014631,0.017649 0.083061,0.018983 1.3902548,0.018983 0.7732951,0 1.4059913,-0.00193 1.4059913,-0.0043 z M 2.7149485,0.73679775 C 2.7669351,0.71503413 2.8350083,0.6356726 2.8443354,0.58595453 2.8718427,0.4393289 2.7786091,0.31653533 2.6397728,0.31653533 c -0.1174592,0 -0.2035868,0.0833041 -0.2124224,0.20545939 -0.00506,0.0699458 0.018241,0.13501544 0.062763,0.17527752 0.056521,0.0511118 0.1555671,0.068524 0.2248351,0.0395255 z"
       style="fill:#000000;stroke-width:0.0687961;stroke-linecap:round;stroke-linejoin:round" />
    <g
       style="fill:#000000"
       transform="translate(0.05175994)"
       id="g882">
      <path
         id="path853"
         style="font-style:normal;font-variant:normal;font-weight:bold;font-stretch:normal;font-size:30.359px;line-height:1.25;font-family:sans-serif;-inkscape-font-specification:'sans-serif Bold';letter-spacing:0px;word-spacing:0px;fill:#000000;fill-opacity:1;stroke:none;stroke-width:0.0234747"
         d="m 0.91488903,3.6158209 q 0.07397,0 0.10575887,-0.02751 0.0324,-0.02751 0.0324,-0.090476 0,-0.062355 -0.0324,-0.089253 -0.031789,-0.026898 -0.10575887,-0.026898 H 0.81585493 V 3.61582 Z m -0.0990341,0.1626116 v 0.3453971 h -0.2353591 v -0.912704 h 0.3594577 q 0.18034007,0 0.26409107,0.06052 0.084363,0.06052 0.084363,0.191344 0,0.090476 -0.044015,0.148551 -0.043403,0.058076 -0.1314342,0.085585 0.048295,0.011004 0.086197,0.050129 0.038513,0.038514 0.077638,0.117374 l 0.1277648,0.259201 H 1.153916 L 1.0426554,3.8970293 q -0.033623,-0.068468 -0.068468,-0.093533 -0.034234,-0.025064 -0.091698,-0.025064 z" />
      <path
         id="path855"
         style="font-style:normal;font-variant:normal;font-weight:bold;font-stretch:normal;font-size:30.359px;line-height:1.25;font-family:sans-serif;-inkscape-font-specification:'sans-serif Bold';letter-spacing:0px;word-spacing:0px;fill:#000000;fill-opacity:1;stroke:none;stroke-width:0.0234747"
         d="m 1.9343679,3.3651788 q -0.1075928,0 -0.166891,0.079472 -0.059299,0.079472 -0.059299,0.2237437 0,0.1436609 0.059299,0.2231325 0.059298,0.079472 0.166891,0.079472 0.108204,0 0.1675022,-0.079472 0.059298,-0.079472 0.059298,-0.2231325 0,-0.144272 -0.059298,-0.2237437 -0.059298,-0.079472 -0.1675022,-0.079472 z m 0,-0.1705588 q 0.2200759,0 0.3447855,0.1259324 0.1247098,0.1259324 0.1247098,0.3478422 0,0.2212986 -0.1247098,0.347231 -0.1247096,0.1259325 -0.3447855,0.1259325 -0.2194646,0 -0.3447859,-0.1259325 -0.1247097,-0.1259324 -0.1247097,-0.347231 0,-0.2219098 0.1247097,-0.3478422 Q 1.7149033,3.19462 1.9343679,3.19462 Z" />
      <path
         id="path857"
         style="font-style:normal;font-variant:normal;font-weight:bold;font-stretch:normal;font-size:30.359px;line-height:1.25;font-family:sans-serif;-inkscape-font-specification:'sans-serif Bold';letter-spacing:0px;word-spacing:0px;fill:#000000;fill-opacity:1;stroke:none;stroke-width:0.0234747"
         d="m 2.9716599,3.3651788 q -0.1075925,0 -0.1668907,0.079472 -0.059299,0.079472 -0.059299,0.2237437 0,0.1436609 0.059299,0.2231325 0.059298,0.079472 0.1668907,0.079472 0.108204,0 0.1675025,-0.079472 0.059298,-0.079472 0.059298,-0.2231325 0,-0.144272 -0.059298,-0.2237437 -0.059299,-0.079472 -0.1675025,-0.079472 z m 0,-0.1705588 q 0.2200762,0 0.3447859,0.1259324 0.1247097,0.1259324 0.1247097,0.3478422 0,0.2212986 -0.1247097,0.347231 -0.1247097,0.1259325 -0.3447859,0.1259325 -0.2194644,0 -0.3447855,-0.1259325 -0.1247098,-0.1259324 -0.1247098,-0.347231 0,-0.2219098 0.1247098,-0.3478422 Q 2.7521955,3.19462 2.9716599,3.19462 Z" />
      <path
         id="path859"
         style="font-style:normal;font-variant:normal;font-weight:bold;font-stretch:normal;font-size:30.359px;line-height:1.25;font-family:sans-serif;-inkscape-font-specification:'sans-serif Bold';letter-spacing:0px;word-spacing:0px;fill:#000000;fill-opacity:1;stroke:none;stroke-width:0.0234747"
         d="M 3.565525,3.2111256 H 3.8650729 L 4.0729225,3.699572 4.2819944,3.2111256 h 0.2989368 v 0.912704 H 4.3584098 V 3.4562659 L 4.1481147,3.9483803 H 3.9989521 L 3.7886574,3.4562659 V 4.1238296 H 3.565525 Z" />
    </g>
  </g>
</svg>
