<?xml version="1.0" encoding="UTF-8" standalone="no"?>
<!-- Created with Inkscape (http://www.inkscape.org/) -->

<svg
   width="64"
   height="64"
   viewBox="0 0 16.933333 16.933333"
   version="1.1"
   id="svg5"
   xml:space="preserve"
   inkscape:version="1.2 (dc2aedaf03, 2022-05-15)"
   sodipodi:docname="signature.svg"
   xmlns:inkscape="http://www.inkscape.org/namespaces/inkscape"
   xmlns:sodipodi="http://sodipodi.sourceforge.net/DTD/sodipodi-0.dtd"
   xmlns="http://www.w3.org/2000/svg"
   xmlns:svg="http://www.w3.org/2000/svg"><sodipodi:namedview
     id="namedview7"
     pagecolor="#ffffff"
     bordercolor="#666666"
     borderopacity="1.0"
     inkscape:showpageshadow="2"
     inkscape:pageopacity="0.0"
     inkscape:pagecheckerboard="0"
     inkscape:deskcolor="#d1d1d1"
     inkscape:document-units="mm"
     showgrid="false"
     inkscape:zoom="6.2265625"
     inkscape:cx="10.920953"
     inkscape:cy="32.200753"
     inkscape:window-width="1920"
     inkscape:window-height="1017"
     inkscape:window-x="-8"
     inkscape:window-y="-8"
     inkscape:window-maximized="1"
     inkscape:current-layer="layer1" /><defs
     id="defs2" /><g
     inkscape:label="Calque 1"
     inkscape:groupmode="layer"
     id="layer1"><path
       id="path317"
       style="fill:#000000;stroke-width:2;stroke-linecap:round;stroke-linejoin:bevel"
       d="M 2.4049013,6.8823947 C 1.5684518,6.9917343 0.66853263,7.889504 0.25904891,9.4543744 0.01060617,10.686731 0.64719605,11.794155 1.216226,11.562465 2.5413232,11.320175 3.7313056,9.8519739 5.037006,9.3830071 4.4994069,10.454737 3.6876546,11.417343 3.6284601,13.113338 c 0.098745,1.399987 0.964454,1.19923 1.4569511,0.950722 0.5537326,-0.2953 1.0580686,-0.885853 1.6098736,-1.192275 -0.3573114,1.246611 0.5341732,2.397875 1.1415587,2.695443 0.7641825,0.655499 1.7755909,0.546802 2.5812675,0.247255 C 8.5291789,15.571134 7.980831,15.480758 7.6846475,13.748216 7.5821437,13.038388 8.1044223,12.46169 7.8925827,11.683298 7.6324298,10.557587 6.900325,10.862696 6.4349813,11.183668 5.899101,11.541157 5.3100715,12.226317 4.805772,12.402407 5.2482258,10.931902 6.2317557,10.347282 6.4534801,8.5595336 6.4120848,7.6986362 6.0600563,7.3663912 5.6802528,7.4704367 4.1269104,7.4947991 2.7772066,9.4178217 1.264587,9.8359163 1.5655582,8.6081041 2.2737824,8.6594894 2.830372,8.4936558 2.5317711,8.0545278 2.3176539,7.5379733 2.4049013,6.8823947 Z"
       sodipodi:nodetypes="cccccccccccccccccc" /><path
       id="path354"
       style="fill:#000000;stroke-width:1.99999;stroke-linecap:round;stroke-linejoin:bevel"
       d="M 15.553573,0.28267013 C 15.33118,0.53760896 15.234663,0.88809806 15.134478,1.2593547 l -0.195337,-0.024288 c -0.314555,-0.039304 -0.37681,0.039359 -0.645439,0.8216552 -0.120971,0.3522808 -0.26188,0.772238 -0.313159,0.9332765 -0.05128,0.1610477 -0.103408,0.3091276 -0.115238,0.328662 -0.02477,0.040788 -0.221806,0.6025443 -0.353467,1.0076905 -0.04905,0.1509707 -0.148056,0.4389704 -0.220659,0.640271 -0.07263,0.2013099 -0.165905,0.4732529 -0.207222,0.6040975 -0.04128,0.1308442 -0.107737,0.3093446 -0.147278,0.3968749 -0.03955,0.087502 -0.06281,0.1676712 -0.05219,0.1782837 0.02284,0.022822 0.400586,0.1581961 0.805635,0.2888712 0.158947,0.051268 0.31547,0.10726 0.347783,0.1245403 0.06561,0.03505 0.514949,0.1824178 0.556555,0.1824178 0.01472,0 0.04698,-0.061949 0.07131,-0.1374594 0.02433,-0.075489 0.05558,-0.1535354 0.06976,-0.1736328 0.01418,-0.020134 0.06319,-0.1601121 0.109037,-0.3110921 0.04585,-0.1509705 0.104541,-0.3240837 0.130741,-0.3844726 0.02614,-0.060397 0.132636,-0.3649426 0.236162,-0.6769613 0.103523,-0.3120185 0.21038,-0.6165722 0.237711,-0.6769613 0.02732,-0.060397 0.06959,-0.1836315 0.09354,-0.2738851 0.07003,-0.2635575 0.150342,-0.4397664 0.200504,-0.4397664 0.05877,0 0.295321,0.4763261 0.345199,0.695048 0.02067,0.090583 0.03764,0.2962978 0.03772,0.4573364 1.4e-4,0.2631442 -0.02263,0.3581795 -0.221175,0.9337932 -0.121523,0.3522806 -0.260839,0.7642097 -0.310058,0.9151896 -0.04927,0.1509799 -0.105178,0.3069748 -0.12454,0.3472656 -0.01939,0.040253 -0.07156,0.1882665 -0.115239,0.3291789 -0.04369,0.1409128 -0.09549,0.2771847 -0.115755,0.3028239 -0.0202,0.025733 -0.02668,0.057508 -0.01395,0.07028 0.01234,0.012766 0.0084,0.04107 -0.0088,0.063045 -0.01716,0.021987 -0.06039,0.138629 -0.09664,0.2594157 -0.03624,0.1207756 -0.0782,0.2362165 -0.09302,0.2563151 -0.0399,0.054143 -0.217558,0.6515343 -0.217558,0.7317383 0,0.099477 0.151598,0.3059788 0.237712,0.3240113 l 5.16e-4,-5.168e-4 c 0.119183,0.024916 0.239073,-0.00982 0.329696,-0.096118 0.07827,-0.074589 0.341292,-0.7829347 0.628385,-1.690853 0.05094,-0.1610386 0.107531,-0.2988407 0.125574,-0.3054077 0.01803,-0.00665 0.03307,-0.035765 0.03307,-0.064596 0,-0.058218 0.365023,-1.1614237 0.456303,-1.3792439 0.187352,-0.4468639 0.291982,-1.1335369 0.205672,-1.350822 -0.0184,-0.046245 -0.0591,-0.1978492 -0.09095,-0.3364136 -0.0318,-0.1385636 -0.08011,-0.2950949 -0.106971,-0.3477822 -0.194013,-0.3801174 -0.264737,-0.502071 -0.306441,-0.5276164 -0.0263,-0.01606 -0.04806,-0.047178 -0.04806,-0.069246 0,-0.022089 -0.05956,-0.1131647 -0.132808,-0.2025717 l -0.133842,-0.1627807 0.04444,-0.1979208 c 0.02443,-0.1089425 0.057,-0.1979207 0.07183,-0.1979207 0.01488,0 0.05586,-0.112817 0.09147,-0.2501139 0.05644,-0.2176797 0.0583,-0.2648836 0.01447,-0.3720704 C 16.18913,1.7020098 16.143982,1.6660268 15.99799,1.6164388 15.817795,1.5552429 15.816747,1.5538366 15.823324,1.4035319 15.919079,1.0426717 16.03742,0.67325756 15.998507,0.3462321 15.84304,0.20757239 15.721819,0.24025908 15.553573,0.28267013 Z m -2.7311,6.04872637 c -0.05237,0.00418 -0.07756,0.046041 -0.102319,0.1317749 -0.06321,0.2186089 -0.25777,0.7890307 -0.296623,0.8691976 -0.01953,0.04029 -0.06902,0.1807646 -0.110071,0.3116089 -0.04104,0.1308442 -0.08984,0.2703134 -0.10852,0.3105753 -0.0187,0.04029 -0.06865,0.1887836 -0.111105,0.3296957 -0.04246,0.1409128 -0.09345,0.2889261 -0.113171,0.3291788 -0.01982,0.04029 -0.07622,0.1968024 -0.125057,0.3477824 -0.146817,0.453954 -0.310395,0.928847 -0.347266,1.0066569 -0.01906,0.04028 -0.06849,0.180241 -0.109554,0.311092 -0.04104,0.130843 -0.140441,0.427379 -0.221175,0.658875 -0.08077,0.231494 -0.189383,0.552612 -0.241845,0.713651 -0.0525,0.161039 -0.108668,0.30957 -0.124541,0.329696 -0.01587,0.02009 -0.06505,0.176158 -0.109037,0.347265 -0.04396,0.171106 -0.09467,0.343695 -0.112654,0.383956 -0.08585,0.191948 -0.149983,0.934657 -0.169499,1.949235 l -0.0093,0.478007 0.440283,0.162264 c 0.03614,-0.03983 0.07274,-0.0805 0.106454,-0.116788 0.09973,-0.107338 0.329179,-0.397862 0.329179,-0.416512 0,-0.01007 0.06058,-0.08524 0.134358,-0.167432 0.07372,-0.08207 0.160287,-0.189009 0.192237,-0.237712 0.03193,-0.04875 0.133558,-0.201476 0.225826,-0.338997 0.223042,-0.332446 0.307705,-0.473565 0.401526,-0.67076 0.04311,-0.09063 0.102955,-0.214005 0.133325,-0.274402 0.03033,-0.0604 0.0943,-0.225486 0.141593,-0.366386 0.25614,-0.762647 0.310682,-0.921325 0.342098,-0.988053 0.03268,-0.06932 0.335469,-0.952045 0.558622,-1.628841 0.05644,-0.1711071 0.11908,-0.3436934 0.13901,-0.3839563 0.0199,-0.04029 0.07655,-0.1962949 0.12609,-0.3472656 0.204466,-0.623736 0.283958,-0.8631977 0.304375,-0.9151897 0.01192,-0.030241 0.02444,-0.063332 0.02791,-0.073381 0.0037,-0.010057 0.01656,-0.043233 0.02894,-0.07338 0.03775,-0.092132 0.205846,-0.58685 0.304891,-0.8965861 0.05146,-0.1610384 0.108839,-0.3085072 0.127124,-0.3276286 0.0539,-0.056444 0.03815,-0.1459169 -0.03359,-0.190686 C 14.404268,6.8649166 14.24346,6.8099387 14.083895,6.7654785 13.924389,6.7208836 13.777426,6.6714099 13.7573,6.6554077 13.737214,6.639441 13.597696,6.5893561 13.446724,6.5437866 13.295745,6.4982384 13.106086,6.4303744 13.025562,6.393925 12.944792,6.3573914 12.888016,6.3361389 12.846244,6.3319132 v -5.167e-4 c -0.0087,-9.394e-4 -0.01628,-5.901e-4 -0.02377,0 z m -2.413289,8.8718095 -0.0098,0.498678 c 0.0014,-4.26e-4 0.0032,-0.0014 0.0041,-5.17e-4 0.0013,0.0012 6.04e-4,0.0032 0,0.0052 -6.04e-4,0.002 -0.0012,0.004 0,0.0052 0.0027,0.0027 0.006,0.0039 0.0098,0.0052 0.0037,0.0013 0.0076,0.0025 0.01033,0.0052 8.23e-4,8.21e-4 4.6e-4,0.01394 0,0.02791 -4.58e-4,0.01404 -0.0011,0.02906 0,0.03411 5.44e-4,0.0026 0.0023,0.0044 0.0036,0.0067 0.04254,-0.05818 0.211518,-0.253807 0.379821,-0.4408 z"
       sodipodi:nodetypes="cccsscccccsccsccccsccscccccccccccscccccscccccscccsccccccccccscccccccccccccsscccccccccccccccccsccccccccsscsccccc" /></g></svg>
