<svg height="512pt" viewBox="-59 0 512 512" width="512pt" xmlns="http://www.w3.org/2000/svg"><path d="m136.59375 255.476562c-2.390625 3.378907-1.585938 8.0625 1.796875 10.453126 17.347656 12.265624 37.789063 18.75 59.105469 18.75 56.519531 0 102.5-45.980469 102.5-102.5 0-56.519532-45.976563-102.5-102.496094-102.5s-102.5 45.980468-102.5 102.5c0 21.496093 6.582031 42.074218 19.035156 59.507812 2.40625 3.371094 7.089844 4.152344 10.460938 1.746094s4.152344-7.089844 1.746094-10.460938c-10.625-14.878906-16.242188-32.445312-16.242188-50.792968 0-48.25 39.25-87.5 87.5-87.5 48.246094 0 87.496094 39.25 87.496094 87.5 0 48.246093-39.25 87.5-87.496094 87.5-18.199219 0-35.648438-5.535157-50.449219-16-3.382812-2.390626-8.0625-1.585938-10.457031 1.796874zm0 0"/><path d="m102.5 111c20.675781 0 37.5-16.820312 37.5-37.5s-16.820312-37.5-37.5-37.5-37.5 16.820312-37.5 37.5 16.824219 37.5 37.5 37.5zm0-60c12.40625 0 22.5 10.09375 22.5 22.5s-10.09375 22.5-22.5 22.5-22.5-10.09375-22.5-22.5 10.09375-22.5 22.5-22.5zm0 0"/><path d="m292.496094 111c20.679687 0 37.5-16.820312 37.5-37.5s-16.820313-37.5-37.5-37.5c-20.675782 0-37.5 16.820312-37.5 37.5s16.824218 37.5 37.5 37.5zm0-60c12.40625 0 22.5 10.09375 22.5 22.5s-10.09375 22.5-22.5 22.5c-12.402344 0-22.5-10.09375-22.5-22.5s10.097656-22.5 22.5-22.5zm0 0"/><path d="m197.5 75c20.675781 0 37.5-16.820312 37.5-37.5s-16.824219-37.5-37.5-37.5c-20.679688 0-37.5 16.820312-37.5 37.5s16.820312 37.5 37.5 37.5zm0-60c12.40625 0 22.5 10.09375 22.5 22.5s-10.09375 22.5-22.5 22.5-22.5-10.09375-22.5-22.5 10.09375-22.5 22.5-22.5zm0 0"/><path d="m213.410156 130.605469c-4.242187-4.257813-9.894531-6.605469-15.910156-6.605469-12.40625 0-22.5 10.09375-22.5 22.5v12.5h-12.5c-12.40625 0-22.5 10.09375-22.5 22.5s10.09375 22.5 22.5 22.5h12.5v12.5c0 12.40625 10.09375 22.5 22.5 22.5s22.5-10.09375 22.5-22.5v-12.5h12.5c6.015625 0 11.667969-2.347656 15.894531-6.585938 4.257813-4.246093 6.601563-9.898437 6.601563-15.914062 0-12.40625-10.089844-22.5-22.496094-22.5h-12.5v-12.5c0-6.019531-2.347656-11.671875-6.589844-15.894531zm19.089844 43.394531c4.132812 0 7.496094 3.363281 7.496094 7.5 0 2-.777344 3.878906-2.210938 5.304688-1.410156 1.417968-3.285156 2.195312-5.285156 2.195312h-20c-4.144531 0-7.5 3.359375-7.5 7.5v20c0 4.136719-3.363281 7.5-7.5 7.5s-7.5-3.363281-7.5-7.5v-20c0-4.140625-3.359375-7.5-7.5-7.5h-20c-4.136719 0-7.5-3.363281-7.5-7.5s3.363281-7.5 7.5-7.5h20c4.140625 0 7.5-3.359375 7.5-7.5v-20c0-4.136719 3.363281-7.5 7.5-7.5 2 0 3.875.777344 5.304688 2.214844 1.414062 1.40625 2.195312 3.285156 2.195312 5.285156v20c0 4.140625 3.355469 7.5 7.5 7.5zm0 0"/><path d="m128.128906 411.15625c-11.027344-11.027344-25.6875-17.214844-41.277344-17.421875-.035156 0-.070312 0-.105468 0-4.09375 0-7.441406 3.289063-7.496094 7.398437-.054688 4.140626 3.257812 7.542969 7.398438 7.597657 11.664062.15625 22.625 4.785156 30.875 13.03125l6.007812 6.011719-31.464844 31.464843c-5.003906 5.003907-11.660156 7.761719-18.738281 7.761719s-13.730469-2.757812-18.738281-7.761719c-5.003906-5.003906-7.761719-11.660156-7.761719-18.738281s2.757813-13.730469 7.761719-18.738281c1.875-1.871094 3.914062-3.582031 6.0625-5.078125 3.398437-2.371094 4.234375-7.042969 1.863281-10.441406-2.367187-3.398438-7.042969-4.234376-10.441406-1.863282-2.871094 2-5.59375 4.28125-8.089844 6.777344-16.179687 16.179688-16.179687 42.507812 0 58.691406 7.839844 7.835938 18.261719 12.152344 29.34375 12.152344 11.085937 0 21.507813-4.316406 29.347656-12.152344l36.765625-36.773437c2.929688-2.925781 2.929688-7.675781 0-10.605469zm0 0"/><path d="m308.9375 363.726562c-23.402344 0-45.417969 8.945313-62.195312 25.179688l-10.359376-10.355469 145.566407-145.558593c8.414062-8.414063 13.046875-19.601563 13.046875-31.496094 0-11.898438-4.632813-23.082032-13.046875-31.488282-1.980469-1.980468-4.605469-3.070312-7.394531-3.070312-2.796876 0-5.425782 1.089844-7.402344 3.070312l-19.332032 19.332032c-2.929687 2.929687-2.929687 7.675781 0 10.605468 2.929688 2.929688 7.675782 2.929688 10.605469 0l15.882813-15.882812c3.695312 5.027344 5.6875 11.078125 5.6875 17.433594 0 7.890625-3.074219 15.308594-8.652344 20.890625l-145.566406 145.554687-17.671875-17.671875 127.703125-127.703125c2.929687-2.929687 2.929687-7.679687 0-10.605468-2.929688-2.929688-7.675782-2.929688-10.605469 0l-127.703125 127.703124-169.65625-169.65625c-1.976562-1.980468-4.605469-3.066406-7.402344-3.066406-2.792968 0-5.417968 1.089844-7.390625 3.0625-8.417969 8.410156-13.050781 19.59375-13.050781 31.492188 0 11.894531 4.632812 23.082031 13.050781 31.496094l145.5625 145.558593-10.355469 10.355469c-16.777343-16.234375-38.796874-25.179688-62.199218-25.179688-23.90625 0-46.382813 9.3125-63.285156 26.214844-27.878907 27.878906-27.878907 73.238282 0 101.117188 13.503906 13.503906 31.457031 20.941406 50.554687 20.941406 19.101563 0 37.054687-7.4375 50.558594-20.941406l73.613281-73.621094 73.609375 73.621094c13.503906 13.503906 31.460937 20.941406 50.558594 20.941406 19.097656 0 37.054687-7.4375 50.558593-20.941406 27.875-27.878906 27.875-73.238282 0-101.117188-16.90625-16.902344-39.378906-26.214844-63.289062-26.214844zm-293.9375-162.230468c0-6.355469 1.992188-12.402344 5.6875-17.433594l215.421875 215.425781-17.671875 17.671875-194.78125-194.773437c-5.582031-5.582031-8.65625-13-8.65625-20.890625zm98.28125 278.957031c-10.671875 10.667969-24.859375 16.546875-39.953125 16.546875-15.089844 0-29.277344-5.878906-39.949219-16.546875-22.027344-22.03125-22.027344-57.875 0-79.902344 14.070313-14.074219 32.777344-21.820312 52.679688-21.820312 19.898437 0 38.605468 7.746093 52.679687 21.820312l27.21875 27.21875zm63.285156-63.289063-17.679687-17.675781 10.332031-10.332031 17.675781 17.675781zm185.050782 63.289063c-10.671876 10.667969-24.859376 16.546875-39.949219 16.546875-15.089844 0-29.277344-5.878906-39.949219-16.546875l-52.675781-52.683594 27.21875-27.21875c14.070312-14.074219 32.777343-21.820312 52.679687-21.820312 19.898438 0 38.605469 7.746093 52.675782 21.820312 22.03125 22.027344 22.03125 57.871094 0 79.902344zm0 0"/><path d="m308.9375 393.726562c-15.890625 0-30.832031 6.191407-42.070312 17.429688l-11.3125 11.3125c-2.929688 2.929688-2.929688 7.675781 0 10.605469l36.769531 36.769531c7.835937 7.839844 18.261719 12.15625 29.34375 12.15625 11.085937 0 21.507812-4.316406 29.347656-12.15625 16.179687-16.179688 16.179687-42.507812 0-58.691406-11.242187-11.234375-26.183594-17.425782-42.078125-17.425782zm31.46875 65.511719c-5.007812 5.003907-11.660156 7.761719-18.738281 7.761719s-13.734375-2.757812-18.738281-7.761719l-31.464844-31.46875 6.011718-6.007812c8.402344-8.40625 19.578126-13.035157 31.464844-13.035157 11.886719 0 23.0625 4.628907 31.464844 13.035157 10.332031 10.332031 10.332031 27.144531 0 37.476562zm0 0"/><path d="m205 378c0 4.140625-3.359375 7.5-7.5 7.5-4.144531 0-7.5-3.359375-7.5-7.5s3.355469-7.5 7.5-7.5c4.140625 0 7.5 3.359375 7.5 7.5zm0 0"/></svg>