<?xml version="1.0" encoding="UTF-8" standalone="no"?>
<svg
   xmlns:dc="http://purl.org/dc/elements/1.1/"
   xmlns:cc="http://creativecommons.org/ns#"
   xmlns:rdf="http://www.w3.org/1999/02/22-rdf-syntax-ns#"
   xmlns:svg="http://www.w3.org/2000/svg"
   xmlns="http://www.w3.org/2000/svg"
   xmlns:sodipodi="http://sodipodi.sourceforge.net/DTD/sodipodi-0.dtd"
   xmlns:inkscape="http://www.inkscape.org/namespaces/inkscape"
   sodipodi:docname="study.svg"
   inkscape:version="1.0 (4035a4fb49, 2020-05-01)"
   id="svg8"
   version="1.1"
   viewBox="0 0 6.3499999 6.3500002"
   height="24"
   width="24">
  <defs
     id="defs2" />
  <sodipodi:namedview
     inkscape:window-maximized="1"
     inkscape:window-y="-8"
     inkscape:window-x="-8"
     inkscape:window-height="1017"
     inkscape:window-width="1920"
     units="px"
     showgrid="false"
     inkscape:document-rotation="0"
     inkscape:current-layer="layer1"
     inkscape:document-units="mm"
     inkscape:cy="23.980121"
     inkscape:cx="-9.3590544"
     inkscape:zoom="11.2"
     inkscape:pageshadow="2"
     inkscape:pageopacity="0.0"
     borderopacity="1.0"
     bordercolor="#666666"
     pagecolor="#ffffff"
     id="base" />
  <metadata
     id="metadata5">
    <rdf:RDF>
      <cc:Work
         rdf:about="">
        <dc:format>image/svg+xml</dc:format>
        <dc:type
           rdf:resource="http://purl.org/dc/dcmitype/StillImage" />
        <dc:title></dc:title>
      </cc:Work>
    </rdf:RDF>
  </metadata>
  <g
     id="layer1"
     inkscape:groupmode="layer"
     inkscape:label="Calque 1">
    <path
       sodipodi:nodetypes="cccccscccccscccccccscscsccsscscccscscccssccccc"
       d="M 3.5321126,1.202 0.08455178,2.0117363 c 0.0042422,0.00535 0.49581854,0.334578 1.09239202,0.7316212 0.7357998,0.4897052 1.1079357,0.7254266 1.1569965,0.7328531 0.042102,0.00636 0.2461073,-0.027288 0.4881844,-0.080542 C 3.0508487,3.3453495 3.4536091,3.256562 3.7171389,3.198352 3.9806687,3.1401413 4.3264612,3.0647905 4.4855735,3.0309092 4.6446866,2.9970323 4.7731739,2.959419 4.7711032,2.9473295 4.7677832,2.9280422 4.3347735,2.8335639 3.2108716,2.6069288 2.8605892,2.5362914 2.7896706,2.5055675 2.7984058,2.4281733 c 0.00393,-0.03466 0.020202,-0.052118 0.053138,-0.056932 0.026123,-0.00379 0.2498649,0.034885 0.497219,0.086011 0.2473528,0.051125 0.677564,0.1391973 0.9560111,0.1957126 0.2784463,0.056513 0.5306685,0.1105167 0.5605017,0.1200022 l 0.054251,0.017256 0.00498,0.3964424 c 0.00314,0.2486698 -0.00197,0.4051396 -0.013556,0.419788 -0.024636,0.031063 -0.023437,0.119248 0.00289,0.2109703 0.016594,0.057854 0.016453,0.088271 -6.148e-4,0.1355708 -0.021893,0.060583 -0.1111533,0.7391076 -0.1111533,0.8449373 0,0.036055 0.014172,0.062505 0.040689,0.075948 0.057559,0.029172 0.268599,0.028242 0.3362173,-0.00147 0.045054,-0.019797 0.055069,-0.03517 0.048245,-0.074085 C 5.2224886,4.7713132 5.2020096,4.6004472 5.1817021,4.4186318 5.1613946,4.236818 5.1313309,4.0351494 5.1148962,3.9704795 5.0879058,3.8642627 5.0877028,3.8477286 5.112803,3.7993761 5.141478,3.7441891 5.137543,3.5978967 5.107393,3.5978967 c -0.00881,0 -0.016034,-0.1574426 -0.016034,-0.3498753 V 2.8981492 L 5.2676521,2.8601561 C 5.8408424,2.7366274 6.252217,2.6433554 6.2584568,2.6354877 Z M 1.5011225,3.1875199 c -0.00437,0 -0.00795,0.2062013 -0.00795,0.45822 0,0.5194083 0.00954,1.0990925 0.1258627,1.1961593 0.092707,0.077358 0.1797215,0.1213696 0.3430399,0.1735507 0.1357533,0.043373 0.4514007,0.105688 0.6249969,0.123383 0.1955751,0.019938 0.8735984,-0.00782 1.0577338,-0.043296 0.3749437,-0.072235 0.6331849,-0.1860744 0.7343586,-0.3237235 0.042514,-0.057838 0.043123,-0.5944467 0.043123,-1.051861 0,-0.4374195 -0.0019,-0.4640325 -0.03368,-0.4640325 -0.018524,0 -0.2158271,0.040427 -0.4384589,0.089861 C 3.6321668,3.4163799 2.8488648,3.5880392 2.4243412,3.6801501 2.3229259,3.7021583 2.192904,3.6419476 1.8507248,3.4145559 1.6628115,3.2896822 1.5054895,3.1875185 1.5011212,3.1875185 Z"
       style="fill:#000000;stroke:none;stroke-width:1.85208;stroke-linecap:round;stroke-linejoin:round"
       id="path847" />
  </g>
</svg>
