<?xml version="1.0" encoding="UTF-8" standalone="no"?>
<svg
   id="svg3"
   version="1.1"
   width="40"
   height="40"
   sodipodi:docname="tag.svg"
   inkscape:version="1.2 (dc2aedaf03, 2022-05-15)"
   xmlns:inkscape="http://www.inkscape.org/namespaces/inkscape"
   xmlns:sodipodi="http://sodipodi.sourceforge.net/DTD/sodipodi-0.dtd"
   xmlns="http://www.w3.org/2000/svg"
   xmlns:svg="http://www.w3.org/2000/svg"
   xmlns:rdf="http://www.w3.org/1999/02/22-rdf-syntax-ns#"
   xmlns:cc="http://creativecommons.org/ns#"
   xmlns:dc="http://purl.org/dc/elements/1.1/">
  <sodipodi:namedview
     id="namedview6"
     pagecolor="#ffffff"
     bordercolor="#666666"
     borderopacity="1.0"
     inkscape:showpageshadow="2"
     inkscape:pageopacity="0.0"
     inkscape:pagecheckerboard="0"
     inkscape:deskcolor="#d1d1d1"
     showgrid="false"
     inkscape:zoom="2.95"
     inkscape:cx="-64.40678"
     inkscape:cy="11.355932"
     inkscape:window-width="1920"
     inkscape:window-height="1017"
     inkscape:window-x="-8"
     inkscape:window-y="-8"
     inkscape:window-maximized="1"
     inkscape:current-layer="svg3" />
  <metadata
     id="metadata9">
    <rdf:RDF>
      <cc:Work
         rdf:about="">
        <dc:format>image/svg+xml</dc:format>
        <dc:type
           rdf:resource="http://purl.org/dc/dcmitype/StillImage" />
        <dc:title />
      </cc:Work>
    </rdf:RDF>
  </metadata>
  <defs
     id="defs7" />
  <path
     id="path2020"
     style="color:#000000;fill:#000000;stroke:none;stroke-width:2;stroke-linecap:round;stroke-linejoin:round"
     d="m 37.399244,4.8548437 c -2.473124,-2.4731246 -6.49927,-2.4731252 -8.972396,0 -2.264032,2.2640319 -2.454366,5.8293383 -0.573162,8.3134443 0.3382,-0.167631 0.592268,-0.419485 0.798729,-0.718856 -1.512846,-2.064817 -1.33601,-4.9695171 0.531747,-6.837274 2.063844,-2.0638437 5.393926,-2.0638432 7.457768,0 2.063844,2.0638433 2.063844,5.393925 0,7.457768 -1.324833,1.324833 -3.170793,1.797498 -4.869292,1.421443 l 1.189219,1.189219 c 1.608505,-0.01226 3.213208,-0.629168 4.437388,-1.853348 2.473125,-2.473125 2.473125,-6.4992713 -10e-7,-8.9723963 z m -6.900136,4.2687661 c -0.0691,-0.069103 -0.140746,-0.1339302 -0.213735,-0.1959838 -0.02445,-0.020815 -0.0491,-0.040624 -0.07396,-0.060644 -0.04991,-0.040175 -0.100899,-0.078349 -0.152351,-0.1153715 -0.02911,-0.020962 -0.05842,-0.041431 -0.08801,-0.061383 -0.04969,-0.03352 -0.09995,-0.065449 -0.150874,-0.096142 -0.02886,-0.017399 -0.0573,-0.036016 -0.08653,-0.052509 -0.07616,-0.04296 -0.153809,-0.082955 -0.232223,-0.1198097 -0.0024,-0.00114 -0.005,-0.00181 -0.0074,-0.00295 -0.02051,-0.00958 -0.04147,-0.017463 -0.06212,-0.026626 -0.06122,-0.027179 -0.12256,-0.053364 -0.18489,-0.076914 -0.03583,-0.013506 -0.07182,-0.02615 -0.107979,-0.038456 -0.058,-0.019802 -0.116533,-0.037244 -0.175276,-0.053988 -0.02297,-0.00651 -0.04572,-0.01392 -0.06878,-0.01997 -0.02054,-0.00541 -0.04076,-0.011961 -0.06138,-0.017012 l 7.39e-4,0.00371 c -0.164795,-0.040164 -0.330987,-0.071345 -0.499206,-0.088008 -0.3129,1.1496872 -0.182862,2.3907372 0.39123,3.4633802 0.05693,0.06024 0.105448,0.124553 0.146433,0.192287 6.96e-4,0.0012 0.0014,0.0025 0.0022,0.0037 0.0017,0.0029 0.0028,0.006 0.0045,0.0089 0.0372,0.06327 0.06697,0.129716 0.09096,0.197463 0.140536,0.396 0.05579,0.849669 -0.264764,1.16999 -0.394922,0.394706 -0.994601,0.43919 -1.436234,0.134601 -0.0012,-0.0017 -0.0024,-0.0035 -0.0037,-0.0052 -0.05506,-0.0384 -0.1089,-0.07935 -0.158266,-0.128685 -0.03905,-0.03902 -0.07241,-0.08081 -0.104279,-0.123507 -0.0148,-0.02015 -0.02867,-0.04066 -0.04215,-0.06138 -0.09755,-0.150738 -0.156824,-0.318117 -0.176095,-0.489572 -0.609005,-1.200255 -0.843642,-2.5438464 -0.70478,-3.85538 -0.146916,0.087165 -0.290899,0.1813225 -0.427468,0.2899092 L 24.234235,7.4795743 24.112947,7.3582861 c -1.483193,-1.4831946 -3.894917,-1.4831952 -5.378112,0 L 17.608491,8.4846291 2.112396,23.980724 c -1.48319505,1.483195 -1.48319431,3.894919 0,5.378114 l 8.728341,8.72834 c 1.483194,1.483194 3.894918,1.483195 5.378113,0 l 15.496095,-15.496096 1.126356,-1.126357 c 0.0902,-0.09019 0.174446,-0.18365 0.253671,-0.280294 0.0022,-0.0028 0.0045,-0.0054 0.0066,-0.0082 0.0256,-0.03141 0.04729,-0.06485 0.07173,-0.09688 0.05088,-0.06668 0.102785,-0.132733 0.148653,-0.201902 0.02523,-0.03801 0.0458,-0.07814 0.06952,-0.116851 0.04177,-0.06822 0.08497,-0.136155 0.122028,-0.206339 0.01947,-0.03684 0.03508,-0.07508 0.05325,-0.112413 0.03481,-0.07157 0.07054,-0.142761 0.100584,-0.215953 0.03095,-0.07528 0.05543,-0.152518 0.08135,-0.229265 0.01111,-0.033 0.02458,-0.06513 0.03476,-0.09836 0.02572,-0.08367 0.04599,-0.168736 0.06582,-0.253671 0.0077,-0.03338 0.01757,-0.06629 0.02441,-0.09984 0.01692,-0.08239 0.02852,-0.165338 0.03994,-0.248495 0.0047,-0.03432 0.0118,-0.06837 0.01553,-0.102799 0.01061,-0.09668 0.01526,-0.193536 0.01849,-0.290649 6.1e-4,-0.01925 0.0026,-0.03844 0.003,-0.05769 0.0018,-0.100217 -0.0013,-0.200187 -0.0074,-0.300264 -0.0011,-0.01825 -0.0015,-0.03649 -0.003,-0.05472 -0.0084,-0.111301 -0.02263,-0.221709 -0.04067,-0.332064 -4.39e-4,-0.0026 -2.91e-4,-0.0055 -7.39e-4,-0.0082 -1.26e-4,-7.39e-4 -6.11e-4,-0.0015 -7.39e-4,-0.0022 -0.01936,-0.116511 -0.04444,-0.232265 -0.07468,-0.346878 -0.03032,-0.114917 -0.06599,-0.228666 -0.107231,-0.340901 -0.04137,-0.112603 -0.08888,-0.223037 -0.141257,-0.332066 -0.05238,-0.109058 -0.11042,-0.215585 -0.173797,-0.32023 -0.06327,-0.104462 -0.132116,-0.206211 -0.20634,-0.30544 -0.07266,-0.09714 -0.150544,-0.191181 -0.233702,-0.282515 -0.0018,-0.002 -0.0033,-0.0046 -0.0052,-0.0066 -0.03849,-0.04209 -0.0739,-0.08575 -0.114632,-0.126465 L 31.302215,14.54754 c 0.155998,-0.196197 0.287664,-0.404746 0.399365,-0.621234 0.0022,-0.0044 0.0037,-0.009 0.0059,-0.01333 0.129075,-0.252564 0.229151,-0.515863 0.297305,-0.785417 v -0.0015 c 0.01999,-0.07917 0.03634,-0.158864 0.05104,-0.238879 0.0037,-0.01949 0.0078,-0.03889 0.0111,-0.05842 0.01181,-0.07071 0.02043,-0.141887 0.02811,-0.212994 0.0034,-0.03159 0.0063,-0.06303 0.0089,-0.09466 0.0055,-0.06703 0.01009,-0.134027 0.01183,-0.201161 8.13e-4,-0.02863 -1.05e-4,-0.05716 0,-0.08579 2.2e-4,-0.06965 8.13e-4,-0.139034 -0.003,-0.208557 -0.002,-0.03753 -0.0071,-0.07495 -0.01035,-0.112413 -0.005,-0.05804 -0.0077,-0.116047 -0.01553,-0.173798 -4.17e-4,-0.003 -0.001,-0.0059 -0.0014,-0.0089 -0.01264,-0.09268 -0.02891,-0.185007 -0.04881,-0.276598 -0.0103,-0.04725 -0.02473,-0.09364 -0.03698,-0.140516 -0.0132,-0.05067 -0.0252,-0.101461 -0.04067,-0.151612 -0.01471,-0.04756 -0.03279,-0.09422 -0.04955,-0.141257 -0.01804,-0.05076 -0.0365,-0.101542 -0.05695,-0.151611 -0.0174,-0.04255 -0.03634,-0.08447 -0.05547,-0.126465 -0.02503,-0.055 -0.05113,-0.109488 -0.07913,-0.163443 -0.01844,-0.03549 -0.03721,-0.07076 -0.05695,-0.105757 -0.03508,-0.06227 -0.07249,-0.123595 -0.111676,-0.184151 -0.01858,-0.0287 -0.0367,-0.05751 -0.0562,-0.08579 -0.04176,-0.06062 -0.08636,-0.119654 -0.132382,-0.178236 -0.02156,-0.027403 -0.04185,-0.055153 -0.06433,-0.082087 -0.06906,-0.082782 -0.141723,-0.1639117 -0.21965,-0.241839 z M 23.032464,21.339735 c 0.03144,0.02847 0.06055,0.05821 0.08875,0.08875 0.11274,0.122222 0.200525,0.258936 0.27142,0.392709 0.283578,0.5351 0.387091,1.138499 0.499207,1.417745 l 0.02811,0.071 0.0082,0.07618 c 0.0089,0.09071 -0.0029,0.05289 0.01331,0.122769 l 0.102062,-0.07988 0.229264,0.03551 c 0.36706,0.05704 0.599968,0.263219 0.709244,0.340937 0.04937,0.03513 0.05824,0.04725 0.05918,0.05176 9.6e-4,-0.0022 0.0045,-0.0044 0.01553,-0.0066 l 0.215953,1.048702 c -0.383128,0.07896 -0.743813,-0.102642 -0.910404,-0.22113 -0.104421,-0.07427 -0.121242,-0.07623 -0.159006,-0.09688 -0.09747,0.05316 -0.184727,0.133781 -0.303221,0.158266 -0.242366,0.05008 -0.584765,-0.0612 -0.743262,-0.247754 -0.297665,-0.350366 -0.268146,-0.646196 -0.28917,-0.942945 -0.166251,-0.44733 -0.273328,-0.94716 -0.420812,-1.225458 -0.07912,-0.149295 -0.149704,-0.20907 -0.187849,-0.226307 -0.03815,-0.01724 -0.09675,-0.04309 -0.315055,0.04585 l -0.417855,0.170839 -0.238879,-0.383833 c -0.395323,-0.635621 -0.785188,-1.166143 -1.332746,-1.606366 l -0.245536,-0.198203 0.03402,-0.196725 c -0.246299,0.04387 -0.635407,0.151683 -1.096034,-0.03994 -0.377938,-0.03241 -0.785081,-0.109344 -1.164074,-0.310617 -0.385641,-0.204803 -0.723561,-0.59623 -0.838666,-1.10343 -0.240971,-0.523489 -0.135787,-1.014436 -0.11907,-1.368934 0.0063,-0.133845 -0.0038,-0.199569 -0.01183,-0.267722 -0.465923,0.127682 -0.928154,0.134323 -1.284623,-0.08061 -0.469238,-0.282929 -0.732835,-0.760097 -0.867509,-1.256519 l 1.033172,-0.280295 c 0.08447,0.311323 0.243951,0.533185 0.387532,0.619755 0.143575,0.08657 0.298531,0.127847 0.671524,-0.06804 l 0.195985,-0.102799 0.210775,0.06582 c 0.333421,0.102698 0.586865,0.40955 0.670786,0.681138 0.08392,0.271589 0.07499,0.514647 0.06434,0.740304 -0.02128,0.451315 -0.01121,0.850329 0.01183,0.893394 l 0.04215,0.07913 0.01405,0.08949 c 0.03402,0.21527 0.119647,0.306105 0.321712,0.413415 0.202061,0.107312 0.517749,0.176509 0.829051,0.197466 l 0.111674,0.0082 0.09836,0.05103 c 0.01423,0.0073 0.341955,-0.01173 0.752877,-0.04586 0.205462,-0.01706 0.491877,-0.04986 0.778761,0.191547 0.143444,0.120709 0.23771,0.306224 0.269942,0.474061 0.01414,0.07366 -0.0034,0.14417 -0.0037,0.215214 0.476909,0.432832 0.858574,0.910601 1.186261,1.415526 0.238511,-0.02582 0.488957,-0.109585 0.692234,-0.01775 0.127776,0.05773 0.237787,0.132705 0.332063,0.218172 z m -1.293497,6.010441 c 0.0403,0.04447 0.07881,0.09297 0.115369,0.146437 l -0.883779,0.604223 c -0.04941,-0.07224 -0.193048,-0.142226 -0.485894,-0.25367 -0.237096,-0.09023 -0.557753,-0.272794 -0.803907,-0.57908 -0.623852,-0.249219 -1.094053,-0.669279 -1.470993,-1.098253 -0.406627,-0.46275 -0.745709,-0.924876 -1.110087,-1.243207 -0.966236,-0.760287 -1.300287,-1.467371 -2.12255,-1.940617 l -0.0022,-6.96e-4 -0.0015,-0.0015 c -0.902141,-0.528828 -1.306989,-1.399388 -1.66328,-1.818588 -0.210521,0.02462 -0.427966,0.129812 -0.608662,0.05102 -0.339012,-0.147807 -0.543702,-0.410911 -0.701106,-0.66265 -0.314811,-0.50348 -0.518882,-1.08176 -0.650817,-1.25874 l 0.857894,-0.640463 c 0.339689,0.455666 0.499335,1.008521 0.701108,1.331217 0.100889,0.16135 0.192498,0.236331 0.220389,0.248494 0.02789,0.01216 0.03147,0.03844 0.202641,-0.05473 l 0.344637,-0.187848 0.283253,0.2729 c 0.663215,0.639315 1.007015,1.470964 1.552345,1.793444 1.094322,0.62983 1.470368,1.4203 2.268246,2.041937 l 0.01257,0.0096 0.01111,0.0096 c 0.491858,0.429388 0.849782,0.933087 1.210667,1.343789 0.360884,0.4107 0.704482,0.717629 1.13967,0.863071 l 0.215213,0.07173 0.09762,0.20412 c 0.04586,0.09526 0.13199,0.142865 0.397886,0.244057 0.23266,0.08854 0.592027,0.193137 0.874164,0.504382 z M 9.2336696,21.463983 C 10.335615,22.781526 11.28368,24.167 12.45891,25.252772 l 0.08802,0.0806 0.04511,0.110197 c 0.694082,1.697146 1.974175,3.101158 3.384247,4.333847 0.036,0.01795 0.149673,0.05229 0.341679,0.05769 0.203255,0.0057 0.457491,-0.01212 0.732908,0.0052 0.275419,0.01729 0.618545,0.06425 0.895613,0.346856 0.277067,0.282595 0.344306,0.711843 0.275857,1.151501 l -1.058317,-0.164922 c 0.02304,-0.147886 0.01846,-0.207994 0.01405,-0.231484 -0.01805,-0.005 -0.07501,-0.02578 -0.194506,-0.03327 -0.173055,-0.01086 -0.422165,0.004 -0.695931,-0.0037 -0.273768,-0.0076 -0.590911,-0.02858 -0.903008,-0.225567 l -0.03551,-0.02219 -0.03107,-0.02661 C 13.865768,29.36801 12.490309,27.86505 11.681618,25.98418 10.414825,24.798735 9.4529591,23.395669 8.4120032,22.151048 Z" />
</svg>
