<?xml version="1.0" encoding="UTF-8" standalone="no"?>
<svg
   xmlns:dc="http://purl.org/dc/elements/1.1/"
   xmlns:cc="http://creativecommons.org/ns#"
   xmlns:rdf="http://www.w3.org/1999/02/22-rdf-syntax-ns#"
   xmlns:svg="http://www.w3.org/2000/svg"
   xmlns="http://www.w3.org/2000/svg"
   xmlns:sodipodi="http://sodipodi.sourceforge.net/DTD/sodipodi-0.dtd"
   xmlns:inkscape="http://www.inkscape.org/namespaces/inkscape"
   inkscape:version="1.0 (4035a4fb49, 2020-05-01)"
   sodipodi:docname="temporary.svg"
   id="svg14"
   version="1.1"
   viewBox="0 0 24 24"
   height="24"
   width="24">
  <metadata
     id="metadata20">
    <rdf:RDF>
      <cc:Work
         rdf:about="">
        <dc:format>image/svg+xml</dc:format>
        <dc:type
           rdf:resource="http://purl.org/dc/dcmitype/StillImage" />
      </cc:Work>
    </rdf:RDF>
  </metadata>
  <defs
     id="defs18" />
  <sodipodi:namedview
     inkscape:current-layer="svg14"
     inkscape:window-maximized="1"
     inkscape:window-y="-8"
     inkscape:window-x="-8"
     inkscape:cy="22.65654"
     inkscape:cx="-14.920502"
     inkscape:zoom="7.8664773"
     showgrid="false"
     id="namedview16"
     inkscape:window-height="1017"
     inkscape:window-width="1920"
     inkscape:pageshadow="2"
     inkscape:pageopacity="0"
     guidetolerance="10"
     gridtolerance="10"
     objecttolerance="10"
     borderopacity="1"
     bordercolor="#666666"
     pagecolor="#ffffff" />
  <path
     id="path859"
     d="m 6.5004318,21.076811 c -0.084179,-0.02679 -0.076251,-2.451098 0.00822,-2.51312 0.034866,-0.02561 0.2573795,-0.118744 0.4944733,-0.206985 0.2370939,-0.08824 0.4527603,-0.178886 0.4792585,-0.201433 0.0265,-0.02255 0.089259,-0.041 0.1394668,-0.041 0.050208,0 0.091287,-0.02179 0.091287,-0.04842 0,-0.02662 0.034543,-0.04842 0.076761,-0.04842 0.074479,0 0.1283212,-0.02023 0.3663087,-0.137674 0.062382,-0.03079 0.1479636,-0.05598 0.1901814,-0.05598 0.042218,0 0.07676,-0.0218 0.07676,-0.04842 0,-0.02662 0.044297,-0.04842 0.098437,-0.04842 0.05414,0 0.1125418,-0.02179 0.1297804,-0.04842 0.017239,-0.02662 0.07564,-0.04842 0.1297814,-0.04842 0.054139,0 0.098437,-0.02179 0.098437,-0.04842 0,-0.02662 0.032077,-0.04842 0.07128,-0.04842 0.075946,0 0.1202924,-0.01951 1.0834577,-0.47696 0.680437,-0.323162 0.677514,-0.321352 1.029021,-0.636936 0.240286,-0.215732 0.554861,-0.706801 0.554861,-0.866171 0,-0.04523 0.02513,-0.10621 0.05584,-0.135528 0.08083,-0.07715 0.07091,-3.201969 -0.01092,-3.442895 -0.181619,-0.534603 -0.09668,-0.4479 -2.884975,-2.9450277 C 8.6247418,8.8923477 8.4421665,8.735088 8.3724329,8.6802751 l -0.126787,-0.099658 3.9304261,-4.008e-4 3.930425,-3.997e-4 -0.228219,0.2007916 c -0.368383,0.3241128 -2.014,1.8033138 -2.51862,2.2639218 -0.525879,0.480013 -0.66025,0.704458 -0.736601,1.230377 -0.07377,0.50819 -0.03025,3.018405 0.0555,3.200996 0.279768,0.595702 0.325642,0.665978 0.61508,0.942264 0.252345,0.240876 0.332928,0.29422 0.73396,0.485848 0.195026,0.09319 0.362199,0.185775 0.371496,0.205744 0.0093,0.01997 0.04354,0.03613 0.07609,0.03591 0.03255,-1.89e-4 0.253153,0.08957 0.490248,0.199537 0.237093,0.109967 0.528071,0.240854 0.646617,0.290865 0.118547,0.05002 0.323944,0.137256 0.456437,0.193879 0.132493,0.05663 0.286541,0.11922 0.342327,0.1391 0.05579,0.01988 0.21554,0.08523 0.355006,0.145231 0.139467,0.06 0.29922,0.125941 0.355006,0.14654 0.0558,0.0206 0.20413,0.08036 0.329648,0.132783 0.125521,0.05243 0.279569,0.110534 0.342328,0.129114 l 0.114111,0.03379 v 1.255413 c 0,0.968005 -0.01452,1.25715 -0.0634,1.263004 -0.137504,0.01648 -11.291395,0.01834 -11.343061,0.0019 z"
     style="fill:#000000;fill-opacity:1;stroke-width:0.297296;stroke-linecap:round;stroke-linejoin:round" />
  <path
     id="path861"
     d="m 5.144948,20.9584 c 0.019287,-2.633537 0.041553,-3.155563 0.1387757,-3.253191 0.025189,-0.0253 0.045799,-0.105702 0.045799,-0.178682 0,-0.07298 0.018302,-0.143491 0.040671,-0.156688 0.02237,-0.01319 0.072139,-0.134299 0.1105979,-0.269115 0.03846,-0.134816 0.088622,-0.24512 0.1114735,-0.24512 0.02285,0 0.041549,-0.03297 0.041549,-0.07328 0,-0.06719 0.091571,-0.256189 0.1521455,-0.314012 0.013947,-0.01331 0.081038,-0.122237 0.1490886,-0.242052 0.3726481,-0.656099 1.5445752,-1.913137 2.9787637,-3.195097 0.223407,-0.199693 0.5353179,-0.478352 0.6931355,-0.619242 0.1578175,-0.140889 0.2869417,-0.275066 0.2869417,-0.298171 0,-0.04492 -0.453622,-0.472 -0.78298,-0.737163 C 9.0010426,11.288143 8.578838,10.89968 8.1726773,10.513344 6.8872869,9.2906979 6.0211629,8.2720887 5.7032678,7.6091836 5.4981467,7.1814483 5.4309525,7.0210202 5.4309525,6.9590261 c 0,-0.038654 -0.022822,-0.083751 -0.050716,-0.1002068 -0.027893,-0.016455 -0.050715,-0.08963 -0.050715,-0.1626116 0,-0.072983 -0.020609,-0.1533878 -0.045799,-0.1786822 C 5.1863795,6.419773 5.1642159,5.8963552 5.1449487,3.2401297 L 5.1250204,0.49282952 h 7.0502306 7.05023 V 3.3461964 c 0,1.8500242 -0.01784,2.8638875 -0.05072,2.8832864 -0.02789,0.016455 -0.05073,0.1144873 -0.05073,0.2178471 0,0.1033607 -0.02283,0.2013922 -0.05072,0.217848 -0.02789,0.016455 -0.05072,0.072501 -0.05072,0.1245398 0,0.052039 -0.02017,0.1324487 -0.0448,0.178683 -0.02464,0.046232 -0.0679,0.1385241 -0.09612,0.2050878 -0.14497,0.3418998 -0.453524,0.9125997 -0.52347,0.9682123 -0.01674,0.013312 -0.05853,0.075082 -0.09286,0.1372655 -0.03432,0.062189 -0.104028,0.1602154 -0.15488,0.217848 -0.05086,0.057636 -0.281997,0.3226345 -0.513638,0.5888921 -0.400217,0.4600208 -2.26059,2.2650576 -2.823891,2.7398896 -0.145202,0.122397 -0.264002,0.249367 -0.264002,0.282155 0,0.03278 0.188281,0.225938 0.4184,0.42922 1.302208,1.15034 2.782224,2.649555 3.23583,3.277805 0.09613,0.133129 0.186176,0.252946 0.200123,0.266259 0.07212,0.06884 0.40297,0.686472 0.505681,0.944005 0.02123,0.05325 0.06188,0.151283 0.09033,0.217848 0.02844,0.06657 0.07869,0.219059 0.111651,0.338874 0.03297,0.119815 0.08121,0.284748 0.107212,0.366516 0.02689,0.08453 0.04728,1.353325 0.04728,2.940943 v 2.792273 h -7.05022 -7.0502367 z m 13.16766,0.44888 c 0.06368,-0.03839 0.07872,-0.248965 0.09232,-1.294241 0.0226,-1.735015 -0.0716,-2.358683 -0.448423,-2.968727 -0.08309,-0.134507 -0.151062,-0.265385 -0.151062,-0.29084 0,-0.02545 -0.01789,-0.04628 -0.03978,-0.04628 -0.02189,0 -0.07737,-0.06074 -0.123307,-0.134972 -0.21107,-0.341076 -2.986084,-3.074182 -3.844341,-3.786284 -0.625945,-0.519351 -0.692423,-0.611918 -0.637518,-0.887702 0.02188,-0.109893 0.133884,-0.241965 0.396715,-0.467794 0.933638,-0.802198 2.398523,-2.1858535 2.970671,-2.8059425 0.158738,-0.172038 0.425544,-0.4467381 0.592904,-0.6104437 0.791576,-0.7742947 1.133892,-1.424464 1.239744,-2.3546671 0.05677,-0.4989578 0.07312,-2.6501612 0.02153,-2.8339264 L 18.35149,2.8165394 H 12.195514 6.0395342 v 1.6282401 c 0,1.5342418 0.018282,1.7908304 0.1513046,2.1235791 0.1627974,0.4072269 0.4936466,0.9378559 0.7847882,1.2586748 0.6352836,0.7000411 2.8133302,2.8173136 3.526843,3.4284316 0.740508,0.634243 0.710013,0.597578 0.710013,0.853633 0,0.2315 -2e-4,0.231777 -0.494473,0.658458 -0.9361452,0.808137 -3.5654746,3.368235 -3.8008462,3.700765 -0.047115,0.06657 -0.099498,0.131919 -0.1164055,0.145231 -0.145897,0.11488 -0.5076537,0.753381 -0.6034166,1.065033 -0.036817,0.119817 -0.087385,0.267889 -0.1123742,0.329049 -0.052011,0.127302 -0.063033,3.365627 -0.011623,3.414702 0.05449,0.05201 12.1526645,0.03714 12.2392625,-0.01505 z"
     style="fill:#000000;fill-opacity:1;stroke-width:0.297296;stroke-linecap:round;stroke-linejoin:round" />
</svg>
