<?xml version="1.0" encoding="UTF-8" standalone="no"?>
<svg
   xmlns:dc="http://purl.org/dc/elements/1.1/"
   xmlns:cc="http://creativecommons.org/ns#"
   xmlns:rdf="http://www.w3.org/1999/02/22-rdf-syntax-ns#"
   xmlns:svg="http://www.w3.org/2000/svg"
   xmlns="http://www.w3.org/2000/svg"
   xmlns:sodipodi="http://sodipodi.sourceforge.net/DTD/sodipodi-0.dtd"
   xmlns:inkscape="http://www.inkscape.org/namespaces/inkscape"
   inkscape:version="1.0 (4035a4fb49, 2020-05-01)"
   sodipodi:docname="truck.svg"
   width="48"
   id="svg4"
   version="1.1"
   viewBox="0 0 48 48"
   height="48"
   class="icon">
  <sodipodi:namedview
     inkscape:current-layer="svg4"
     inkscape:window-maximized="1"
     inkscape:window-y="-8"
     inkscape:window-x="-8"
     inkscape:cy="43.633748"
     inkscape:cx="-2.4307422"
     inkscape:zoom="3.8385594"
     inkscape:showpageshadow="false"
     borderlayer="true"
     viewbox-height="48"
     showgrid="false"
     id="namedview6"
     inkscape:window-height="1017"
     inkscape:window-width="1920"
     inkscape:pageshadow="2"
     inkscape:pageopacity="0"
     guidetolerance="10"
     gridtolerance="10"
     objecttolerance="10"
     borderopacity="1"
     bordercolor="#666666"
     pagecolor="#ffffff" />
  <metadata
     id="metadata10">
    <rdf:RDF>
      <cc:Work
         rdf:about="">
        <dc:format>image/svg+xml</dc:format>
        <dc:type
           rdf:resource="http://purl.org/dc/dcmitype/StillImage" />
        <dc:title></dc:title>
      </cc:Work>
    </rdf:RDF>
  </metadata>
  <defs
     id="defs8" />
  <path
     d="M 1.7202965,9 C 0.76703552,9 0,9.767036 0,10.720297 v 24.645392 c 0,0.953261 0.76703552,1.720294 1.7202965,1.720294 h 2.1535 v 1.063757 c 0,0.349651 0.2005175,0.631514 0.449568,0.631514 h 1.7039311 c 0.2490505,0 0.4495685,-0.281863 0.4495685,-0.631514 v -1.267842 c 0.7246205,-2.155989 2.7448741,-3.608605 5.0193769,-3.609064 2.554704,0 5.192658,2.495273 5.192658,3.813149 v 1.063757 c 0,0.349651 0.200518,0.631514 0.449568,0.631514 h 1.703931 c 0.24905,0 0.449568,-0.281863 0.449568,-0.631514 v -1.063757 h 5.347298 c 0.953261,0 1.72126,-0.767033 1.72126,-1.720294 V 10.720297 C 26.360524,9.767036 25.592527,9 24.639264,9 Z m 27.6919015,6.809443 c -0.953262,0 -1.720297,0.767995 -1.720297,1.721256 v 17.83499 c 0,0.953261 0.767035,1.720294 1.720297,1.720294 h 0.0491 v 1.063757 c 0,0.349651 0.200518,0.631514 0.449569,0.631514 h 1.703931 c 0.249049,0 0.449567,-0.281863 0.449567,-0.631514 v -1.066645 c 0.639454,-2.288183 2.724389,-3.870577 5.100242,-3.870906 2.377024,2.59e-4 4.462733,1.584122 5.101204,3.873794 h 0.0106 v 1.063757 c 0,0.349651 0.200516,0.631514 0.449569,0.631514 h 1.703928 c 0.249054,0 0.44957,-0.281863 0.44957,-0.631514 v -1.063757 h 1.399269 c 0.953261,0 1.510783,-0.790561 1.721263,-1.720294 v -8.813611 c -0.02164,-0.401075 -0.117075,-0.439789 -0.314694,-0.601669 l -3.238074,-1.954851 c -0.45891,-0.174453 -0.796238,-0.523063 -0.972303,-0.94053 -0.08796,-0.124647 -0.166255,-0.257289 -0.220451,-0.408177 L 40.413873,16.589988 C 40.132431,15.78721 40.004101,15.809443 39.209856,15.809443 Z m 1.029097,2.118839 h 8.10089 c 0.334329,-0.03294 0.445945,0.156829 0.527344,0.376817 l 2.06032,4.267628 v 0.262808 c 0,0.584388 -0.416472,1.055091 -0.933792,1.055091 h -9.754762 c -0.517322,0 -0.933793,-0.470703 -0.933793,-1.055091 v -3.85216 c 0,-0.584389 0.416471,-1.055093 0.933793,-1.055093 z m 6.653995,16.373654 c -2.296285,0.03784 -4.137884,1.910283 -4.137568,4.206879 -7e-6,2.323399 1.883481,4.206889 4.20688,4.206883 2.323399,6e-6 4.206888,-1.883484 4.20688,-4.206883 5e-6,-2.323397 -1.883482,-4.206884 -4.20688,-4.206879 -0.02311,-1.91e-4 -0.04621,-1.91e-4 -0.06931,0 z m -25.599049,0.05968 c -2.3230238,5e-4 -4.2059264,1.88386 -4.2059189,4.206884 -4.5e-6,2.323022 1.8828976,4.206352 4.2059189,4.206877 2.323398,7e-6 4.206886,-1.88348 4.206881,-4.206877 8e-6,-2.3234 -1.883481,-4.20689 -4.206881,-4.206884 z m 25.624078,2.361435 h 10e-4 c 0.01445,0 0.02888,-1.75e-4 0.04332,0 0.986271,-5.9e-5 1.785816,0.799488 1.785754,1.78576 -4.69e-4,0.985896 -0.799859,1.784857 -1.785754,1.784799 -0.985898,6e-5 -1.785288,-0.798902 -1.785758,-1.784799 -3.57e-4,-0.969233 0.772537,-1.761783 1.741474,-1.78576 z m -25.667398,0.06065 c 0.01444,-1.74e-4 0.02888,-1.74e-4 0.04332,0 0.985897,-6e-5 1.785288,0.798902 1.785757,1.7848 5.9e-5,0.98627 -0.799487,1.785815 -1.785757,1.785755 -0.985895,-4.72e-4 -1.7848543,-0.79986 -1.7847958,-1.785755 1.64e-4,-0.968861 0.7729118,-1.760832 1.7414758,-1.7848 z"
     style="fill:#000000;stroke-width:2;stroke-linecap:round;stroke-linejoin:round"
     id="rect912" />
</svg>
