<?xml version="1.0" encoding="UTF-8"?>
<svg width="128" height="192" version="1.1" viewBox="0 0 33.867 50.8" xmlns="http://www.w3.org/2000/svg" xmlns:cc="http://creativecommons.org/ns#" xmlns:dc="http://purl.org/dc/elements/1.1/" xmlns:rdf="http://www.w3.org/1999/02/22-rdf-syntax-ns#">
 <metadata>
  <rdf:RDF>
   <cc:Work rdf:about="">
    <dc:format>image/svg+xml</dc:format>
    <dc:type rdf:resource="http://purl.org/dc/dcmitype/StillImage"/>
    <dc:title/>
   </cc:Work>
  </rdf:RDF>
 </metadata>
 <path d="m0 16.933v-16.933l16.933 8.4667v16.933z" fill="#fdfdfd" fill-opacity=".32"/>
 <path d="m16.933 8.4667 16.933-8.4667v16.933l-16.933 8.4667z" fill-opacity=".32"/>
 <g fill-opacity=".31765">
  <path d="m16.933 42.333v-16.933l16.933 8.4667v16.933z" fill="#fff"/>
  <path d="m0 33.867 16.933-8.4667v16.933l-16.933 8.4667z"/>
  <path d="m0 16.933v16.933l16.933-8.4667z" fill="#818181"/>
  <path d="m33.867 33.867v-16.933l-16.933 8.4667z" fill="#818181"/>
 </g>
 <path d="m0 0 16.933 8.4667 16.933-8.4667z" fill="#808080" fill-opacity=".32"/>
 <path d="m0 50.8 16.933-8.4667 16.933 8.4667z" fill="#818181" fill-opacity=".31765"/>
 <g fill="none" stroke="#fff" stroke-width=".26458">
  <path d="m0.059166 0.11833 16.933 8.4672"/>
  <path d="m33.926 0.11833-16.933 8.4667"/>
  <path d="m0.059166 50.921 16.934-8.4667"/>
  <path d="m33.926 50.921-16.934-8.4672"/>
  <path d="m16.992 25.52v16.934"/>
  <path d="m33.926 33.987-16.933-8.4667"/>
  <path d="m0.059166 33.987 16.933-8.4672"/>
  <path d="m33.926 17.053-16.933 8.4667"/>
  <path d="m0.059166 17.052 16.933 8.4672"/>
  <path d="m16.992 8.585 5.29e-4 16.934"/>
  <path d="m0.059166 33.987v16.934"/>
  <path d="m33.926 33.987v16.934"/>
  <path d="m33.926 17.053v-16.934"/>
  <path d="m0.059166 0.11833v16.934"/>
 </g>
</svg>
