<?xml version="1.0" encoding="UTF-8" standalone="no"?>
<svg
   xmlns:dc="http://purl.org/dc/elements/1.1/"
   xmlns:cc="http://creativecommons.org/ns#"
   xmlns:rdf="http://www.w3.org/1999/02/22-rdf-syntax-ns#"
   xmlns:svg="http://www.w3.org/2000/svg"
   xmlns="http://www.w3.org/2000/svg"
   xmlns:sodipodi="http://sodipodi.sourceforge.net/DTD/sodipodi-0.dtd"
   xmlns:inkscape="http://www.inkscape.org/namespaces/inkscape"
   inkscape:version="1.0 (4035a4fb49, 2020-05-01)"
   sodipodi:docname="wildcard.svg"
   xml:space="preserve"
   style="enable-background:new 0 0 302.4 302.4;"
   viewBox="0 0 302.4 302.4"
   y="0px"
   x="0px"
   id="Capa_1"
   version="1.1"><metadata
   id="metadata91"><rdf:RDF><cc:Work
       rdf:about=""><dc:format>image/svg+xml</dc:format><dc:type
         rdf:resource="http://purl.org/dc/dcmitype/StillImage" /></cc:Work></rdf:RDF></metadata><defs
   id="defs89" /><sodipodi:namedview
   inkscape:current-layer="Capa_1"
   inkscape:window-maximized="1"
   inkscape:window-y="-8"
   inkscape:window-x="-8"
   inkscape:cy="151.2"
   inkscape:cx="151.2"
   inkscape:zoom="2.4371806"
   showgrid="false"
   id="namedview87"
   inkscape:window-height="1017"
   inkscape:window-width="1920"
   inkscape:pageshadow="2"
   inkscape:pageopacity="0"
   guidetolerance="10"
   gridtolerance="10"
   objecttolerance="10"
   borderopacity="1"
   bordercolor="#666666"
   pagecolor="#ffffff" />
























<g
   style="font-style:normal;font-weight:normal;font-size:729.953px;line-height:1.25;font-family:sans-serif;letter-spacing:0px;word-spacing:0px;fill:#000000;fill-opacity:1;stroke:none;stroke-width:1"
   id="text918"
   aria-label="*"><path
     id="path920"
     style="font-style:normal;font-variant:normal;font-weight:normal;font-stretch:normal;font-family:'Times New Roman';-inkscape-font-specification:'Times New Roman, ';stroke-width:1"
     d="m 145.38341,138.65378 q -1.42569,-24.59314 -9.97983,-48.829865 -12.11836,-34.929391 -12.11836,-48.117019 0,-18.533963 8.55414,-28.157367 8.91056,-9.6234036 21.74176,-9.6234036 11.04909,0 19.24681,9.6234036 8.19771,9.623404 8.19771,27.444522 0,16.039007 -9.6234,44.909218 -9.26698,28.513791 -11.40552,52.750511 19.60323,-12.47478 35.28582,-30.2959 24.23672,-28.157369 35.99866,-34.929393 11.76193,-6.772025 23.8803,-6.772025 11.76193,0 19.60323,8.197714 8.19771,7.841292 8.19771,18.890385 0,13.187629 -11.76194,23.523879 -11.76194,10.33625 -58.80969,20.67249 -27.44452,6.05918 -45.62206,13.90048 18.53396,9.6234 45.26564,14.61331 43.12711,7.8413 56.31473,19.60323 13.54405,11.76194 13.54405,25.66241 0,10.69267 -8.19771,18.53397 -7.84129,7.84129 -18.53396,7.84129 -10.69268,0 -23.8803,-7.48487 -12.83121,-7.48487 -34.9294,-33.5037 -14.61331,-17.4647 -36.35508,-32.79086 0.71285,20.31607 8.19772,44.19637 12.8312,42.05784 12.8312,57.384 0,14.2569 -8.55413,24.23672 -8.55414,9.62341 -18.17754,9.62341 -13.18763,0 -23.8803,-10.33625 -7.48487,-7.48487 -7.48487,-23.8803 0,-17.10827 8.19771,-40.98857 8.19772,-24.23672 10.33625,-33.14728 2.13853,-9.26698 3.92065,-27.0881 -21.02892,13.90047 -36.71151,31.00875 -26.018829,29.22663 -39.206457,37.06792 -9.266981,5.70276 -19.246808,5.70276 -12.11836,0 -20.672497,-8.19772 -8.554137,-8.19771 -8.554137,-18.17754 0,-8.91056 7.128448,-18.53396 7.484869,-9.97983 22.098186,-16.39543 9.623404,-4.27707 43.839951,-11.40551 22.098184,-4.63349 43.127104,-13.54405 Q 117.93888,142.218 91.207207,136.87167 47.367256,127.60469 37.031008,120.11982 20.992001,108.35788 20.992001,91.606027 q 0,-9.623404 7.841292,-17.464696 8.197715,-8.197714 18.890386,-8.197714 11.761938,0 24.949565,7.48487 13.187628,7.484869 32.790856,30.295903 19.60323,22.45461 39.91931,34.92939 z" /></g></svg>
