<?xml version="1.0" encoding="UTF-8" standalone="no"?>
<svg
   xmlns:dc="http://purl.org/dc/elements/1.1/"
   xmlns:cc="http://creativecommons.org/ns#"
   xmlns:rdf="http://www.w3.org/1999/02/22-rdf-syntax-ns#"
   xmlns:svg="http://www.w3.org/2000/svg"
   xmlns="http://www.w3.org/2000/svg"
   xmlns:sodipodi="http://sodipodi.sourceforge.net/DTD/sodipodi-0.dtd"
   xmlns:inkscape="http://www.inkscape.org/namespaces/inkscape"
   inkscape:version="1.0 (4035a4fb49, 2020-05-01)"
   sodipodi:docname="address-book.svg"
   id="svg2"
   height="40"
   width="40"
   version="1.1">
  <sodipodi:namedview
     inkscape:current-layer="svg2"
     inkscape:window-maximized="1"
     inkscape:window-y="-8"
     inkscape:window-x="-8"
     inkscape:cy="22.753631"
     inkscape:cx="19.008106"
     inkscape:zoom="13.364318"
     showgrid="false"
     id="namedview13"
     inkscape:window-height="1017"
     inkscape:window-width="1920"
     inkscape:pageshadow="2"
     inkscape:pageopacity="0"
     guidetolerance="10"
     gridtolerance="10"
     objecttolerance="10"
     borderopacity="1"
     bordercolor="#666666"
     pagecolor="#ffffff" />
  <defs
     id="defs4" />
  <metadata
     id="metadata7">
    <rdf:RDF>
      <cc:Work
         rdf:about="">
        <dc:format>image/svg+xml</dc:format>
        <dc:type
           rdf:resource="http://purl.org/dc/dcmitype/StillImage" />
        <dc:title></dc:title>
      </cc:Work>
    </rdf:RDF>
  </metadata>
  <path
     id="rect3834"
     style="fill:none;stroke:#000000;stroke-width:1.387;stroke-miterlimit:4;stroke-dasharray:none;stroke-opacity:1"
     d="m 29.436953,18.18003 h 5.322974 c 0.746173,0 1.346892,0.559369 1.346892,1.254201 v 4.838361 c 0,0.694825 -0.600719,1.254201 -1.346892,1.254201 h -5.322974 c -0.746181,0 -1.346893,-0.559376 -1.346893,-1.254201 v -4.838361 c 0,-0.694832 0.600712,-1.254201 1.346893,-1.254201 z" />
  <path
     id="rect3832"
     style="fill:none;stroke:#000000;stroke-width:1.387;stroke-miterlimit:4;stroke-dasharray:none;stroke-opacity:1"
     d="m 29.615006,10.393565 h 4.966866 c 0.84482,0 1.524947,0.633318 1.524947,1.419998 v 4.50676 c 0,0.78668 -0.680127,1.419998 -1.524947,1.419998 h -4.966866 c -0.844819,0 -1.524946,-0.633318 -1.524946,-1.419998 v -4.50676 c 0,-0.78668 0.680127,-1.419998 1.524946,-1.419998 z" />
  <path
     id="rect3052"
     style="fill:none;stroke:#000000;stroke-width:1.387;stroke-miterlimit:4;stroke-dasharray:none;stroke-opacity:1"
     d="m 29.659676,2.6070935 h 4.877519 c 0.869573,0 1.569624,0.6518772 1.569624,1.4616038 v 4.4235614 c 0,0.809727 -0.700051,1.461597 -1.569624,1.461597 h -4.877519 c -0.869565,0 -1.569616,-0.65187 -1.569616,-1.461597 V 4.0686973 c 0,-0.8097266 0.700051,-1.4616038 1.569616,-1.4616038 z" />
  <path
     d="m 7.4980108,34.138439 0.6179674,2.319088"
     id="path3847"
     style="fill:none;stroke:#ffffff;stroke-width:1.82001;stroke-linecap:square;stroke-linejoin:miter;stroke-miterlimit:4;stroke-dasharray:none;stroke-opacity:1" />
  <rect
     rx="1.9047619"
     ry="1.904762"
     y="0.51700002"
     x="4.3386245"
     height="36.786572"
     width="28.359789"
     id="rect854"
     style="fill:#000000;fill-opacity:1;stroke-width:9.99996;stroke-linecap:round;stroke-linejoin:round" />
  <path
     d="m 29.436953,25.966503 h 5.322974 c 0.746173,0 1.346892,0.559369 1.346892,1.254201 v 4.838361 c 0,0.694825 -0.600719,1.254201 -1.346892,1.254201 h -5.322974 c -0.746181,0 -1.346893,-0.559376 -1.346893,-1.254201 v -4.838361 c 0,-0.694832 0.600712,-1.254201 1.346893,-1.254201 z"
     style="fill:none;stroke:#000000;stroke-width:1.387;stroke-miterlimit:4;stroke-dasharray:none;stroke-opacity:1"
     id="path856" />
  <path
     d="M 6.6660156 1.6992188 C 5.3424261 1.6992188 4.2617188 2.7799261 4.2617188 4.1035156 L 4.2617188 37.082031 C 4.2617188 38.405621 5.3424264 39.486328 6.6660156 39.486328 L 31.746094 39.486328 C 33.069683 39.486328 34.150391 38.405621 34.150391 37.082031 L 34.150391 32.716797 L 33.150391 32.716797 L 33.150391 37.082031 C 33.150391 37.868919 32.532981 38.486328 31.746094 38.486328 L 6.6660156 38.486328 C 5.8791287 38.486328 5.2617187 37.868919 5.2617188 37.082031 L 5.2617188 4.1035156 C 5.2617188 3.3166289 5.8791289 2.6992187 6.6660156 2.6992188 L 31.746094 2.6992188 C 32.085536 2.6992188 32.390447 2.8178949 32.630859 3.0117188 L 32.630859 1.8730469 C 32.35614 1.7632898 32.059043 1.6992187 31.746094 1.6992188 L 6.6660156 1.6992188 z "
     style="color:#000000;font-style:normal;font-variant:normal;font-weight:normal;font-stretch:normal;font-size:medium;line-height:normal;font-family:sans-serif;font-variant-ligatures:normal;font-variant-position:normal;font-variant-caps:normal;font-variant-numeric:normal;font-variant-alternates:normal;font-variant-east-asian:normal;font-feature-settings:normal;font-variation-settings:normal;text-indent:0;text-align:start;text-decoration:none;text-decoration-line:none;text-decoration-style:solid;text-decoration-color:#000000;letter-spacing:normal;word-spacing:normal;text-transform:none;writing-mode:lr-tb;direction:ltr;text-orientation:mixed;dominant-baseline:auto;baseline-shift:baseline;text-anchor:start;white-space:normal;shape-padding:0;shape-margin:0;inline-size:0;clip-rule:nonzero;display:inline;overflow:visible;visibility:visible;isolation:auto;mix-blend-mode:normal;color-interpolation:sRGB;color-interpolation-filters:linearRGB;solid-color:#000000;solid-opacity:1;vector-effect:none;fill:#000000;fill-opacity:1;fill-rule:nonzero;stroke:none;stroke-width:1;stroke-linecap:round;stroke-linejoin:round;stroke-miterlimit:4;stroke-dasharray:none;stroke-dashoffset:0;stroke-opacity:1;color-rendering:auto;image-rendering:auto;shape-rendering:auto;text-rendering:auto;enable-background:accumulate;stop-color:#000000;stop-opacity:1;opacity:1"
     id="path863" />
</svg>
