<?xml version="1.0" encoding="UTF-8" standalone="no"?>
<svg
   xmlns:dc="http://purl.org/dc/elements/1.1/"
   xmlns:cc="http://creativecommons.org/ns#"
   xmlns:rdf="http://www.w3.org/1999/02/22-rdf-syntax-ns#"
   xmlns:svg="http://www.w3.org/2000/svg"
   xmlns="http://www.w3.org/2000/svg"
   xmlns:sodipodi="http://sodipodi.sourceforge.net/DTD/sodipodi-0.dtd"
   xmlns:inkscape="http://www.inkscape.org/namespaces/inkscape"
   inkscape:version="1.0 (4035a4fb49, 2020-05-01)"
   sodipodi:docname="agenda.svg"
   id="svg6"
   version="1.1"
   viewBox="0 0 24 24"
   height="24"
   width="24">
  <metadata
     id="metadata12">
    <rdf:RDF>
      <cc:Work
         rdf:about="">
        <dc:format>image/svg+xml</dc:format>
        <dc:type
           rdf:resource="http://purl.org/dc/dcmitype/StillImage" />
      </cc:Work>
    </rdf:RDF>
  </metadata>
  <defs
     id="defs10" />
  <sodipodi:namedview
     inkscape:current-layer="svg6"
     inkscape:window-maximized="1"
     inkscape:window-y="-8"
     inkscape:window-x="1912"
     inkscape:cy="15.386243"
     inkscape:cx="12"
     inkscape:zoom="23.625"
     showgrid="false"
     id="namedview8"
     inkscape:window-height="1017"
     inkscape:window-width="1920"
     inkscape:pageshadow="2"
     inkscape:pageopacity="0"
     guidetolerance="10"
     gridtolerance="10"
     objecttolerance="10"
     borderopacity="1"
     bordercolor="#666666"
     pagecolor="#ffffff" />
  <path
     d="M 3 1 L 3 3 L 2 3 C 0.9 3 0 3.9 0 5 L 0 21 C 0 22.1 0.9 23 2 23 L 22 23 C 23.1 23 24 22.1 24 21 L 24 5 C 24 3.9 23.1 3 22 3 L 21 3 L 21 1 L 19 1 L 19 3 L 15.666016 3 L 15.666016 1 L 13.666016 1 L 13.666016 3 L 10.333984 3 L 10.333984 1 L 8.3339844 1 L 8.3339844 3 L 5 3 L 5 1 L 3 1 z M 2 8 L 22 8 L 22 21 L 2 21 L 2 8 z "
     id="path2" />
  <path
     id="path4"
     d="M0 0h24v24H0z"
     fill="none" />
  <rect
     y="9"
     x="3"
     height="1.9999999"
     width="8"
     id="rect850"
     style="fill:#000000;stroke-width:7;stroke-linecap:round;stroke-linejoin:round" />
  <rect
     style="fill:#000000;stroke-width:7;stroke-linecap:round;stroke-linejoin:round"
     id="rect854"
     width="8"
     height="1.9999999"
     x="13"
     y="9" />
  <rect
     style="fill:#000000;stroke-width:7;stroke-linecap:round;stroke-linejoin:round"
     id="rect856"
     width="8"
     height="1.9999999"
     x="3"
     y="12" />
  <rect
     y="12"
     x="13"
     height="1.9999999"
     width="8"
     id="rect858"
     style="fill:#000000;stroke-width:7;stroke-linecap:round;stroke-linejoin:round" />
  <rect
     y="15"
     x="3"
     height="1.9999999"
     width="8"
     id="rect860"
     style="fill:#000000;stroke-width:7;stroke-linecap:round;stroke-linejoin:round" />
  <rect
     style="fill:#000000;stroke-width:7;stroke-linecap:round;stroke-linejoin:round"
     id="rect862"
     width="8"
     height="1.9999999"
     x="13"
     y="15" />
  <rect
     style="fill:#000000;stroke-width:7;stroke-linecap:round;stroke-linejoin:round"
     id="rect864"
     width="8"
     height="1.9999999"
     x="3"
     y="18" />
  <rect
     y="18"
     x="13"
     height="1.9999999"
     width="8"
     id="rect866"
     style="fill:#000000;stroke-width:7;stroke-linecap:round;stroke-linejoin:round" />
</svg>
