<?xml version="1.0" standalone="no"?><!DOCTYPE svg PUBLIC "-//W3C//DTD SVG 1.1//EN" "http://www.w3.org/Graphics/SVG/1.1/DTD/svg11.dtd"><svg class="icon" height="512" viewBox="0 0 1024 1024" version="1.1" xmlns="http://www.w3.org/2000/svg"><path d="M512 0C230.4 0 0 230.4 0 512s230.4 512 512 512 512-230.4 512-512S793.6 0 512 0zM512 64c112 0 214.4 41.6 294.4 108.8L691.2 288l-96-96c-32-32-73.6-48-115.2-48S393.6 160 364.8 192c-64 64-64 169.6 0 233.6l96 96L448 531.2c-51.2-28.8-118.4-22.4-160 22.4-44.8 44.8-51.2 108.8-22.4 160l-92.8 92.8C105.6 726.4 64 624 64 512 64 265.6 265.6 64 512 64zM691.2 377.6l76.8 76.8c38.4 38.4 38.4 102.4 0 140.8-38.4 38.4-102.4 38.4-140.8 0l-76.8-76.8L691.2 377.6zM512 960c-112 0-214.4-41.6-294.4-108.8l92.8-92.8c51.2 32 121.6 28.8 166.4-16 44.8-44.8 51.2-115.2 16-166.4l9.6-9.6 76.8 76.8c32 32 73.6 48 115.2 48s83.2-16 115.2-48c64-64 64-169.6 0-233.6L736 332.8l112-112c67.2 80 108.8 182.4 108.8 294.4C960 758.4 758.4 960 512 960z" /></svg>