<?xml version="1.0" encoding="UTF-8" standalone="no"?>
<!-- Created with Inkscape (http://www.inkscape.org/) -->

<svg
   width="40"
   height="40"
   viewBox="0 0 10.583333 10.583333"
   version="1.1"
   id="svg5"
   inkscape:version="1.2 (dc2aedaf03, 2022-05-15)"
   sodipodi:docname="breeder.svg"
   xml:space="preserve"
   xmlns:inkscape="http://www.inkscape.org/namespaces/inkscape"
   xmlns:sodipodi="http://sodipodi.sourceforge.net/DTD/sodipodi-0.dtd"
   xmlns="http://www.w3.org/2000/svg"
   xmlns:svg="http://www.w3.org/2000/svg"><sodipodi:namedview
     id="namedview7"
     pagecolor="#ffffff"
     bordercolor="#666666"
     borderopacity="1.0"
     inkscape:showpageshadow="2"
     inkscape:pageopacity="0.0"
     inkscape:pagecheckerboard="0"
     inkscape:deskcolor="#d1d1d1"
     inkscape:document-units="mm"
     showgrid="false"
     inkscape:zoom="13.455443"
     inkscape:cx="0.29727747"
     inkscape:cy="27.832603"
     inkscape:window-width="1920"
     inkscape:window-height="1017"
     inkscape:window-x="-8"
     inkscape:window-y="-8"
     inkscape:window-maximized="1"
     inkscape:current-layer="layer1" /><defs
     id="defs2" /><g
     inkscape:label="Calque 1"
     inkscape:groupmode="layer"
     id="layer1"><path
       id="rect1569"
       style="fill:none;fill-opacity:1;stroke:#000000;stroke-width:0.396875;stroke-linecap:round;stroke-linejoin:round;stroke-dasharray:none;stroke-opacity:1"
       d="M 5.2790119,10.027898 1.1133616,5.8630402 c -1.1538839,-1.1536644 -1.15388405,-3.0111934 0,-4.1648582 1.1538841,-1.15366446 3.0117664,-1.15366418 4.1656503,2e-7 1.1538836,-1.15366397 3.0117665,-1.15366452 4.1656504,-2e-7 1.1538837,1.1536646 1.1538837,3.0111942 0,4.1648582 z"
       sodipodi:nodetypes="csscscc" /><path
       d="m 8.6637321,2.1561325 c -0.0019,-0.014852 -0.00517,-0.029158 -0.010602,-0.042579 -1.832e-4,-3.364e-4 -1.832e-4,-8.016e-4 -2.443e-4,-0.00122 0,-8.55e-5 -9.16e-5,-1.678e-4 -1.832e-4,-2.534e-4 -0.00598,-0.014137 -0.014138,-0.026969 -0.023351,-0.038877 -0.00227,-0.00282 -0.0045,-0.0056 -0.0069,-0.00825 -0.00985,-0.011107 -0.020532,-0.021374 -0.032944,-0.029747 -3.358e-4,-2.534e-4 -7.552e-4,-3.365e-4 -0.0011,-5.891e-4 C 8.5764166,2.026707 8.5631626,2.020733 8.5492786,2.01602 8.5458286,2.0148 8.5424586,2.01375 8.5389286,2.01282 8.5243766,2.00887 8.5093976,2.006 8.4936196,2.006 H 7.2872711 c -0.09513,0 -0.1723365,0.077206 -0.1723365,0.1723363 0,0.09513 0.077206,0.1723365 0.1723365,0.1723365 H 8.0775108 L 7.04892,3.3792758 C 6.7746375,3.1599003 6.4369491,3.0400306 6.0809161,3.0400306 c -0.8552023,0 -1.5510278,0.695825 -1.5510278,1.5510277 0,0.8552026 0.6958255,1.5510279 1.5510278,1.5510279 0.8552027,0 1.5510277,-0.6958253 1.5510277,-1.5510279 0,-0.3558646 -0.1197855,-0.6934689 -0.3393293,-0.9680039 L 8.3212893,2.5943779 v 0.790324 c 0,0.09513 0.077206,0.1723364 0.1723362,0.1723364 0.09513,0 0.1723367,-0.077206 0.1723367,-0.1723364 V 2.178347 c 0,-0.00362 -8.413e-4,-0.00706 -0.00106,-0.010602 -2.443e-4,-0.00395 -6.748e-4,-0.00774 -0.00117,-0.011613 z M 6.0809158,5.7974126 c -0.6652371,0 -1.2063549,-0.5411179 -1.2063549,-1.206355 0,-0.6652371 0.5411178,-1.206355 1.2063549,-1.206355 0.3220789,0 0.6253086,0.1253815 0.8533093,0.3525829 0.2276642,0.2284635 0.3530456,0.5316932 0.3530456,0.8537721 0,0.6652371 -0.5411178,1.206355 -1.2063549,1.206355 z m 0,0"
       id="path1932"
       style="stroke-width:0.352778" /><g
       id="g3452"
       transform="matrix(0.01434613,0,0,0.01434613,1.7607292,2.9830847)"
       style="stroke-width:18.4428"><g
         id="g3397"
         style="stroke-width:18.4428">
	<g
   id="g3395"
   style="stroke-width:18.4428">
		<path
   d="m 284.17,89.848 c -1.414,-7.138 -3.531,-14.119 -6.32,-20.84 -2.796,-6.751 -6.253,-13.209 -10.32,-19.28 -8.179,-12.246 -18.685,-22.765 -30.92,-30.96 -12.105,-8.131 -25.699,-13.787 -40,-16.64 -14.422,-2.837 -29.258,-2.837 -43.68,0 -14.301,2.852 -27.896,8.508 -40,16.64 -12.231,8.183 -22.737,18.689 -30.92,30.92 -8.131,12.105 -13.786,25.699 -16.64,40 -2.838,14.422 -2.838,29.258 0,43.68 2.852,14.301 8.508,27.896 16.64,40 10.815,16.169 25.646,29.25 43.04,37.96 10.548,5.397 21.891,9.07 33.6,10.88 2.335,0.211 4.095,2.217 4,4.56 v 31.6 c 0,2.43 -1.97,4.4 -4.4,4.4 h -46.64 c -3.148,0.013 -6.165,1.263 -8.4,3.48 -4.484,4.545 -4.625,11.805 -0.32,16.52 l 0.24,0.2 c 1.149,1.111 2.509,1.982 4,2.56 1.433,0.596 2.968,0.909 4.52,0.92 h 46.72 c 1.169,-0.005 2.291,0.456 3.12,1.28 0.761,0.828 1.176,1.916 1.16,3.04 v 46.76 c -0.006,1.563 0.293,3.112 0.88,4.56 0.572,1.494 1.444,2.855 2.56,4 1.145,1.117 2.506,1.989 4,2.56 2.91,1.189 6.17,1.189 9.08,0 1.494,-0.572 2.855,-1.444 4,-2.56 1.116,-1.145 1.988,-2.506 2.56,-4 0.587,-1.448 0.886,-2.997 0.88,-4.56 v -46.76 c -0.005,-1.169 0.456,-2.291 1.28,-3.12 0.829,-0.824 1.951,-1.285 3.12,-1.28 h 46.68 c 1.563,0.006 3.112,-0.293 4.56,-0.88 1.494,-0.572 2.855,-1.443 4,-2.56 1.116,-1.145 1.988,-2.506 2.56,-4 1.189,-2.91 1.189,-6.17 0,-9.08 -0.312,-0.758 -0.701,-1.482 -1.16,-2.16 l -1.56,-1.56 c -2.235,-2.217 -5.252,-3.467 -8.4,-3.48 h -46.76 c -1.169,0.005 -2.291,-0.456 -3.12,-1.28 -0.824,-0.829 -1.285,-1.951 -1.28,-3.12 v -29.44 -2.04 c 0.002,-1.059 0.385,-2.081 1.08,-2.88 0.691,-0.786 1.643,-1.297 2.68,-1.44 11.874,-1.678 23.397,-5.272 34.12,-10.64 24.149,-12.068 43.127,-32.451 53.44,-57.4 2.791,-6.734 4.908,-13.728 6.32,-20.88 2.838,-14.422 2.838,-29.259 0,-43.68 z m -23.32,39 v 0.16 c -9.803,47.805 -56.504,78.612 -104.309,68.809 -47.805,-9.803 -78.612,-56.504 -68.809,-104.309 9.803,-47.805 56.504,-78.612 104.309,-68.809 41.276,8.464 70.833,44.895 70.609,87.029 -0.038,5.751 -0.641,11.486 -1.8,17.12 z"
   id="path3393"
   style="stroke-width:18.4428" />
	</g>
</g><g
         id="g3399"
         style="stroke-width:18.4428">
</g><g
         id="g3401"
         style="stroke-width:18.4428">
</g><g
         id="g3403"
         style="stroke-width:18.4428">
</g><g
         id="g3405"
         style="stroke-width:18.4428">
</g><g
         id="g3407"
         style="stroke-width:18.4428">
</g><g
         id="g3409"
         style="stroke-width:18.4428">
</g><g
         id="g3411"
         style="stroke-width:18.4428">
</g><g
         id="g3413"
         style="stroke-width:18.4428">
</g><g
         id="g3415"
         style="stroke-width:18.4428">
</g><g
         id="g3417"
         style="stroke-width:18.4428">
</g><g
         id="g3419"
         style="stroke-width:18.4428">
</g><g
         id="g3421"
         style="stroke-width:18.4428">
</g><g
         id="g3423"
         style="stroke-width:18.4428">
</g><g
         id="g3425"
         style="stroke-width:18.4428">
</g><g
         id="g3427"
         style="stroke-width:18.4428">
</g></g></g></svg>
