<?xml version="1.0" encoding="UTF-8" standalone="no"?>
<svg
   xmlns:dc="http://purl.org/dc/elements/1.1/"
   xmlns:cc="http://creativecommons.org/ns#"
   xmlns:rdf="http://www.w3.org/1999/02/22-rdf-syntax-ns#"
   xmlns:svg="http://www.w3.org/2000/svg"
   xmlns="http://www.w3.org/2000/svg"
   xmlns:sodipodi="http://sodipodi.sourceforge.net/DTD/sodipodi-0.dtd"
   xmlns:inkscape="http://www.inkscape.org/namespaces/inkscape"
   version="1.1"
   id="Capa_1"
   x="0px"
   y="0px"
   width="124.805px"
   height="124.805px"
   viewBox="0 0 124.805 124.805"
   style="enable-background:new 0 0 124.805 124.805;"
   xml:space="preserve"
   sodipodi:docname="cat-face-outline.svg"
   inkscape:version="1.0 (4035a4fb49, 2020-05-01)"><metadata
   id="metadata45"><rdf:RDF><cc:Work
       rdf:about=""><dc:format>image/svg+xml</dc:format><dc:type
         rdf:resource="http://purl.org/dc/dcmitype/StillImage" /></cc:Work></rdf:RDF></metadata><defs
   id="defs43">
	
	
	
</defs><sodipodi:namedview
   inkscape:document-rotation="0"
   pagecolor="#ffffff"
   bordercolor="#666666"
   borderopacity="1"
   objecttolerance="10"
   gridtolerance="10"
   guidetolerance="10"
   inkscape:pageopacity="0"
   inkscape:pageshadow="2"
   inkscape:window-width="1920"
   inkscape:window-height="1017"
   id="namedview41"
   showgrid="false"
   inkscape:zoom="1.9527885"
   inkscape:cx="-163.47171"
   inkscape:cy="87.906371"
   inkscape:window-x="-8"
   inkscape:window-y="-8"
   inkscape:window-maximized="1"
   inkscape:current-layer="Capa_1" />
<path
   id="path2"
   d="m 113.69495,5.7956892 c -2.69799,0.055159 -5.06365,1.4742972 -7.53557,2.3723731 -6.09065,2.4555027 -12.181409,4.9107197 -18.271982,7.3664037 -6.703376,-2.53433 -13.78009,-4.087707 -20.936087,-4.516684 -0.609818,-0.02757 -1.58261,-0.0855 -2.331162,-0.09675 -4.025142,-0.119715 -8.06062,0.09808 -12.048784,0.656922 -0.405108,0.06896 -1.204123,0.176182 -1.637797,0.252886 -4.715356,0.766482 -9.336097,2.048514 -13.816858,3.697398 C 29.340679,12.419215 21.601189,9.2123436 13.795013,6.1835341 10.234837,5.144741 6.1821396,6.1406222 3.5455239,8.7604768 1.3505962,10.805287 0.27557016,13.831409 0.35562949,16.799162 0.42835189,34.198404 0.40091793,51.60093 0.49895582,69.000216 1.1179039,76.555648 3.6830548,83.900532 7.6431128,90.347111 c 0.3417485,0.556262 0.8687171,1.387207 1.3162924,2.033576 8.1945888,11.993383 21.0613658,20.385723 34.9893868,24.176473 5.032727,1.37452 10.219486,2.17985 15.431833,2.39838 1.063492,0.0435 2.407043,0.0702 3.582206,0.0607 2.859752,-0.028 5.580095,-0.20779 8.438267,-0.56635 14.861383,-1.88056 29.262532,-8.67286 39.473582,-19.74442 7.23083,-7.806895 12.21315,-17.841031 13.308,-28.481313 0.30472,-3.20188 0.0885,-6.424028 0.16298,-9.635276 0.0156,-15.224038 0.10314,-30.44951 0.0569,-45.672676 -0.35654,-4.663742 -4.41251,-8.6353503 -9.04487,-9.0582999 -0.55123,-0.069554 -1.10804,-0.077325 -1.66281,-0.062208 z M 11.784272,14.35602 c 7.472143,3.013804 14.896482,6.151218 22.401801,9.079608 2.656067,0.833609 5.543835,0.418732 8.061031,-0.671168 13.474356,-4.653792 28.573439,-4.532566 41.918583,0.523141 2.34123,0.865118 4.974397,0.864497 7.28817,-0.09323 8.199858,-3.335231 16.393923,-6.689258 24.591763,-10.031314 -0.014,18.342422 0.0372,36.686937 -0.0341,55.028044 -0.81163,10.668333 -6.29549,20.671898 -14.1937,27.770915 C 91.545364,105.33236 77.646765,110.24087 63.833088,110.50693 49.585371,110.83233 35.073628,106.19282 24.228887,96.820105 16.52933,90.200011 10.863561,80.993509 9.3214695,70.88185 8.7094073,67.009747 9.047712,63.08031 8.9505587,59.179719 8.917448,43.839446 8.8825527,28.499177 8.8506105,13.158902 c 0.9778889,0.399039 1.9557775,0.798079 2.9336665,1.197118 z"
   style="stroke-width:1.06226" /><circle
   id="circle4"
   r="6.6947031"
   cy="64.502998"
   cx="42.299999"
   style="stroke-width:0.66947" />
<g
   id="g10">
</g>
<g
   id="g12">
</g>
<g
   id="g14">
</g>
<g
   id="g16">
</g>
<g
   id="g18">
</g>
<g
   id="g20">
</g>
<g
   id="g22">
</g>
<g
   id="g24">
</g>
<g
   id="g26">
</g>
<g
   id="g28">
</g>
<g
   id="g30">
</g>
<g
   id="g32">
</g>
<g
   id="g34">
</g>
<g
   id="g36">
</g>
<g
   id="g38">
</g>
<circle
   cx="64.699997"
   cy="84.502998"
   r="8.1420898"
   id="circle875"
   style="stroke-width:0.814208" /><path
   style="fill:none;stroke:#000000;stroke-width:6;stroke-linecap:round;stroke-linejoin:miter;stroke-opacity:1;stroke-miterlimit:4;stroke-dasharray:none"
   d="M 64.740377,87.644915 V 99.681484"
   id="path881" /><path
   style="fill:none;stroke:#000000;stroke-width:6;stroke-linecap:round;stroke-linejoin:miter;stroke-miterlimit:4;stroke-dasharray:none;stroke-opacity:1"
   d="m 48.146274,99.941967 c 10.524634,4.690353 21.690852,5.274573 33.772507,0"
   id="path883"
   sodipodi:nodetypes="cc" /><circle
   style="stroke-width:0.66947"
   cx="86.300003"
   cy="64.502998"
   r="6.6947031"
   id="circle885" /></svg>
