<?xml version="1.0" encoding="UTF-8" standalone="no"?>
<svg
   xmlns:dc="http://purl.org/dc/elements/1.1/"
   xmlns:cc="http://creativecommons.org/ns#"
   xmlns:rdf="http://www.w3.org/1999/02/22-rdf-syntax-ns#"
   xmlns:svg="http://www.w3.org/2000/svg"
   xmlns="http://www.w3.org/2000/svg"
   xmlns:sodipodi="http://sodipodi.sourceforge.net/DTD/sodipodi-0.dtd"
   xmlns:inkscape="http://www.inkscape.org/namespaces/inkscape"
   version="1.1"
   id="Layer_1"
   x="0px"
   y="0px"
   viewBox="0 0 122.88 101.625"
   enable-background="new 0 0 122.88 101.625"
   xml:space="preserve"
   sodipodi:docname="commission-discounts.svg"
   inkscape:version="1.0.1 (3bc2e813f5, 2020-09-07)"><metadata
     id="metadata30"><rdf:RDF><cc:Work
         rdf:about=""><dc:format>image/svg+xml</dc:format><dc:type
           rdf:resource="http://purl.org/dc/dcmitype/StillImage" /></cc:Work></rdf:RDF></metadata><defs
     id="defs28" /><sodipodi:namedview
     pagecolor="#ffffff"
     bordercolor="#666666"
     borderopacity="1"
     objecttolerance="10"
     gridtolerance="10"
     guidetolerance="10"
     inkscape:pageopacity="0"
     inkscape:pageshadow="2"
     inkscape:window-width="2880"
     inkscape:window-height="1526"
     id="namedview26"
     showgrid="false"
     inkscape:zoom="9.0871484"
     inkscape:cx="78.316465"
     inkscape:cy="58.115922"
     inkscape:window-x="2869"
     inkscape:window-y="-11"
     inkscape:window-maximized="1"
     inkscape:current-layer="Layer_1"
     inkscape:document-rotation="0" /><g
     id="g23"
     transform="translate(8.2534142,0.55022761)"><path
       fill-rule="evenodd"
       clip-rule="evenodd"
       d="M 32.506781,81.742679 V 48.560323 h 14.562287 c 6.171303,1.132129 12.343448,4.566514 18.514751,8.547533 h 11.309844 c 5.120008,0.313473 7.802158,5.635603 2.82367,9.130437 -3.963415,2.984469 -9.197145,2.813484 -14.562287,2.319527 -3.699749,-0.18912 -3.857275,4.907621 0,4.924892 1.34276,0.107945 2.796714,-0.215027 4.067029,-0.215027 6.689369,-0.01036 12.204455,-1.321249 15.579044,-6.741826 l 1.693191,-4.052694 16.82324,-8.54667 c 8.4171,-2.840254 14.40476,6.183101 8.19808,12.465512 -12.186766,9.086396 -24.680997,16.563976 -37.461642,22.603726 -9.283911,5.788453 -18.569507,5.589834 -27.844994,0 z M 88.372826,29.408253 c 1.734468,0 3.122716,0.509501 4.18075,1.519005 1.05298,1.014685 1.584524,2.360977 1.584524,4.044059 0,1.677037 -0.531544,3.028511 -1.584524,4.038878 -1.058034,1.013821 -2.446282,1.519005 -4.18075,1.519005 -1.734468,0 -3.129456,-0.505184 -4.185805,-1.519005 -1.052979,-1.015549 -1.579469,-2.361841 -1.579469,-4.038878 0,-1.683082 0.52649,-3.029374 1.579469,-4.044059 1.056349,-1.009504 2.452179,-1.519005 4.185805,-1.519005 z M 80.311214,5.5022762 c 13.274282,0 24.035726,11.0311358 24.035726,24.6400038 0,13.608005 -10.761444,24.640005 -24.035726,24.640005 -13.274283,0 -24.035735,-11.031137 -24.035735,-24.640005 0,-13.608868 10.761452,-24.6400038 24.035735,-24.6400038 z m 0,4.6442348 c 10.77156,0 19.50455,8.952543 19.50455,19.995769 0,11.043227 -8.73299,19.99577 -19.50455,19.99577 -10.773245,0 -19.505395,-8.95168 -19.505395,-19.994906 0,-11.043226 8.73215,-19.996633 19.505395,-19.996633 z m 4.522758,10.41628 h 4.692077 L 75.785086,39.72177 h -4.692077 z m 3.538854,12.693493 c -0.507115,0 -0.896296,0.153714 -1.165017,0.446461 -0.266193,0.306564 -0.403502,0.72021 -0.403502,1.274617 0,0.546634 0.136467,0.966325 0.403502,1.266845 0.267878,0.300519 0.657902,0.447325 1.165017,0.447325 0.502061,0 0.892084,-0.152851 1.159962,-0.447325 0.266193,-0.30052 0.403502,-0.720211 0.403502,-1.266845 0,-0.554407 -0.138151,-0.974098 -0.403502,-1.274617 -0.261139,-0.299656 -0.651162,-0.446461 -1.159962,-0.446461 z M 72.184738,23.618936 c -0.5088,0 -0.893769,0.15285 -1.159962,0.447325 -0.266193,0.299655 -0.403502,0.72021 -0.403502,1.266845 0,0.547498 0.136466,0.974097 0.403502,1.273753 0.266193,0.293611 0.651162,0.447325 1.159962,0.447325 0.507115,0 0.896296,-0.153714 1.163332,-0.447325 0.266193,-0.306564 0.396763,-0.726255 0.396763,-1.273753 0,-0.546635 -0.129727,-0.96719 -0.396763,-1.266845 -0.259454,-0.294475 -0.649478,-0.447325 -1.163332,-0.447325 z m -0.0017,-3.848895 c 1.734468,0 3.129456,0.50432 4.18749,1.519869 1.051295,1.014685 1.577784,2.360977 1.577784,4.038878 0,1.683081 -0.526489,3.029374 -1.577784,4.044059 -1.058034,1.014685 -2.453022,1.519005 -4.18749,1.519005 -1.732783,0 -3.122716,-0.509502 -4.18075,-1.519005 -1.05298,-1.014685 -1.584524,-2.360978 -1.584524,-4.044059 0,-1.677037 0.531544,-3.028511 1.584524,-4.038878 1.058034,-1.014685 2.448809,-1.519869 4.18075,-1.519869 z M 10.56437,45.370326 H 28.123016 V 85.07689 H 10.56437 Z"
       id="path21"
       style="stroke-width:0.852907" /></g></svg>
