<?xml version="1.0" encoding="UTF-8" standalone="no"?>
<svg
   class="icon"
   height="64"
   version="1.1"
   id="svg4"
   width="64"
   xmlns="http://www.w3.org/2000/svg"
   xmlns:svg="http://www.w3.org/2000/svg">
  <defs
     id="defs8" />
  <path
     d="m 58.646881,28.697869 c 0,-2.541886 -1.361153,-4.699129 -3.594095,-6.465794 0.03516,-0.137386 0.09458,-0.271488 0.122664,-0.411951 h 0.129813 v -8.491796 h -0.0099 c 0.0012,0 0.0099,-0.03061 0.0099,-0.0977 0,-7.8747 -12.91336,-12.0718094 -25.061941,-12.0718094 -12.148436,0 -25.0620152,4.1741668 -25.0620152,12.0474304 0,0.06713 0.00861,0.122089 0.00967,0.122089 h -0.00967 v 8.491795 h 0.1299494 c 0.3812113,1.986332 1.6367854,3.695097 3.4653583,5.13538 -0.1481789,0.561419 -0.2536908,1.13813 -0.2536908,1.742365 0,0.07004 0.00846,0.131174 0.00967,0.198216 h -0.00967 v 8.491942 h 0.1298134 c 0.026831,0.143388 0.082561,0.277565 0.1177964,0.41495 -2.2305834,1.76674 -3.5893794,3.923984 -3.5893794,6.462649 0,0.06713 0.00861,0.131173 0.00967,0.19529 h -0.00967 v 8.494872 h 0.1299494 c 1.3575083,7.478618 13.4817845,10.704078 24.9320635,10.704078 11.451488,0 23.574696,-3.22546 24.932127,-10.704078 h 0.129813 v -8.494876 h -0.0099 c 0.0012,-0.06412 0.0099,-0.128166 0.0099,-0.195291 0,-0.552264 -0.0862,-1.083232 -0.212586,-1.601901 1.807056,-1.446358 3.045401,-3.188647 3.424181,-5.275697 h 0.12995 v -8.491871 h -0.0097 c 0.0012,-0.06712 0.01,-0.12824 0.01,-0.198287 z M 30.243248,4.0370096 c 13.457548,0 22.833928,4.8980609 22.833928,9.2943204 0,4.393832 -9.376451,9.288175 -22.833928,9.288175 -13.457409,0 -22.8337915,-4.894343 -22.8337915,-9.288175 0,-4.3962595 9.3764535,-9.2943204 22.8337915,-9.2943204 z M 53.077249,18.564355 v 2.038295 c 0,1.138201 -0.395791,2.19084 -1.113395,3.155056 v -4.149791 c 0.4043,-0.332676 0.775788,-0.680505 1.113395,-1.04356 z m -3.34176,2.575411 v 4.653162 c -0.344828,0.235032 -0.718679,0.454765 -1.113325,0.668282 v -4.723505 c 0.382351,-0.192211 0.756345,-0.390502 1.113325,-0.597939 z m -3.341479,1.586602 v 4.753956 c -0.693372,0.271484 -1.440068,0.512665 -2.22708,0.738476 v -4.726578 c 0.767566,-0.23489 1.513121,-0.488074 2.22708,-0.765854 z m -4.455091,1.376233 v 4.674612 c -1.702333,0.366128 -3.568717,0.643907 -5.569702,0.8299 v -4.51592 c 1.914777,-0.225808 3.788381,-0.555409 5.569702,-0.988592 z m -7.79664,1.198964 v 4.473389 c -1.260575,0.0702 -2.552391,0.115938 -3.899031,0.115938 -0.189357,0 -0.369131,-0.0061 -0.557344,-0.0092 v -4.436647 c 0.185856,0 0.371562,0.003 0.557344,0.003 1.296817,0 2.602214,-0.04882 3.899031,-0.146606 z m -6.683311,0.07026 v 4.464239 c -1.552935,-0.06105 -3.042828,-0.173916 -4.456236,-0.33575 v -4.552517 c 1.464372,0.201362 2.95784,0.344756 4.456236,0.424028 z m -6.6831,-0.79022 v 4.61349 C 20.003652,29.076073 19.26539,28.929753 18.547786,28.777142 v -4.674607 c 0.728473,0.176986 1.471521,0.335673 2.228082,0.47907 z m -4.456374,-1.089381 v 4.726578 C 15.533838,27.992989 14.785997,27.75188 14.092628,27.480324 v -4.753956 c 0.714027,0.27778 1.459508,0.530964 2.226866,0.765854 z m -5.568488,2.300634 v -4.653163 c 0.357051,0.207437 0.731041,0.405729 1.113469,0.597941 v 4.723505 C 11.469825,26.247623 11.097119,26.02789 10.751006,25.792857 Z M 8.5229963,23.757706 C 7.8053208,22.79349 7.4095291,21.740851 7.4095291,20.60265 v -2.038295 c 0.3374633,0.363055 0.7090943,0.710884 1.1134672,1.04356 z m 2.2280097,10.176189 c 0.337678,0.363055 0.709168,0.710884 1.113469,1.04356 v 4.146719 C 11.146871,38.163101 10.751006,37.113322 10.751006,35.972119 Z M 8.5229963,54.692142 C 7.8053208,53.730933 7.4095291,52.681296 7.4095291,51.540165 V 49.49879 c 0.3374633,0.363055 0.7090943,0.713818 1.1134672,1.046491 z m 3.3414787,2.70951 c -0.39465,-0.21666 -0.767285,-0.436393 -1.113469,-0.66828 v -4.656313 c 0.357051,0.204438 0.731041,0.405945 1.113469,0.598091 z m 4.455019,1.754375 c -0.785656,-0.22574 -1.533497,-0.469633 -2.226866,-0.735189 v -4.757099 c 0.713958,0.277778 1.459438,0.530967 2.226866,0.765923 z m 4.456374,0.976439 C 20.003652,60.010664 19.26539,59.8702 18.547786,59.714585 v -4.674682 c 0.728473,0.176991 1.471592,0.338752 2.228082,0.479067 z m 6.6831,0.640828 c -1.552935,-0.06405 -3.042828,-0.173915 -4.456236,-0.332319 v -4.555807 c 1.464301,0.204514 2.95784,0.344904 4.456236,0.424172 z m 6.683311,-0.06405 c -1.260575,0.07334 -2.552391,0.122028 -3.899031,0.122028 -0.189357,0 -0.369131,-0.0092 -0.557344,-0.01224 V 56.38246 c 0.185856,0 0.371562,0.0062 0.557344,0.0062 1.296817,0 2.602143,-0.05209 3.899031,-0.1496 z m 7.79664,-0.994662 c -1.702333,0.3662 -3.568717,0.643761 -5.569702,0.832901 v -4.518921 c 1.914777,-0.225882 3.788381,-0.558487 5.569702,-0.988735 z m 4.455091,-1.293744 c -0.693372,0.265556 -1.440068,0.509449 -2.22708,0.735189 v -4.726365 c 0.767566,-0.234956 1.513121,-0.488145 2.22708,-0.765923 z m 3.341479,-1.687466 c -0.344828,0.231813 -0.718679,0.45155 -1.113325,0.668281 V 52.67515 c 0.382423,-0.192146 0.756345,-0.393653 1.113325,-0.598091 z m 3.34176,-5.19321 c 0,1.141131 -0.395791,2.190698 -1.113395,3.151977 v -4.146861 c 0.4043,-0.332605 0.775859,-0.683436 1.113395,-1.046491 z m 0,-7.27454 c 0,4.396977 -9.376453,9.29125 -22.833931,9.29125 -13.457408,0 -22.8337889,-4.894345 -22.8337889,-9.29125 0,-1.327195 0.879079,-2.697285 2.451532,-3.9728 3.5806549,5.410154 13.8897279,7.799069 23.7238759,7.799069 7.162813,0 14.587965,-1.263224 19.477516,-4.039853 0.005,0.07027 0.01482,0.146531 0.01482,0.213584 z M 14.0927,41.165471 v -4.656309 c 0.35698,0.204506 0.729681,0.4058 1.113397,0.594939 v 4.726578 c -0.394579,-0.213517 -0.7675,-0.43332 -1.113397,-0.665208 z m 3.341546,1.687467 v -4.760032 c 0.713888,0.280638 1.459513,0.533966 2.227013,0.768856 v 4.726578 c -0.785656,-0.225811 -1.533711,-0.469921 -2.227013,-0.735402 z m 4.455091,1.293744 v -4.674608 c 0.728539,0.177057 1.471664,0.338676 2.228081,0.478925 v 4.616779 c -0.772287,-0.125097 -1.510477,-0.265482 -2.228081,-0.421096 z m 4.45509,0.726181 v -4.558666 c 1.4643,0.20758 2.957909,0.347829 4.456231,0.430248 v 4.461237 c -1.551792,-0.0642 -3.042895,-0.174275 -4.456231,-0.332819 z m 6.6831,0.378424 V 40.81471 c 0.184637,0 0.371631,0.0061 0.55741,0.0061 1.296893,0 2.602004,-0.05189 3.898893,-0.14954 v 4.473318 c -1.260362,0.07013 -2.552248,0.11887 -3.898893,0.11887 -0.189567,-6.8e-5 -0.370415,-0.009 -0.55741,-0.01225 z m 6.683311,-0.274705 v -4.515849 c 1.914779,-0.222805 3.788381,-0.555409 5.569703,-0.988659 v 4.674608 c -1.702478,0.366056 -3.568718,0.646909 -5.569703,0.8299 z m 7.797785,-1.388242 v -4.726578 c 0.767423,-0.23489 1.512979,-0.488218 2.226866,-0.768856 v 4.760032 c -0.693301,0.265481 -1.439997,0.509591 -2.226866,0.735402 z m 5.568626,-2.422869 c -0.345037,0.231888 -0.719033,0.45162 -1.113395,0.665279 v -4.726578 c 0.382426,-0.189138 0.756348,-0.390433 1.113395,-0.594939 z m 3.341622,-5.193352 c 0,1.141203 -0.396006,2.190911 -1.113611,3.152055 v -4.146719 c 0.4043,-0.332603 0.775861,-0.680505 1.113611,-1.04356 z m -22.833934,2.017137 c -13.457548,0 -22.833931,-4.894411 -22.833931,-9.291316 0,-0.125098 0.01832,-0.250258 0.0365,-0.378496 4.889767,2.788997 12.30398,4.204762 19.455785,4.204762 9.783185,0 20.033857,-2.657685 23.665691,-7.841888 1.608693,1.281593 2.509861,2.672982 2.509861,4.015622 0,4.396905 -9.376525,9.291316 -22.833933,9.291316 z"
     id="path2"
     style="stroke-width:0.999997" />
</svg>
