<svg height="512pt" viewBox="0 -79 512.00003 512" width="512pt" xmlns="http://www.w3.org/2000/svg"><path d="m511.394531 329.8125-29.792969-119.167969c-6.171874-24.679687-24.847656-43.5-48.273437-50.417969v-15.464843c0-33.386719-20.929687-62.941407-51.308594-74.625-16.546875-51.960938-75.371093-77.269531-124.1875-53.929688-48.6875-36.933593-120.035156-7.261719-127.601562 53.84375-30.761719 11.710938-51.554688 41.304688-51.554688 74.714844v15.460937c-23.429687 6.921876-42.105469 25.738282-48.277343 50.417969l-29.792969 119.167969c-3.164063 12.660156 6.445312 24.851562 19.402343 24.851562h471.984376c12.992187-.003906 22.558593-12.226562 19.402343-24.851562zm-358.621093-224.546875c10.527343-1.539063 18.003906-11.050781 17.019531-21.640625-3.601563-38.875 45.1875-58.972656 70.125-29.625 6.8125 8.015625 18.667969 9.382812 27.125 3.132812 29.695312-21.945312 72.617187-4.214843 78.535156 32.113282 1.335937 8.210937 7.617187 14.738281 15.769531 16.386718 18.53125 3.75 31.980469 20.207032 31.980469 39.128907v12.574219h-274.65625v-12.574219c0-19.671875 14.660156-36.652344 34.101563-39.496094zm-107.148438 209.398437 23.582031-94.320312c3.386719-13.546875 15.503907-23.007812 29.46875-23.007812h314.652344c13.964844 0 26.082031 9.460937 29.46875 23.007812l23.582031 94.320312zm0 0"/></svg>