<?xml version="1.0" encoding="UTF-8" standalone="no"?>
<svg
   xmlns:dc="http://purl.org/dc/elements/1.1/"
   xmlns:cc="http://creativecommons.org/ns#"
   xmlns:rdf="http://www.w3.org/1999/02/22-rdf-syntax-ns#"
   xmlns:svg="http://www.w3.org/2000/svg"
   xmlns="http://www.w3.org/2000/svg"
   xmlns:sodipodi="http://sodipodi.sourceforge.net/DTD/sodipodi-0.dtd"
   xmlns:inkscape="http://www.inkscape.org/namespaces/inkscape"
   version="1.1"
   width="24"
   height="24"
   id="svg42"
   sodipodi:docname="format_csv.svg"
   inkscape:version="1.0 (4035a4fb49, 2020-05-01)">
  <metadata
     id="metadata48">
    <rdf:RDF>
      <cc:Work
         rdf:about="">
        <dc:format>image/svg+xml</dc:format>
        <dc:type
           rdf:resource="http://purl.org/dc/dcmitype/StillImage" />
      </cc:Work>
    </rdf:RDF>
  </metadata>
  <defs
     id="defs46" />
  <sodipodi:namedview
     inkscape:document-rotation="0"
     pagecolor="#ffffff"
     bordercolor="#666666"
     borderopacity="1"
     objecttolerance="10"
     gridtolerance="10"
     guidetolerance="10"
     inkscape:pageopacity="0"
     inkscape:pageshadow="2"
     inkscape:window-width="1920"
     inkscape:window-height="1017"
     id="namedview44"
     showgrid="false"
     inkscape:zoom="23.625"
     inkscape:cx="12"
     inkscape:cy="12"
     inkscape:window-x="-8"
     inkscape:window-y="-8"
     inkscape:window-maximized="1"
     inkscape:current-layer="svg42" />
  <g
     transform="matrix(1.2455258,0,0,1.2455258,-2.94631,-2.9463094)"
     aria-label="CSV"
     id="text894"
     style="font-weight:500;font-size:9.99317px;line-height:1.25;font-family:Ubuntu;-inkscape-font-specification:'Ubuntu Medium';letter-spacing:-0.702642px;word-spacing:0px;stroke-width:0.802874">
    <path
       d="m 6.6653641,15.61253 q -1.6888457,0 -2.5782378,-0.939358 -0.879399,-0.939358 -0.879399,-2.668176 0,-0.859413 0.2698156,-1.528955 0.2698156,-0.6795357 0.7394946,-1.1392215 0.469679,-0.469679 1.119235,-0.7095151 0.649556,-0.239836 1.4090369,-0.239836 0.4396995,0 0.7994536,0.069952 0.3597541,0.059959 0.6295697,0.1498976 0.2698156,0.079945 0.4496927,0.1698839 0.179877,0.089938 0.2598224,0.1399044 L 8.4341551,10.176246 Q 8.1143737,10.006362 7.6846674,9.8864438 7.2649543,9.7665258 6.7253231,9.7665258 q -0.3597541,0 -0.7095151,0.119918 Q 5.6760403,10.006362 5.4062247,10.276177 5.1464023,10.536 4.9865116,10.955713 q -0.1598908,0.419713 -0.1598908,1.019303 0,0.479672 0.099932,0.899386 0.1099249,0.40972 0.3397678,0.709515 0.2398361,0.299795 0.6195765,0.479672 0.3797405,0.169884 0.9193717,0.169884 0.3397677,0 0.6095833,-0.03997 0.2698156,-0.03997 0.4796722,-0.08994 0.2098565,-0.05996 0.3697472,-0.129911 0.1598908,-0.06995 0.289802,-0.129911 l 0.4297063,1.249146 Q 8.6540049,15.292749 8.0544147,15.452639 7.4548245,15.61253 6.6653641,15.61253 Z"
       style="font-style:normal;font-variant:normal;font-weight:bold;font-stretch:normal;font-size:9.99317px;font-family:Ubuntu;-inkscape-font-specification:'Ubuntu Bold';stroke-width:0.802874"
       id="path896" />
    <path
       d="m 11.349197,14.283439 q 0.329774,0 0.539631,-0.04997 0.21985,-0.05996 0.349761,-0.149898 0.129911,-0.09993 0.179877,-0.229843 0.04997,-0.129911 0.04997,-0.289802 0,-0.339767 -0.319782,-0.559617 Q 11.828869,12.77447 11.049402,12.514647 10.709634,12.394729 10.369866,12.244832 10.030098,12.084941 9.7602828,11.855098 9.4904672,11.615262 9.3205833,11.285488 9.1506994,10.94572 9.1506994,10.466048 q 0,-0.4796725 0.1798771,-0.8594129 0.179877,-0.3897337 0.5096516,-0.6595492 0.3297749,-0.2698156 0.7994539,-0.40972 0.469679,-0.1498975 1.059276,-0.1498975 0.699522,0 1.209173,0.1498975 0.509652,0.1498975 0.839427,0.3297746 L 13.297865,10.0963 Q 13.008063,9.9464028 12.648309,9.836478 12.298548,9.7165599 11.798889,9.7165599 q -0.559617,0 -0.809446,0.1598908 -0.239836,0.1498973 -0.239836,0.4696793 0,0.18987 0.08994,0.319781 0.08994,0.129911 0.249829,0.239836 0.169884,0.09993 0.379741,0.18987 0.21985,0.07995 0.479672,0.169884 0.539631,0.199864 0.939358,0.399727 0.399727,0.18987 0.659549,0.449693 0.269816,0.259822 0.399727,0.609583 0.129911,0.349761 0.129911,0.849419 0,0.969338 -0.679535,1.508969 -0.679536,0.529638 -2.0486,0.529638 -0.459686,0 -0.829433,-0.05996 Q 10.150016,15.50261 9.8602145,15.42266 9.5804057,15.34271 9.3705492,15.252776 9.1706858,15.162836 9.0307814,15.082892 l 0.4396995,-1.239153 q 0.3097882,0.169884 0.7594811,0.309788 0.459686,0.129912 1.119235,0.129912 z"
       style="font-style:normal;font-variant:normal;font-weight:bold;font-stretch:normal;font-size:9.99317px;font-family:Ubuntu;-inkscape-font-specification:'Ubuntu Bold';stroke-width:0.802874"
       id="path898" />
    <path
       d="M 16.535186,15.472626 Q 16.125466,14.60322 15.725739,13.663862 15.326012,12.724504 14.966258,11.805132 14.606504,10.885761 14.296716,10.046335 13.996921,9.2069083 13.777071,8.5473591 h 1.718825 q 0.199864,0.5995902 0.429706,1.299112 0.239837,0.6895289 0.479673,1.3790579 0.249829,0.689528 0.479672,1.319098 0.229843,0.62957 0.429706,1.089255 0.18987,-0.459685 0.419713,-1.089255 0.239836,-0.62957 0.479672,-1.319098 0.24983,-0.689529 0.479673,-1.3790579 0.239836,-0.6995218 0.439699,-1.299112 h 1.658866 q -0.229843,0.6595492 -0.529638,1.4989759 -0.299795,0.839426 -0.659549,1.758797 -0.359754,0.919372 -0.759481,1.85873 -0.399727,0.939358 -0.809447,1.808764 z"
       style="font-style:normal;font-variant:normal;font-weight:bold;font-stretch:normal;font-size:9.99317px;font-family:Ubuntu;-inkscape-font-specification:'Ubuntu Bold';stroke-width:0.802874"
       id="path900" />
  </g>
</svg>
