<?xml version="1.0" encoding="UTF-8" standalone="no"?>
<svg
   xmlns:dc="http://purl.org/dc/elements/1.1/"
   xmlns:cc="http://creativecommons.org/ns#"
   xmlns:rdf="http://www.w3.org/1999/02/22-rdf-syntax-ns#"
   xmlns:svg="http://www.w3.org/2000/svg"
   xmlns="http://www.w3.org/2000/svg"
   xmlns:sodipodi="http://sodipodi.sourceforge.net/DTD/sodipodi-0.dtd"
   xmlns:inkscape="http://www.inkscape.org/namespaces/inkscape"
   version="1.1"
   width="24"
   height="24"
   id="svg42"
   sodipodi:docname="format_ods.svg"
   inkscape:version="1.0 (4035a4fb49, 2020-05-01)">
  <metadata
     id="metadata48">
    <rdf:RDF>
      <cc:Work
         rdf:about="">
        <dc:format>image/svg+xml</dc:format>
        <dc:type
           rdf:resource="http://purl.org/dc/dcmitype/StillImage" />
      </cc:Work>
    </rdf:RDF>
  </metadata>
  <defs
     id="defs46" />
  <sodipodi:namedview
     inkscape:document-rotation="0"
     pagecolor="#ffffff"
     bordercolor="#666666"
     borderopacity="1"
     objecttolerance="10"
     gridtolerance="10"
     guidetolerance="10"
     inkscape:pageopacity="0"
     inkscape:pageshadow="2"
     inkscape:window-width="1920"
     inkscape:window-height="1017"
     id="namedview44"
     showgrid="false"
     inkscape:snap-object-midpoints="true"
     inkscape:zoom="23.625"
     inkscape:cx="12.841261"
     inkscape:cy="12"
     inkscape:window-x="-8"
     inkscape:window-y="-8"
     inkscape:window-maximized="1"
     inkscape:current-layer="svg42" />
  <g
     transform="matrix(1.2903636,0,0,1.2903636,-3.5229986,-3.4843631)"
     aria-label="ODS"
     id="text894"
     style="font-weight:500;font-size:8.97134px;line-height:1.25;font-family:Ubuntu;-inkscape-font-specification:'Ubuntu Medium';letter-spacing:-0.448567px;word-spacing:0px;stroke-width:0.774975">
    <path
       d="m 4.9766606,12.004485 q 0,0.457539 0.1076561,0.825364 0.1166274,0.367825 0.3229682,0.636965 0.2153122,0.260169 0.5203377,0.40371 0.3050256,0.143542 0.6997646,0.143542 0.3857676,0 0.6907932,-0.143542 0.3139969,-0.143541 0.5203377,-0.40371 0.2153122,-0.26914 0.3229683,-0.636965 0.1166274,-0.367825 0.1166274,-0.825364 0,-0.457538 -0.1166274,-0.825363 Q 8.0538303,10.802326 7.8385181,10.542157 7.6321773,10.273017 7.3181804,10.129475 7.0131548,9.9859338 6.6273872,9.9859338 q -0.394739,0 -0.6997646,0.1525132 -0.3050255,0.143541 -0.5203377,0.412681 -0.2063408,0.260169 -0.3229682,0.636965 -0.1076561,0.367825 -0.1076561,0.816392 z m 4.7458389,0 q 0,0.79845 -0.2422261,1.408501 -0.2332549,0.60108 -0.6459365,1.013761 -0.4126817,0.40371 -0.9868475,0.610051 -0.5651944,0.206341 -1.2201022,0.206341 -0.6369652,0 -1.2021596,-0.206341 Q 4.8600332,14.830457 4.4383802,14.426747 4.0167272,14.014066 3.774501,13.412986 3.5322748,12.802935 3.5322748,12.004485 q 0,-0.798449 0.2511975,-1.399529 Q 4.0346699,9.9949051 4.4563229,9.5822235 4.8869472,9.1695418 5.4431703,8.963201 6.0083647,8.7568602 6.6273872,8.7568602 q 0.6369651,0 1.2021596,0.2063408 0.5651944,0.2063408 0.9868474,0.6190225 0.421653,0.4126816 0.6638792,1.0227325 0.2422261,0.60108 0.2422261,1.399529 z"
       style="font-style:normal;font-variant:normal;font-weight:bold;font-stretch:normal;font-size:8.97134px;font-family:Ubuntu;-inkscape-font-specification:'Ubuntu Bold';stroke-width:0.691068"
       id="path896" />
    <path
       d="m 11.831325,13.97818 q 0.09868,0.009 0.224284,0.01794 0.13457,0 0.313997,0 1.049646,0 1.552041,-0.529309 0.511367,-0.529309 0.511367,-1.462329 0,-0.977876 -0.484453,-1.480271 -0.484452,-0.502395 -1.534099,-0.502395 -0.143541,0 -0.296054,0.009 -0.152513,0 -0.287083,0.01794 z M 15.8774,12.004485 q 0,0.807421 -0.251198,1.408501 -0.251197,0.60108 -0.717707,0.995818 -0.457538,0.394739 -1.121418,0.592109 -0.663879,0.197369 -1.489242,0.197369 -0.376796,0 -0.879191,-0.03589 -0.502395,-0.02691 -0.986848,-0.125599 V 8.9811437 q 0.484453,-0.089713 1.00479,-0.1166274 0.529309,-0.035885 0.906106,-0.035885 0.798449,0 1.444385,0.1794268 0.654908,0.1794268 1.121418,0.5651944 0.46651,0.3857677 0.717707,0.9868475 0.251198,0.601079 0.251198,1.444385 z"
       style="font-style:normal;font-variant:normal;font-weight:bold;font-stretch:normal;font-size:8.97134px;font-family:Ubuntu;-inkscape-font-specification:'Ubuntu Bold';stroke-width:0.691068"
       id="path898" />
    <path
       d="m 18.284663,14.049951 q 0.296054,0 0.484452,-0.04486 0.19737,-0.05383 0.313997,-0.13457 0.116627,-0.08971 0.161484,-0.206341 0.04486,-0.116627 0.04486,-0.260169 0,-0.305025 -0.287083,-0.502395 -0.287083,-0.20634 -0.986847,-0.439595 -0.305026,-0.107656 -0.610052,-0.242227 -0.305025,-0.143541 -0.547251,-0.349882 -0.242227,-0.215312 -0.394739,-0.511366 -0.152513,-0.305026 -0.152513,-0.73565 0,-0.430624 0.161484,-0.7715353 0.161484,-0.3498823 0.457538,-0.5921085 0.296055,-0.2422262 0.717708,-0.3678249 0.421653,-0.1345701 0.950962,-0.1345701 0.627993,0 1.085532,0.1345701 0.457538,0.1345701 0.753592,0.2960542 l -0.40371,1.1034745 q -0.260169,-0.13457 -0.583137,-0.233255 -0.313997,-0.1076556 -0.762564,-0.1076556 -0.502395,0 -0.726679,0.1435416 -0.215312,0.13457 -0.215312,0.421653 0,0.170455 0.08074,0.287083 0.08074,0.116627 0.224284,0.215312 0.152513,0.08971 0.340911,0.170455 0.197369,0.07177 0.430624,0.152513 0.484453,0.179427 0.843306,0.358854 0.358854,0.170455 0.592109,0.40371 0.242226,0.233255 0.358853,0.547252 0.116628,0.313997 0.116628,0.762564 0,0.87022 -0.610052,1.354672 -0.610051,0.475481 -1.839124,0.475481 -0.412682,0 -0.744622,-0.05383 -0.331939,-0.04486 -0.592108,-0.116627 -0.251197,-0.07177 -0.439596,-0.152513 -0.179426,-0.08074 -0.305025,-0.152513 l 0.394739,-1.112446 q 0.278111,0.152513 0.681822,0.278111 0.412681,0.116628 1.00479,0.116628 z"
       style="font-style:normal;font-variant:normal;font-weight:bold;font-stretch:normal;font-size:8.97134px;font-family:Ubuntu;-inkscape-font-specification:'Ubuntu Bold';stroke-width:0.691068"
       id="path900" />
  </g>
</svg>
