<?xml version="1.0" encoding="UTF-8" standalone="no"?>
<svg
   xmlns:dc="http://purl.org/dc/elements/1.1/"
   xmlns:cc="http://creativecommons.org/ns#"
   xmlns:rdf="http://www.w3.org/1999/02/22-rdf-syntax-ns#"
   xmlns:svg="http://www.w3.org/2000/svg"
   xmlns="http://www.w3.org/2000/svg"
   xmlns:sodipodi="http://sodipodi.sourceforge.net/DTD/sodipodi-0.dtd"
   xmlns:inkscape="http://www.inkscape.org/namespaces/inkscape"
   version="1.1"
   width="24"
   height="24"
   id="svg42"
   sodipodi:docname="format_xlsx.svg"
   inkscape:version="1.0 (4035a4fb49, 2020-05-01)">
  <metadata
     id="metadata48">
    <rdf:RDF>
      <cc:Work
         rdf:about="">
        <dc:format>image/svg+xml</dc:format>
        <dc:type
           rdf:resource="http://purl.org/dc/dcmitype/StillImage" />
      </cc:Work>
    </rdf:RDF>
  </metadata>
  <defs
     id="defs46" />
  <sodipodi:namedview
     inkscape:document-rotation="0"
     pagecolor="#ffffff"
     bordercolor="#666666"
     borderopacity="1"
     objecttolerance="10"
     gridtolerance="10"
     guidetolerance="10"
     inkscape:pageopacity="0"
     inkscape:pageshadow="2"
     inkscape:window-width="1920"
     inkscape:window-height="1017"
     id="namedview44"
     showgrid="false"
     inkscape:zoom="23.625"
     inkscape:cx="22.625663"
     inkscape:cy="12"
     inkscape:window-x="-8"
     inkscape:window-y="-8"
     inkscape:window-maximized="1"
     inkscape:current-layer="svg42" />
  <rect
     transform="scale(1,-1)"
     x="-14.742511"
     y="-22.555649"
     width="0"
     height="16.499794"
     fill="#000000"
     stroke="none"
     id="rect2"
     style="fill:#000000;stroke-width:1.46383" />
  <rect
     transform="scale(1,-1)"
     x="-21.245283"
     y="-18.777222"
     width="0"
     height="16.499794"
     fill="#000000"
     stroke="none"
     id="rect4"
     style="fill:#000000;stroke-width:1.46383" />
  <rect
     transform="scale(1,-1)"
     x="-27.685188"
     y="-37.405499"
     width="0"
     height="16.499794"
     fill="#000000"
     stroke="none"
     id="rect6"
     style="fill:#000000;stroke-width:1.46383" />
  <g
     transform="matrix(1.3516478,0,0,1.3516478,-4.2197751,-4.2197714)"
     aria-label="XLSX"
     id="text893"
     style="font-weight:500;font-size:7.56155px;line-height:1.25;font-family:Ubuntu;-inkscape-font-specification:'Ubuntu Medium';letter-spacing:-0.425338px;word-spacing:0px;stroke-width:0.739838">
    <path
       d="M 6.7517591,14.627637 Q 6.5324742,14.189067 6.2678199,13.742936 6.0107272,13.289243 5.6704575,12.820426 5.5645958,12.956534 5.3982417,13.198504 5.2394491,13.440474 5.073095,13.712689 4.9143024,13.984905 4.770633,14.234436 4.6269635,14.483967 4.5589096,14.627637 H 3.2129537 Q 3.5456619,14.015151 3.9842318,13.342173 4.4303632,12.669195 4.9747948,11.91304 L 3.2885692,9.3874827 H 4.7177021 L 5.7385114,11.020777 6.736636,9.3874827 H 8.082592 L 6.4190509,11.928164 q 0.6351702,0.824208 1.0661786,1.527433 0.4310084,0.695662 0.6805395,1.17204 z"
       style="font-style:normal;font-variant:normal;font-weight:bold;font-stretch:normal;font-family:Ubuntu;-inkscape-font-specification:'Ubuntu Bold';stroke-width:1.38075"
       id="path895" />
    <path
       d="m 11.927876,13.614389 v 1.013248 H 8.4268783 V 9.3874827 h 1.1796018 v 4.2269063 z"
       style="font-style:normal;font-variant:normal;font-weight:bold;font-stretch:normal;font-family:Ubuntu;-inkscape-font-specification:'Ubuntu Bold';stroke-width:1.38075"
       id="path897" />
    <path
       d="m 13.816963,13.727812 q 0.249531,0 0.408324,-0.03781 0.166354,-0.04537 0.264654,-0.113424 0.0983,-0.07561 0.136108,-0.173915 0.03781,-0.0983 0.03781,-0.219285 0,-0.257093 -0.24197,-0.423447 -0.24197,-0.173916 -0.83177,-0.370516 -0.257093,-0.09074 -0.514186,-0.204162 -0.257093,-0.120985 -0.461254,-0.2949 -0.204162,-0.181477 -0.332709,-0.431009 -0.128546,-0.257092 -0.128546,-0.620047 0,-0.362954 0.136108,-0.650293 0.136108,-0.2949005 0.385639,-0.4990623 0.249531,-0.2041619 0.604924,-0.3100236 0.355393,-0.1134232 0.801524,-0.1134232 0.529309,0 0.914948,0.1134232 0.385639,0.1134233 0.63517,0.2495312 l -0.34027,0.9300707 q -0.219285,-0.113423 -0.4915,-0.1966 -0.264655,-0.09074 -0.642732,-0.09074 -0.423447,0 -0.612486,0.120985 -0.181477,0.113423 -0.181477,0.355393 0,0.143669 0.06805,0.241969 0.06805,0.0983 0.189039,0.181477 0.128546,0.07562 0.287339,0.14367 0.166354,0.06049 0.362954,0.128546 0.408324,0.151231 0.710786,0.302462 0.302462,0.14367 0.499062,0.34027 0.204162,0.1966 0.302462,0.461255 0.0983,0.264654 0.0983,0.642731 0,0.733471 -0.514185,1.141794 -0.514186,0.400763 -1.550118,0.400763 -0.347831,0 -0.627609,-0.04537 -0.279777,-0.03781 -0.499062,-0.0983 -0.211723,-0.06049 -0.370516,-0.128546 -0.151231,-0.06805 -0.257093,-0.128547 L 12.39539,13.3951 q 0.234408,0.128547 0.574677,0.234408 0.347832,0.0983 0.846894,0.0983 z"
       style="font-style:normal;font-variant:normal;font-weight:bold;font-stretch:normal;font-family:Ubuntu;-inkscape-font-specification:'Ubuntu Bold';stroke-width:1.38075"
       id="path899" />
    <path
       d="m 19.373047,14.627637 q -0.219285,-0.43857 -0.483939,-0.884701 -0.257092,-0.453693 -0.597362,-0.92251 -0.105862,0.136108 -0.272216,0.378078 -0.158793,0.24197 -0.325147,0.514185 -0.158792,0.272216 -0.302462,0.521747 -0.143669,0.249531 -0.211723,0.393201 h -1.345956 q 0.332708,-0.612486 0.771278,-1.285464 0.446132,-0.672978 0.990563,-1.429133 L 15.909857,9.3874827 h 1.429133 l 1.02081,1.6332943 0.998124,-1.6332943 h 1.345956 l -1.663541,2.5406813 q 0.63517,0.824208 1.066179,1.527433 0.431008,0.695662 0.680539,1.17204 z"
       style="font-style:normal;font-variant:normal;font-weight:bold;font-stretch:normal;font-family:Ubuntu;-inkscape-font-specification:'Ubuntu Bold';stroke-width:1.38075"
       id="path901" />
  </g>
</svg>
