<?xml version="1.0" encoding="iso-8859-1"?>
<!-- Generator: Adobe Illustrator 19.0.0, SVG Export Plug-In . SVG Version: 6.00 Build 0)  -->
<svg version="1.1" id="Capa_1" xmlns="http://www.w3.org/2000/svg" xmlns:xlink="http://www.w3.org/1999/xlink" x="0px" y="0px"
	 viewBox="0 0 512 512" style="enable-background:new 0 0 512 512;" xml:space="preserve">
<g>
	<g>
		<path d="M483.381,347.442h-79.52L385.65,92.521c-0.008-0.107-0.017-0.214-0.026-0.32c-2.351-25.269-13.975-48.599-32.733-65.692
			C334.133,9.414,309.827,0,284.449,0h-49.381c-25.378,0-49.684,9.414-68.442,26.508c-18.758,17.093-30.382,40.423-32.733,65.692
			c-0.01,0.106-0.019,0.213-0.026,0.32l-18.211,254.922H28.619c-8.284,0-15,6.716-15,15V451.5c0,33.359,27.14,60.5,60.5,60.5
			h363.763c33.36,0,60.5-27.141,60.5-60.5v-89.058C498.381,354.158,491.666,347.442,483.381,347.442z M248.044,35.37h23.429v60
			c0,5.445-4.43,9.875-9.875,9.875h-3.679c-5.445,0-9.875-4.43-9.875-9.875V35.37z M163.778,94.827
			c2.959-31.134,25.145-55.801,54.266-62.814V95.37c0,17.376,11.176,32.183,26.714,37.633v9.619c0,8.284,6.716,15,15,15
			c8.284,0,15-6.716,15-15v-9.619c15.538-5.45,26.714-20.257,26.714-37.633V32.012c29.12,7.013,51.306,31.681,54.266,62.814
			l17.929,250.982h-51.95l-9.633-69.433c-1.029-7.417-7.37-12.938-14.858-12.938H222.29c-7.488,0-13.829,5.521-14.858,12.938
			l-9.633,69.433h-51.95L163.778,94.827z M291.431,345.809h-63.344l7.266-52.371h48.812L291.431,345.809z M468.382,451.5
			L468.382,451.5c-0.001,16.817-13.683,30.5-30.501,30.5H74.119c-16.818,0-30.5-13.683-30.5-30.5v-74.058h424.763V451.5z"/>
	</g>
</g>
<g>
	<g>
		<path d="M259.759,168.596c-8.284,0-15,6.716-15,15v7.341c0,8.284,6.716,15,15,15c8.284,0,15-6.716,15-15v-7.341
			C274.759,175.312,268.043,168.596,259.759,168.596z"/>
	</g>
</g>
<g>
</g>
<g>
</g>
<g>
</g>
<g>
</g>
<g>
</g>
<g>
</g>
<g>
</g>
<g>
</g>
<g>
</g>
<g>
</g>
<g>
</g>
<g>
</g>
<g>
</g>
<g>
</g>
<g>
</g>
</svg>
