<?xml version="1.0" encoding="UTF-8" standalone="no"?>
<!-- Generator: Adobe Illustrator 19.0.0, SVG Export Plug-In . SVG Version: 6.00 Build 0)  -->

<svg
   version="1.1"
   id="Layer_1"
   x="0px"
   y="0px"
   viewBox="0 0 512 512"
   style="enable-background:new 0 0 512 512;"
   xml:space="preserve"
   sodipodi:docname="horse-shoe.svg"
   inkscape:version="1.2.1 (9c6d41e410, 2022-07-14)"
   xmlns:inkscape="http://www.inkscape.org/namespaces/inkscape"
   xmlns:sodipodi="http://sodipodi.sourceforge.net/DTD/sodipodi-0.dtd"
   xmlns="http://www.w3.org/2000/svg"
   xmlns:svg="http://www.w3.org/2000/svg"><defs
   id="defs68" /><sodipodi:namedview
   id="namedview66"
   pagecolor="#505050"
   bordercolor="#eeeeee"
   borderopacity="1"
   inkscape:showpageshadow="0"
   inkscape:pageopacity="0"
   inkscape:pagecheckerboard="0"
   inkscape:deskcolor="#505050"
   showgrid="false"
   inkscape:zoom="1.5898438"
   inkscape:cx="256"
   inkscape:cy="256"
   inkscape:window-width="1920"
   inkscape:window-height="1017"
   inkscape:window-x="1912"
   inkscape:window-y="-8"
   inkscape:window-maximized="1"
   inkscape:current-layer="Layer_1" />
<g
   transform="matrix(1,0,0,-0.995086,1,511.00491)"
   id="g33">
	<g
   id="g31">
		<g
   id="g29">
			<path
   d="m 248.837,462.36 c -3.413,3.413 -3.413,8.533 0,11.947 3.413,3.414 8.533,3.413 11.947,0 3.414,-3.413 3.413,-8.533 0,-11.947 -3.413,-3.413 -8.533,-3.413 -11.947,0 z"
   id="path9" />
			<path
   d="m 492.891,47.64 -25.6,-44.373 c -0.853,-2.56 -2.56,-3.413 -5.12,-4.267 -2.56,0 -5.12,0 -6.827,0.853 l -93.867,54.613 c -3.413,1.707 -5.12,5.973 -3.413,10.24 l 11.947,31.573 c 12.8,27.307 29.867,117.76 29.867,158.72 0,104.96 -55.467,170.667 -144.213,170.667 0,0 -0.853,0 -1.707,0 C 165.211,424.813 109.744,359.96 109.744,255 c 0,-40.96 17.067,-131.413 29.867,-159.573 l 11.947,-30.72 c 1.707,-3.413 0,-8.533 -3.413,-10.24 L 54.277,-0.147 C 52.571,-1 50.011,-1 47.451,-1 c -1.707,0.853 -3.413,2.56 -5.12,4.267 l -25.6,44.373 c -1.707,4.267 -0.853,9.387 3.413,11.947 l 34.987,20.48 c -15.36,43.52 -30.72,124.587 -30.72,174.933 0,152.747 93.013,256 230.4,256 137.387,0 230.4,-103.253 230.4,-256 0,-50.347 -15.36,-131.413 -30.72,-174.933 l 34.987,-20.48 c 4.266,-2.56 5.973,-7.68 3.413,-11.947 z m -52.907,20.48 c -3.413,1.707 -5.12,5.973 -3.413,10.24 14.507,41.813 31.573,125.44 31.573,176.64 0,142.507 -85.333,238.933 -213.333,238.933 -128,0 -213.334,-95.573 -213.334,-238.933 0,-51.2 17.067,-134.827 31.573,-175.787 1.707,-3.413 0,-8.533 -3.413,-10.24 L 36.357,49.346 53.424,19.48 133.637,66.413 124.25,89.453 C 109.744,118.467 92.677,209.773 92.677,255 c 0,116.053 62.293,187.733 162.133,187.733 99.84,0 162.134,-71.68 162.134,-187.733 0,-45.227 -17.067,-136.533 -31.573,-165.547 l -9.387,-23.893 80.213,-46.933 17.067,29.867 z"
   id="path11" />
			<path
   d="m 308.571,453.827 c -3.413,3.413 -3.413,8.533 0,11.947 3.413,3.413 8.533,3.413 11.947,0 3.414,-3.413 3.413,-8.533 0,-11.947 -3.414,-3.414 -8.534,-3.414 -11.947,0 z"
   id="path13" />
			<path
   d="m 359.771,428.227 c -3.413,3.413 -3.413,8.533 0,11.947 3.413,3.413 8.533,3.413 11.947,0 3.413,-3.413 3.413,-8.533 0,-11.947 -3.413,-3.414 -8.534,-3.414 -11.947,0 z"
   id="path15" />
			<path
   d="m 393.904,394.093 c -3.413,3.413 -3.413,8.533 0,11.947 3.413,3.414 8.533,3.413 11.947,0 3.413,-3.413 3.413,-8.533 0,-11.947 -3.414,-3.413 -8.534,-3.413 -11.947,0 z"
   id="path17" />
			<path
   d="m 402.437,69.827 c -3.413,3.413 -3.413,8.533 0,11.947 3.413,3.413 8.533,3.413 11.947,0 3.413,-3.413 3.413,-8.533 0,-11.947 -3.413,-3.414 -8.533,-3.414 -11.947,0 z"
   id="path19" />
			<path
   d="m 107.184,81.773 c 3.413,-3.413 3.413,-8.533 0,-11.947 -3.413,-3.413 -8.533,-3.413 -11.947,0 -3.414,3.413 -3.413,8.533 0,11.947 3.413,3.414 8.534,3.414 11.947,0 z"
   id="path21" />
			<path
   d="m 189.104,453.827 c -3.413,3.413 -3.413,8.533 0,11.947 3.413,3.414 8.533,3.413 11.947,0 3.414,-3.413 3.413,-8.533 0,-11.947 -3.414,-3.414 -8.534,-3.414 -11.947,0 z"
   id="path23" />
			<path
   d="m 137.904,428.227 c -3.413,3.413 -3.413,8.533 0,11.947 3.413,3.413 8.533,3.413 11.947,0 3.413,-3.413 3.413,-8.533 0,-11.947 -3.413,-3.414 -8.534,-3.414 -11.947,0 z"
   id="path25" />
			<path
   d="m 103.771,394.093 c -3.413,3.413 -3.413,8.533 0,11.947 3.413,3.414 8.533,3.413 11.947,0 3.414,-3.413 3.413,-8.533 0,-11.947 -3.414,-3.413 -8.534,-3.413 -11.947,0 z"
   id="path27" />
		</g>
	</g>
</g>
<g
   id="g35">
</g>
<g
   id="g37">
</g>
<g
   id="g39">
</g>
<g
   id="g41">
</g>
<g
   id="g43">
</g>
<g
   id="g45">
</g>
<g
   id="g47">
</g>
<g
   id="g49">
</g>
<g
   id="g51">
</g>
<g
   id="g53">
</g>
<g
   id="g55">
</g>
<g
   id="g57">
</g>
<g
   id="g59">
</g>
<g
   id="g61">
</g>
<g
   id="g63">
</g>
</svg>
