<?xml version="1.0" encoding="UTF-8" standalone="no"?>
<svg
   xmlns:dc="http://purl.org/dc/elements/1.1/"
   xmlns:cc="http://creativecommons.org/ns#"
   xmlns:rdf="http://www.w3.org/1999/02/22-rdf-syntax-ns#"
   xmlns:svg="http://www.w3.org/2000/svg"
   xmlns="http://www.w3.org/2000/svg"
   xmlns:sodipodi="http://sodipodi.sourceforge.net/DTD/sodipodi-0.dtd"
   xmlns:inkscape="http://www.inkscape.org/namespaces/inkscape"
   inkscape:version="1.0 (4035a4fb49, 2020-05-01)"
   sodipodi:docname="login.svg"
   xml:space="preserve"
   style="enable-background:new 0 0 512 512;"
   viewBox="0 0 512 512"
   y="0px"
   x="0px"
   id="Capa_1"
   version="1.1"><metadata
   id="metadata49"><rdf:RDF><cc:Work
       rdf:about=""><dc:format>image/svg+xml</dc:format><dc:type
         rdf:resource="http://purl.org/dc/dcmitype/StillImage" /></cc:Work></rdf:RDF></metadata><defs
   id="defs47" /><sodipodi:namedview
   inkscape:current-layer="Capa_1"
   inkscape:window-maximized="0"
   inkscape:window-y="0"
   inkscape:window-x="0"
   inkscape:cy="256"
   inkscape:cx="256"
   inkscape:zoom="0.48296422"
   showgrid="false"
   id="namedview45"
   inkscape:window-height="510"
   inkscape:window-width="776"
   inkscape:pageshadow="2"
   inkscape:pageopacity="0"
   guidetolerance="10"
   gridtolerance="10"
   objecttolerance="10"
   borderopacity="1"
   bordercolor="#666666"
   pagecolor="#ffffff" />
<g
   transform="matrix(-1,0,0,1,510.412,0)"
   id="g6">
	<g
   id="g4">
		<path
   id="path2"
   d="M 255.15,468.625 H 63.787 c -11.737,0 -21.262,-9.526 -21.262,-21.262 V 64.638 c 0,-11.737 9.526,-21.262 21.262,-21.262 H 255.15 c 11.758,0 21.262,-9.504 21.262,-21.262 0,-11.758 -9.504,-21.264 -21.262,-21.264 H 63.787 C 28.619,0.85 0,29.47 0,64.638 v 382.724 c 0,35.168 28.619,63.787 63.787,63.787 H 255.15 c 11.758,0 21.262,-9.504 21.262,-21.262 0,-11.758 -9.504,-21.262 -21.262,-21.262 z" />
	</g>
</g>
<g
   transform="translate(-162)"
   id="g12">
	<g
   id="g10">
		<path
   id="path8"
   d="M 505.664,240.861 376.388,113.286 c -8.335,-8.25 -21.815,-8.143 -30.065,0.213 -8.25,8.356 -8.165,21.815 0.213,30.065 l 92.385,91.173 H 191.362 c -11.758,0 -21.262,9.504 -21.262,21.262 0,11.758 9.504,21.263 21.262,21.263 h 247.559 l -92.385,91.173 c -8.377,8.25 -8.441,21.709 -0.213,30.065 4.167,4.21 9.653,6.336 15.139,6.336 5.401,0 10.801,-2.041 14.926,-6.124 L 505.664,271.137 c 4.04,-3.997 6.336,-9.441 6.336,-15.139 0,-5.696 -2.275,-11.118 -6.336,-15.137 z" />
	</g>
</g>
<g
   id="g14">
</g>
<g
   id="g16">
</g>
<g
   id="g18">
</g>
<g
   id="g20">
</g>
<g
   id="g22">
</g>
<g
   id="g24">
</g>
<g
   id="g26">
</g>
<g
   id="g28">
</g>
<g
   id="g30">
</g>
<g
   id="g32">
</g>
<g
   id="g34">
</g>
<g
   id="g36">
</g>
<g
   id="g38">
</g>
<g
   id="g40">
</g>
<g
   id="g42">
</g>
</svg>
