<?xml version="1.0" encoding="UTF-8" standalone="no"?>
<svg
   xmlns:dc="http://purl.org/dc/elements/1.1/"
   xmlns:cc="http://creativecommons.org/ns#"
   xmlns:rdf="http://www.w3.org/1999/02/22-rdf-syntax-ns#"
   xmlns:svg="http://www.w3.org/2000/svg"
   xmlns="http://www.w3.org/2000/svg"
   xmlns:sodipodi="http://sodipodi.sourceforge.net/DTD/sodipodi-0.dtd"
   xmlns:inkscape="http://www.inkscape.org/namespaces/inkscape"
   inkscape:version="1.0 (4035a4fb49, 2020-05-01)"
   sodipodi:docname="map.svg"
   xml:space="preserve"
   viewBox="0 0 91 91"
   version="1.1"
   style="enable-background:new 0 0 91 91;"
   id="Layer_1"><metadata
     id="metadata21"><rdf:RDF><cc:Work
         rdf:about=""><dc:format>image/svg+xml</dc:format><dc:type
           rdf:resource="http://purl.org/dc/dcmitype/StillImage" /><dc:title></dc:title></cc:Work></rdf:RDF></metadata><defs
     id="defs19" /><sodipodi:namedview
     inkscape:current-layer="Layer_1"
     inkscape:window-maximized="1"
     inkscape:window-y="-8"
     inkscape:window-x="-8"
     inkscape:cy="72.830553"
     inkscape:cx="56.83996"
     inkscape:zoom="4.4058192"
     showgrid="false"
     id="namedview17"
     inkscape:window-height="1017"
     inkscape:window-width="1920"
     inkscape:pageshadow="2"
     inkscape:pageopacity="0"
     guidetolerance="10"
     gridtolerance="10"
     objecttolerance="10"
     borderopacity="1"
     bordercolor="#666666"
     pagecolor="#ffffff" /><g
     style="stroke-width:0.698164"
     transform="matrix(1.4323287,0,0,1.4323287,-20.838241,-21.180994)"
     id="g14"><path
       style="stroke-width:0.698164"
       id="path2"
       d="m 39.8,46.9 c 0,-3.5 1.4,-6.9 3.9,-9.4 2.1,-2.1 4.8,-3.4 7.6,-3.8 V 26.8 L 37.3,20 v 44.8 l 14,6.8 V 60 c -2.8,-0.4 -5.5,-1.6 -7.6,-3.8 -2.6,-2.4 -3.9,-5.8 -3.9,-9.3 z" /><path
       style="stroke-width:0.698164"
       id="path4"
       d="m 70.8,19.7 c -0.5,-0.3 -1.1,-0.3 -1.6,-0.1 l -14.5,7.2 v 6.9 c 2.9,0.4 5.7,1.7 7.8,3.8 2.5,2.5 3.9,5.8 3.9,9.4 0,3 -1,5.8 -2.8,8.1 l 8.3,8.3 -0.3,-42.2 c 0,-0.6 -0.3,-1.1 -0.8,-1.4 z" /><path
       style="stroke-width:0.698164"
       id="path6"
       d="M 33.9,20.1 19.7,28 c -0.5,0.3 -0.9,0.9 -0.9,1.5 v 41 c 0,0.6 0.3,1.2 0.8,1.5 0.5,0.3 1.2,0.3 1.7,0 L 33.8,65 V 20.1 Z" /><path
       style="stroke-width:0.698164"
       id="path8"
       d="m 54.7,60 v 11.6 l 14.8,-6 -8.3,-8.3 c -2,1.6 -4.2,2.5 -6.5,2.7 z" /><path
       style="stroke-width:0.698164"
       id="path10"
       d="m 53.1,37 v 0 c -2.6,0 -5.1,1 -7,2.9 -1.9,1.9 -2.9,4.4 -2.9,7 0,2.6 1,5.1 2.9,7 3.9,3.9 10.2,3.9 14,0 1.9,-1.9 2.9,-4.4 2.9,-7 0,-2.6 -1,-5.1 -2.9,-7 0,0 0,0 0,0 C 58.2,38 55.7,37 53.1,37 Z" /><path
       style="stroke-width:0.698164"
       id="path12"
       d="m 71.9,63.5 c 0,0.7 -0.4,1.3 -1,1.6 l -1.3,0.5 5.6,5.6 2.4,-2.4 -5.6,-5.6 z" /></g></svg>
