<?xml version="1.0" standalone="no"?><!DOCTYPE svg PUBLIC "-//W3C//DTD SVG 1.1//EN" "http://www.w3.org/Graphics/SVG/1.1/DTD/svg11.dtd"><svg class="icon" height="512" viewBox="0 0 1024 1024" version="1.1" xmlns="http://www.w3.org/2000/svg"><path d="M612.998101 850.348756H169.711602c-0.102328 0-0.204657-0.102328-0.204657-0.204657v-28.549615c0-158.506645 134.459478-290.817228 303.505946-292.863795 80.327771-0.920955 153.79954 27.219346 209.159189 73.471769 13.098031 10.949136 32.438093 12.177076 46.764065 2.660538 19.749375-13.098031 21.181973-39.908064 3.172179-55.052663-33.25672-27.935645-71.118217-50.754872-112.151894-66.922754-0.102328 0-0.204657-0.204657 0-0.306985 53.313081-37.65684 88.923354-100.179474 88.923354-166.897572 0-116.961327-102.533027-213.047667-227.27131-213.047667s-227.27131 96.08634-227.27131 213.047667c0 66.718097 35.507944 129.240731 88.923354 166.897572 0.102328 0.102328 0.102328 0.204657 0 0.306985C200.61477 537.223943 102.686519 662.473868 102.686519 812.691916v70.811232c0 20.874988 18.009793 37.759169 40.317378 37.759168H612.998101c20.874988 0 37.861497-15.860897 37.861497-35.507944 0-19.544719-16.986509-35.405616-37.861497-35.405616zM327.808934 341.367443c-17.805136-99.770161 70.094934-182.144499 176.618767-165.567303 56.689917 8.902568 112.35655 61.090037 121.873088 114.198461 17.805136 99.770161-70.094934 182.144499-176.618766 165.567303-56.689917-8.902568-112.35655-61.090037-121.873089-114.198461zM883.144999 757.639253h-63.44359v-60.27141c0-20.977316-14.325972-37.963825-32.131108-37.963826s-32.131108 16.986509-32.131108 37.963826v60.27141h-63.44359c-21.079644 0-38.168482 13.916658-38.168482 31.005496 0 17.088838 17.088838 31.005496 38.168482 31.005496h63.44359v60.27141c0 20.977316 14.325972 37.963825 32.131108 37.963825s32.131108-16.986509 32.131108-37.963825V819.650245h63.44359c21.079644 0 38.168482-13.916658 38.168482-31.005496 0-17.088838-17.088838-31.005496-38.168482-31.005496z" /></svg>