<?xml version="1.0" encoding="UTF-8" standalone="no"?>
<svg
   xmlns:dc="http://purl.org/dc/elements/1.1/"
   xmlns:cc="http://creativecommons.org/ns#"
   xmlns:rdf="http://www.w3.org/1999/02/22-rdf-syntax-ns#"
   xmlns:svg="http://www.w3.org/2000/svg"
   xmlns="http://www.w3.org/2000/svg"
   xmlns:sodipodi="http://sodipodi.sourceforge.net/DTD/sodipodi-0.dtd"
   xmlns:inkscape="http://www.inkscape.org/namespaces/inkscape"
   enable-background="new 0 0 91 91"
   height="91px"
   id="Layer_1"
   version="1.1"
   viewBox="0 0 91 91"
   width="91px"
   xml:space="preserve"
   sodipodi:docname="notes-icon.svg"
   inkscape:version="1.0.1 (3bc2e813f5, 2020-09-07)"><metadata
     id="metadata21"><rdf:RDF><cc:Work
         rdf:about=""><dc:format>image/svg+xml</dc:format><dc:type
           rdf:resource="http://purl.org/dc/dcmitype/StillImage" /></cc:Work></rdf:RDF></metadata><defs
     id="defs19" /><sodipodi:namedview
     pagecolor="#ffffff"
     bordercolor="#666666"
     borderopacity="1"
     objecttolerance="10"
     gridtolerance="10"
     guidetolerance="10"
     inkscape:pageopacity="0"
     inkscape:pageshadow="2"
     inkscape:window-width="2880"
     inkscape:window-height="1526"
     id="namedview17"
     showgrid="false"
     inkscape:zoom="8.7912088"
     inkscape:cx="45.5"
     inkscape:cy="45.5"
     inkscape:window-x="2869"
     inkscape:window-y="-11"
     inkscape:window-maximized="1"
     inkscape:current-layer="Layer_1" /><g
     id="g14"
     transform="matrix(1.4825758,0,0,1.3770047,-22.391514,-17.826287)"><rect
       height="3.3989999"
       width="29.598"
       x="31.6"
       y="53.206001"
       id="rect2" /><rect
       height="3.4000001"
       width="29.598"
       x="31.6"
       y="43.875"
       id="rect4" /><rect
       height="3.3989999"
       width="5.1020002"
       x="31.6"
       y="62.539001"
       id="rect6" /><rect
       height="3.3989999"
       width="5.3629999"
       x="39.381001"
       y="62.539001"
       id="rect8" /><rect
       height="3.3989999"
       width="5.0999999"
       x="47.424"
       y="62.539001"
       id="rect10" /><path
       d="M 24.998,75.344 H 62.98 c 3.594,0 6.52,-2.924 6.52,-6.518 V 29.424 c 0,-0.939 -0.76,-1.7 -1.699,-1.7 H 59.91 v -5.1 h -7.193 c -1.439,-2.121 -3.807,-3.4 -6.406,-3.4 -2.598,0 -4.965,1.279 -6.404,3.4 h -7.195 v 5.1 h -7.713 c -0.939,0 -1.699,0.761 -1.699,1.7 v 44.22 c -0.001,0.939 0.759,1.7 1.698,1.7 z m 11.113,-49.32 h 5.824 l 0.467,-0.946 c 0.75,-1.513 2.246,-2.454 3.908,-2.454 1.662,0 3.16,0.94 3.908,2.454 l 0.469,0.946 h 5.824 v 6.8 h -20.4 z m -9.414,5.101 h 6.014 v 5.1 H 59.91 v -5.1 h 6.19 v 37.702 c 0,1.719 -1.398,3.118 -3.119,3.118 H 26.697 Z"
       id="path12" /></g></svg>
