<?xml version="1.0" encoding="UTF-8" standalone="no"?>
<svg
   xmlns:dc="http://purl.org/dc/elements/1.1/"
   xmlns:cc="http://creativecommons.org/ns#"
   xmlns:rdf="http://www.w3.org/1999/02/22-rdf-syntax-ns#"
   xmlns:svg="http://www.w3.org/2000/svg"
   xmlns="http://www.w3.org/2000/svg"
   xmlns:sodipodi="http://sodipodi.sourceforge.net/DTD/sodipodi-0.dtd"
   xmlns:inkscape="http://www.inkscape.org/namespaces/inkscape"
   sodipodi:docname="pack.svg"
   inkscape:version="1.0 (4035a4fb49, 2020-05-01)"
   id="svg8"
   version="1.1"
   viewBox="0 0 10.583334 10.583334"
   height="40.000004"
   width="40.000004">
  <defs
     id="defs2" />
  <sodipodi:namedview
     inkscape:window-maximized="1"
     inkscape:window-y="-8"
     inkscape:window-x="-8"
     inkscape:window-height="1017"
     inkscape:window-width="1920"
     units="px"
     fit-margin-bottom="0"
     fit-margin-right="0"
     fit-margin-left="0"
     fit-margin-top="0"
     showgrid="false"
     inkscape:document-rotation="0"
     inkscape:current-layer="layer1"
     inkscape:document-units="mm"
     inkscape:cy="17.233209"
     inkscape:cx="43.978231"
     inkscape:zoom="5.6"
     inkscape:pageshadow="2"
     inkscape:pageopacity="0.0"
     borderopacity="1.0"
     bordercolor="#666666"
     pagecolor="#ffffff"
     id="base" />
  <metadata
     id="metadata5">
    <rdf:RDF>
      <cc:Work
         rdf:about="">
        <dc:format>image/svg+xml</dc:format>
        <dc:type
           rdf:resource="http://purl.org/dc/dcmitype/StillImage" />
        <dc:title></dc:title>
      </cc:Work>
    </rdf:RDF>
  </metadata>
  <g
     transform="translate(188.1514,-72.751593)"
     id="layer1"
     inkscape:groupmode="layer"
     inkscape:label="Calque 1">
    <g
       style="stroke-width:22.5685"
       transform="matrix(0.04115671,0,0,0.0477038,-188.15472,69.930178)"
       id="g883">
      <path
         style="fill:#000000;stroke-width:22.5685;stroke-linecap:round;stroke-linejoin:round"
         d="m 65.186777,1059.999 c -3.432988,-1.3936 -7.61156,-5.0933 -9.285714,-8.2214 -2.063634,-3.856 -3.04392,-65.09274 -3.04392,-190.14869 V 677.16786 L 26.749529,597.86966 C 12.390341,554.25563 0.497484,514.87417 0.32095743,510.35531 0.09912686,504.67673 2.2060526,500.49492 7.1428571,496.81527 11.071429,493.8871 103,462.6764 211.42857,427.45816 319.85714,392.23993 503.71429,332.52545 620,294.75933 736.28571,256.9932 834.72414,225.28632 838.75209,224.29959 853.9768,220.56996 855.29251,223.7053 912.4836,400 c 67.95791,209.48397 62.4236,190.14191 56.33117,196.87397 -6.26106,6.9184 -5.5498,6.65226 -96.67191,36.17277 -42.03572,13.61817 -76.42857,25.89657 -76.42857,27.28535 0,1.39808 33.59502,2.52505 75.27145,2.52505 69.29323,0 75.64703,0.41497 80,5.22497 4.2994,4.75078 4.72855,22.33426 4.72855,193.73963 0,158.29506 -0.65006,189.40376 -4.05515,194.06076 -3.98057,5.4441 -12.113,5.5562 -442.14285,6.0982 -249.6459,0.3146 -440.772604,-0.5378 -444.329513,-1.9817 z M 921.42857,862.85714 V 700 H 577.14286 232.85714 v 107.93569 c 0,119.12034 -0.21481,120.63574 -17.10078,120.63574 -17.45125,0 -17.18493,1.84071 -17.18493,-118.77552 V 700 H 144.28571 90 v 160.95237 c 0,88.52383 0.857143,161.80953 1.904763,162.85713 1.047617,1.0476 188.119037,1.9048 415.714297,1.9048 H 921.42857 Z M 729.49806,641.6806 c 35.6332,-11.64709 95.32337,-30.99511 132.6448,-42.9956 C 901.9734,585.87774 930,575.41851 930,573.36149 c 0,-1.92749 -11.68271,-39.47232 -25.9616,-83.433 -14.27889,-43.96067 -36.39391,-112.39278 -49.14451,-152.07135 -12.7506,-39.67857 -24.53218,-72.12127 -26.18126,-72.0949 -2.99543,0.0479 -91.4848,28.36537 -255.85549,81.87624 -47.92857,15.60315 -156.24288,50.80331 -240.69848,78.22258 -114.02396,37.01891 -153.5597,50.97776 -153.57143,54.22133 -0.009,2.40246 8.34134,29.36538 18.55563,59.91761 10.21428,30.55223 18.57143,58.05677 18.57143,61.1212 0,13.99694 -19.98051,21.37877 -29.47358,10.88906 -2.55471,-2.82292 -13.1755,-31.43006 -23.60176,-63.57143 -10.42626,-32.14134 -19.35095,-58.86162 -19.83265,-59.37836 -2.01003,-2.15622 -101.377729,31.41304 -101.377729,34.2483 0,7.23446 43.435652,135.28837 46.564063,137.27689 1.889766,1.2012 132.424346,2.20368 290.076856,2.22774 l 286.64091,0.0437 z"
         id="path847"
         transform="scale(0.26458333)" />
      <path
         style="fill:#000000;stroke-width:22.5685;stroke-linecap:round;stroke-linejoin:round"
         d="M 297.84532,599.28571 C 290.00167,593.29415 288.7,581.3 295.18919,574.81081 c 5.40446,-5.40446 164.2362,-59.16833 184.52398,-62.46059 6.62488,-1.07507 10.29651,0.0677 14.24858,4.43466 6.74096,7.44868 6.86172,20.21648 0.23702,25.06058 -6.19014,4.52634 -178.62909,61.01168 -186.25701,61.01168 -2.98156,0 -7.52496,-1.60714 -10.09644,-3.57143 z"
         id="path849"
         transform="scale(0.26458333)" />
      <path
         style="fill:#000000;stroke-width:22.5685;stroke-linecap:round;stroke-linejoin:round"
         d="m 275.67367,529.11306 c -7.24894,-5.86983 -8.54525,-18.96709 -2.45938,-24.84828 3.39564,-3.28145 89.59826,-31.81214 436.51905,-144.47579 38.35335,-12.45538 71.8576,-22.64613 74.45392,-22.64613 13.12965,0 21.03437,17.74452 12.41711,27.87392 -3.78297,4.4468 -49.38594,20.43056 -169.46151,59.39593 -277.43256,90.02882 -339.24024,109.873 -342.21594,109.873 -1.57591,0 -5.73988,-2.32769 -9.25325,-5.17265 z"
         id="path851"
         transform="scale(0.26458333)" />
      <path
         style="fill:#000000;stroke-width:22.5685;stroke-linecap:round;stroke-linejoin:round"
         d="m 698.57143,465.71429 c -3.14286,-3.14286 -5.71429,-7.72739 -5.71429,-10.18784 0,-11.77075 6.1855,-15.20867 59.08877,-32.84174 48.89737,-16.29787 54.03471,-17.47238 60.44756,-13.81961 9.1109,5.18958 12.29,14.20486 8.06287,22.86468 -2.74078,5.61483 -12.04695,9.73838 -51.89798,22.99594 -26.7071,8.88486 -52.09407,16.27771 -56.4155,16.42857 -4.35281,0.15195 -10.40576,-2.27433 -13.57143,-5.44 z"
         id="path853"
         transform="scale(0.26458333)" />
      <path
         style="fill:#000000;stroke-width:22.5685;stroke-linecap:round;stroke-linejoin:round"
         d="m 805.42773,569.24196 c -5.58523,-3.72935 -9.46344,-13.86654 -7.77503,-20.32303 2.99583,-11.45608 41.35483,-25.48704 53.96761,-19.74027 8.67897,3.9544 11.78229,14.65135 6.89814,23.77747 -5.65127,10.5595 -44.03357,22.33345 -53.09072,16.28583 z"
         id="path855"
         transform="scale(0.26458333)" />
      <path
         style="fill:#000000;stroke-width:22.5685;stroke-linecap:round;stroke-linejoin:round"
         d="m 706.11029,596.8412 c -10.42223,-14.87983 -3.15223,-25.25165 23.62306,-33.70207 15.78288,-4.98116 21.29893,-5.64487 26.00079,-3.1285 8.10425,4.33726 12.26523,15.90749 8.35101,23.22126 -3.66339,6.84512 -24.8294,16.39202 -41.36767,18.65884 -10.26971,1.40762 -12.57549,0.70653 -16.60719,-5.04953 z"
         id="path857"
         transform="scale(0.26458333)" />
      <path
         style="fill:#000000;stroke-width:22.5685;stroke-linecap:round;stroke-linejoin:round"
         d="m 318.85187,784.95788 c -3.77432,-1.94112 -8.14222,-5.58031 -9.70644,-8.08709 -4.44018,-7.11575 0.10083,-19.58279 8.26322,-22.68613 11.76739,-4.47395 529.36695,-3.58043 538.28032,0.92922 12.16852,6.15656 11.2832,24.30019 -1.4692,30.11058 -10.88871,4.96124 -525.70133,4.70489 -535.3679,-0.26657 z"
         id="path859"
         transform="scale(0.26458333)" />
      <path
         style="fill:#000000;stroke-width:22.5685;stroke-linecap:round;stroke-linejoin:round"
         d="m 312.85714,854.28571 c -6.86461,-6.8646 -7.25277,-13.67489 -1.26656,-22.22141 l 4.44773,-6.35001 h 99.6339 c 109.20751,0 108.6135,-0.0924 108.6135,16.90411 0,17.26971 -0.69576,17.3816 -108.08211,17.3816 -93.82265,0 -97.85514,-0.22297 -103.34646,-5.71429 z"
         id="path861"
         transform="scale(0.26458333)" />
      <path
         style="fill:#000000;stroke-width:22.5685;stroke-linecap:round;stroke-linejoin:round"
         d="m 203.29996,994.77503 c -6.52623,-7.21142 -6.23045,-26.81588 0.49644,-32.90364 12.00937,-10.86832 29.06074,-1.06958 29.06074,16.70004 0,18.00036 -18.66898,28.23487 -29.55718,16.2036 z"
         id="path863"
         transform="scale(0.26458333)" />
      <path
         style="fill:#000000;stroke-width:22.5685;stroke-linecap:round;stroke-linejoin:round"
         d="m 738.17604,857.09247 c -7.16083,-4.18194 -9.16102,-16.59221 -3.95483,-24.53787 l 4.48195,-6.84031 h 58.30148 c 64.10571,0 67.28107,0.81105 67.28107,17.18492 0,15.47544 -6.44611,17.11078 -67.0643,17.01391 -29.90035,-0.0478 -56.47076,-1.31708 -59.04537,-2.82065 z"
         id="path865"
         transform="scale(0.26458333)" />
      <path
         style="fill:#000000;stroke-width:22.5685;stroke-linecap:round;stroke-linejoin:round"
         d="m 702.1281,982.14286 c -6.96928,-8.71111 -6.83379,-16.26834 0.42173,-23.52386 6.41188,-6.41188 9.52469,-7.19043 28.74887,-7.19043 17.74892,0 22.5682,1.00975 27.27273,5.71429 6.86461,6.86461 7.25278,13.67489 1.26656,22.22141 -4.02455,5.74585 -6.84559,6.35002 -29.65016,6.35002 -16.73329,0 -26.16261,-1.20016 -28.05973,-3.57143 z"
         id="path867"
         transform="scale(0.26458333)" />
      <path
         style="fill:#000000;stroke-width:22.5685;stroke-linecap:round;stroke-linejoin:round"
         d="m 803.29996,980.48931 c -6.74893,-7.45748 -5.96899,-19.29644 1.62149,-24.61301 8.72047,-6.10806 44.29377,-6.10806 53.01425,0 7.54087,5.28183 8.52442,18.68399 1.86022,25.34819 -6.93312,6.93312 -50.06418,6.37186 -56.49596,-0.73518 z"
         id="path869"
         transform="scale(0.26458333)" />
    </g>
  </g>
</svg>
