<?xml version="1.0" encoding="UTF-8" standalone="no"?>
<svg
   xmlns:dc="http://purl.org/dc/elements/1.1/"
   xmlns:cc="http://creativecommons.org/ns#"
   xmlns:rdf="http://www.w3.org/1999/02/22-rdf-syntax-ns#"
   xmlns:svg="http://www.w3.org/2000/svg"
   xmlns="http://www.w3.org/2000/svg"
   xmlns:sodipodi="http://sodipodi.sourceforge.net/DTD/sodipodi-0.dtd"
   xmlns:inkscape="http://www.inkscape.org/namespaces/inkscape"
   version="1.1"
   id="Capa_1"
   x="0px"
   y="0px"
   viewBox="0 0 302.4 302.4"
   style="enable-background:new 0 0 302.4 302.4;"
   xml:space="preserve"
   sodipodi:docname="see.svg"
   inkscape:version="1.0 (4035a4fb49, 2020-05-01)"><metadata
   id="metadata91"><rdf:RDF><cc:Work
       rdf:about=""><dc:format>image/svg+xml</dc:format><dc:type
         rdf:resource="http://purl.org/dc/dcmitype/StillImage" /></cc:Work></rdf:RDF></metadata><defs
   id="defs89" /><sodipodi:namedview
   inkscape:document-rotation="0"
   pagecolor="#ffffff"
   bordercolor="#666666"
   borderopacity="1"
   objecttolerance="10"
   gridtolerance="10"
   guidetolerance="10"
   inkscape:pageopacity="0"
   inkscape:pageshadow="2"
   inkscape:window-width="1920"
   inkscape:window-height="1017"
   id="namedview87"
   showgrid="false"
   inkscape:zoom="0.78654466"
   inkscape:cx="357.3092"
   inkscape:cy="-57.131685"
   inkscape:window-x="-8"
   inkscape:window-y="-8"
   inkscape:window-maximized="1"
   inkscape:current-layer="Capa_1" />
























<path
   d="M 160.96875 77.095703 C 159.6544 77.104185 158.33319 77.139242 157.00781 77.193359 C 156.38304 77.188178 155.78087 77.175786 155.14844 77.173828 C 143.5406 77.137898 130.93262 77.640141 128.02148 78.523438 C 127.35005 78.727163 124.42663 79.280602 121.52539 79.751953 C 118.62416 80.223303 115.70272 80.77006 115.0332 80.96875 C 114.36369 81.16744 112.17261 81.731337 110.16406 82.220703 C 104.64124 83.566294 100.15939 84.824034 98.802734 85.408203 C 98.133214 85.696495 96.491384 86.253188 95.152344 86.646484 C 93.813314 87.03978 91.581459 87.842632 90.193359 88.429688 C 88.805259 89.016743 87.390318 89.496094 87.048828 89.496094 C 86.707348 89.496094 86.427734 89.658443 86.427734 89.857422 C 86.427734 90.0564 85.92623 90.342272 85.3125 90.492188 C 84.32664 90.733002 77.946009 93.449336 76.255859 94.347656 C 75.906599 94.533289 73.807074 95.645702 71.589844 96.820312 C 62.867074 101.44137 63.783566 100.91214 56.335938 105.64844 C 54.474595 106.83215 52.292382 108.29287 51.488281 108.89453 C 50.68418 109.4962 49.133877 110.61336 48.041016 111.37891 C 45.943551 112.84818 40.664607 117.05768 36.923828 120.24219 C 33.867712 122.84385 21.656688 135.05398 19.447266 137.71875 C 18.458278 138.91157 17.192696 140.37864 16.634766 140.97852 C 16.076836 141.5784 15.254938 142.59185 14.808594 143.23047 C 14.36225 143.86908 13.535243 144.95925 12.970703 145.65234 C 11.449639 147.51979 5.9612919 154.95698 4.1074219 157.66211 L 3.1367188 159.07812 L 4.0722656 160.70508 C 4.5870176 161.59975 5.7950644 163.337 6.7558594 164.56445 C 7.7166594 165.79189 9.2337216 167.79989 10.126953 169.02734 C 12.819769 172.7277 15.87364 176.5247 20.40625 181.80859 C 23.003312 184.83612 31.757085 193.56663 35.460938 196.82227 C 36.984316 198.1613 38.536584 199.53047 38.910156 199.86523 C 40.06191 200.89732 45.565472 205.30765 46.503906 205.95117 C 46.890711 206.21642 48.514862 207.36912 50.027344 208.44336 L 49.964844 208.53711 C 50.780615 209.07444 51.669041 209.65122 52.554688 210.22656 C 53.332214 210.77638 54.534379 211.63281 54.544922 211.63281 C 54.54505 211.63281 54.620505 211.5571 54.621094 211.55664 C 73.173564 223.43653 104.86096 241.23415 141.44531 241.24414 C 141.48754 241.24746 141.57028 241.25661 141.61133 241.25977 C 147.29061 241.69616 164.8326 241.43737 169.40625 240.84961 C 171.4148 240.5915 175.70542 240.05266 178.94141 239.65039 C 182.17741 239.24811 185.8292 238.64125 187.05664 238.30273 C 188.28409 237.96421 190.65824 237.47455 192.33203 237.21484 C 194.00582 236.95514 195.74116 236.57803 196.1875 236.37695 C 196.63385 236.17588 198.64184 235.56072 200.65039 235.00977 C 210.78251 232.23053 218.21713 229.48149 228.08008 224.86719 C 229.32906 224.28287 230.46332 223.80664 230.60156 223.80664 C 231.03002 223.80664 242.72165 217.30168 244.53125 216.05664 C 245.47279 215.40884 246.41302 214.87891 246.62109 214.87891 C 246.82916 214.87891 247.69416 214.3269 248.54297 213.65234 C 249.3918 212.97778 250.51231 212.31824 251.0332 212.1875 C 251.5541 212.05677 251.98047 211.81814 251.98047 211.65625 C 251.98047 211.49437 253.02926 210.64685 254.3125 209.77344 C 259.01142 206.57522 261.10007 205.0109 265.16797 201.64062 C 275.27734 193.26506 286.12371 182.23327 292.43359 173.9082 C 294.35119 171.37817 294.68304 170.93382 297.32812 167.36328 C 299.28048 164.7278 299.76983 164.08155 300.82227 162.73828 C 301.34684 162.06877 302.06864 160.95069 302.42578 160.25391 C 303.07352 158.99015 303.06795 158.97927 301.04883 156.19531 C 299.93559 154.66037 298.57064 152.76547 298.01367 151.98438 C 297.4567 151.20327 296.5028 149.90777 295.89453 149.10547 C 295.28625 148.30319 294.01365 146.6239 293.06641 145.37305 C 288.32066 139.10624 276.87756 126.83597 271.2207 121.94922 C 263.10196 114.93573 258.83479 111.65101 251.61328 106.85352 C 249.60197 105.51734 248.72807 104.95359 247.71875 104.29883 L 247.81445 104.13281 C 231.68729 94.930397 202.29478 79.141036 168.31641 77.275391 C 165.88938 77.14213 163.4391 77.079762 160.96875 77.095703 z M 99.291016 118.71094 C 99.655656 118.71079 99.629857 119.14109 99.185547 120.40039 C 98.857707 121.3296 98.415725 122.30048 98.203125 122.55664 C 97.990535 122.81281 97.430184 124.56403 96.958984 126.44727 C 94.438134 136.52229 93.937281 144.38854 95.332031 151.98438 C 96.395061 157.77365 97.49864 161.91539 98.65625 164.46094 L 99.625 166.58984 L 99.720703 166.49414 A 58.660011 57.311501 0 0 0 146.60742 200.5293 C 146.44935 200.70473 146.2176 200.95393 146.22656 200.96289 C 146.34365 201.07998 147.86469 201.29829 149.60547 201.44727 C 157.02666 202.0824 166.6532 200.64867 173.94727 197.82031 C 178.97577 195.87044 182.31523 194.03758 188.63281 189.76172 C 189.59477 189.11065 190.89176 187.97042 192.3125 186.5918 A 58.660011 57.311501 0 0 0 212.16406 143.61523 A 58.660011 57.311501 0 0 0 206.36133 118.76367 C 216.54443 122.90047 225.55633 127.5845 232.25391 131.40625 L 232.26562 131.38477 C 233.10515 131.91563 234.74103 133.04087 236.4082 134.25195 C 238.31361 135.6361 240.26979 137.03794 240.75391 137.36719 C 246.95906 141.58731 263.91936 157.78486 263.67383 159.25586 C 263.38896 160.96254 251.611 172.56976 244.49609 178.15625 C 243.6434 178.82577 242.3775 179.84946 241.68164 180.42969 C 240.52929 181.39055 236.56685 184.21351 234.39453 185.62305 C 233.91215 185.93605 232.75731 186.71413 231.82812 187.34961 C 230.89896 187.98509 230.04891 188.50391 229.9375 188.50391 C 229.82608 188.50391 228.76417 189.14272 227.57812 189.92383 C 226.39208 190.70493 225.18836 191.34375 224.9043 191.34375 C 224.62024 191.34375 224.38867 191.48934 224.38867 191.66602 C 224.38867 191.84269 223.79366 192.2698 223.06836 192.61523 C 222.34305 192.96067 220.83851 193.71295 219.72266 194.28711 C 216.45578 195.96806 207.93883 199.86523 207.5332 199.86523 C 207.38573 199.86523 206.68958 200.12717 205.98633 200.44727 C 203.85216 201.41868 198.80922 203.16158 195.375 204.11523 C 193.58963 204.61102 191.76471 205.15346 191.31836 205.32031 C 189.78831 205.89225 189.28296 206.02188 185.43555 206.83008 C 179.03587 208.17443 175.81412 208.70941 168.60742 209.62695 C 162.51613 210.40247 160.43177 210.48032 150.55078 210.28906 C 147.35505 210.22721 144.37593 210.1393 142.12891 210.04688 L 142.12695 209.85156 C 113.79938 210.07991 83.437953 192.98473 67.238281 182.31445 L 67.183594 182.39844 C 61.753863 178.19932 58.749246 175.73257 56.046875 173.25391 C 54.567012 171.89655 52.544964 170.07163 51.550781 169.19727 C 50.556594 168.3229 49.187904 166.96665 48.509766 166.18555 C 47.831631 165.40444 46.208547 163.63811 44.904297 162.25977 C 43.539032 160.81696 42.591065 159.46967 42.669922 159.08398 C 42.943324 157.74678 52.520818 147.9922 58.802734 142.65234 C 60.622134 141.10579 66.066138 136.919 69.455078 134.46094 C 71.557148 132.93627 77.219917 129.26172 77.466797 129.26172 C 77.612187 129.26172 78.729299 128.61495 79.949219 127.82422 C 84.238559 125.04396 97.676796 118.71173 99.291016 118.71094 z M 130.06445 119.10742 A 19.103836 18.664665 0 0 1 130.13086 119.10742 A 19.103836 18.664665 0 0 1 149.23438 137.77148 A 19.103836 18.664665 0 0 1 130.13086 156.4375 A 19.103836 18.664665 0 0 1 111.02734 137.77148 A 19.103836 18.664665 0 0 1 130.06445 119.10742 z "
   style="fill:#000000;stroke:none;stroke-width:44.7885;stroke-linecap:round;stroke-linejoin:round;stroke-miterlimit:4;stroke-dasharray:none"
   id="ellipse846" /></svg>
