<?xml version="1.0" encoding="UTF-8" standalone="no"?>
<!-- Created with Inkscape (http://www.inkscape.org/) -->

<svg
   width="40"
   height="40"
   viewBox="0 0 10.583333 10.583333"
   version="1.1"
   id="svg5"
   xml:space="preserve"
   inkscape:version="1.2 (dc2aedaf03, 2022-05-15)"
   sodipodi:docname="shield.svg"
   xmlns:inkscape="http://www.inkscape.org/namespaces/inkscape"
   xmlns:sodipodi="http://sodipodi.sourceforge.net/DTD/sodipodi-0.dtd"
   xmlns="http://www.w3.org/2000/svg"
   xmlns:svg="http://www.w3.org/2000/svg"><sodipodi:namedview
     id="namedview7"
     pagecolor="#ffffff"
     bordercolor="#666666"
     borderopacity="1.0"
     inkscape:showpageshadow="2"
     inkscape:pageopacity="0.0"
     inkscape:pagecheckerboard="0"
     inkscape:deskcolor="#d1d1d1"
     inkscape:document-units="mm"
     showgrid="false"
     inkscape:zoom="8"
     inkscape:cx="2.0625"
     inkscape:cy="23.25"
     inkscape:window-width="1920"
     inkscape:window-height="1017"
     inkscape:window-x="-8"
     inkscape:window-y="-8"
     inkscape:window-maximized="1"
     inkscape:current-layer="layer1" /><defs
     id="defs2" /><g
     inkscape:label="Calque 1"
     inkscape:groupmode="layer"
     id="layer1"><path
       id="path466"
       style="color:#000000;fill:#000000;stroke-width:1;stroke-linecap:round"
       d="M 5.2242958,0.05284161 5.1435686,0.09689117 4.9263177,0.25625826 C 3.8805015,1.0208863 2.7691764,1.4085927 1.4840392,1.3096301 L 1.0799089,1.2785791 0.9871127,1.3945504 1.0266849,4.4630096 0.9871127,6.8292828 1.0032378,6.8809118 c 0.2376309,0.7751616 0.6461509,1.3697975 1.2918315,1.8988358 0.063139,0.05173 0.1291189,0.1029467 0.1966733,0.1539436 0.9534183,0.6950795 1.7960668,1.1072238 2.7247373,1.5972188 l 0.00782,0.0057 0.00791,-0.0057 C 6.1793048,10.018083 7.2017931,9.5116287 7.9553672,8.9348124 8.0234628,8.8834406 8.0899105,8.8318704 8.1535248,8.7797471 8.7992022,8.2507088 9.2077239,7.6560729 9.4453542,6.8809113 L 9.4614738,6.8292828 9.4218948,4.4630088 9.4614656,1.39455 9.3687668,1.2785787 8.964538,1.3096297 C 7.679406,1.4085923 6.5681785,1.020886 5.5223635,0.25625787 L 5.3051127,0.09689078 Z m 0,0.94665953 C 6.2295525,1.6053648 7.3424034,2.0470707 8.6226489,2.1004767 l 0.039276,2.3635605 -0.02869,2.2341238 C 8.5841677,7.2642522 8.209087,7.7881585 7.5649851,8.3075383 7.5425288,8.3256475 7.5191137,8.3436479 7.4960312,8.3616872 6.9721647,8.7565559 6.2234647,9.1775591 5.2242958,9.7083547 4.2243007,9.1771196 3.4752007,8.7559064 2.9512741,8.3607537 2.9286197,8.3430357 2.905657,8.3253193 2.8836057,8.3075383 2.2395054,7.7881585 1.8644252,7.2642522 1.8153568,6.698161 L 1.7866672,4.4640372 1.8259424,2.1004767 C 3.10618,2.0470707 4.2190452,1.6053593 5.2242958,0.99950114 Z M 5.1868011,1.6307914 v 7.4509483 c 0,0.2170732 2.8704385,-1.2150523 2.8704385,-2.2290759 V 2.4391507 C 7.2103993,2.5947661 5.9730302,1.9335866 5.1868011,1.6307914 Z"
       sodipodi:nodetypes="cccccccccccccccccccccccccccccscccccccccsscc" /></g></svg>
