<svg height="511pt" viewBox="0 1 511.99925 511" width="511pt" xmlns="http://www.w3.org/2000/svg"><path d="m121.644531 284.714844 31.253907-31.257813 106.140624 106.136719-31.257812 31.257812zm0 0"/><path d="m121.664062 327.160156-32.457031 32.453125 21.234375 21.230469-110.441406 110.441406 21.214844 21.214844 110.441406-110.441406 21.230469 21.230468 32.453125-32.453124zm0 0"/><path d="m421.769531 157.695312-22.875-22.875 22.582031-22.582031c9.144532 5.414063 19.605469 8.3125 30.511719 8.3125 16.039063 0 31.117188-6.246093 42.453125-17.585937 23.410156-23.410156 23.410156-61.5 0-84.910156-23.40625-23.40625-61.5-23.40625-84.90625 0-11.339844 11.339843-17.585937 26.417968-17.585937 42.457031 0 10.90625 2.898437 21.367187 8.3125 30.511719l-22.582031 22.582031-22.875-22.875c9.824218-18.855469 6.832031-42.707031-8.980469-58.519531-19.507813-19.507813-51.246094-19.507813-70.753907 0-9.449218 9.449218-14.652343 22.011718-14.652343 35.375 0 13.363281 5.203125 25.929687 14.652343 35.378906 4.957032 4.957031 10.777344 8.730468 17.113282 11.214844l-118.066406 118.0625 106.136718 106.140624 118.066406-118.066406c2.484376 6.335938 6.257813 12.15625 11.214844 17.113282 9.449219 9.449218 22.015625 14.652343 35.378906 14.652343 13.359376 0 25.925782-5.203125 35.375-14.652343 19.507813-19.507813 19.507813-51.246094 0-70.757813-15.8125-15.8125-39.664062-18.800781-58.519531-8.976563zm8.980469-118.425781c5.855469-5.855469 13.546875-8.785156 21.238281-8.785156 7.691407 0 15.386719 2.929687 21.242188 8.785156 11.710937 11.710938 11.710937 30.769531 0 42.480469-5.675781 5.671875-13.21875 8.796875-21.242188 8.796875-8.023437 0-15.566406-3.125-21.238281-8.796875s-8.796875-13.21875-8.796875-21.238281c0-8.027344 3.125-15.570313 8.796875-21.242188zm-120.300781 48.347657c-5.351563 0-10.378907-2.085938-14.164063-5.867188-3.78125-3.785156-5.867187-8.8125-5.867187-14.164062 0-5.347657 2.085937-10.378907 5.867187-14.160157 3.90625-3.90625 9.03125-5.859375 14.164063-5.859375 5.128906 0 10.257812 1.953125 14.160156 5.859375 7.8125 7.808594 7.8125 20.515625 0 28.324219-3.78125 3.78125-8.8125 5.867188-14.160156 5.867188zm148.625 128.597656c-3.78125 3.78125-8.8125 5.867187-14.160157 5.867187-5.351562 0-10.378906-2.085937-14.164062-5.867187-3.78125-3.785156-5.867188-8.8125-5.867188-14.164063 0-5.347656 2.085938-10.378906 5.867188-14.160156 3.90625-3.90625 9.03125-5.859375 14.164062-5.859375 5.125 0 10.257813 1.953125 14.160157 5.859375 7.8125 7.808594 7.8125 20.515625 0 28.324219zm0 0"/></svg>