<?xml version="1.0" encoding="UTF-8" standalone="no"?>
<svg
   xmlns:dc="http://purl.org/dc/elements/1.1/"
   xmlns:cc="http://creativecommons.org/ns#"
   xmlns:rdf="http://www.w3.org/1999/02/22-rdf-syntax-ns#"
   xmlns:svg="http://www.w3.org/2000/svg"
   xmlns="http://www.w3.org/2000/svg"
   xmlns:sodipodi="http://sodipodi.sourceforge.net/DTD/sodipodi-0.dtd"
   xmlns:inkscape="http://www.inkscape.org/namespaces/inkscape"
   sodipodi:docname="target.svg"
   inkscape:version="1.0 (4035a4fb49, 2020-05-01)"
   id="svg8"
   version="1.1"
   viewBox="0 0 5.2916665 5.2916668"
   height="20"
   width="20">
  <defs
     id="defs2" />
  <sodipodi:namedview
     inkscape:window-maximized="1"
     inkscape:window-y="-8"
     inkscape:window-x="-8"
     inkscape:window-height="1017"
     inkscape:window-width="1920"
     units="px"
     showgrid="false"
     inkscape:document-rotation="0"
     inkscape:current-layer="layer1"
     inkscape:document-units="mm"
     inkscape:cy="14.579962"
     inkscape:cx="18.232124"
     inkscape:zoom="15.839192"
     inkscape:pageshadow="2"
     inkscape:pageopacity="0.0"
     borderopacity="1.0"
     bordercolor="#666666"
     pagecolor="#ffffff"
     id="base" />
  <metadata
     id="metadata5">
    <rdf:RDF>
      <cc:Work
         rdf:about="">
        <dc:format>image/svg+xml</dc:format>
        <dc:type
           rdf:resource="http://purl.org/dc/dcmitype/StillImage" />
        <dc:title></dc:title>
      </cc:Work>
    </rdf:RDF>
  </metadata>
  <g
     id="layer1"
     inkscape:groupmode="layer"
     inkscape:label="Calque 1">
    <path
       d="M 2.6485613,0.10018901 A 2.5725543,2.5725543 0 0 0 0.08332059,2.6727464 2.5725543,2.5725543 0 0 0 2.6558791,5.2453062 2.5725543,2.5725543 0 0 0 5.2284375,2.6727464 2.5725543,2.5725543 0 0 0 2.6558791,0.10018901 a 2.5725543,2.5725543 0 0 0 -0.00731,0 z m 0.00526,0.86873488 a 1.7038121,1.7038121 0 0 1 0.00206,0 A 1.7038121,1.7038121 0 0 1 4.3597068,2.6727464 1.7038121,1.7038121 0 0 1 2.6558834,4.3765439 1.7038121,1.7038121 0 0 1 0.95208574,2.6727464 1.7038121,1.7038121 0 0 1 2.6538261,0.96892389 Z"
       style="fill:#000000;stroke:none;stroke-width:2.64582;stroke-linecap:round;stroke-linejoin:round"
       id="path851" />
    <circle
       r="0.91588312"
       cy="2.6727462"
       cx="2.6558845"
       id="path855"
       style="fill:#000000;stroke:none;stroke-width:2.64584;stroke-linecap:round;stroke-linejoin:round" />
  </g>
</svg>
