<?xml version="1.0" encoding="UTF-8" standalone="no"?>
<!-- Created with Inkscape (http://www.inkscape.org/) -->

<svg
   width="40"
   height="40"
   viewBox="0 0 10.583333 10.583333"
   version="1.1"
   id="svg5"
   xml:space="preserve"
   inkscape:version="1.2 (dc2aedaf03, 2022-05-15)"
   sodipodi:docname="veto.svg"
   xmlns:inkscape="http://www.inkscape.org/namespaces/inkscape"
   xmlns:sodipodi="http://sodipodi.sourceforge.net/DTD/sodipodi-0.dtd"
   xmlns="http://www.w3.org/2000/svg"
   xmlns:svg="http://www.w3.org/2000/svg"><sodipodi:namedview
     id="namedview7"
     pagecolor="#ffffff"
     bordercolor="#666666"
     borderopacity="1.0"
     inkscape:showpageshadow="2"
     inkscape:pageopacity="0.0"
     inkscape:pagecheckerboard="0"
     inkscape:deskcolor="#d1d1d1"
     inkscape:document-units="mm"
     showgrid="false"
     inkscape:zoom="4.7572176"
     inkscape:cx="16.711449"
     inkscape:cy="53.182348"
     inkscape:window-width="1920"
     inkscape:window-height="1017"
     inkscape:window-x="-8"
     inkscape:window-y="-8"
     inkscape:window-maximized="1"
     inkscape:current-layer="layer1" /><defs
     id="defs2" /><g
     inkscape:label="Calque 1"
     inkscape:groupmode="layer"
     id="layer1"><path
       id="rect567"
       style="fill:none;stroke:#000000;stroke-width:0.529165;stroke-linecap:round;stroke-linejoin:round;stroke-dasharray:none;stroke-opacity:1"
       d="M 3.3584513 0.26458333 C 3.1101768 0.26458333 2.9104167 0.48934207 2.9104167 0.76842855 L 2.9104167 2.9104167 L 0.76842855 2.9104167 C 0.48934207 2.9104167 0.26458333 3.1101768 0.26458333 3.3584513 L 0.26458333 7.224882 C 0.26458333 7.4731566 0.48934207 7.6729167 0.76842855 7.6729167 L 2.9104167 7.6729167 L 2.9104167 9.8149048 C 2.9104167 10.093991 3.1101768 10.31875 3.3584513 10.31875 L 7.224882 10.31875 C 7.4731566 10.31875 7.6729167 10.093991 7.6729167 9.8149048 L 7.6729167 7.6729167 L 9.8149048 7.6729167 C 10.093991 7.6729167 10.31875 7.4731566 10.31875 7.224882 L 10.31875 3.3584513 C 10.31875 3.1101768 10.093991 2.9104167 9.8149048 2.9104167 L 7.6729167 2.9104167 L 7.6729167 0.76842855 C 7.6729167 0.48934207 7.4731566 0.26458333 7.224882 0.26458333 L 3.3584513 0.26458333 z " /><g
       id="g461"
       transform="matrix(0.03331415,0,0,0.03252804,1.8232715,1.6624128)"
       style="stroke-width:30.3777;fill:#000000"><path
         style="fill:#000000;stroke-width:60.7553;stroke-linecap:round;stroke-linejoin:round"
         d="m 383.4174,882.04651 c -34.89981,-2.06443 -61.64542,-6.7839 -82.82576,-14.61521 -27.55824,-10.1895 -43.51292,-39.49869 -33.96405,-62.39286 3.76686,-9.03136 11.58118,-16.45976 26.28614,-24.98797 l 12.91812,-7.49192 -2.35488,-7.90684 c -1.29518,-4.34876 -3.50561,-11.69057 -4.91206,-16.31512 -1.40645,-4.62455 -2.56537,-9.24275 -2.57538,-10.26267 -0.0114,-1.16369 6.58712,-2.28144 17.71566,-3.00092 9.75362,-0.63058 26.96957,-2.24053 38.25765,-3.57768 33.85652,-4.01052 31.62321,-4.60327 36.52431,9.69424 2.41367,7.0411 5.13739,12.192 6.44701,12.192 1.35354,0 3.92082,-5.24337 6.36858,-13.00704 2.84881,-9.03571 5.23712,-13.62431 7.82227,-15.02875 4.59467,-2.49616 79.94206,-4.03893 83.34212,-1.70647 1.86833,1.28167 1.63564,3.84616 -1.32961,14.65461 -2.24504,8.18326 -3.00042,13.6949 -2.01233,14.68299 2.08954,2.08954 18.78146,-2.7565 29.52494,-8.57177 9.58296,-5.1871 14.4194,-12.07751 14.4283,-20.55586 0.007,-7.04108 -3.79224,-11.71366 -13.93154,-17.1322 -6.82996,-3.65002 -8.61403,-3.78174 -49.96507,-3.68922 -33.31275,0.0745 -49.66255,0.91891 -73.26594,3.78373 -24.92914,3.02573 -39.28717,3.68777 -79.97886,3.68777 -56.00288,0 -66.41135,-1.50625 -90.26369,-13.06241 -14.80534,-7.17298 -22.80361,-15.82629 -32.22565,-34.86477 -7.7671,-15.69447 -9.70738,-26.48407 -8.33207,-46.33347 0.82677,-11.93238 1.95071,-16.17231 6.59875,-24.89292 6.3083,-11.83559 19.98441,-25.29329 31.77602,-31.26855 4.27312,-2.16536 9.40672,-5.34077 11.40799,-7.05648 l 3.63868,-3.11948 -7.55727,-24.384 c -4.15649,-13.4112 -10.53864,-34.21795 -14.18254,-46.23722 -3.64391,-12.01927 -7.04679,-23.18126 -7.56196,-24.80442 -0.87751,-2.76478 1.97223,-2.95119 45.11547,-2.95119 h 46.05215 l 3.82359,12.192 c 2.10297,6.7056 4.45491,14.08386 5.22654,16.39614 0.77163,2.31227 3.04403,9.87972 5.0498,16.81655 2.00576,6.93683 4.3579,14.88265 5.22697,17.65738 9.72993,31.06521 38.22118,127.7671 37.77534,128.21294 -1.35751,1.35754 -68.40663,-3.41994 -79.0658,-5.63371 -13.84791,-2.87602 -14.95575,-3.65819 -17.57811,-12.41083 -2.56857,-8.57315 -6.45763,-8.80455 -13.4837,-0.80229 -12.66526,14.42494 -2.44979,30.43176 24.20979,37.9348 11.05606,3.1116 109.26421,3.26624 124.33093,0.19578 15.54751,-3.16844 117.7936,-2.788 130.42569,0.48531 10.68801,2.76953 20.26228,6.8183 27.27887,11.53568 10.48564,7.0497 21.50329,30.99439 21.50329,46.73318 0,9.78233 -6.28322,28.1274 -13.0038,37.96705 -11.72112,17.16104 -27.23788,25.01368 -69.08656,34.96296 -21.81752,5.187 -20.38659,3.67475 -28.06608,29.66067 -2.36525,8.00352 -5.44043,15.49796 -6.83375,16.65432 -5.14917,4.27342 -84.56694,-1.33634 -112.55575,-7.95051 -19.06622,-4.50563 -22.46496,-6.4473 -26.09048,-14.90532 -1.87735,-4.37965 -4.33002,-7.50953 -5.88472,-7.50953 -4.16857,0 -12.11942,4.6473 -15.00907,8.77284 -12.65846,18.0725 18.6844,34.33927 80.61737,41.83999 9.2491,1.12016 37.62704,2.26831 63.06207,2.55144 25.43504,0.28312 47.54321,0.5449 49.12926,0.58173 4.30261,0.0999 7.10412,6.3571 4.95654,11.07049 -1.32077,2.89879 -3.96339,4.2761 -10.68335,5.56808 -11.88755,2.2855 -75.91609,3.50329 -102.26038,1.94493 z"
         id="path440"
         transform="scale(0.26458333)" /><path
         style="fill:#000000;stroke-width:60.7553;stroke-linecap:round;stroke-linejoin:round"
         d="m 356.67326,944.70287 c -1.229,-4.41149 -4.04827,-14.83159 -6.26505,-23.15579 -2.21679,-8.32419 -4.39092,-16.27001 -4.83142,-17.65738 -0.71191,-2.24221 4.31998,-2.24221 45.28705,0 25.34838,1.38737 46.55028,2.98519 47.11534,3.55073 0.56507,0.56553 -0.94655,8.51135 -3.35914,17.65738 -2.4126,9.14602 -4.92382,18.89937 -5.58049,21.6741 l -1.19396,5.04497 -34.46889,0.45344 -34.4689,0.45344 z"
         id="path442"
         transform="scale(0.26458333)" /><path
         style="fill:#000000;stroke-width:60.7553;stroke-linecap:round;stroke-linejoin:round"
         d="m 378.37243,591.6602 c -5.087,-0.41308 -9.79816,-1.29459 -10.46924,-1.95893 -1.32608,-1.31276 -10.56336,-35.59104 -14.12405,-52.41241 l -0.88992,-4.20414 14.4439,0.59382 14.44391,0.59383 -0.44107,-62.81507 -0.44104,-62.81507 -5.28932,0.2288 c -2.90913,0.12579 -12.74681,2.70715 -21.86152,5.73621 -15.84613,5.26611 -17.96162,5.54047 -48.28499,6.26217 -46.81194,1.11411 -74.12626,-3.26626 -86.44607,-13.86332 -8.70988,-7.49192 -4.80122,-28.41691 7.43602,-39.80869 11.70472,-10.89607 75.03596,-44.06068 89.30638,-46.76702 10.27905,-1.94938 23.56942,-0.0728 42.32114,5.97551 7.31347,2.35896 15.43948,4.04366 18.05779,3.74378 l 4.76057,-0.54524 0.4438,-53.21905 0.44379,-53.21906 -7.32768,-4.29431 c -13.65994,-8.00526 -21.30723,-21.32521 -21.30723,-37.11268 0,-38.64765 43.09794,-59.23757 71.55756,-34.18641 11.1872,9.84736 14.77234,17.90599 14.77234,33.20502 0,9.49853 -0.8638,14.27315 -3.49869,19.33904 -4.06834,7.82184 -12.24443,15.99123 -20.60996,20.59307 l -5.88579,3.23775 -0.44541,50.94425 c -0.28273,32.34075 0.17197,51.68813 1.2452,52.9813 1.16293,1.40124 12.32433,2.37853 35.76016,3.13118 67.24588,2.15958 127.46407,14.78543 170.36611,35.72041 54.27273,26.48354 74.88251,78.04595 56.05985,140.25284 -10.64547,35.18216 -41.49041,59.20309 -92.8167,72.28233 -17.39524,4.43274 -43.59452,8.02003 -73.47404,10.0603 -27.74275,1.89437 -113.87249,3.47117 -127.8058,2.33979 z m 103.4218,-59.52289 c 65.97906,-4.30834 108.85264,-17.91041 123.39892,-39.14951 8.07881,-11.7959 11.11342,-27.47643 7.79395,-40.27327 -7.74306,-29.85027 -51.86914,-42.29434 -157.59146,-44.44259 l -44.89681,-0.91229 -1.18248,4.71137 c -0.65036,2.59126 -0.74847,30.35272 -0.21801,61.69211 0.71942,42.50313 1.50892,57.63675 3.10728,59.56267 2.29556,2.76599 11.41323,2.61026 69.58861,-1.18849 z M 319.64386,367.57103 c 6.0661,-6.0661 6.34149,-12.30959 0.78791,-17.86317 -6.18102,-6.18102 -13.12712,-5.53347 -18.67565,1.74104 -5.58147,7.31767 -4.58357,13.04212 3.08903,17.7203 7.20621,4.39382 9.0005,4.20004 14.79871,-1.59817 z"
         id="path444"
         transform="scale(0.26458333)" /><path
         style="fill:#000000;stroke-width:60.7553;stroke-linecap:round;stroke-linejoin:round"
         d="m 434.47855,631.90966 c 0.47065,-1.63383 1.7528,-6.0943 2.84922,-9.91217 l 1.99351,-6.94158 25.44061,-1.16267 c 13.99234,-0.63948 34.1071,-1.84007 44.69946,-2.668 10.59237,-0.82792 19.59994,-1.16422 20.01683,-0.74733 0.41689,0.41688 -0.76727,5.87631 -2.63146,12.13205 l -3.38944,11.37407 -44.91723,0.44811 c -42.25814,0.42159 -44.86656,0.27226 -44.0615,-2.52248 z"
         id="path446"
         transform="scale(0.26458333)" /><path
         style="fill:#000000;stroke-width:60.7553;stroke-linecap:round;stroke-linejoin:round"
         d="m 473.3852,503.33928 c 1.24032,-3.98804 3.0009,-9.52121 3.9124,-12.29594 0.9115,-2.77474 3.72304,-11.85567 6.24787,-20.17987 2.52482,-8.32419 5.33738,-16.08083 6.25013,-17.23696 1.25114,-1.58475 12.36918,-2.10207 45.17668,-2.10207 23.93442,0 43.51713,0.52479 43.51713,1.16621 0,1.56502 -8.13224,28.43826 -10.84275,35.8302 -1.82768,4.98434 -3.54505,6.36253 -11.21305,8.99851 -14.33174,4.92673 -43.84816,9.88189 -71.56318,12.0139 l -13.74036,1.057 z"
         id="path448"
         transform="scale(0.26458333)" /><path
         style="fill:#000000;stroke-width:60.7553;stroke-linecap:round;stroke-linejoin:round"
         d="m 584.3752,317.09491 c -37.33877,-11.08008 -75.10988,-17.89393 -116.03421,-20.9324 l -25.22483,-1.87284 -0.46482,-25.75716 -0.46481,-25.75716 6.87086,-7.80572 c 3.77898,-4.29314 8.90699,-11.43109 11.39558,-15.8621 l 4.52471,-8.05638 155.39438,-0.002 155.39438,-0.002 5.62588,4.29107 c 9.97559,7.60877 13.1419,18.02637 8.3046,27.32348 -5.90774,11.35451 -15.62271,15.44722 -36.70361,15.46242 l -13.00066,0.009 1.03727,7.56761 c 0.89181,6.50649 0.37648,8.52109 -3.67523,14.36771 -2.59187,3.74006 -5.53253,7.33453 -6.53481,7.98771 -1.00228,0.65318 -11.28164,1.56597 -22.84302,2.02842 l -21.02069,0.84083 -0.89272,9.2491 c -1.05016,10.88017 -3.15785,15.18883 -9.54933,19.5213 -4.15502,2.81649 -8.45101,3.22141 -37.48512,3.53324 l -32.79228,0.35219 z"
         id="path450"
         transform="scale(0.26458333)" /><path
         style="fill:#000000;stroke-width:60.7553;stroke-linecap:round;stroke-linejoin:round"
         d="m 120.23835,322.18329 c -4.62455,-0.54292 -10.09588,-2.18294 -12.1585,-3.64448 -4.89761,-3.47037 -8.86219,-13.16582 -8.86219,-21.67264 v -6.78064 H 81.59431 c -27.735771,0 -36.189618,-5.40493 -36.189618,-23.13769 v -8.32469 L 28.838203,257.71029 C 10.045665,256.67476 3.2354887,254.03648 -1.7497362,245.86044 -8.0535835,235.52179 -4.6781154,220.9399 5.4709329,214.66744 l 5.8568111,-3.61971 H 166.08789 320.84803 l 7.64291,12.26255 c 4.2036,6.74441 9.20077,13.6724 11.10483,15.39554 3.1508,2.85143 3.4619,5.06461 3.4619,24.62742 v 21.49443 l -17.23696,-0.0944 c -21.73372,-0.11898 -30.36627,2.75824 -71.15492,23.71581 l -29.7183,15.26952 -48.15043,-0.27411 c -26.48274,-0.15075 -51.93416,-0.71831 -56.55871,-1.26124 z"
         id="path452"
         transform="scale(0.26458333)" /></g></g></svg>
