<?xml version="1.0" encoding="UTF-8" standalone="no"?>
<svg
   xmlns:dc="http://purl.org/dc/elements/1.1/"
   xmlns:cc="http://creativecommons.org/ns#"
   xmlns:rdf="http://www.w3.org/1999/02/22-rdf-syntax-ns#"
   xmlns:svg="http://www.w3.org/2000/svg"
   xmlns="http://www.w3.org/2000/svg"
   xmlns:sodipodi="http://sodipodi.sourceforge.net/DTD/sodipodi-0.dtd"
   xmlns:inkscape="http://www.inkscape.org/namespaces/inkscape"
   inkscape:version="1.0 (4035a4fb49, 2020-05-01)"
   sodipodi:docname="walker.svg"
   id="svg18"
   viewBox="0 0 80 80"
   version="1.1"
   height="80"
   width="80">
  <metadata
     id="metadata24">
    <rdf:RDF>
      <cc:Work
         rdf:about="">
        <dc:format>image/svg+xml</dc:format>
        <dc:type
           rdf:resource="http://purl.org/dc/dcmitype/StillImage" />
        <dc:title></dc:title>
      </cc:Work>
    </rdf:RDF>
  </metadata>
  <defs
     id="defs22" />
  <sodipodi:namedview
     inkscape:current-layer="svg18"
     inkscape:window-maximized="1"
     inkscape:window-y="-8"
     inkscape:window-x="-8"
     inkscape:cy="45.919974"
     inkscape:cx="22.775319"
     inkscape:zoom="10.341437"
     inkscape:snap-global="false"
     showgrid="false"
     id="namedview20"
     inkscape:window-height="1017"
     inkscape:window-width="1920"
     inkscape:pageshadow="2"
     inkscape:pageopacity="0"
     guidetolerance="10"
     gridtolerance="10"
     objecttolerance="10"
     borderopacity="1"
     bordercolor="#666666"
     pagecolor="#ffffff" />
  <path
     sodipodi:nodetypes="ccccccccccsccccccccccsscsccccscccccc"
     d="m 21.255268,0.50004976 c -3.756622,0.029282 -6.78671,3.09744414 -6.787089,6.87236954 4.97e-4,3.7952987 3.062246,6.8718687 6.839257,6.8723687 3.778083,10e-4 6.841504,-3.075993 6.842001,-6.8723687 -4.97e-4,-3.7963755 -3.063918,-6.87339363 -6.842001,-6.87236954 -0.01738,-6.633e-5 -0.03479,-6.633e-5 -0.05217,0 z M 15.399943,12.769537 C 11.606956,14.74159 5.3679534,18.647421 4.5213941,19.009477 3.850447,19.314361 3.3006114,19.832826 2.9536649,20.485478 l -2.28435988,10.93834 c 0,0 -0.94650333,3.024199 1.63636858,4.008651 2.5828719,0.984454 3.8246031,-1.150452 3.8246031,-1.150452 0,0 1.4055013,-8.738264 1.6281636,-9.360262 0.1615801,-0.397676 0.4323959,-0.741202 0.7824927,-0.987679 l 4.219492,-3.994961 c 0,-2e-6 -4.7588143,21.515239 -5.1172998,22.96507 -0.6964402,5.134305 -9.104582,24.904624 -5.2857943,26.509823 2.9079578,2.036027 5.4252785,-0.39176 5.4252785,-0.39176 l 6.4279576,-22.349435 2.60007,-2.149166 4.453341,1.564285 c 0,0 1.240001,20.391905 1.435943,21.143668 0.195942,0.751765 1.569812,3.100258 4.052485,2.990625 2.482673,-0.109627 3.30294,-3.134087 3.302941,-3.134087 0,0 -1.363869,-21.011538 -1.455162,-22.456895 -0.09129,-1.445355 -1.205312,-2.444367 -1.205312,-2.444367 l -5.815151,-3.641721 c 0,0 0.386368,-12.298278 0.691413,-13.347617 3.847507,2.183641 9.324674,3.974748 14.677801,5.737784 0,0 2.96153,1.009896 4.005811,-1.487035 1.044282,-2.496932 -0.826423,-3.854155 -0.826423,-3.854155 l -9.98295,-2.891306 c 0,0 -3.364967,-2.633231 -5.629326,-7.798444 -0.754344,0.151113 -1.418069,0.570678 -2.187256,0.570867 -3.012375,2.64e-4 -4.747289,-0.618343 -6.928849,-2.705712 z"
     style="fill:#000000;stroke-width:0.999998"
     id="circle4" />
  <path
     sodipodi:nodetypes="ccccc"
     id="path6"
     d="M 62.023383,49.779644 C 56.428633,48.697658 45.859048,39.052736 41.097585,30.368577 l 0.65816,-1.449876 c 4.385314,7.164747 11.229211,16.416696 21.410633,19.449318 z"
     style="fill:#000000;stroke-width:0.999996" />
  <path
     sodipodi:nodetypes="ccccccccccccccccscccccccccccccccccccccccccccccccccccccccccccccccsscc"
     id="path10"
     d="m 62.021701,49.744352 c -2.048496,1.215351 -1.551034,2.117755 -5.669167,3.02582 -0.20765,0.04671 -0.420598,0.06986 -0.634211,0.06894 -4.498659,0 -15.715713,-0.118187 -15.715713,-0.118187 0,0 -0.689175,0.220614 -1.236708,-1.924469 -0.365729,-1.701884 -0.71666,-3.047241 -0.856185,-3.561351 -0.04659,-0.173766 -0.12297,-0.339386 -0.2262,-0.490472 -0.211404,-0.309255 -0.615183,-0.787909 -1.078156,-0.850944 -0.294555,0.06265 -0.555436,0.221211 -0.735683,0.447141 -0.08315,0.106914 -0.13357,0.23287 -0.145869,0.364407 -0.112052,0.984887 -0.298078,4.95792 2.164768,8.219867 -0.243112,0.226523 -3.479697,3.561349 -0.501026,10.672232 0.155734,0.364961 0.23745,0.753674 0.241,1.14641 0.03858,0.756961 -0.168422,1.507201 -0.594044,2.152964 -0.327674,0.567294 -1.23248,2.286906 -1.126778,4.112887 0.105694,1.258684 0.363614,3.984851 1.680655,5.625672 0.270595,0.230464 0.693403,0.864733 2.042156,0.864733 1.348752,0 1.574954,-0.667757 1.574954,-0.667757 0,0 0.188149,-0.163488 -0.154324,-1.071554 -0.224086,-0.600782 -0.566562,-1.550213 -0.773737,-2.125388 -0.11834,-0.328803 -0.177624,-0.673548 -0.175464,-1.020341 0.01049,-1.095195 0.05707,-3.56726 0.291735,-4.240924 l 0.01049,-0.02757 c 0.146354,-0.403816 0.78751,-0.302098 0.782192,0.124093 0,0.563353 -0.01902,1.162166 -0.02537,1.495058 -0.0025,0.181776 0.01525,0.363301 0.05284,0.541686 0.186036,0.917916 0.858297,3.805602 2.078093,4.959893 0.141592,0.127985 0.30709,0.230787 0.488342,0.303343 0.968228,0.393955 1.443884,0.590932 1.644718,0.671693 0.107887,0.0453 0.222738,0.07454 0.340359,0.08667 0.323445,0.03348 0.917489,0.01384 1.076042,-0.549567 0.108177,-0.613197 0.08664,-1.240185 -0.06342,-1.845679 -0.04869,-0.189878 -0.126285,-0.372288 -0.230429,-0.541687 -0.401645,-0.651994 -1.056996,-1.873255 -1.285311,-2.316455 -0.06707,-0.125747 -0.119512,-0.257815 -0.156439,-0.393954 -0.129436,-0.500153 -0.160947,-1.017963 -0.09301,-1.528543 0.02968,-0.184276 0.08218,-0.36473 0.15644,-0.53775 0.522166,-1.260655 1.873033,-4.591542 1.873033,-4.591542 l 0.399552,-2.166749 0.02325,-1.158229 c 0.08373,-0.44364 0.479806,-0.777814 0.961884,-0.811547 0.858297,-0.08667 2.185907,-0.271828 2.185907,-0.271828 0,0 1.550487,1.566347 8.998224,3.29581 0.0088,0.0017 0.01618,0.0078 0.01902,0.01575 0.139069,0.389254 0.30212,0.770712 0.488341,1.142469 0.03761,0.06507 0.05309,0.139268 0.04439,0.212735 l -0.820245,7.451655 c 0,0 -0.832928,2.089929 0.329789,3.305278 0.463742,0.345509 1.0292,0.551588 1.621463,0.590934 0.763167,0.05516 1.57284,0.03348 1.57284,0.03348 0,0 1.021078,-0.242282 1.221911,-0.984886 0.134033,-0.435404 -0.02906,-0.903027 -0.41217,-1.181846 -0.350935,-0.165461 -1.031654,-0.624419 -1.209232,-1.061708 -0.109876,-0.616936 -0.06575,-1.249165 0.128949,-1.847647 0.211403,-0.996707 1.010507,-4.290168 1.010507,-4.290168 l 0.340359,-1.422177 0.224087,4.321684 0.118391,4.646697 c 0,0 0.118391,1.597486 1.503077,1.926436 0.958306,0.197709 1.95016,0.208444 2.913136,0.03153 0.317104,-0.175313 0.809674,-0.338802 0.858297,-1.105045 -0.07187,-0.307286 -0.177579,-0.809577 -0.716658,-1.049889 -0.340359,-0.03348 -1.562269,-0.350619 -1.644715,-1.006554 0,-0.657905 -0.353043,-5.460213 0.09301,-6.588894 0.164892,-1.268532 0.765277,-4.672301 0.951315,-5.087925 0.186034,-0.415623 0.940742,-3.118152 0.940742,-3.890302 0,-0.772152 -0.257731,-4.760229 -0.553701,-5.366918 -1.469605,-0.306871 -5.061519,-2.515259 -6.612293,-4.161521 z"
     style="fill:#000000;stroke-width:0.999996" />
  <path
     sodipodi:nodetypes="ccccccccccccccccc"
     id="path12"
     d="m 63.159766,48.350569 c 1.544919,-1.936352 4.770497,-6.833613 5.086557,-7.606258 0.209919,-0.514306 0.511828,-1.199259 0.688727,-1.599802 0.102076,-0.227131 0.248908,-0.431116 0.431634,-0.599628 0.436351,-0.398173 1.266596,-1.092604 1.693514,-1.030984 0.424558,0.237008 1.06847,0.616221 1.294903,1.943464 0.0082,0.06134 0.0082,0.123522 0,0.184865 -0.106143,0.891149 -0.50947,2.370076 -0.339647,2.436438 2.397605,2.389965 3.642043,3.875673 6.446735,4.330132 0.221685,0.03218 0.426536,0.137174 0.582588,0.298629 0.426922,0.443203 0.441065,0.32707 0.45522,1.315393 l -0.03305,0.201455 c -0.386816,1.057054 -0.707597,2.111736 -1.179329,2.519389 -0.209918,0.282041 -0.856191,1.369903 -3.356366,1.422048 l -3.236599,-0.1991 c -0.676997,0.444251 -1.787599,0.54551 -2.403423,1.072018 -0.294713,0.227661 -5.539746,-3.473022 -6.131464,-4.688059 z"
     style="fill:#000000;stroke-width:0.999999" />
</svg>
